<svg xmlns="http://www.w3.org/2000/svg" width="505" height="381.675" viewBox="0 0 505 381.675">
  <g id="Grupo_148263" data-name="Grupo 148263" transform="translate(-8306 10116.998)">
    <g id="Grupo_148199" data-name="Grupo 148199" transform="translate(7391 -12057.707)">
      <rect id="Rectángulo_297675" data-name="Rectángulo 297675" width="505" height="381" transform="translate(915 1941)" fill="none"/>
      <g id="Pair_programming-rafiki" data-name="Pair programming-rafiki" transform="translate(904.4 1881.979)">
        <g id="freepik--Shadows--inject-60" transform="translate(56.976 416.578)">
          <g id="freepik--Shadow--inject-214--inject-60">
            <ellipse id="freepik--path--inject-214--inject-60" cx="204.056" cy="11.914" rx="204.056" ry="11.914" fill="#f5f5f5"/>
          </g>
        </g>
        <g id="freepik--background-complete--inject-60" transform="translate(39.6 58.73)">
          <path id="Trazado_207231" data-name="Trazado 207231" d="M248.824,356.358H45.609a6.02,6.02,0,0,1-6.009-6.009V64.687a6.02,6.02,0,0,1,6.009-5.957H248.824a6.009,6.009,0,0,1,6,6.009h0V350.349A6.009,6.009,0,0,1,248.824,356.358ZM45.609,58.94a5.757,5.757,0,0,0-5.746,5.746V350.349a5.757,5.757,0,0,0,5.746,5.746H248.824a5.746,5.746,0,0,0,5.736-5.746V64.687a5.746,5.746,0,0,0-5.736-5.746Z" transform="translate(-39.6 -58.73)" fill="#e6e6e6"/>
          <path id="Trazado_207232" data-name="Trazado 207232" d="M465.124,356.358H261.9a6.009,6.009,0,0,1-6-6.009V64.687a6.009,6.009,0,0,1,6-5.957H465.124a6.009,6.009,0,0,1,6,5.957V350.349A6.009,6.009,0,0,1,465.124,356.358ZM261.9,58.94a5.746,5.746,0,0,0-5.736,5.746V350.349A5.746,5.746,0,0,0,261.9,356.1H465.124a5.767,5.767,0,0,0,5.757-5.746V64.687a5.767,5.767,0,0,0-5.757-5.746Z" transform="translate(-28.259 -58.73)" fill="#e6e6e6"/>
          <rect id="Rectángulo_297598" data-name="Rectángulo 297598" width="43.371" height="0.263" transform="translate(14.934 350.966)" fill="#e0e0e0"/>
          <rect id="Rectángulo_297599" data-name="Rectángulo 297599" width="43.497" height="0.263" transform="translate(103.212 348.861)" fill="#e0e0e0"/>
          <rect id="Rectángulo_297600" data-name="Rectángulo 297600" width="10.524" height="0.263" transform="translate(192.785 348.861)" fill="#e0e0e0"/>
          <rect id="Rectángulo_297601" data-name="Rectángulo 297601" width="48.675" height="0.263" transform="translate(49.443 357.848)" fill="#e0e0e0"/>
          <rect id="Rectángulo_297602" data-name="Rectángulo 297602" width="22.733" height="0.263" transform="translate(243.744 350.829)" fill="#e0e0e0"/>
          <rect id="Rectángulo_297603" data-name="Rectángulo 297603" width="29.394" height="0.263" transform="translate(275.843 350.829)" fill="#e0e0e0"/>
          <rect id="Rectángulo_297604" data-name="Rectángulo 297604" width="65.714" height="0.263" transform="translate(381.286 355.281)" fill="#e0e0e0"/>
          <rect id="Rectángulo_297605" data-name="Rectángulo 297605" width="50.106" height="35.014" transform="translate(342.283 58.41)" fill="#e6e6e6"/>
          <rect id="Rectángulo_297606" data-name="Rectángulo 297606" width="22.596" height="35.014" transform="translate(342.283 58.41)" fill="#f0f0f0"/>
          <path id="Trazado_207233" data-name="Trazado 207233" d="M375.922,118.74a7.462,7.462,0,1,1-7.462,7.462A7.462,7.462,0,0,1,375.922,118.74Z" transform="translate(-22.357 -55.583)" fill="#e0e0e0" opacity="0.4"/>
          <path id="Trazado_207234" data-name="Trazado 207234" d="M379.363,139.841a3.641,3.641,0,1,1-3.641-3.641h0a3.631,3.631,0,0,1,3.641,3.641Z" transform="translate(-22.167 -54.668)" fill="#e0e0e0"/>
          <circle id="Elipse_5459" data-name="Elipse 5459" cx="2.126" cy="2.126" r="2.126" transform="translate(351.387 68.998)" fill="#fafafa"/>
          <rect id="Rectángulo_297607" data-name="Rectángulo 297607" width="21.67" height="47.57" transform="translate(263.75 45.865)" fill="#f0f0f0"/>
          <rect id="Rectángulo_297608" data-name="Rectángulo 297608" width="28.752" height="47.57" transform="translate(284.82 45.865)" fill="#e6e6e6"/>
          <path id="Trazado_207235" data-name="Trazado 207235" d="M300.579,116.66a3.01,3.01,0,1,1-3,3,3.01,3.01,0,0,1,3-3Z" transform="translate(-26.073 -55.693)" fill="#fff"/>
          <path id="Trazado_207236" data-name="Trazado 207236" d="M300.505,112.21a1.5,1.5,0,1,1-1.5,1.5,1.5,1.5,0,0,1,1.5-1.5Z" transform="translate(-25.999 -55.926)" fill="#fff"/>
          <path id="Trazado_207237" data-name="Trazado 207237" d="M300.505,107.89a1.5,1.5,0,1,1-1.5,1.5A1.5,1.5,0,0,1,300.505,107.89Z" transform="translate(-25.999 -56.152)" fill="#fff"/>
          <rect id="Rectángulo_297609" data-name="Rectángulo 297609" width="48.833" height="0.747" transform="translate(264.234 72.544)" fill="#e0e0e0"/>
          <rect id="Rectángulo_297610" data-name="Rectángulo 297610" width="48.833" height="0.747" transform="translate(264.234 76.765)" fill="#e0e0e0"/>
          <rect id="Rectángulo_297611" data-name="Rectángulo 297611" width="48.833" height="0.747" transform="translate(264.234 80.985)" fill="#e0e0e0"/>
          <rect id="Rectángulo_297612" data-name="Rectángulo 297612" width="48.833" height="0.747" transform="translate(264.234 85.205)" fill="#e0e0e0"/>
          <rect id="Rectángulo_297613" data-name="Rectángulo 297613" width="48.833" height="0.747" transform="translate(264.234 89.425)" fill="#e0e0e0"/>
          <rect id="Rectángulo_297614" data-name="Rectángulo 297614" width="2.063" height="2.063" transform="translate(272.959 73.828)" fill="#e0e0e0"/>
          <rect id="Rectángulo_297615" data-name="Rectángulo 297615" width="2.063" height="2.063" transform="translate(272.959 78.269)" fill="#e0e0e0"/>
          <rect id="Rectángulo_297616" data-name="Rectángulo 297616" width="2.063" height="2.063" transform="translate(272.959 82.269)" fill="#e0e0e0"/>
          <rect id="Rectángulo_297617" data-name="Rectángulo 297617" width="2.063" height="2.063" transform="translate(272.959 86.584)" fill="#e0e0e0"/>
          <rect id="Rectángulo_297618" data-name="Rectángulo 297618" width="2.063" height="2.063" transform="translate(272.959 90.772)" fill="#e0e0e0"/>
          <path id="Trazado_207238" data-name="Trazado 207238" d="M250.922,194.417H249.87v-40.3a8.219,8.219,0,0,1,8.209-8.209h34.73v1.052h-34.73a7.167,7.167,0,0,0-7.157,7.157Z" transform="translate(-28.575 -54.159)" fill="#e0e0e0"/>
          <path id="Trazado_207239" data-name="Trazado 207239" d="M248.922,194.592H247.87V153.926a9.967,9.967,0,0,1,9.956-9.956h35.088v1.052H257.826a8.914,8.914,0,0,0-8.9,8.9Z" transform="translate(-28.68 -54.261)" fill="#e0e0e0"/>
          <rect id="Rectángulo_297619" data-name="Rectángulo 297619" width="32.952" height="35.078" transform="translate(72.05 39.224)" fill="#e6e6e6"/>
          <rect id="Rectángulo_297620" data-name="Rectángulo 297620" width="8.441" height="35.078" transform="translate(105.001 39.224)" fill="#f5f5f5"/>
          <rect id="Rectángulo_297621" data-name="Rectángulo 297621" width="24.753" height="40.487" transform="translate(63.409 33.815)" fill="#e6e6e6"/>
          <rect id="Rectángulo_297622" data-name="Rectángulo 297622" width="7.157" height="40.487" transform="translate(88.152 33.815)" fill="#f5f5f5"/>
          <rect id="Rectángulo_297623" data-name="Rectángulo 297623" width="20.87" height="35.078" transform="translate(59.999 39.224)" fill="#ebebeb"/>
          <rect id="Rectángulo_297624" data-name="Rectángulo 297624" width="4.768" height="35.078" transform="translate(80.869 39.224)" fill="#f5f5f5"/>
          <rect id="Rectángulo_297625" data-name="Rectángulo 297625" width="27.374" height="29.142" transform="translate(36.414 45.16)" fill="#e6e6e6"/>
          <rect id="Rectángulo_297626" data-name="Rectángulo 297626" width="7.009" height="29.142" transform="translate(63.788 45.16)" fill="#f5f5f5"/>
          <rect id="Rectángulo_297627" data-name="Rectángulo 297627" width="20.565" height="33.636" transform="translate(29.237 40.666)" fill="#e6e6e6"/>
          <rect id="Rectángulo_297628" data-name="Rectángulo 297628" width="5.946" height="33.636" transform="translate(49.791 40.666)" fill="#f5f5f5"/>
          <rect id="Rectángulo_297629" data-name="Rectángulo 297629" width="19.975" height="29.142" transform="translate(23.764 45.16)" fill="#e6e6e6"/>
          <rect id="Rectángulo_297630" data-name="Rectángulo 297630" width="3.957" height="29.142" transform="translate(43.75 45.16)" fill="#f0f0f0"/>
          <rect id="Rectángulo_297631" data-name="Rectángulo 297631" width="214.696" height="10.156" transform="translate(215.117 84.437) rotate(180)" fill="#e6e6e6"/>
          <path id="Trazado_207240" data-name="Trazado 207240" d="M76.61,139.19H88.481L79.83,152.251H76.61Z" transform="translate(-37.659 -54.511)" fill="#e0e0e0"/>
          <rect id="Rectángulo_297632" data-name="Rectángulo 297632" width="1.715" height="13.061" transform="translate(37.235 84.679)" fill="#e0e0e0"/>
          <path id="Trazado_207241" data-name="Trazado 207241" d="M203.31,139.19h11.882l-8.651,13.061H203.31Z" transform="translate(-31.016 -54.511)" fill="#e0e0e0"/>
          <rect id="Rectángulo_297633" data-name="Rectángulo 297633" width="1.715" height="13.061" transform="translate(170.589 84.679)" fill="#e0e0e0"/>
          <rect id="Rectángulo_297634" data-name="Rectángulo 297634" width="214.696" height="10.156" transform="translate(227.989 93.435)" fill="#e6e6e6"/>
          <path id="Trazado_207242" data-name="Trazado 207242" d="M424.222,170.441h-3.231L412.34,157.38h11.882Z" transform="translate(-20.056 -53.557)" fill="#e0e0e0"/>
          <rect id="Rectángulo_297635" data-name="Rectángulo 297635" width="1.715" height="13.061" transform="translate(404.166 103.823)" fill="#e0e0e0"/>
          <path id="Trazado_207243" data-name="Trazado 207243" d="M297.512,170.441h-3.231L285.63,157.38h11.882Z" transform="translate(-26.7 -53.557)" fill="#e0e0e0"/>
          <rect id="Rectángulo_297636" data-name="Rectángulo 297636" width="1.715" height="13.061" transform="translate(270.812 103.823)" fill="#e0e0e0"/>
          <path id="Trazado_207244" data-name="Trazado 207244" d="M199.142,110.888a15.187,15.187,0,0,0-.663-4.452l3.9-3.431-2.452-4.262-4.925,1.673a15.365,15.365,0,0,0-7.714-4.462l-1.052-5.094h-4.915l-1.052,5.094a15.334,15.334,0,0,0-7.7,4.462l-4.936-1.673-2.452,4.262,3.9,3.431a15.282,15.282,0,0,0,0,8.9l-3.9,3.431,2.452,4.262,4.936-1.673a15.334,15.334,0,0,0,7.7,4.462l1.052,5.094h4.915l1.052-5.094a15.365,15.365,0,0,0,7.714-4.462l4.925,1.673,2.452-4.262-3.9-3.431A15.187,15.187,0,0,0,199.142,110.888Zm-15.323,8.272a7.967,7.967,0,1,1,7.967-7.967,7.967,7.967,0,0,1-7.967,7.967Z" transform="translate(-33.015 -57.045)" fill="#f0f0f0"/>
          <path id="Trazado_207245" data-name="Trazado 207245" d="M223.8,112.693a9.725,9.725,0,0,0-1.894-2.273l1.052-3.273-2.842-1.547-2.2,2.631a10.009,10.009,0,0,0-5.852.147l-2.326-2.5-2.768,1.684,1.179,3.21a10.177,10.177,0,0,0-2.8,5.157l-3.336.758.084,3.231,3.378.589a10.135,10.135,0,0,0,3.052,5l-1.052,3.273,2.842,1.547,2.2-2.631a10.219,10.219,0,0,0,5.862-.147l2.326,2.5,2.757-1.684-1.179-3.22a10.146,10.146,0,0,0,2.8-5.146l3.336-.758L228.331,116l-3.368-.579a9.7,9.7,0,0,0-1.168-2.726Zm-5.757,9.914a5.262,5.262,0,1,1,1.737-7.22,5.262,5.262,0,0,1-1.737,7.22Z" transform="translate(-31.084 -56.272)" fill="#f0f0f0"/>
        </g>
        <g id="freepik--Desk--inject-60" transform="translate(46.925 284.361)">
          <g id="freepik--Group--inject-60">
            <rect id="Rectángulo_297637" data-name="Rectángulo 297637" width="428.993" height="5.399" fill="#084a93"/>
            <path id="Trazado_207246" data-name="Trazado 207246" d="M70.84,276.8V405.555h3.347L78.4,276.8Z" transform="translate(-45.287 -272.927)" fill="#084a93"/>
            <path id="Trazado_207247" data-name="Trazado 207247" d="M108.38,280.8V400.083h3.347l4.21-119.283Z" transform="translate(-43.319 -272.717)" fill="#084a93"/>
            <path id="Trazado_207248" data-name="Trazado 207248" d="M108.38,280.8V400.083h3.347l4.21-119.283Z" transform="translate(-43.319 -272.717)" opacity="0.5"/>
            <path id="Trazado_207249" data-name="Trazado 207249" d="M431.726,276.8V405.555H428.39L424.17,276.8Z" transform="translate(-26.761 -272.927)" fill="#084a93"/>
            <path id="Trazado_207250" data-name="Trazado 207250" d="M394.186,280.8V400.083H390.84L386.63,280.8Z" transform="translate(-28.729 -272.717)" fill="#084a93"/>
            <path id="Trazado_207251" data-name="Trazado 207251" d="M394.186,280.8V400.083H390.84L386.63,280.8Z" transform="translate(-28.729 -272.717)" opacity="0.5"/>
            <path id="Trazado_207252" data-name="Trazado 207252" d="M458.711,284.028H63.775L55.04,278.25H467.447Z" transform="translate(-46.115 -272.851)" fill="#084a93"/>
            <path id="Trazado_207253" data-name="Trazado 207253" d="M458.711,284.028H63.775L55.04,278.25H467.447Z" transform="translate(-46.115 -272.851)" opacity="0.5"/>
          </g>
        </g>
        <g id="freepik--Beverages--inject-60" transform="translate(72.646 263.502)">
          <path id="Trazado_207254" data-name="Trazado 207254" d="M73.35,257.56v4.21a2.642,2.642,0,0,0,.769,1.863l3.336,3.336a2.652,2.652,0,0,0,1.052.642,8.567,8.567,0,0,0,7.767,4.957h1.252a8.556,8.556,0,0,0,8.609-8.609V254.14h-18.4v.8H75.981a2.631,2.631,0,0,0-2.631,2.621Zm2.1,0a.516.516,0,0,1,.526-.516h1.758v7.2l-2.1-2.1a.5.5,0,0,1-.158-.368Z" transform="translate(-70.877 -253.256)" fill="#084a93"/>
          <path id="Trazado_207255" data-name="Trazado 207255" d="M73.35,257.56v4.21a2.642,2.642,0,0,0,.769,1.863l3.336,3.336a2.652,2.652,0,0,0,1.052.642,8.567,8.567,0,0,0,7.767,4.957h1.252a8.556,8.556,0,0,0,8.609-8.609V254.14h-18.4v.8H75.981a2.631,2.631,0,0,0-2.631,2.621Zm2.1,0a.516.516,0,0,1,.526-.516h1.758v7.2l-2.1-2.1a.5.5,0,0,1-.158-.368Z" transform="translate(-70.877 -253.256)" fill="#fff" opacity="0.5"/>
          <path id="Trazado_207256" data-name="Trazado 207256" d="M100.615,273.078H74.157A4.872,4.872,0,0,1,71,271.52h32.731A4.841,4.841,0,0,1,100.615,273.078Z" transform="translate(-71 -252.344)" fill="#084a93"/>
          <path id="Trazado_207257" data-name="Trazado 207257" d="M100.615,273.078H74.157A4.872,4.872,0,0,1,71,271.52h32.731A4.841,4.841,0,0,1,100.615,273.078Z" transform="translate(-71 -252.344)" fill="#fff" opacity="0.5"/>
          <path id="Trazado_207258" data-name="Trazado 207258" d="M438.515,261.151c-.137-4.21-3.315-5.2-7.462-5.673v-1.526a.674.674,0,0,0-.684-.653H416.035a.674.674,0,0,0-.695.653h0v19.9h15.723v-2.178C435.21,271.212,438.388,265.34,438.515,261.151Zm-7.462,7.956V258.057c3.052.442,5.157.863,4.7,3.915C435.4,264.414,433.484,268.771,431.053,269.108Z" transform="translate(-52.945 -253.3)" fill="#084a93"/>
          <g id="Grupo_148197" data-name="Grupo 148197" transform="translate(362.395)" opacity="0.5">
            <path id="Trazado_207259" data-name="Trazado 207259" d="M438.515,261.151c-.137-4.21-3.315-5.2-7.462-5.673v-1.526a.674.674,0,0,0-.684-.653H416.035a.674.674,0,0,0-.695.653h0v19.9h15.723v-2.178C435.21,271.212,438.388,265.34,438.515,261.151Zm-7.462,7.956V258.057c3.052.442,5.157.863,4.7,3.915C435.4,264.414,433.484,268.771,431.053,269.108Z" transform="translate(-415.34 -253.3)" fill="#fff"/>
          </g>
        </g>
        <g id="freepik--Device--inject-60" transform="translate(205.221 199.03)">
          <rect id="Rectángulo_297638" data-name="Rectángulo 297638" width="12.408" height="25.206" transform="translate(49.601 59.662)" fill="#084a93"/>
          <rect id="Rectángulo_297639" data-name="Rectángulo 297639" width="12.408" height="25.206" transform="translate(49.601 59.662)" fill="#fff" opacity="0.5"/>
          <path id="Trazado_207260" data-name="Trazado 207260" d="M262.391,273.361H238.88l5.736-5.041h12.04Z" transform="translate(-194.773 -188.04)" fill="#084a93"/>
          <path id="Trazado_207261" data-name="Trazado 207261" d="M262.391,273.361H238.88l5.736-5.041h12.04Z" transform="translate(-194.773 -188.04)" fill="#fff" opacity="0.5"/>
          <path id="Trazado_207262" data-name="Trazado 207262" d="M313.258,265.36H254.49l10.619,8.188h58.757Z" transform="translate(-193.954 -188.196)" fill="#084a93"/>
          <path id="Trazado_207263" data-name="Trazado 207263" d="M313.258,265.36H254.49l10.619,8.188h58.757Z" transform="translate(-193.954 -188.196)" fill="#fff" opacity="0.4"/>
          <path id="Trazado_207264" data-name="Trazado 207264" d="M255.848,273.548l-1.358-8.188,10.619,8.188Z" transform="translate(-193.954 -188.196)" fill="#084a93"/>
          <path id="Trazado_207265" data-name="Trazado 207265" d="M255.848,273.548l-1.358-8.188,10.619,8.188Z" transform="translate(-193.954 -188.196)" opacity="0.5"/>
          <rect id="Rectángulo_297640" data-name="Rectángulo 297640" width="111.021" height="69.65" rx="1.93" transform="translate(0 0)" fill="#084a93"/>
          <rect id="Rectángulo_297641" data-name="Rectángulo 297641" width="102.844" height="60.694" transform="translate(4.031 4.357)" opacity="0.5"/>
          <rect id="Rectángulo_297642" data-name="Rectángulo 297642" width="51.896" height="35.73" transform="translate(51.706 16.839)" opacity="0.4"/>
          <rect id="Rectángulo_297643" data-name="Rectángulo 297643" width="51.896" height="3.273" transform="translate(51.706 16.839)" fill="#084a93"/>
          <path id="Trazado_207266" data-name="Trazado 207266" d="M255.357,227.189l8.483,4.694a2.736,2.736,0,0,1,.852.642,1.2,1.2,0,0,1,.211.716,1.337,1.337,0,0,1-.4.958,1.263,1.263,0,0,1-.916.4,2.348,2.348,0,0,1-1.052-.389l-10.945-6.083a1.052,1.052,0,0,1,0-1.884l10.945-6.083a2.389,2.389,0,0,1,1.052-.368,1.253,1.253,0,0,1,.926.389,1.3,1.3,0,0,1,.4.947,1.179,1.179,0,0,1-.211.716,2.736,2.736,0,0,1-.852.642Z" transform="translate(-194.137 -190.585)" fill="#fff"/>
          <path id="Trazado_207267" data-name="Trazado 207267" d="M276.434,218.6,268.015,236.7a2.789,2.789,0,0,1-.579.884,1.242,1.242,0,0,1-.8.263,1.274,1.274,0,0,1-.926-.379,1.189,1.189,0,0,1-.4-.873,2.641,2.641,0,0,1,.316-1.052l8.419-18.081a2.884,2.884,0,0,1,.558-.874,1.294,1.294,0,0,1,.81-.274,1.252,1.252,0,0,1,.916.379,1.179,1.179,0,0,1,.379.863A2.577,2.577,0,0,1,276.434,218.6Z" transform="translate(-193.387 -190.767)" fill="#fff"/>
          <path id="Trazado_207268" data-name="Trazado 207268" d="M286.386,227.189l-8.483-4.7a3.021,3.021,0,0,1-.852-.642,1.179,1.179,0,0,1-.211-.716,1.348,1.348,0,0,1,1.337-1.337,2.442,2.442,0,0,1,1.052.368l10.945,6.083a1.052,1.052,0,0,1,0,1.884l-10.945,6.083a2.41,2.41,0,0,1-1.052.389,1.263,1.263,0,0,1-.947-.41,1.326,1.326,0,0,1-.389-.947,1.2,1.2,0,0,1,.21-.716,3.021,3.021,0,0,1,.852-.642Z" transform="translate(-192.782 -190.585)" fill="#fff"/>
          <rect id="Rectángulo_297644" data-name="Rectángulo 297644" width="3.515" height="3.515" transform="translate(8.251 9.956)" fill="#fff"/>
          <rect id="Rectángulo_297645" data-name="Rectángulo 297645" width="3.515" height="3.515" transform="translate(8.251 19.06)" fill="#fff"/>
          <rect id="Rectángulo_297646" data-name="Rectángulo 297646" width="3.515" height="3.515" transform="translate(8.251 28.153)" fill="#fff"/>
          <rect id="Rectángulo_297647" data-name="Rectángulo 297647" width="3.515" height="3.515" transform="translate(8.251 37.246)" fill="#fff"/>
          <rect id="Rectángulo_297648" data-name="Rectángulo 297648" width="3.515" height="3.515" transform="translate(8.251 46.339)" fill="#fff"/>
          <rect id="Rectángulo_297649" data-name="Rectángulo 297649" width="3.515" height="3.515" transform="translate(8.251 55.432)" fill="#fff"/>
          <rect id="Rectángulo_297650" data-name="Rectángulo 297650" width="14.008" height="1.052" transform="translate(15.102 10.756)" fill="#fff"/>
          <rect id="Rectángulo_297651" data-name="Rectángulo 297651" width="4.989" height="1.052" transform="translate(18.365 19.87)" fill="#fff"/>
          <rect id="Rectángulo_297652" data-name="Rectángulo 297652" width="4.989" height="1.052" transform="translate(40.077 30.1)" fill="#fff"/>
          <rect id="Rectángulo_297653" data-name="Rectángulo 297653" width="4.989" height="1.052" transform="translate(18.365 38.214)" fill="#fff"/>
          <rect id="Rectángulo_297654" data-name="Rectángulo 297654" width="4.989" height="1.052" transform="translate(25.553 38.214)" fill="#fff"/>
          <rect id="Rectángulo_297655" data-name="Rectángulo 297655" width="12.745" height="1.052" transform="translate(25.553 30.1)" fill="#fff"/>
          <rect id="Rectángulo_297656" data-name="Rectángulo 297656" width="8.388" height="1.052" transform="translate(32.983 38.214)" fill="#fff"/>
          <rect id="Rectángulo_297657" data-name="Rectángulo 297657" width="4.989" height="1.052" transform="translate(32.952 57.715)" fill="#fff"/>
          <rect id="Rectángulo_297658" data-name="Rectángulo 297658" width="4.989" height="1.052" transform="translate(40.15 57.715)" fill="#fff"/>
          <rect id="Rectángulo_297659" data-name="Rectángulo 297659" width="2.789" height="1.052" transform="translate(47.57 57.715)" fill="#fff"/>
          <rect id="Rectángulo_297660" data-name="Rectángulo 297660" width="15.523" height="1.052" transform="translate(25.848 19.87)" fill="#fff"/>
          <rect id="Rectángulo_297661" data-name="Rectángulo 297661" width="4.989" height="1.052" transform="translate(25.553 47.717)" fill="#fff"/>
          <rect id="Rectángulo_297662" data-name="Rectángulo 297662" width="2.884" height="1.052" transform="translate(32.215 47.717)" fill="#fff"/>
          <rect id="Rectángulo_297663" data-name="Rectángulo 297663" width="8.146" height="1.052" transform="translate(37.298 47.717)" fill="#fff"/>
        </g>
        <g id="freepik--speech-code--inject-60" transform="translate(193.255 147.731)">
          <path id="Trazado_207269" data-name="Trazado 207269" d="M244.368,165.612c-.263,12.734-13.492,23.417-29.563,23.838a34.067,34.067,0,0,1-14.4-2.663c-1.621,4-5.031,7.43-14.808,8.967,10.2-7.883,4.62-14.555,2.294-20.417h0a18.523,18.523,0,0,1-1.758-8.188c.263-12.745,13.492-23.406,29.563-23.838S244.62,152.877,244.368,165.612Z" transform="translate(-185.6 -143.297)" fill="#084a93"/>
          <rect id="Rectángulo_297664" data-name="Rectángulo 297664" width="14.008" height="1.052" transform="translate(15.986 8.98)" fill="#fff"/>
          <rect id="Rectángulo_297665" data-name="Rectángulo 297665" width="4.989" height="1.052" transform="translate(19.249 18.105)" fill="#fff"/>
          <rect id="Rectángulo_297666" data-name="Rectángulo 297666" width="4.989" height="1.052" transform="translate(40.961 28.334)" fill="#fff"/>
          <rect id="Rectángulo_297667" data-name="Rectángulo 297667" width="4.989" height="1.052" transform="translate(19.249 36.449)" fill="#fff"/>
          <rect id="Rectángulo_297668" data-name="Rectángulo 297668" width="4.989" height="1.052" transform="translate(26.448 36.449)" fill="#fff"/>
          <rect id="Rectángulo_297669" data-name="Rectángulo 297669" width="12.745" height="1.052" transform="translate(26.448 28.334)" fill="#fff"/>
          <rect id="Rectángulo_297670" data-name="Rectángulo 297670" width="8.388" height="1.052" transform="translate(33.867 36.449)" fill="#fff"/>
          <rect id="Rectángulo_297671" data-name="Rectángulo 297671" width="15.523" height="1.052" transform="translate(26.742 18.105)" fill="#fff"/>
        </g>
        <g id="freepik--character-2--inject-60" transform="translate(256.094 171.516)">
          <path id="Trazado_207270" data-name="Trazado 207270" d="M299.552,394.8l-7.672-2.294,1.789-18.807,7.672,2.294Z" transform="translate(-242.866 -155.001)" fill="#7f3e3b"/>
          <path id="Trazado_207271" data-name="Trazado 207271" d="M301.9,371.954l-7.672-2.284-1,10.535,7.756,1.442Z" transform="translate(-242.795 -155.212)" opacity="0.2"/>
          <path id="Trazado_207272" data-name="Trazado 207272" d="M344.965,283.38s-52.759,4.452-51.464,27.363c1.052,18.754,3.841,13.682-1.621,69.461l13.271.737s13.5-45.612,11.682-63.735c14.871,0,48.917,1.3,53.864-12.114a59.735,59.735,0,0,0,3.526-21.259Z" transform="translate(-242.866 -159.737)" fill="#084a93"/>
          <path id="Trazado_207273" data-name="Trazado 207273" d="M307.354,379.01l-17.344-2.968.284-7.672,17.954,3.989Z" transform="translate(-242.964 -155.281)" fill="#263238"/>
          <path id="Trazado_207274" data-name="Trazado 207274" d="M291.887,388.571l8.862,1.758a.663.663,0,0,1,.505.737l-.737,8.419a1.494,1.494,0,0,1-1.621,1.389c-3.073-.674-4.525-1.168-8.419-1.947-2.4-.474-7.883-1.621-11.219-2s-2.936-4.273-1.494-4.473c6.483-.852,10.167-1.9,12.682-3.526A1.968,1.968,0,0,1,291.887,388.571Z" transform="translate(-243.662 -154.222)" fill="#263238"/>
          <path id="Trazado_207275" data-name="Trazado 207275" d="M287.43,390.108a10.043,10.043,0,0,0,2.1.063.158.158,0,0,0,.158-.116.221.221,0,0,0,0-.2c-.221-.221-2.21-2.1-3.231-1.894a.652.652,0,0,0-.516.442,1.052,1.052,0,0,0,.063,1.052,2.1,2.1,0,0,0,1.421.652Zm1.694-.284c-1.463,0-2.494-.168-2.8-.6a.642.642,0,0,1,0-.674.337.337,0,0,1,.242-.232c.495-.105,1.737.737,2.6,1.515Z" transform="translate(-243.183 -154.254)" fill="#084a93"/>
          <path id="Trazado_207276" data-name="Trazado 207276" d="M289.432,390.258h.084a.21.21,0,0,0,.126-.137c0-.095.579-2.336-.095-3.231a.9.9,0,0,0-.737-.389.705.705,0,0,0-.758.442c-.326.831.579,2.673,1.284,3.273A.116.116,0,0,0,289.432,390.258Zm-.547-3.378a.621.621,0,0,1,.368.232,4.21,4.21,0,0,1,.095,2.589,3.736,3.736,0,0,1-.947-2.621c0-.105.116-.221.389-.211Z" transform="translate(-243.07 -154.33)" fill="#084a93"/>
          <path id="Trazado_207277" data-name="Trazado 207277" d="M267.034,397.591l-7.3-3.284,5.052-18.018,7.3,3.284Z" transform="translate(-244.552 -154.865)" fill="#7f3e3b"/>
          <path id="Trazado_207278" data-name="Trazado 207278" d="M273.133,375.164l-7.3-3.284-2.6,9.293,7.3,3.284Z" transform="translate(-244.368 -155.097)" opacity="0.2"/>
          <path id="Trazado_207279" data-name="Trazado 207279" d="M330.826,283.38c-.347,0-59.147,6.051-59.22,26-.126,32.983-9.546,70.787-9.546,70.787l11.577,5.757s20.238-40.982,19.933-66.693c16.176-4.641,58.021,3.157,62.967-10.251,4.052-10.966,1.863-25.6,1.863-25.6Z" transform="translate(-244.43 -159.737)" fill="#084a93"/>
          <path id="Trazado_207280" data-name="Trazado 207280" d="M275.636,383.067l-15.576-7.009,1.252-6.378,16.428,5.673Z" transform="translate(-244.535 -155.212)" fill="#263238"/>
          <path id="Trazado_207281" data-name="Trazado 207281" d="M261.212,387.662l8.883,1.842a.737.737,0,0,1,.495.821l-.695,9.209c-.126,1-.842,1.684-1.61,1.526h0c-3.073-.705-4.525-1.252-8.419-2.1-2.4-.484-8.935-2.1-12.229-2.936s-2.557-5.052-1.052-5.083c6.515-.095,10.735-1.158,13.24-2.978A1.768,1.768,0,0,1,261.212,387.662Z" transform="translate(-245.308 -154.271)" fill="#263238"/>
          <path id="Trazado_207282" data-name="Trazado 207282" d="M257.113,389.631a10.406,10.406,0,0,0,1.737-1.2.211.211,0,0,0,.063-.2.179.179,0,0,0-.158-.126c-.305,0-3.02-.4-3.726.389a.716.716,0,0,0-.147.663,1.052,1.052,0,0,0,.674.81A2.2,2.2,0,0,0,257.113,389.631ZM258.3,388.4c-1.147.895-2.1,1.326-2.6,1.179a.705.705,0,0,1-.41-.558.316.316,0,0,1,.074-.316c.316-.379,1.747-.41,2.884-.305Z" transform="translate(-244.808 -154.251)" fill="#084a93"/>
          <path id="Trazado_207283" data-name="Trazado 207283" d="M258.755,388.551l.074-.053a.158.158,0,0,0,0-.179c-.053-.074-.926-2.231-1.989-2.557a.937.937,0,0,0-.821.126.705.705,0,0,0-.347.81c.221.874,2.042,1.81,2.978,1.873Zm-2.452-2.4a.547.547,0,0,1,.442,0,4.21,4.21,0,0,1,1.621,2.031,3.747,3.747,0,0,1-2.326-1.547c-.063-.084,0-.253.189-.4Z" transform="translate(-244.766 -154.371)" fill="#084a93"/>
          <path id="Trazado_207284" data-name="Trazado 207284" d="M347.823,222.92c1.547,3.326,2.82,6.525,4.094,9.851s2.4,6.651,3.441,10.061,1.947,6.9,2.673,10.524a54.894,54.894,0,0,1,1.179,11.44,23.488,23.488,0,0,1-1,6.662,15.216,15.216,0,0,1-1.758,3.747,13.132,13.132,0,0,1-1.505,1.831l-.453.442c-.253.211-.526.442-.789.621a8.74,8.74,0,0,1-1.41.779,12.416,12.416,0,0,1-2.273.726,16.226,16.226,0,0,1-1.863.274,27.221,27.221,0,0,1-3.21,0,46.313,46.313,0,0,1-5.662-.631,107.6,107.6,0,0,1-20.428-5.852l1.526-5.8c6.683.8,13.5,1.652,19.933,1.947,1.6,0,3.157.074,4.61,0a15.045,15.045,0,0,0,1.926-.242c.526-.095.979-.284.821-.274a.967.967,0,0,0-.295.147,1.538,1.538,0,0,0-.295.221h0a1.642,1.642,0,0,0,.095-.179,5.167,5.167,0,0,0,.316-.937,15.155,15.155,0,0,0,.284-3.515,47.361,47.361,0,0,0-1.337-8.935c-.716-3.157-1.642-6.23-2.652-9.356s-2.1-6.251-3.3-9.367-2.463-6.241-3.7-9.177Z" transform="translate(-241.452 -162.907)" fill="#7f3e3b"/>
          <path id="Trazado_207285" data-name="Trazado 207285" d="M323.592,267.066l-6.978-3.926-3.5,7.556s8.156,3.4,9.872,1.273Z" transform="translate(-241.753 -160.798)" fill="#7f3e3b"/>
          <path id="Trazado_207286" data-name="Trazado 207286" d="M311.229,264.574l-3.189,5.052,5.336,1.021,3.5-7.556Z" transform="translate(-242.019 -160.801)" fill="#7f3e3b"/>
          <path id="Trazado_207287" data-name="Trazado 207287" d="M334.016,228.851c-1.337,3.357-2.736,6.567-4.21,9.819s-2.947,6.451-4.5,9.651a185.787,185.787,0,0,1-10.524,18.944c-1.052,1.558-2.1,3.1-3.284,4.652-.589.779-1.242,1.547-1.936,2.336-.379.4-.684.768-1.126,1.179l-.631.61-.358.337a8.966,8.966,0,0,1-3.452,1.831,15.318,15.318,0,0,1-2.042.432,21.481,21.481,0,0,1-3.389.137,43.248,43.248,0,0,1-5.831-.579,107.171,107.171,0,0,1-20.859-5.915l1.537-5.809c6.809.821,13.766,1.694,20.312,1.968a45.356,45.356,0,0,0,4.631-.063,12.2,12.2,0,0,0,1.842-.295,2.843,2.843,0,0,0,.568-.211c.063,0,0-.074-.284.105a1.1,1.1,0,0,0-.284.21l.105-.126.295-.326c.189-.189.421-.505.642-.758.431-.547.873-1.137,1.316-1.779.874-1.252,1.726-2.642,2.568-4.052,1.684-2.82,3.252-5.82,4.789-8.851s3.01-6.125,4.462-9.24c2.894-6.209,5.725-12.629,8.419-18.839Z" transform="translate(-243.915 -162.839)" fill="#7f3e3b"/>
          <path id="Trazado_207288" data-name="Trazado 207288" d="M276.693,266.01,269.7,262l-3.5,7.556s8.156,3.41,9.882,1.284Z" transform="translate(-244.213 -160.858)" fill="#7f3e3b"/>
          <path id="Trazado_207289" data-name="Trazado 207289" d="M264.329,263.524l-3.2,5.041,5.336,1.021,3.5-7.556Z" transform="translate(-244.479 -160.856)" fill="#7f3e3b"/>
          <path id="Trazado_207290" data-name="Trazado 207290" d="M348.857,193.14l-4.462,5.167-6.809,7.041.516,1.273a12.7,12.7,0,0,1,.905,4.083c.158,2.821-.116,5.21-4.568,7.125,0,0-4.673,6.1,6.441,4.41s12.787-7.462,12.787-7.462C348.762,211.273,348.468,199.623,348.857,193.14Z" transform="translate(-240.686 -164.468)" fill="#7f3e3b"/>
          <path id="Trazado_207291" data-name="Trazado 207291" d="M326.642,187.661c0,.695-.347,1.284-.81,1.305s-.831-.526-.842-1.221.358-1.284.81-1.305S326.632,186.966,326.642,187.661Z" transform="translate(-241.13 -164.82)" fill="#263238"/>
          <path id="Trazado_207292" data-name="Trazado 207292" d="M328.934,185.271a.4.4,0,0,1-.337-.189,3.431,3.431,0,0,0-2.547-1.621.421.421,0,0,1-.4-.421.4.4,0,0,1,.421-.4h0a4.21,4.21,0,0,1,3.22,2,.421.421,0,0,1-.126.568A.484.484,0,0,1,328.934,185.271Z" transform="translate(-241.096 -165.019)" fill="#263238"/>
          <path id="Trazado_207293" data-name="Trazado 207293" d="M326.441,188a22.545,22.545,0,0,1-2.421,5.388,3.368,3.368,0,0,0,2.863.21Z" transform="translate(-241.181 -164.738)" fill="#630f0f"/>
          <path id="Trazado_207294" data-name="Trazado 207294" d="M349.911,184.873c-.41,8.588-.221,13.682-4.483,18.228a11.187,11.187,0,0,1-19.175-4.957c-1.936-7.609-.926-20.375,7.367-24.206a11.3,11.3,0,0,1,16.292,10.935Z" transform="translate(-241.108 -165.537)" fill="#7f3e3b"/>
          <path id="Trazado_207295" data-name="Trazado 207295" d="M353.593,187.3a31.8,31.8,0,0,1-5.578,10l-11.177,2.1s-8.83-3.694-6.472-9.777c-1.494-1.263-.937-5.167.116-7.314a4.557,4.557,0,0,0,5.967-.158,4.083,4.083,0,0,0,6.472.537,4.315,4.315,0,0,0,6.8-1.052,3.862,3.862,0,0,0,4.5-.295l.158-.147A15.366,15.366,0,0,1,353.593,187.3Z" transform="translate(-240.896 -165.095)" fill="#263238"/>
          <path id="Trazado_207296" data-name="Trazado 207296" d="M353.593,187.3a31.8,31.8,0,0,1-5.578,10l-11.177,2.1s-8.83-3.694-6.472-9.777c-1.494-1.263-.937-5.167.116-7.314a4.557,4.557,0,0,0,5.967-.158,4.083,4.083,0,0,0,6.472.537,4.315,4.315,0,0,0,6.8-1.052,3.862,3.862,0,0,0,4.5-.295l.158-.147A15.366,15.366,0,0,1,353.593,187.3Z" transform="translate(-240.896 -165.095)" fill="#fff" opacity="0.1"/>
          <path id="Trazado_207297" data-name="Trazado 207297" d="M355.7,177.687a3.883,3.883,0,0,1-.821,4.262l-.158.147a3.862,3.862,0,0,1-4.5.295,4.315,4.315,0,0,1-6.8,1.052,4.083,4.083,0,0,1-6.472-.537,4.557,4.557,0,0,1-5.967.158,3.631,3.631,0,0,1-1.052-1.305,2.447,2.447,0,0,1-.147-.347,2.5,2.5,0,0,1-.295.284,3.252,3.252,0,0,1-3.747.221,3.157,3.157,0,0,1-1.347-2.831,2.918,2.918,0,0,1,.116-.674,1.822,1.822,0,0,1-.316.432,2.631,2.631,0,0,1-3.747-.095,3.252,3.252,0,0,1,1.052-4.589,3.873,3.873,0,0,1,1.979-.526,5.073,5.073,0,0,1,3.02,1.052,3.157,3.157,0,0,1,4.988-3.715,2.747,2.747,0,0,1,1.147-2.863c1.452-.842,3.873-.116,5.052,1.294,0,0,1.621-3.915,4.42-3.473.61.084,3.484,1.358,3.41,2.389a.432.432,0,0,1,0,.2,1.668,1.668,0,0,1,.137-.232,3.157,3.157,0,0,1,2.694-1.273,9.041,9.041,0,0,1,3.242.863c2.178.895,4.494,1.894,5.757,3.883S357.966,177.056,355.7,177.687Z" transform="translate(-241.397 -165.897)" fill="#263238"/>
          <path id="Trazado_207298" data-name="Trazado 207298" d="M335.315,190.224a10.156,10.156,0,0,1-2.778,5.62c-1.9,1.821-3.526,0-3.547-2.768,0-2.5.937-6.472,3.157-7.209S335.736,187.456,335.315,190.224Z" transform="translate(-240.92 -164.857)" fill="#7f3e3b"/>
          <path id="Trazado_207299" data-name="Trazado 207299" d="M369.33,216.75c-.789-2.1-4.473-4.21-6.736-4.21H361.1a81.748,81.748,0,0,0-9.019.579,160.673,160.673,0,0,0-17.891,3.01c-2.715.716-5.336,1.621-7.42,2.4-2.652,1.052-4.21,1.758-4.21,1.758s2.9,19.344,4.41,38.561c.831,10.7.484,21.322.758,28.626h44.9c1.547-8.777,1.305-16.428,1.431-32.278C374.119,245.65,372.572,225.411,369.33,216.75Z" transform="translate(-241.258 -163.451)" fill="#263238"/>
          <path id="Trazado_207300" data-name="Trazado 207300" d="M325.82,247.147c.337,4.031.684,8.262,1.052,12.492,5.262-7.683,8.167-28.7,8.167-28.7Z" transform="translate(-241.087 -162.486)" opacity="0.2"/>
          <path id="Trazado_207301" data-name="Trazado 207301" d="M320.774,221.344c-6.43,3.62-12.734,22.1-12.734,22.1l14.734,11.1c5.62-5.315,13.839-18.5,14.734-23.775C338.939,222.733,331.078,215.577,320.774,221.344Z" transform="translate(-242.019 -163.099)" fill="#263238"/>
          <path id="Trazado_207302" data-name="Trazado 207302" d="M308.516,400.668a4.578,4.578,0,1,1-4.578-4.578A4.578,4.578,0,0,1,308.516,400.668Z" transform="translate(-242.474 -153.827)" fill="#263238"/>
          <path id="Trazado_207303" data-name="Trazado 207303" d="M373,400.668a4.578,4.578,0,1,0,4.578-4.578A4.578,4.578,0,0,0,373,400.668Z" transform="translate(-238.613 -153.827)" fill="#263238"/>
          <path id="Trazado_207304" data-name="Trazado 207304" d="M336.27,399.228a4.578,4.578,0,1,0,4.578-4.578,4.578,4.578,0,0,0-4.578,4.578Z" transform="translate(-240.539 -153.903)" fill="#263238"/>
          <path id="Trazado_207305" data-name="Trazado 207305" d="M341.612,394.121V385.27H328.5a40.9,40.9,0,0,0-7.672.716l-24.417,4.736a2.221,2.221,0,0,0,.495,4.4Z" transform="translate(-242.723 -154.394)" fill="#263238"/>
          <path id="Trazado_207306" data-name="Trazado 207306" d="M339.27,394.121V385.27h13.124a40.736,40.736,0,0,1,7.641.768l27.447,4.378a2.221,2.221,0,0,1-.495,4.4Z" transform="translate(-240.381 -154.394)" fill="#263238"/>
          <rect id="Rectángulo_297672" data-name="Rectángulo 297672" width="16.239" height="40.529" transform="translate(90.764 190.357)" fill="#263238"/>
          <rect id="Rectángulo_297673" data-name="Rectángulo 297673" width="11.577" height="18.849" transform="translate(93.1 171.497)" fill="#263238"/>
          <path id="Trazado_207307" data-name="Trazado 207307" d="M333.77,334.386l11.577,2.915V328.85H333.77Z" transform="translate(-240.67 -157.353)" opacity="0.5"/>
          <rect id="Rectángulo_297674" data-name="Rectángulo 297674" width="5.883" height="25.101" transform="translate(55.581 128.853)" fill="#263238"/>
          <path id="Trazado_207308" data-name="Trazado 207308" d="M331.74,335.34V226.213a14.292,14.292,0,0,1,4.894-10.777l7.777-6.809a14.292,14.292,0,0,1,9.472-3.547h28.089l13.7,14.65V335.34Z" transform="translate(-240.776 -163.842)" fill="#084a93"/>
          <path id="Trazado_207309" data-name="Trazado 207309" d="M292.9,308.79h64.093V329.9H282.447a7.588,7.588,0,0,1-6.525-11.44h0A19.68,19.68,0,0,1,292.9,308.79Z" transform="translate(-243.758 -158.405)" fill="#084a93"/>
          <path id="Trazado_207310" data-name="Trazado 207310" d="M398.657,219.73V335.34H282.447a7.588,7.588,0,0,1-6.525-11.44,19.691,19.691,0,0,1,16.976-9.672h32.278a9.588,9.588,0,0,0,9.588-9.588V226.213a14.292,14.292,0,0,1,4.894-10.777l7.777-6.809a14.292,14.292,0,0,1,9.472-3.547H385Z" transform="translate(-243.758 -163.842)" fill="#fff" opacity="0.7"/>
          <path id="Trazado_207311" data-name="Trazado 207311" d="M340.62,335.34V226.213a14.334,14.334,0,0,1,4.894-10.777l7.777-6.809a14.292,14.292,0,0,1,9.472-3.547h21.9a14.3,14.3,0,0,1,10.44,4.515l5.6,5.946a14.355,14.355,0,0,1,3.884,9.819V324.4a10.924,10.924,0,0,1-10.945,10.935Z" transform="translate(-240.311 -163.842)" fill="#084a93"/>
          <path id="Trazado_207312" data-name="Trazado 207312" d="M340.62,335.34V226.213a14.334,14.334,0,0,1,4.894-10.777l7.777-6.809a14.292,14.292,0,0,1,9.472-3.547h21.9a14.3,14.3,0,0,1,10.44,4.515l5.6,5.946a14.355,14.355,0,0,1,3.884,9.819V324.4a10.924,10.924,0,0,1-10.945,10.935Z" transform="translate(-240.311 -163.842)" fill="#fff" opacity="0.5"/>
          <path id="Trazado_207313" data-name="Trazado 207313" d="M322.263,296.288a60.6,60.6,0,0,0-39.992,0,5.7,5.7,0,0,1-7.041-2.684h0c-1.2-2.536.41-5.82,3.673-6.967a70.8,70.8,0,0,1,46.707,0c3.263,1.137,4.873,4.431,3.673,6.967h0a5.7,5.7,0,0,1-7.02,2.684Z" transform="translate(-243.76 -159.774)" fill="#084a93"/>
          <path id="Trazado_207314" data-name="Trazado 207314" d="M322.263,296.288a60.6,60.6,0,0,0-39.992,0,5.7,5.7,0,0,1-7.041-2.684h0c-1.2-2.536.41-5.82,3.673-6.967a70.8,70.8,0,0,1,46.707,0c3.263,1.137,4.873,4.431,3.673,6.967h0a5.7,5.7,0,0,1-7.02,2.684Z" transform="translate(-243.76 -159.774)" fill="#fff" opacity="0.7"/>
        </g>
        <g id="freepik--character-1--inject-60" transform="translate(107.401 179.368)">
          <g id="freepik--group--inject-60-2" data-name="freepik--group--inject-60">
            <path id="Trazado_207315" data-name="Trazado 207315" d="M164.5,196.435c-.221.621-.063,1.242.347,1.379s.916-.242,1.126-.863.063-1.252-.337-1.389S164.716,195.8,164.5,196.435Z" transform="translate(-100.858 -172.195)" fill="#263238"/>
            <path id="Trazado_207316" data-name="Trazado 207316" d="M164.481,197a24.026,24.026,0,0,0,1.126,6.378,3.852,3.852,0,0,1-3.157-.484Z" transform="translate(-100.96 -172.118)" fill="#a02724"/>
            <path id="Trazado_207317" data-name="Trazado 207317" d="M163.54,192.416a.316.316,0,0,0,.242,0,3.157,3.157,0,0,1,2.768.421.389.389,0,0,0,.547-.084.4.4,0,0,0,0-.505,3.873,3.873,0,0,0-3.494-.579.4.4,0,0,0-.242.495.368.368,0,0,0,.242.242Z" transform="translate(-100.913 -172.407)" fill="#263238"/>
            <path id="Trazado_207318" data-name="Trazado 207318" d="M142.652,198.57c1.179,5.988,2.347,16.965-1.842,20.964,0,0,1.642,6.073,12.777,6.073,12.24,0,5.852-6.073,5.852-6.073-6.683-1.6-5.609-6.557-4.441-11.208Z" transform="translate(-102.094 -172.036)" fill="#b55b52"/>
            <path id="Trazado_207319" data-name="Trazado 207319" d="M145.28,188.659c-2.189,7.83-3.873,12.3-1.368,17.576,3.757,7.946,16.892,8.977,20.47-.116,2.726-8.419,5.42-17.228-1.052-22.88a11.1,11.1,0,0,0-18.081,5.42Z" transform="translate(-101.997 -172.986)" fill="#b55b52"/>
            <path id="Trazado_207320" data-name="Trazado 207320" d="M137.11,191.641c-.568-2.884-.716-6.041.726-8.609s4.925-4.136,7.462-2.642a12.313,12.313,0,1,1,17.46,15.839c.579-2.158,1.168-4.3,1.747-6.462a12.535,12.535,0,0,1-4.483,7.63l1.052-6.451a9.861,9.861,0,0,1-4.778,7.42l1.231-4.515a39.066,39.066,0,0,1-2.379,6.041c-1.052,1.21-1.726,9.125-5.346,9.377C137.363,211.742,138.436,198.376,137.11,191.641Z" transform="translate(-102.31 -173.358)" fill="#263238"/>
            <path id="Trazado_207321" data-name="Trazado 207321" d="M153,194.437a9.272,9.272,0,0,0,1.284,5.757c1.4,2.252,3.452,1.389,4.21-.916.674-2.1.747-5.736-1.2-7.2S153.3,192.027,153,194.437Z" transform="translate(-101.458 -172.407)" fill="#b55b52"/>
            <path id="Trazado_207322" data-name="Trazado 207322" d="M125.9,267.7c-1.337-.442-7.6-3.663-8.6-3.084,2.894-7.367,4.694-8.514,6.009-13.208a7.2,7.2,0,0,0-1.4-6.841c-1.852-2.484-2.494-3.736-5.567-3.431-4.21,7.072-9.567,15.786-11.65,23.774-.705,2.684-1.21,4.725.389,7,1.41,2,4.01,2.8,6.451,3.021,5.862.526,14.566-.547,14.45-4.031C125.921,268.7,125.9,267.7,125.9,267.7Z" transform="translate(-104.023 -169.806)" fill="#b55b52"/>
            <path id="Trazado_207323" data-name="Trazado 207323" d="M123.949,266.2l4.967-1.61-.442,8.977s-3.978.137-6.1-2.526Z" transform="translate(-103.061 -168.574)" fill="#b55b52"/>
            <path id="Trazado_207324" data-name="Trazado 207324" d="M134.821,264.45l-.705,7.409-5.946,1.716.442-8.977Z" transform="translate(-102.757 -168.581)" fill="#b55b52"/>
            <path id="Trazado_207325" data-name="Trazado 207325" d="M189.779,274.34S182.822,268.889,173.75,251c-1.347-2.5-2.631-5.041-3.873-7.588s-2.421-5.094-3.557-7.8l10.756-4.631c2.21,4.82,5.662,9.8,8.1,14.587s8.2,16.134,8.925,17.186c.358.547.747,1,1.116,1.505l.558.737-6.936,8.02Z" transform="translate(-100.757 -170.336)" fill="#b55b52"/>
            <path id="Trazado_207326" data-name="Trazado 207326" d="M197.414,239.62l-2.1-2.568-.989-3.841,6.494-6.03a28.29,28.29,0,0,1,2.642,4.02,2.105,2.105,0,0,1,.232,1.052l-.263,6.767Z" transform="translate(-99.289 -170.536)" fill="#b55b52"/>
            <path id="Trazado_207327" data-name="Trazado 207327" d="M194.365,229.19l4.852-4.41,1.537,2.578-6.483,6Z" transform="translate(-99.291 -170.661)" fill="#b55b52"/>
            <path id="Trazado_207328" data-name="Trazado 207328" d="M197.881,237.3c.168-.726.316.695.8.126,1.431-1.726,3.515-1.9,4.757,0s.179,20.649-1.8,26.532c-1.316,3.9-2.021,7.02-5.388,9.4a8.209,8.209,0,0,1-4.736,1.7,4.494,4.494,0,0,1-4.1-2.547c-1.052-2.452,2.715-11.293,4.041-14.145C195.608,249.394,195.892,245.784,197.881,237.3Z" transform="translate(-99.661 -170.07)" fill="#b55b52"/>
            <path id="Trazado_207329" data-name="Trazado 207329" d="M184.121,237.625l8.6-.084a8.325,8.325,0,0,0,3.6-.568,6.536,6.536,0,0,0,2.936-3.673c1.221-3.157,1.326-6.546,1.8-9.851s1.484-6.778,3.989-9c-4.568.61-12.629-.821-16.155,2.915C187.037,219.354,183.764,237.625,184.121,237.625Z" transform="translate(-99.825 -171.203)" fill="#084a93"/>
            <path id="Trazado_207330" data-name="Trazado 207330" d="M184.121,237.625l8.6-.084a8.325,8.325,0,0,0,3.6-.568,6.536,6.536,0,0,0,2.936-3.673c1.221-3.157,1.326-6.546,1.8-9.851s1.484-6.778,3.989-9c-4.568.61-12.629-.821-16.155,2.915C187.037,219.354,183.764,237.625,184.121,237.625Z" transform="translate(-99.825 -171.203)" fill="#fff" opacity="0.5"/>
            <path id="Trazado_207331" data-name="Trazado 207331" d="M198.137,224.332h0c-.495.137-.821,1.894-.716,2.4l.484.863.979,4.21,3.284-1.81-2.957-5.262a.968.968,0,0,0-1.073-.4Z" transform="translate(-99.127 -170.687)" fill="#b55b52"/>
            <path id="Trazado_207332" data-name="Trazado 207332" d="M128.579,219.932c-7.683,1.758-19.049,25.7-19.049,25.7l15.418,10.524a172.25,172.25,0,0,0,12-19.838C141.5,226.783,136.43,218.132,128.579,219.932Z" transform="translate(-103.734 -170.928)" fill="#084a93"/>
            <path id="Trazado_207333" data-name="Trazado 207333" d="M138.341,220.755c-.884-1.926-1.842-4.126.147-4.81,2.2-.758,14.239-1.537,18.386-.116a4.273,4.273,0,0,1,3,5.262v.074Z" transform="translate(-102.278 -171.172)" fill="#263238"/>
            <path id="Trazado_207334" data-name="Trazado 207334" d="M132.686,233.06,121.73,253.688l2.578,1.768s4.968-6.915,8.419-12.892Z" transform="translate(-103.095 -170.227)" opacity="0.2"/>
            <path id="Trazado_207335" data-name="Trazado 207335" d="M174.369,230.542c1.663,8.419-2.221,28.416-2.179,61.041h-43.8c-.284-6.588,4.515-22.206-1.452-53.316-.189-1.052-.274-18.049.737-18.228a116.643,116.643,0,0,1,12.819-1.516,161.761,161.761,0,0,1,18.628,0c2.536.263,6.525,1.831,9.051,2.736C172.1,222.649,173.569,226.406,174.369,230.542Z" transform="translate(-102.828 -171.003)" fill="#084a93"/>
            <path id="Trazado_207336" data-name="Trazado 207336" d="M161,237.88c1.137,6.915,5.673,16.05,10.188,21.417.179-3.926.579-8.03.568-11.177Z" transform="translate(-101.036 -169.974)" opacity="0.2"/>
            <path id="Trazado_207337" data-name="Trazado 207337" d="M158,228.337c-1.052,7.756,14.208,27.553,14.208,27.553l15.355-10.524s-4.262-10.914-11.429-18.07C168,219.107,159.234,219.918,158,228.337Z" transform="translate(-101.196 -170.83)" fill="#084a93"/>
            <path id="Trazado_207338" data-name="Trazado 207338" d="M205.72,392.075h8.188l1.863-18.975h-8.188Z" transform="translate(-98.691 -162.884)" fill="#b55b52"/>
            <path id="Trazado_207339" data-name="Trazado 207339" d="M215.606,374.19l-.947,9.777h-8.2l.958-9.777Z" transform="translate(-98.652 -162.827)" opacity="0.2"/>
            <path id="Trazado_207340" data-name="Trazado 207340" d="M175.03,392.075h8.188l4.115-18.975h-8.188Z" transform="translate(-100.3 -162.884)" fill="#b55b52"/>
            <g id="Grupo_148198" data-name="Grupo 148198" transform="translate(76.54 211.226)" opacity="0.2">
              <path id="Trazado_207341" data-name="Trazado 207341" d="M178.876,374.06h8.188l-2.126,9.777H176.75Z" transform="translate(-176.75 -374.06)"/>
            </g>
            <path id="Trazado_207342" data-name="Trazado 207342" d="M214.5,387.63h-8.935a.8.8,0,0,0-.705.737l-1.621,9.367a1.6,1.6,0,0,0,.884,1.852.949.949,0,0,0,.295,0c3.22-.063,7.883-.316,11.935-.316,4.746,0,8.84.326,14.4.326,3.368,0,4.3-4.4,2.894-4.789-6.409-1.81-11.64-2-17.176-6.43a3.157,3.157,0,0,0-1.968-.747Z" transform="translate(-98.823 -162.123)" fill="#263238"/>
            <path id="Trazado_207343" data-name="Trazado 207343" d="M220.252,390.619c1.052,0,2.1-.147,2.41-.621a.747.747,0,0,0,0-.852,1.052,1.052,0,0,0-.61-.453c-1.368-.368-4.21,1.263-4.347,1.337a.179.179,0,0,0-.095.2.189.189,0,0,0,.147.158A13.248,13.248,0,0,0,220.252,390.619Zm1.305-1.589h.368a.568.568,0,0,1,.379.274c.137.242.095.358,0,.421-.379.537-2.452.547-3.978.326a9.21,9.21,0,0,1,3.231-1.031Z" transform="translate(-98.068 -162.07)" fill="#084a93"/>
            <path id="Trazado_207344" data-name="Trazado 207344" d="M217.779,390.485h.084c.989-.442,2.947-2.21,2.789-3.157,0-.221-.189-.484-.716-.547a1.473,1.473,0,0,0-1.052.337c-1.052.853-1.263,3.063-1.273,3.157a.189.189,0,0,0,.074.179.169.169,0,0,0,.095.032Zm2-3.315h.116c.347,0,.368.179.379.221.095.558-1.242,1.947-2.252,2.547a4.557,4.557,0,0,1,1.052-2.515A1.157,1.157,0,0,1,219.778,387.17Z" transform="translate(-98.068 -162.167)" fill="#084a93"/>
            <path id="Trazado_207345" data-name="Trazado 207345" d="M183.936,387.63h-9.2a.789.789,0,0,0-.695.737l-1.621,9.367a1.621,1.621,0,0,0,.937,1.863,1.128,1.128,0,0,0,.263,0c3.21-.063,4.778-.316,8.819-.316,2.494,0,5.683.326,9.125.326s3.883-4.4,2.473-4.789c-6.315-1.789-6.746-4.21-8.767-6.609a1.736,1.736,0,0,0-1.337-.579Z" transform="translate(-100.439 -162.123)" fill="#263238"/>
            <path id="Trazado_207346" data-name="Trazado 207346" d="M188.044,391.607a2.6,2.6,0,0,0,1.968-.537.779.779,0,0,0,0-.916.9.9,0,0,0-.61-.453c-1.2-.284-3.463,1.263-3.557,1.326a.221.221,0,0,0-.084.2.179.179,0,0,0,.147.147,9.767,9.767,0,0,0,2.136.231Zm1.052-1.558h.232a.526.526,0,0,1,.358.253c.179.326.074.453,0,.505-.347.453-2.021.463-3.252.263a6.44,6.44,0,0,1,2.642-1.052Z" transform="translate(-99.738 -162.016)" fill="#084a93"/>
            <path id="Trazado_207347" data-name="Trazado 207347" d="M186.014,391.483h0c.852-.463,2.494-2.252,2.315-3.157a.631.631,0,0,0-.621-.516,1.116,1.116,0,0,0-.821.253c-.947.779-1.147,3.157-1.158,3.242a.2.2,0,0,0,.095.179Zm1.652-3.315h.084c.253,0,.274.147.284.2.105.537-.947,1.894-1.789,2.536a4.789,4.789,0,0,1,.968-2.568A.705.705,0,0,1,187.667,388.168Z" transform="translate(-99.739 -162.113)" fill="#084a93"/>
            <path id="Trazado_207348" data-name="Trazado 207348" d="M159.075,287.91s38.782,16.018,46.8,28.321c-4.768,31.3-13.324,66.956-13.324,66.956H177.967a287.856,287.856,0,0,1,3.778-46.055c2.1-38.256-66.745,1.326-53.369-49.222Z" transform="translate(-102.837 -167.351)" fill="#263238"/>
            <path id="Trazado_207349" data-name="Trazado 207349" d="M183.767,313a72.619,72.619,0,0,0-8.1.937l-8.493,1.305a127.7,127.7,0,0,0,13.84,10.124c2.936,1.863,6.136,3.652,9.6,3.662,3.894,0,14.46-4.989,12.713-10.177S188.187,312.812,183.767,313Z" transform="translate(-100.712 -166.037)" opacity="0.3"/>
            <path id="Trazado_207350" data-name="Trazado 207350" d="M171.9,287.91s35.846,4.631,55.611,15.881c6.083,3.463,5.262,14.587,5.073,21.912a172.924,172.924,0,0,1-11.156,57.484H209.239s.621-19.859.21-51.906c-.126-9.609-19.523-12.777-38.477-13.892A43.15,43.15,0,0,1,133.884,291l-1.294-3.094Z" transform="translate(-102.525 -167.351)" fill="#263238"/>
            <path id="Trazado_207351" data-name="Trazado 207351" d="M220.711,375.34c.063,0-.789,5.757-.789,5.757H203.083l-.463-5.136Z" transform="translate(-98.853 -162.767)" fill="#084a93"/>
            <path id="Trazado_207352" data-name="Trazado 207352" d="M191.526,375.34c.063,0-1.547,5.757-1.547,5.757H173.14l.305-5.136Z" transform="translate(-100.399 -162.767)" fill="#084a93"/>
            <path id="Trazado_207353" data-name="Trazado 207353" d="M148.33,315.544l-12.071,88.941-2.179-.305,9.314-89.31Z" transform="translate(-102.447 -165.938)" fill="#084a93"/>
            <path id="Trazado_207354" data-name="Trazado 207354" d="M147.9,318.541l-11.64,85.752-2.179-.305,8.914-85.468Z" transform="translate(-102.447 -165.746)" opacity="0.4"/>
            <path id="Trazado_207355" data-name="Trazado 207355" d="M191.348,318.919H122.94a7.809,7.809,0,0,1,7.809-7.809h52.79a7.809,7.809,0,0,1,7.809,7.809Z" transform="translate(-103.031 -166.135)" fill="#084a93"/>
            <path id="Trazado_207356" data-name="Trazado 207356" d="M191.348,318.919H122.94a7.809,7.809,0,0,1,7.809-7.809h52.79a7.809,7.809,0,0,1,7.809,7.809Z" transform="translate(-103.031 -166.135)" fill="#fff" opacity="0.7"/>
            <path id="Trazado_207357" data-name="Trazado 207357" d="M126.464,318.52,116.15,405h2.21l13.082-86.478Z" transform="translate(-103.387 -165.746)" fill="#084a93"/>
            <path id="Trazado_207358" data-name="Trazado 207358" d="M185.177,318.52,195.491,405h-2.21L180.21,318.52Z" transform="translate(-100.029 -165.746)" fill="#084a93"/>
            <path id="Trazado_207359" data-name="Trazado 207359" d="M185.177,318.52,195.491,405h-2.21L180.21,318.52Z" transform="translate(-100.029 -165.746)" opacity="0.4"/>
            <path id="Trazado_207360" data-name="Trazado 207360" d="M172.068,318.52l.2,86.478h-2.2L167.09,318.52Z" transform="translate(-100.716 -165.746)" fill="#084a93"/>
          </g>
        </g>
      </g>
    </g>
  </g>
</svg>
