<svg xmlns="http://www.w3.org/2000/svg" width="270.54" height="209.215" viewBox="0 0 270.54 209.215">
  <g id="Grupo_148243" data-name="Grupo 148243" transform="translate(5880 10976)">
    <g id="Grupo_148221" data-name="Grupo 148221">
      <g id="Hand_coding-rafiki_1_" data-name="Hand coding-rafiki (1)" transform="translate(-5932.46 -11075.928)">
        <g id="freepik--background-complete--inject-17" transform="translate(52.46 82.76)">
          <rect id="Rectángulo_297548" data-name="Rectángulo 297548" width="22.545" height="0.17" transform="translate(247.995 214.92)" fill="#ebebeb"/>
          <rect id="Rectángulo_297549" data-name="Rectángulo 297549" width="5.915" height="0.17" transform="translate(183.838 216.771)" fill="#ebebeb"/>
          <rect id="Rectángulo_297550" data-name="Rectángulo 297550" width="13.063" height="0.17" transform="translate(234.252 208.603)" fill="#ebebeb"/>
          <rect id="Rectángulo_297551" data-name="Rectángulo 297551" width="29.4" height="0.17" transform="translate(0 209.746)" fill="#ebebeb"/>
          <rect id="Rectángulo_297552" data-name="Rectángulo 297552" width="4.309" height="0.17" transform="translate(35.465 209.746)" fill="#ebebeb"/>
          <rect id="Rectángulo_297553" data-name="Rectángulo 297553" width="63.769" height="0.17" transform="translate(53.783 212.619)" fill="#ebebeb"/>
          <path id="Trazado_207081" data-name="Trazado 207081" d="M111,348.872c1.089.327,1.593,1.014,1.593,2.655v3.792a1.559,1.559,0,0,0,1.729,1.756h.429v2.893H113.39c-2.968,0-4.486-1.518-4.486-4.248v-4.288c0-.762-.4-1.116-1.041-1.116h-.783v-2.859h.783c.64,0,1.041-.354,1.041-1.116v-4.329c0-2.723,1.518-4.241,4.486-4.241h1.361v2.879h-.429a1.559,1.559,0,0,0-1.729,1.756V346.2C112.594,347.851,112.09,348.539,111,348.872Z" transform="translate(-69.9 -164.183)" fill="#e0e0e0"/>
          <path id="Trazado_207082" data-name="Trazado 207082" d="M136.955,347.45v2.893h-.783a.973.973,0,0,0-1.048,1.116v4.288c0,2.723-1.518,4.248-4.479,4.248h-1.361V357.1h.429a1.559,1.559,0,0,0,1.729-1.756v-3.812c0-1.64.5-2.328,1.586-2.655-1.089-.334-1.586-1.021-1.586-2.662v-3.805a1.559,1.559,0,0,0-1.743-1.77h-.429V337.75h1.361c2.961,0,4.479,1.518,4.479,4.241v4.3a.973.973,0,0,0,1.048,1.116Z" transform="translate(-76.985 -164.177)" fill="#e0e0e0"/>
          <path id="Trazado_207085" data-name="Trazado 207085" d="M153.064,150.067h-3.846v3.757h-2.852v-3.757H142.54v-2.723h3.826V143.58h2.852v3.764h3.846Z" transform="translate(-81.222 -102.179)" fill="#e0e0e0"/>
        </g>
        <g id="freepik--Tabs--inject-17" transform="translate(117.869 99.927)">
          <rect id="Rectángulo_297558" data-name="Rectángulo 297558" width="83.393" height="60.365" transform="translate(0)"/>
          <rect id="Rectángulo_297559" data-name="Rectángulo 297559" width="83.393" height="60.365" transform="translate(0)" fill="#fff" opacity="0.9"/>
          <rect id="Rectángulo_297560" data-name="Rectángulo 297560" width="11.613" height="60.365" transform="translate(0)" opacity="0.1"/>
          <rect id="Rectángulo_297561" data-name="Rectángulo 297561" width="83.393" height="5.643" transform="translate(0)" fill="#084a93"/>
          <g id="Grupo_148141" data-name="Grupo 148141" transform="translate(17.569 12.797)" opacity="0.2">
            <path id="Trazado_207107" data-name="Trazado 207107" d="M190.267,128.141H175.081a.681.681,0,1,1,0-1.361h15.187a.681.681,0,0,1,0,1.361Z" transform="translate(-174.373 -126.78)"/>
            <path id="Trazado_207108" data-name="Trazado 207108" d="M232.839,128.141H203.331a.681.681,0,1,1,0-1.361h29.509a.681.681,0,1,1,0,1.361Z" transform="translate(-183.393 -126.78)"/>
            <path id="Trazado_207109" data-name="Trazado 207109" d="M217.752,134.671H178.081a.681.681,0,0,1,0-1.361h39.672a.681.681,0,1,1,0,1.361Z" transform="translate(-175.331 -128.865)"/>
            <path id="Trazado_207110" data-name="Trazado 207110" d="M200.634,141.191H175.081a.681.681,0,1,1,0-1.361h25.554a.681.681,0,0,1,0,1.361Z" transform="translate(-174.373 -130.947)"/>
            <path id="Trazado_207111" data-name="Trazado 207111" d="M238.092,141.191H219.781a.681.681,0,0,1,0-1.361h18.311a.681.681,0,1,1,0,1.361Z" transform="translate(-188.645 -130.947)"/>
            <path id="Trazado_207112" data-name="Trazado 207112" d="M189.192,147.721H175.081a.681.681,0,1,1,0-1.361h14.111a.681.681,0,1,1,0,1.361Z" transform="translate(-174.373 -133.032)"/>
            <path id="Trazado_207113" data-name="Trazado 207113" d="M224.749,147.721H202.531a.681.681,0,1,1,0-1.361h22.218a.681.681,0,1,1,0,1.361Z" transform="translate(-183.137 -133.032)"/>
            <path id="Trazado_207114" data-name="Trazado 207114" d="M197.066,154.251H178.081a.681.681,0,0,1,0-1.361h18.985a.681.681,0,0,1,0,1.361Z" transform="translate(-175.331 -135.117)"/>
            <path id="Trazado_207115" data-name="Trazado 207115" d="M199.441,160.781H178.081a.681.681,0,0,1,0-1.361h21.361a.681.681,0,1,1,0,1.361Z" transform="translate(-175.331 -137.202)"/>
            <path id="Trazado_207116" data-name="Trazado 207116" d="M236.463,160.781H214.681a.681.681,0,1,1,0-1.361h21.783a.681.681,0,1,1,0,1.361Z" transform="translate(-187.017 -137.202)"/>
            <path id="Trazado_207117" data-name="Trazado 207117" d="M187.293,167.3H175.041a.681.681,0,1,1,0-1.361h12.253a.681.681,0,1,1,0,1.361Z" transform="translate(-174.36 -139.284)"/>
            <path id="Trazado_207118" data-name="Trazado 207118" d="M231.511,167.3h-32.34a.681.681,0,0,1,0-1.361h32.34a.681.681,0,1,1,0,1.361Z" transform="translate(-182.065 -139.284)"/>
            <path id="Trazado_207119" data-name="Trazado 207119" d="M199.305,173.831H178.081a.681.681,0,0,1,0-1.361h21.224a.681.681,0,0,1,0,1.361Z" transform="translate(-175.331 -141.368)"/>
            <path id="Trazado_207120" data-name="Trazado 207120" d="M227.347,173.831H213.611a.681.681,0,1,1,0-1.361h13.737a.681.681,0,0,1,0,1.361Z" transform="translate(-186.675 -141.368)"/>
            <path id="Trazado_207121" data-name="Trazado 207121" d="M202.511,180.361H178.081a.681.681,0,0,1,0-1.361h24.431a.681.681,0,1,1,0,1.361Z" transform="translate(-175.331 -143.453)"/>
          </g>
          <circle id="Elipse_5429" data-name="Elipse 5429" cx="1.164" cy="1.164" r="1.164" transform="translate(78.642 1.695)" fill="#fff" opacity="0.4"/>
          <circle id="Elipse_5430" data-name="Elipse 5430" cx="1.164" cy="1.164" r="1.164" transform="translate(74.551 1.695)" fill="#fff" opacity="0.4"/>
          <circle id="Elipse_5431" data-name="Elipse 5431" cx="1.164" cy="1.164" r="1.164" transform="translate(70.467 1.695)" fill="#fff" opacity="0.4"/>
          <g id="Grupo_148142" data-name="Grupo 148142" transform="translate(5.33 12.797)" opacity="0.2">
            <path id="Trazado_207122" data-name="Trazado 207122" d="M157.061,128.141h0a.681.681,0,1,1,.681-.681A.681.681,0,0,1,157.061,128.141Z" transform="translate(-156.38 -126.78)"/>
            <path id="Trazado_207123" data-name="Trazado 207123" d="M157.061,134.671h0a.681.681,0,1,1,.681-.681A.681.681,0,0,1,157.061,134.671Z" transform="translate(-156.38 -128.865)"/>
            <path id="Trazado_207124" data-name="Trazado 207124" d="M157.061,141.191h0a.681.681,0,1,1,.681-.681A.681.681,0,0,1,157.061,141.191Z" transform="translate(-156.38 -130.947)"/>
            <path id="Trazado_207125" data-name="Trazado 207125" d="M157.061,147.721h0a.681.681,0,1,1,.681-.681A.681.681,0,0,1,157.061,147.721Z" transform="translate(-156.38 -133.032)"/>
            <path id="Trazado_207126" data-name="Trazado 207126" d="M157.061,154.251h0a.681.681,0,1,1,.681-.681A.681.681,0,0,1,157.061,154.251Z" transform="translate(-156.38 -135.117)"/>
            <path id="Trazado_207127" data-name="Trazado 207127" d="M157.061,160.781h0a.681.681,0,1,1,.681-.681A.681.681,0,0,1,157.061,160.781Z" transform="translate(-156.38 -137.202)"/>
            <path id="Trazado_207128" data-name="Trazado 207128" d="M157.061,167.3h0a.681.681,0,1,1,.681-.681A.681.681,0,0,1,157.061,167.3Z" transform="translate(-156.38 -139.284)"/>
            <path id="Trazado_207129" data-name="Trazado 207129" d="M157.061,173.831h0a.681.681,0,1,1,.681-.681A.681.681,0,0,1,157.061,173.831Z" transform="translate(-156.38 -141.368)"/>
            <path id="Trazado_207130" data-name="Trazado 207130" d="M157.061,180.361h0a.681.681,0,1,1,.681-.681A.681.681,0,0,1,157.061,180.361Z" transform="translate(-156.38 -143.453)"/>
          </g>
          <rect id="Rectángulo_297562" data-name="Rectángulo 297562" width="109.274" height="69.97" transform="translate(49.651 49.256)" fill="#263238"/>
          <rect id="Rectángulo_297563" data-name="Rectángulo 297563" width="109.274" height="69.97" transform="translate(49.651 49.256)" fill="#fff" opacity="0.9"/>
          <rect id="Rectángulo_297564" data-name="Rectángulo 297564" width="17.045" height="69.97" transform="translate(49.651 49.256)" opacity="0.1"/>
          <rect id="Rectángulo_297565" data-name="Rectángulo 297565" width="109.274" height="5.643" transform="translate(49.651 49.256)" fill="#084a93"/>
          <path id="Trazado_207131" data-name="Trazado 207131" d="M231.617,197.436l-1.811.681,1.811.681v.681l-2.587-.987v-.681l2.587-.98Z" transform="translate(-174.247 -136.349)" fill="#fff"/>
          <path id="Trazado_207132" data-name="Trazado 207132" d="M234.857,194.76h.756l-1.8,5.126h-.756Z" transform="translate(-175.533 -135.688)" fill="#fff"/>
          <path id="Trazado_207133" data-name="Trazado 207133" d="M239.547,197.675v.681l-2.587.987v-.681l1.811-.681-1.811-.681v-.681Z" transform="translate(-176.779 -136.282)" fill="#fff"/>
          <g id="Grupo_148143" data-name="Grupo 148143" transform="translate(54.3 67.506)" opacity="0.2">
            <path id="Trazado_207134" data-name="Trazado 207134" d="M236.407,208.511H229a.681.681,0,1,1,0-1.361h7.406a.681.681,0,0,1,0,1.361Z" transform="translate(-228.32 -207.15)"/>
            <path id="Trazado_207135" data-name="Trazado 207135" d="M236.407,215.031H229a.681.681,0,1,1,0-1.361h7.406a.681.681,0,0,1,0,1.361Z" transform="translate(-228.32 -209.232)"/>
            <path id="Trazado_207136" data-name="Trazado 207136" d="M236.407,221.561H229a.681.681,0,1,1,0-1.361h7.406a.681.681,0,0,1,0,1.361Z" transform="translate(-228.32 -211.317)"/>
            <path id="Trazado_207137" data-name="Trazado 207137" d="M236.407,228.091H229a.681.681,0,1,1,0-1.361h7.406a.681.681,0,0,1,0,1.361Z" transform="translate(-228.32 -213.402)"/>
            <path id="Trazado_207138" data-name="Trazado 207138" d="M236.407,234.621H229a.681.681,0,1,1,0-1.361h7.406a.681.681,0,0,1,0,1.361Z" transform="translate(-228.32 -215.487)"/>
            <path id="Trazado_207139" data-name="Trazado 207139" d="M236.407,241.141H229a.681.681,0,1,1,0-1.361h7.406a.681.681,0,0,1,0,1.361Z" transform="translate(-228.32 -217.569)"/>
            <path id="Trazado_207140" data-name="Trazado 207140" d="M236.407,247.671H229a.681.681,0,1,1,0-1.361h7.406a.681.681,0,0,1,0,1.361Z" transform="translate(-228.32 -219.654)"/>
            <path id="Trazado_207141" data-name="Trazado 207141" d="M236.407,254.2H229a.681.681,0,1,1,0-1.361h7.406a.681.681,0,0,1,0,1.361Z" transform="translate(-228.32 -221.738)"/>
            <path id="Trazado_207142" data-name="Trazado 207142" d="M236.407,260.731H229a.681.681,0,1,1,0-1.361h7.406a.681.681,0,0,1,0,1.361Z" transform="translate(-228.32 -223.824)"/>
          </g>
          <path id="Trazado_207143" data-name="Trazado 207143" d="M264.207,208.511H249.021a.681.681,0,1,1,0-1.361h15.187a.681.681,0,1,1,0,1.361Z" transform="translate(-180.412 -139.644)" fill="#084a93"/>
          <path id="Trazado_207144" data-name="Trazado 207144" d="M316.854,208.511H277.271a.681.681,0,0,1,0-1.361h39.583a.681.681,0,0,1,0,1.361Z" transform="translate(-189.432 -139.644)" fill="#263238"/>
          <g id="Grupo_148144" data-name="Grupo 148144" transform="translate(133.337 67.506)" opacity="0.2">
            <path id="Trazado_207145" data-name="Trazado 207145" d="M356.581,208.511h-11.47a.681.681,0,0,1,0-1.361h11.47a.681.681,0,0,1,0,1.361Z" transform="translate(-344.43 -207.15)" fill="#263238"/>
          </g>
          <g id="Grupo_148145" data-name="Grupo 148145" transform="translate(69.97 71.944)" opacity="0.2">
            <path id="Trazado_207146" data-name="Trazado 207146" d="M291.692,215.031H252.021a.681.681,0,1,1,0-1.361h39.672a.681.681,0,1,1,0,1.361Z" transform="translate(-251.34 -213.67)" fill="#263238"/>
          </g>
          <path id="Trazado_207147" data-name="Trazado 207147" d="M352.63,215.031H315.681a.681.681,0,1,1,0-1.361h36.976a.681.681,0,1,1,0,1.361Z" transform="translate(-201.696 -141.726)" fill="#084a93"/>
          <path id="Trazado_207148" data-name="Trazado 207148" d="M275.532,221.561H252.021a.681.681,0,1,1,0-1.361h23.512a.681.681,0,0,1,0,1.361Z" transform="translate(-181.37 -143.811)" fill="#263238"/>
          <path id="Trazado_207149" data-name="Trazado 207149" d="M316.825,221.561H293.681a.681.681,0,0,1,0-1.361h23.144a.681.681,0,0,1,0,1.361Z" transform="translate(-194.672 -143.811)" fill="#084a93"/>
          <path id="Trazado_207150" data-name="Trazado 207150" d="M358.236,221.561h-25a.681.681,0,1,1,0-1.361h25a.681.681,0,0,1,0,1.361Z" transform="translate(-207.303 -143.811)" fill="#263238"/>
          <path id="Trazado_207151" data-name="Trazado 207151" d="M283.142,228.091H269.031a.681.681,0,1,1,0-1.361h14.111a.681.681,0,1,1,0,1.361Z" transform="translate(-186.801 -145.896)" fill="#263238"/>
          <path id="Trazado_207152" data-name="Trazado 207152" d="M311.9,228.091h-15.4a.681.681,0,1,1,0-1.361h15.4a.681.681,0,1,1,0,1.361Z" transform="translate(-195.569 -145.896)" fill="#263238"/>
          <g id="Grupo_148146" data-name="Grupo 148146" transform="translate(119.144 80.834)" opacity="0.2">
            <path id="Trazado_207153" data-name="Trazado 207153" d="M349.243,228.091H324.261a.681.681,0,1,1,0-1.361h24.982a.681.681,0,1,1,0,1.361Z" transform="translate(-323.58 -226.73)" fill="#263238"/>
          </g>
          <g id="Grupo_148147" data-name="Grupo 148147" transform="translate(69.97 85.279)" opacity="0.2">
            <path id="Trazado_207154" data-name="Trazado 207154" d="M271.006,234.621H252.021a.681.681,0,1,1,0-1.361h18.985a.681.681,0,1,1,0,1.361Z" transform="translate(-251.34 -233.26)" fill="#263238"/>
          </g>
          <path id="Trazado_207155" data-name="Trazado 207155" d="M273.381,241.141H252.021a.681.681,0,1,1,0-1.361h21.361a.681.681,0,0,1,0,1.361Z" transform="translate(-181.37 -150.063)" fill="#084a93"/>
          <path id="Trazado_207156" data-name="Trazado 207156" d="M320.725,241.141H288.541a.681.681,0,0,1,0-1.361h32.184a.681.681,0,0,1,0,1.361Z" transform="translate(-193.031 -150.063)" fill="#263238"/>
          <path id="Trazado_207157" data-name="Trazado 207157" d="M360.89,241.141H341.551a.681.681,0,1,1,0-1.361H360.89a.681.681,0,0,1,0,1.361Z" transform="translate(-209.956 -150.063)" fill="#263238"/>
          <g id="Grupo_148148" data-name="Grupo 148148" transform="translate(76.756 94.162)" opacity="0.2">
            <path id="Trazado_207158" data-name="Trazado 207158" d="M274.243,247.671H261.991a.681.681,0,1,1,0-1.361h12.253a.681.681,0,0,1,0,1.361Z" transform="translate(-261.31 -246.31)" fill="#263238"/>
          </g>
          <g id="Grupo_148149" data-name="Grupo 148149" transform="translate(93.182 94.162)" opacity="0.2">
            <path id="Trazado_207159" data-name="Trazado 207159" d="M309.578,247.671H286.121a.681.681,0,1,1,0-1.361h23.457a.681.681,0,1,1,0,1.361Z" transform="translate(-285.44 -246.31)" fill="#263238"/>
          </g>
          <path id="Trazado_207160" data-name="Trazado 207160" d="M350.216,247.671H327.311a.681.681,0,1,1,0-1.361h22.906a.681.681,0,1,1,0,1.361Z" transform="translate(-205.41 -152.148)" fill="#263238"/>
          <path id="Trazado_207161" data-name="Trazado 207161" d="M286.448,254.2H272.031a.681.681,0,0,1,0-1.361h14.417a.681.681,0,1,1,0,1.361Z" transform="translate(-187.759 -154.233)" fill="#263238"/>
          <g id="Grupo_148150" data-name="Grupo 148150" transform="translate(100.969 98.607)" opacity="0.2">
            <path id="Trazado_207162" data-name="Trazado 207162" d="M311.291,254.2h-13.73a.681.681,0,1,1,0-1.361h13.73a.681.681,0,1,1,0,1.361Z" transform="translate(-296.88 -252.84)" fill="#263238"/>
          </g>
          <path id="Trazado_207163" data-name="Trazado 207163" d="M349.179,254.2H324.061a.681.681,0,1,1,0-1.361h25.118a.681.681,0,0,1,0,1.361Z" transform="translate(-204.372 -154.233)" fill="#084a93"/>
          <g id="Grupo_148151" data-name="Grupo 148151" transform="translate(83.591 103.052)" opacity="0.2">
            <path id="Trazado_207164" data-name="Trazado 207164" d="M289.654,260.731H272.031a.681.681,0,0,1,0-1.361h17.623a.681.681,0,1,1,0,1.361Z" transform="translate(-271.35 -259.37)" fill="#263238"/>
          </g>
          <path id="Trazado_207165" data-name="Trazado 207165" d="M375,184a1.164,1.164,0,1,0,.338-.827A1.171,1.171,0,0,0,375,184Z" transform="translate(-220.854 -131.879)" fill="#fff" opacity="0.4"/>
          <circle id="Elipse_5432" data-name="Elipse 5432" cx="1.164" cy="1.164" r="1.164" transform="translate(150.089 50.958)" fill="#fff" opacity="0.4"/>
          <circle id="Elipse_5433" data-name="Elipse 5433" cx="1.164" cy="1.164" r="1.164" transform="translate(145.998 50.958)" fill="#fff" opacity="0.4"/>
        </g>
        <g id="freepik--Character--inject-17" transform="translate(62.784 180.098)">
          <path id="Trazado_207169" data-name="Trazado 207169" d="M204.027,363.145l14.615-.715-1.423,12.709s-10.143,1.933-14.669-5.282Z" transform="translate(-110.706 -269.395)" fill="#ebb376"/>
          <path id="Trazado_207170" data-name="Trazado 207170" d="M234.944,366.861l-3.329,9.217-7.515-.939,1.423-12.709Z" transform="translate(-117.587 -269.395)" fill="#ebb376"/>
          <path id="Trazado_207171" data-name="Trazado 207171" d="M171.058,374.693a59.747,59.747,0,0,0,15.03-11.157l-1-9.469c-13.812,2.042-21.783,4.962-21.783,4.962s5.119-18.345.436-25.03l-12.859,2.328s-13.662,28.4-4.472,38.365Z" transform="translate(-91.766 -260.317)" fill="#084a93"/>
          <path id="Trazado_207172" data-name="Trazado 207172" d="M171.031,374.689a59.9,59.9,0,0,0,15.044-11.15l-.994-9.482a121.222,121.222,0,0,0-21.783,4.949c.17-.681,5.01-18.454.422-25.016l-12.859,2.328a99.812,99.812,0,0,0-6.269,17.739c-1.838,7.753-2.376,16.106,1.8,20.632Z" transform="translate(-91.76 -260.314)" fill="#fff" opacity="0.7"/>
          <path id="Trazado_207173" data-name="Trazado 207173" d="M160.482,376.857c4.54-28.767.517-36.077.517-36.077l-16.337,15.432c-1.838,7.753-2.376,16.106,1.8,20.632Z" transform="translate(-91.783 -262.482)" opacity="0.2"/>
          <path id="Trazado_207174" data-name="Trazado 207174" d="M139.747,367.1c3.063-14.54,6.5-37.3,6.126-40.693-.545-4.928-27.351-26.044-50.617-10.673-4.765,3.138-7.2,36.99-8.026,51.366Z" transform="translate(-73.885 -252.724)" fill="#084a93"/>
          <path id="Trazado_207175" data-name="Trazado 207175" d="M139.747,367.1c3.063-14.54,6.5-37.31,6.126-40.7-.545-4.922-27.358-26.037-50.624-10.66-1.722,1.15-3.138,6.344-4.309,13.206-1.552,9.339-2.628,21.742-3.267,31.095-.177,2.648-.327,5.044-.442,7.059Z" transform="translate(-73.885 -252.725)" fill="#fff" opacity="0.7"/>
          <path id="Trazado_207176" data-name="Trazado 207176" d="M133.939,226.3c-8.066-3.261-27.085,8.441-28.753,29.3s8.91,15.084,8.91,15.084,1.886,7.957,9.591,5.5c0,0,6.365,7.209,12.287,4.275,0,0,7.372,7.678,11.327,3.628,0,0,4.3,4.908,8.23,1.191s15.153-41.659-2.457-50.434S133.939,226.3,133.939,226.3Z" transform="translate(-79.562 -225.756)" fill="#263238"/>
          <path id="Trazado_207177" data-name="Trazado 207177" d="M146.527,344.982l-.776-.068c.9-10.047-1.314-14.492-1.361-14.533l.681-.361C145.2,330.177,147.446,334.649,146.527,344.982Z" transform="translate(-92.136 -259.047)" fill="#263238"/>
          <path id="Trazado_207178" data-name="Trazado 207178" d="M151.856,344.786c-5.344-12.586.681-15.52.926-15.656l.32.681-.163-.354.163.354c-.054,0-5.555,2.784-.531,14.628Z" transform="translate(-93.817 -258.762)" fill="#263238"/>
          <path id="Trazado_207179" data-name="Trazado 207179" d="M129.26,321.694a83.209,83.209,0,0,0-26.323-12.77l-5.139,2.41s-8.618-10.667,5.745-14.159,33.9,6.126,38.8,14.363-8.522,10.891-8.522,10.891S132.588,320.754,129.26,321.694Z" transform="translate(-76.441 -248.324)" fill="#084a93"/>
          <path id="Trazado_207180" data-name="Trazado 207180" d="M129.26,321.694a83.209,83.209,0,0,0-26.323-12.77l-5.139,2.41s-8.618-10.667,5.745-14.159,33.9,6.126,38.8,14.363-8.522,10.891-8.522,10.891S132.588,320.754,129.26,321.694Z" transform="translate(-76.441 -248.324)" fill="#fff" opacity="0.6"/>
          <path id="Trazado_207181" data-name="Trazado 207181" d="M153.721,351.591a.681.681,0,1,1-.681-.681A.681.681,0,0,1,153.721,351.591Z" transform="translate(-94.681 -265.717)" fill="#fff"/>
          <path id="Trazado_207182" data-name="Trazado 207182" d="M147.231,351.591a.681.681,0,1,1-.681-.681A.681.681,0,0,1,147.231,351.591Z" transform="translate(-92.609 -265.717)" fill="#fff"/>
          <path id="Trazado_207183" data-name="Trazado 207183" d="M133.038,277c-.626,7.3-2.866,20.305-8.808,23.144,0,0,6.644,1.361,17.018,14.506,5.9-4.139,3.669-6.964,3.669-6.964-6.9-4.527-5.112-10.108-2.321-14.976Z" transform="translate(-85.699 -242.118)" fill="#ebb376"/>
          <path id="Trazado_207184" data-name="Trazado 207184" d="M142.289,286.41l5.657,9.326a21.683,21.683,0,0,0-1.709,3.54c-2.723-1.457-5.7-6.072-5.139-9.23A10.728,10.728,0,0,1,142.289,286.41Z" transform="translate(-91.063 -245.122)" opacity="0.2"/>
          <path id="Trazado_207185" data-name="Trazado 207185" d="M135.224,248.275c-1.9,11.477-2.947,16.282,1.307,23.668,6.392,11.116,20.557,11.64,25.765,1.13,4.683-9.462,7-26.643-2.77-34.226C149.879,231.373,137.109,236.791,135.224,248.275Z" transform="translate(-88.681 -228.838)" fill="#ebb376"/>
          <path id="Trazado_207186" data-name="Trazado 207186" d="M155.95,229.479c7.44,4.125,14.526,17.018,3.941,13.8-1.6,3.1-7.3.259-10.612-3.458-.558,2.58-6.657,5.167-11.15,1.171,2.171,3.131-1.525,11.034-5.371,9.673s-12.477-3.152-4.833-15.336S148.007,225.061,155.95,229.479Z" transform="translate(-85.903 -225.861)" fill="#263238"/>
          <path id="Trazado_207187" data-name="Trazado 207187" d="M165.879,270.22a28.485,28.485,0,0,0,1.974,7.025c-1.45.837-3.4-.279-3.4-.279Z" transform="translate(-98.541 -239.953)" fill="#d58745"/>
          <path id="Trazado_207188" data-name="Trazado 207188" d="M153.684,280.866a8.846,8.846,0,0,0,1.5.572.259.259,0,0,0,.327-.2.293.293,0,0,0-.211-.354,8.127,8.127,0,0,1-5.282-4.636.279.279,0,0,0-.354-.191.286.286,0,0,0-.157.368,8.543,8.543,0,0,0,4.173,4.445Z" transform="translate(-93.765 -241.811)" fill="#263238"/>
          <path id="Trazado_207189" data-name="Trazado 207189" d="M127.394,263.588a9.332,9.332,0,0,0,4.343,5.657c2.77,1.518,4.765-1.082,4.561-4.316-.211-2.92-1.913-7.222-4.949-7.392S126.571,260.573,127.394,263.588Z" transform="translate(-86.645 -235.901)" fill="#ebb376"/>
          <path id="Trazado_207190" data-name="Trazado 207190" d="M154.321,253.968a.517.517,0,0,0,.436,0,4.214,4.214,0,0,1,3.962-.068.517.517,0,0,0,.742-.2.619.619,0,0,0-.225-.8,5.214,5.214,0,0,0-5.01,0,.585.585,0,0,0-.218.776A.62.62,0,0,0,154.321,253.968Z" transform="translate(-95.186 -234.218)" fill="#263238"/>
          <path id="Trazado_207191" data-name="Trazado 207191" d="M179.734,259.171a.5.5,0,0,0,.408.041.558.558,0,0,0,.347-.722,5.97,5.97,0,0,0-3.546-3.934.517.517,0,0,0-.681.388.613.613,0,0,0,.395.722,4.765,4.765,0,0,1,2.777,3.152A.6.6,0,0,0,179.734,259.171Z" transform="translate(-102.307 -234.942)" fill="#263238"/>
          <path id="Trazado_207192" data-name="Trazado 207192" d="M158.779,264.819c-.334.912-1.1,1.464-1.7,1.239s-.824-1.137-.49-2.042,1.1-1.464,1.695-1.239S159.105,263.913,158.779,264.819Z" transform="translate(-95.981 -237.56)" fill="#263238"/>
          <path id="Trazado_207193" data-name="Trazado 207193" d="M158.76,262.708l2.26-.048S159.427,263.953,158.76,262.708Z" transform="translate(-96.724 -237.539)" fill="#263238"/>
          <path id="Trazado_207194" data-name="Trazado 207194" d="M175.57,270.15c-.334.905-1.1,1.457-1.695,1.239s-.83-1.144-.5-2.042,1.1-1.457,1.7-1.239S175.9,269.238,175.57,270.15Z" transform="translate(-101.343 -239.263)" fill="#263238"/>
          <path id="Trazado_207195" data-name="Trazado 207195" d="M175.56,268.028l2.253-.048S176.22,269.28,175.56,268.028Z" transform="translate(-102.089 -239.238)" fill="#263238"/>
          <path id="Trazado_207196" data-name="Trazado 207196" d="M155.9,269.469a5,5,0,0,1-2.042-.429,5.166,5.166,0,0,1-2.818-3.295,6.9,6.9,0,0,1,3.6-8.066,5.078,5.078,0,0,1,7.168,3.2,6.7,6.7,0,0,1-.347,4.683h0a6.7,6.7,0,0,1-3.261,3.4A5.445,5.445,0,0,1,155.9,269.469Zm1.069-11.538a4.764,4.764,0,0,0-1.954.477,6.126,6.126,0,0,0-3.186,7.134,4.288,4.288,0,0,0,6.092,2.723,5.929,5.929,0,0,0,2.879-2.988l.354.157-.354-.157a5.936,5.936,0,0,0,.306-4.146,4.384,4.384,0,0,0-2.4-2.811,4.085,4.085,0,0,0-1.743-.388Z" transform="translate(-94.176 -235.777)" fill="#263238"/>
          <path id="Trazado_207197" data-name="Trazado 207197" d="M172.536,274.567a4.874,4.874,0,0,1-2.042-.429,5.194,5.194,0,0,1-2.825-3.295,6.909,6.909,0,0,1,3.608-8.066,5.064,5.064,0,0,1,7.161,3.2,6.664,6.664,0,0,1-.34,4.683h0A6.331,6.331,0,0,1,172.536,274.567ZM173.619,263a4.765,4.765,0,0,0-1.988.449,5.97,5.97,0,0,0-2.879,3,5.875,5.875,0,0,0-.306,4.139,4.4,4.4,0,0,0,2.4,2.818c2.382,1.069,5.337-.32,6.576-3.084h0a5.97,5.97,0,0,0,.306-4.146,4.4,4.4,0,0,0-2.4-2.811,4.255,4.255,0,0,0-1.709-.327Z" transform="translate(-99.487 -237.404)" fill="#263238"/>
          <path id="Trazado_207198" data-name="Trazado 207198" d="M167.136,269.452a.347.347,0,0,0-.2-.218,1.416,1.416,0,0,0-.878.129l-.34-.681a2.09,2.09,0,0,1,1.5-.157,1.116,1.116,0,0,1,.681.681Z" transform="translate(-98.947 -239.389)" fill="#263238"/>
          <rect id="Rectángulo_297566" data-name="Rectángulo 297566" width="0.78" height="9.653" transform="translate(49.34 23.524) rotate(-72.646)" fill="#263238"/>
          <path id="Trazado_207199" data-name="Trazado 207199" d="M121.507,354.607S103.6,368.33,87.88,367.54c.64-9.353,1.715-21.783,3.267-31.095,1.606-1.77,2.662-2.845,2.662-2.845l9.53,7.127-2.321,2.913s14.424-.735,19.448,0Z" transform="translate(-74.093 -260.19)" opacity="0.2"/>
          <path id="Trazado_207200" data-name="Trazado 207200" d="M139.789,346.927,154.125,344l.511,12.784s-9.727,3.444-15.3-3Z" transform="translate(-90.524 -263.51)" fill="#ebb376"/>
          <path id="Trazado_207201" data-name="Trazado 207201" d="M171.039,346.971l-1.892,9.612-7.576.211-.511-12.784Z" transform="translate(-97.459 -263.513)" fill="#ebb376"/>
          <path id="Trazado_207202" data-name="Trazado 207202" d="M137.941,348.3l.7,9.863-3.567,1.6L133.55,348.3Z" transform="translate(-88.675 -264.883)" fill="#084a93"/>
          <path id="Trazado_207203" data-name="Trazado 207203" d="M137.941,348.3l.7,9.863-3.567,1.6L133.55,348.3Z" transform="translate(-88.675 -264.883)" fill="#fff" opacity="0.6"/>
          <path id="Trazado_207204" data-name="Trazado 207204" d="M94.122,314.78a16.582,16.582,0,0,0-9.836,5.691c-4.322,5.078-19.557,20.163-16.174,32.477s35.962,3.152,45.914-3.887L112.5,337.6l-22.565,1.654,6.957-4.581C101.664,321.4,94.122,314.78,94.122,314.78Z" transform="translate(-67.626 -254.181)" fill="#084a93"/>
          <path id="Trazado_207205" data-name="Trazado 207205" d="M94.122,314.78a16.582,16.582,0,0,0-9.836,5.691c-4.322,5.078-19.557,20.163-16.174,32.477s35.962,3.152,45.914-3.887L112.5,337.6l-22.565,1.654,6.957-4.581C101.664,321.4,94.122,314.78,94.122,314.78Z" transform="translate(-67.626 -254.181)" fill="#fff" opacity="0.7"/>
          <path id="Trazado_207206" data-name="Trazado 207206" d="M202.56,363.477l4.1-.687v11l-3.254.531Z" transform="translate(-110.71 -269.51)" fill="#084a93"/>
          <path id="Trazado_207207" data-name="Trazado 207207" d="M202.56,363.477l4.1-.687v11l-3.254.531Z" transform="translate(-110.71 -269.51)" fill="#fff" opacity="0.6"/>
          <path id="Trazado_207208" data-name="Trazado 207208" d="M185.833,376.3a13.234,13.234,0,0,1,.088-1.8l.123-.905-.878.517-.524.313a4.187,4.187,0,0,1-.531.2,1.579,1.579,0,0,1-.953,0,1.749,1.749,0,0,1-.762-.551,3.192,3.192,0,0,1-.538-.926L181.088,371l-.545,2.274c-.054.225-.089.456-.129.681a6.23,6.23,0,0,1-.2.633,2.042,2.042,0,0,1-.633.865,1.361,1.361,0,0,1-1.028.088,4.24,4.24,0,0,1-1.212-.531l-1.184-.742.476,1.2a10.131,10.131,0,0,1,.49,1.579,4.8,4.8,0,0,1,.109.817,1.293,1.293,0,0,1-.177.8,1.307,1.307,0,0,0,.463-.762,3.663,3.663,0,0,0,.123-.9,6.212,6.212,0,0,0,0-.715,5.668,5.668,0,0,0,.613.3,2.416,2.416,0,0,0,1.94-.048,2.913,2.913,0,0,0,1.273-1.443v-.089a2.593,2.593,0,0,0,3.029.647,4.658,4.658,0,0,0,.579-.313s0,.048,0,.075a9.108,9.108,0,0,0,.2.953,4.969,4.969,0,0,0,.34.919,2.117,2.117,0,0,0,.592.762,2.369,2.369,0,0,1-.293-.865A6.688,6.688,0,0,1,185.833,376.3Z" transform="translate(-102.28 -272.131)" fill="#084a93"/>
          <path id="Trazado_207209" data-name="Trazado 207209" d="M219.642,353.953a3.893,3.893,0,0,1-1.572-.17,5.707,5.707,0,0,1-1.477-.681,4.423,4.423,0,0,1-1.1-1.178,6.126,6.126,0,0,1-.728-1.464l-.449-1.361-.762,1.2a6.548,6.548,0,0,1-1.171,1.361,2.192,2.192,0,0,1-1.361.626h-.163l-.2-.041a1.905,1.905,0,0,1-.422-.1,5.087,5.087,0,0,1-.824-.354,7.056,7.056,0,0,1-1.463-1.089l-1.184-1.137.245,1.559a12.5,12.5,0,0,1,.157,2.519,3.5,3.5,0,0,1-.238,1.157.769.769,0,0,1-.83.476h-.306l.1.252q.3.769.613,1.532c-.061-.456-.136-.912-.218-1.361h.129a2.16,2.16,0,0,0,.4-.068,3.172,3.172,0,0,0,.361-.218c.089-.1.184-.2.265-.3a3.587,3.587,0,0,0,.511-1.361,8.66,8.66,0,0,0,.15-1.361h0a7.776,7.776,0,0,0,.681.5,6.031,6.031,0,0,0,1.007.5,3.526,3.526,0,0,0,1.178.266,3.451,3.451,0,0,0,2.274-.9,6.312,6.312,0,0,0,.742-.735,7.777,7.777,0,0,0,.436.681,5.637,5.637,0,0,0,1.5,1.423,5.84,5.84,0,0,0,1.886.735,5.5,5.5,0,0,0,1.3.1c-.054.136-.116.272-.163.415a9.251,9.251,0,0,0-.279,1.2,4.683,4.683,0,0,0-.054,1.232,2.437,2.437,0,0,0,.361,1.157,2.546,2.546,0,0,1-.088-1.15,5.855,5.855,0,0,1,.265-1.123,11.57,11.57,0,0,1,.987-2.042l.429-.728Z" transform="translate(-111.741 -265.139)" fill="#084a93"/>
        </g>
        <g id="freepik--Table--inject-17" transform="translate(57.062 294.269)">
          <path id="Trazado_207210" data-name="Trazado 207210" d="M3.022,0H241.746a3.022,3.022,0,0,1,3.022,3.022v7.352H0V3.022A3.022,3.022,0,0,1,3.022,0Z" transform="translate(252.828 14.873) rotate(180)" fill="#084a93"/>
          <rect id="Rectángulo_297567" data-name="Rectángulo 297567" width="244.775" height="5.187" transform="translate(252.828 9.68) rotate(180)" opacity="0.2"/>
          <path id="Trazado_207211" data-name="Trazado 207211" d="M62.147,399.327H317.181a2.927,2.927,0,0,0,2.927-2.92h0a2.927,2.927,0,0,0-2.927-2.927H62.147a2.927,2.927,0,0,0-2.927,2.927h0A2.927,2.927,0,0,0,62.147,399.327Z" transform="translate(-59.22 -393.48)" fill="#084a93"/>
        </g>
        <g id="freepik--device-2--inject-17" transform="translate(225.972 256.937)">
          <path id="Trazado_207212" data-name="Trazado 207212" d="M388.333,340.246l-7.447,33.777a2.539,2.539,0,0,1-2.417,1.92H337.791a1.64,1.64,0,0,1-1.525-2.124L343.7,340.3a2.328,2.328,0,0,1,2.417-1.654h40.679C387.884,338.674,388.571,339.171,388.333,340.246Z" transform="translate(-316.566 -338.638)" fill="#263238"/>
          <path id="Trazado_207213" data-name="Trazado 207213" d="M388.978,340.246l-7.447,33.777a2.539,2.539,0,0,1-2.416,1.92h-39.3a1.641,1.641,0,0,1-1.532-2.124l7.447-33.518a2.307,2.307,0,0,1,2.416-1.654h39.29C388.529,338.673,389.216,339.17,388.978,340.246Z" transform="translate(-317.211 -338.637)" fill="#fff" opacity="0.4"/>
          <path id="Trazado_207214" data-name="Trazado 207214" d="M382.921,375.4l7.406-33.6c.245-1.1-.442-1.6-1.538-1.6H349.5a2.321,2.321,0,0,0-2.417,1.654l-7.522,33.988Z" transform="translate(-317.641 -339.132)" fill="#084a93"/>
          <path id="Trazado_207215" data-name="Trazado 207215" d="M390.33,341.789l-3.907,17.753L382.917,375.4l-23.212.238-20.135.2,7.488-33.981a2.308,2.308,0,0,1,2.41-1.654h39.338C389.895,340.2,390.575,340.7,390.33,341.789Z" transform="translate(-317.644 -339.132)" fill="#fff" opacity="0.4"/>
          <path id="Trazado_207216" data-name="Trazado 207216" d="M386.825,368.62l-3.506,15.854-23.212.238H340.83l3.152-14.5a2.042,2.042,0,0,1,1.974-1.593Z" transform="translate(-318.047 -348.21)" opacity="0.2"/>
          <path id="Trazado_207217" data-name="Trazado 207217" d="M387.087,371.083a2.308,2.308,0,0,0-2.417-1.647H345.38c-1.089,0-1.777.49-1.538,1.593l2.981,13.519h-6.637a.626.626,0,1,0,0,1.253h48.4a1.423,1.423,0,0,0,1.361-1.736Z" transform="translate(-317.641 -348.468)" fill="#084a93"/>
          <path id="Trazado_207218" data-name="Trazado 207218" d="M387.087,371.083a2.308,2.308,0,0,0-2.417-1.647H345.38c-1.089,0-1.777.49-1.538,1.593l2.981,13.519h-6.637a.626.626,0,1,0,0,1.253h48.4a1.423,1.423,0,0,0,1.361-1.736Z" transform="translate(-317.641 -348.468)" fill="#fff" opacity="0.4"/>
          <path id="Trazado_207219" data-name="Trazado 207219" d="M337.546,383.91h-2.28l-.286,1.232H337.2Z" transform="translate(-316.179 -353.092)"/>
          <path id="Trazado_207220" data-name="Trazado 207220" d="M314.317,390.686h-6.569a.381.381,0,0,1-.388-.388.388.388,0,0,1,.388-.388h6.569a7.182,7.182,0,0,0,5.616-2.689,7.951,7.951,0,0,1,6.228-2.981h1.157a.4.4,0,0,1,.388.388.388.388,0,0,1-.388.388h-1.143a7.181,7.181,0,0,0-5.616,2.689A7.958,7.958,0,0,1,314.317,390.686Z" transform="translate(-307.36 -353.198)"/>
        </g>
        <g id="freepik--device-1--inject-17" transform="translate(123.471 233.074)">
          <path id="Trazado_207221" data-name="Trazado 207221" d="M156.78,386.65v2.839c0,1.28,1.545,1.811,2.825,1.811h99.778c1.266,0,2.77-.531,2.77-1.811V386.65Z" transform="translate(-156.78 -330.104)" fill="#263238"/>
          <path id="Trazado_207222" data-name="Trazado 207222" d="M156.78,386.65v2.839c0,1.28,1.545,1.811,2.825,1.811h99.778c1.266,0,2.77-.531,2.77-1.811V386.65Z" transform="translate(-156.78 -330.104)" fill="#fff" opacity="0.4"/>
          <path id="Trazado_207223" data-name="Trazado 207223" d="M206.72,386.65v2.839c0,1.28,1.518,1.811,2.8,1.811h65.811c1.266,0,2.77-.531,2.77-1.811V386.65Z" transform="translate(-172.725 -330.104)" opacity="0.2"/>
          <path id="Trazado_207224" data-name="Trazado 207224" d="M297.111,306.133l-11.878,53.878a4.043,4.043,0,0,1-3.853,3.077H216.488a2.627,2.627,0,0,1-2.437-3.4l11.865-53.47a3.712,3.712,0,0,1,3.86-2.634h64.885C296.4,303.587,297.5,304.376,297.111,306.133Z" transform="translate(-175.04 -303.58)" fill="#263238"/>
          <path id="Trazado_207225" data-name="Trazado 207225" d="M298.141,306.133l-11.878,53.878a4.043,4.043,0,0,1-3.853,3.077H219.724a2.631,2.631,0,0,1-2.451-3.4l11.878-53.47a3.7,3.7,0,0,1,3.86-2.634h62.679C297.433,303.587,298.529,304.376,298.141,306.133Z" transform="translate(-176.07 -303.58)" fill="#fff" opacity="0.4"/>
          <path id="Trazado_207226" data-name="Trazado 207226" d="M282.738,343.645h0c0,4.615-4.942,8.366-8.57,8.366s-5.772-3.751-4.765-8.366,4.636-8.2,8.169-8.345c-1.035,4.615,1.178,8.345,4.765,8.345A2.122,2.122,0,0,0,282.738,343.645Z" transform="translate(-192.66 -313.708)" opacity="0.2"/>
        </g>
      </g>
    </g>
  </g>
</svg>
