<svg xmlns="http://www.w3.org/2000/svg" xmlns:xlink="http://www.w3.org/1999/xlink" width="967.911" height="367.922" viewBox="0 0 967.911 367.922">
  <defs>
    <filter id="Elipse_180" x="83" y="309.922" width="58" height="58" filterUnits="userSpaceOnUse">
      <feOffset dy="3" input="SourceAlpha"/>
      <feGaussianBlur stdDeviation="3" result="blur"/>
      <feFlood flood-opacity="0.161"/>
      <feComposite operator="in" in2="blur"/>
      <feComposite in="SourceGraphic"/>
    </filter>
    <filter id="Elipse_180-2" x="818" y="309.922" width="58" height="58" filterUnits="userSpaceOnUse">
      <feOffset dy="3" input="SourceAlpha"/>
      <feGaussianBlur stdDeviation="3" result="blur-2"/>
      <feFlood flood-opacity="0.161"/>
      <feComposite operator="in" in2="blur-2"/>
      <feComposite in="SourceGraphic"/>
    </filter>
    <filter id="Elipse_180-3" x="454" y="309.922" width="58" height="58" filterUnits="userSpaceOnUse">
      <feOffset dy="3" input="SourceAlpha"/>
      <feGaussianBlur stdDeviation="3" result="blur-3"/>
      <feFlood flood-opacity="0.161"/>
      <feComposite operator="in" in2="blur-3"/>
      <feComposite in="SourceGraphic"/>
    </filter>
  </defs>
  <g id="Grupo_148245" data-name="Grupo 148245" transform="translate(6132 10210)">
    <g id="Grupo_148222" data-name="Grupo 148222">
      <g id="Grupo_146869" data-name="Grupo 146869" transform="translate(-5406 -10200.454)">
        <path id="Trazado_205022" data-name="Trazado 205022" d="M4114.55,590.005V646.53h-80.615Z" transform="translate(-4033.934 -589.975)" fill="#00defc"/>
        <path id="Trazado_205023" data-name="Trazado 205023" d="M4517.963,589.852v56.527h-80.619Z" transform="translate(-4356.667 -589.852)" fill="#00defc"/>
        <path id="Trazado_205024" data-name="Trazado 205024" d="M4437.036,590.005V646.53h80.614Z" transform="translate(-4356.42 -589.975)" fill="#1cb1c9"/>
        <path id="Trazado_205025" data-name="Trazado 205025" d="M4840.463,589.852v56.527h80.614Z" transform="translate(-4679.167 -589.852)" fill="#1cb1c9"/>
        <rect id="Rect치ngulo_297178" data-name="Rect치ngulo 297178" width="241.91" height="149.849" transform="translate(0 56.527)" fill="#1cb1c9"/>
        <rect id="Rect치ngulo_297179" data-name="Rect치ngulo 297179" width="210.576" height="118.254" transform="translate(15.67 72.323)" fill="#fff"/>
        <g id="Grupo_146868" data-name="Grupo 146868" transform="translate(25.975 89.503)">
          <g id="Grupo_146865" data-name="Grupo 146865">
            <path id="Trazado_205026" data-name="Trazado 205026" d="M4163.818,1312.707v21.539c0,4.026,13.666,7.3,30.519,7.3s30.518-3.27,30.518-7.3v-21.539Z" transform="translate(-4163.818 -1257.648)" fill="#ffb30b"/>
            <path id="Trazado_205027" data-name="Trazado 205027" d="M4224.854,1283.523c0,4.027-13.666,7.294-30.518,7.294s-30.519-3.266-30.519-7.294,13.666-7.3,30.519-7.3S4224.854,1279.494,4224.854,1283.523Z" transform="translate(-4163.818 -1228.464)" fill="#29abe2"/>
            <path id="Trazado_205028" data-name="Trazado 205028" d="M4163.818,1193.3v21.537c0,4.031,13.666,7.3,30.519,7.3s30.518-3.265,30.518-7.3V1193.3Z" transform="translate(-4163.818 -1162.12)" fill="#224e89"/>
            <path id="Trazado_205029" data-name="Trazado 205029" d="M4224.854,1164.108c0,4.029-13.666,7.292-30.518,7.292s-30.519-3.263-30.519-7.292,13.666-7.3,30.519-7.3S4224.854,1160.076,4224.854,1164.108Z" transform="translate(-4163.818 -1132.929)" fill="#29abe2"/>
            <path id="Trazado_205030" data-name="Trazado 205030" d="M4163.818,1073.89v21.537c0,4.029,13.666,7.3,30.519,7.3s30.518-3.27,30.518-7.3V1073.89Z" transform="translate(-4163.818 -1066.591)" fill="#0071bc"/>
            <path id="Trazado_205031" data-name="Trazado 205031" d="M4224.854,1044.693c0,4.029-13.666,7.3-30.518,7.3s-30.519-3.266-30.519-7.3,13.666-7.3,30.519-7.3S4224.854,1040.66,4224.854,1044.693Z" transform="translate(-4163.818 -1037.394)" fill="#29abe2"/>
          </g>
          <g id="Grupo_146866" data-name="Grupo 146866" transform="translate(64.465)">
            <path id="Trazado_205032" data-name="Trazado 205032" d="M4486.163,1312.707v21.539c0,4.026,13.664,7.3,30.517,7.3s30.516-3.27,30.516-7.3v-21.539Z" transform="translate(-4486.163 -1257.648)" fill="#224e89"/>
            <path id="Trazado_205033" data-name="Trazado 205033" d="M4547.2,1283.523c0,4.027-13.667,7.294-30.516,7.294s-30.517-3.266-30.517-7.294,13.664-7.3,30.517-7.3S4547.2,1279.494,4547.2,1283.523Z" transform="translate(-4486.163 -1228.464)" fill="#29abe2"/>
            <path id="Trazado_205034" data-name="Trazado 205034" d="M4486.163,1193.3v21.537c0,4.031,13.664,7.3,30.517,7.3s30.516-3.265,30.516-7.3V1193.3Z" transform="translate(-4486.163 -1162.12)" fill="#ffb30b"/>
            <path id="Trazado_205035" data-name="Trazado 205035" d="M4547.2,1164.108c0,4.029-13.667,7.292-30.516,7.292s-30.517-3.263-30.517-7.292,13.664-7.3,30.517-7.3S4547.2,1160.076,4547.2,1164.108Z" transform="translate(-4486.163 -1132.929)" fill="#29abe2"/>
            <path id="Trazado_205036" data-name="Trazado 205036" d="M4486.163,1073.89v21.537c0,4.029,13.664,7.3,30.517,7.3s30.516-3.27,30.516-7.3V1073.89Z" transform="translate(-4486.163 -1066.591)" fill="#224e89"/>
            <path id="Trazado_205037" data-name="Trazado 205037" d="M4547.2,1044.693c0,4.029-13.667,7.3-30.516,7.3s-30.517-3.266-30.517-7.3,13.664-7.3,30.517-7.3S4547.2,1040.66,4547.2,1044.693Z" transform="translate(-4486.163 -1037.394)" fill="#29abe2"/>
          </g>
          <g id="Grupo_146867" data-name="Grupo 146867" transform="translate(128.925)">
            <path id="Trazado_205038" data-name="Trazado 205038" d="M4808.482,1312.707v21.539c0,4.026,13.662,7.3,30.516,7.3s30.526-3.27,30.526-7.3v-21.539Z" transform="translate(-4808.482 -1257.648)" fill="#0071bc"/>
            <path id="Trazado_205039" data-name="Trazado 205039" d="M4869.523,1283.523c0,4.027-13.667,7.294-30.526,7.294s-30.516-3.266-30.516-7.294,13.662-7.3,30.516-7.3S4869.523,1279.494,4869.523,1283.523Z" transform="translate(-4808.482 -1228.464)" fill="#29abe2"/>
            <path id="Trazado_205040" data-name="Trazado 205040" d="M4808.482,1193.3v21.537c0,4.031,13.662,7.3,30.516,7.3s30.526-3.265,30.526-7.3V1193.3Z" transform="translate(-4808.482 -1162.12)" fill="#224e89"/>
            <path id="Trazado_205041" data-name="Trazado 205041" d="M4869.523,1164.108c0,4.029-13.667,7.292-30.526,7.292s-30.516-3.263-30.516-7.292,13.662-7.3,30.516-7.3S4869.523,1160.076,4869.523,1164.108Z" transform="translate(-4808.482 -1132.929)" fill="#29abe2"/>
            <path id="Trazado_205042" data-name="Trazado 205042" d="M4808.482,1073.89v21.537c0,4.029,13.662,7.3,30.516,7.3s30.526-3.27,30.526-7.3V1073.89Z" transform="translate(-4808.482 -1066.591)" fill="#ffb30b"/>
            <path id="Trazado_205043" data-name="Trazado 205043" d="M4869.523,1044.693c0,4.029-13.667,7.3-30.526,7.3s-30.516-3.266-30.516-7.3,13.662-7.3,30.516-7.3S4869.523,1040.66,4869.523,1044.693Z" transform="translate(-4808.482 -1037.394)" fill="#29abe2"/>
          </g>
        </g>
      </g>
      <g id="Grupo_146871" data-name="Grupo 146871" transform="translate(-5770.313 -10210)">
        <g id="Grupo_146870" data-name="Grupo 146870" transform="translate(0 0)">
          <path id="Trazado_205044" data-name="Trazado 205044" d="M2274.262,542.169l-60.8,40.082-.074,53.284,61.2,40.084,60.8-40.09.076-53.278Z" transform="translate(-2213.388 -542.159)" fill="#0071bc"/>
          <path id="Trazado_205045" data-name="Trazado 205045" d="M2884.269,542.12l-60.8,40.086-.076,53.284,61.2,40.082,60.8-40.09.074-53.276Z" transform="translate(-2701.401 -542.12)" fill="#ffb30b"/>
          <path id="Trazado_205046" data-name="Trazado 205046" d="M2579.867,1008.994l-60.8,40.082-.08,53.28,61.2,40.086,60.8-40.086.078-53.28Z" transform="translate(-2457.873 -915.625)" fill="#00defc"/>
        </g>
        <path id="Trazado_205047" data-name="Trazado 205047" d="M2691.768,831.123q-.347-1.614-.815-3.221l-9.4-.469c-.011-.027-.023-.058-.033-.08a32.608,32.608,0,0,0-1.463-3.161l5.8-7.378c-.613-.94-1.26-1.846-1.93-2.733l-8.94,2.961a30.3,30.3,0,0,0-2.523-2.453l2.748-8.985c-.918-.652-1.844-1.282-2.8-1.875l-7.254,5.981c-1.05-.514-2.12-.975-3.221-1.389l-.671-9.37c-1.091-.292-2.19-.523-3.3-.737l-4.6,8.18a32.422,32.422,0,0,0-3.517-.128l-4.019-8.508q-1.657.178-3.32.478l-1.327,9.292a33.411,33.411,0,0,0-3.386,1.151h0l-6.835-6.473c-.988.5-1.945,1.047-2.875,1.626l2.1,9.117a33.777,33.777,0,0,0-2.812,2.364l-8.707-3.585c-.724.807-1.414,1.648-2.07,2.511l5.268,7.745a33.785,33.785,0,0,0-1.832,3.289l-9.417-.185c-.368.99-.7,2.005-.984,3.023l7.7,5.326a33.315,33.315,0,0,0-.529,3.824l-8.844,3.227c.019,1.044.066,2.075.154,3.122l9.1,2.179a33.341,33.341,0,0,0,.941,3.848l-7.076,6.191c.385.959.821,1.9,1.266,2.8l9.274-1.253a32.249,32.249,0,0,0,2.3,3.311l-4.359,8.323c.7.733,1.418,1.455,2.161,2.132l8.215-4.528a34.148,34.148,0,0,0,3.385,2.26l-1.054,9.315c.914.441,1.846.832,2.8,1.188l6.01-7.185a32.33,32.33,0,0,0,3.968.889l2.393,9.074c1,.07,2.021.091,3.038.091l3.015-8.9a33.831,33.831,0,0,0,3.981-.622l5.484,7.571c.972-.3,1.943-.634,2.91-1.019l-.4-9.383a35.83,35.83,0,0,0,3.424-1.98l7.862,5.075c.811-.646,1.6-1.327,2.364-2.029l-3.76-8.634a34.365,34.365,0,0,0,2.4-3.019l9.154,1.9c.541-.918,1.054-1.856,1.515-2.809l-6.631-6.689a33.161,33.161,0,0,0,1.121-3.573l9.243-1.541c.171-1.072.294-2.149.383-3.229l-8.6-3.848a33.367,33.367,0,0,0-.226-3.641ZM2658.8,861.258a22.914,22.914,0,1,1,12.725-29.792A22.9,22.9,0,0,1,2658.8,861.258Z" transform="translate(-2529.048 -746.633)" fill="#fff"/>
        <path id="Trazado_205048" data-name="Trazado 205048" d="M3046.222,764.481c-.121-.56-.257-1.115-.42-1.673l-4.881-.241a.292.292,0,0,1-.02-.043,15.262,15.262,0,0,0-.76-1.638l3.021-3.832c-.327-.488-.665-.967-1.009-1.422l-4.641,1.535c-.418-.447-.856-.869-1.309-1.276l1.422-4.661c-.469-.342-.949-.667-1.455-.974l-3.773,3.106c-.545-.265-1.1-.512-1.661-.722l-.358-4.867c-.564-.154-1.142-.278-1.712-.383l-2.389,4.252a17.8,17.8,0,0,0-1.832-.074l-2.083-4.417c-.578.062-1.15.148-1.719.253l-.7,4.822a17.805,17.805,0,0,0-1.754.6h0l-3.542-3.367c-.521.263-1.015.554-1.505.846l1.1,4.731a17.387,17.387,0,0,0-1.461,1.229l-4.526-1.85c-.37.414-.735.846-1.072,1.3l2.733,4.025a17.963,17.963,0,0,0-.943,1.708l-4.892-.1c-.2.527-.36,1.05-.509,1.578l3.985,2.766a17.007,17.007,0,0,0-.267,2l-4.594,1.675c.006.525.033,1.07.082,1.611l4.725,1.136a17.226,17.226,0,0,0,.49,2l-3.682,3.217c.2.5.43.986.667,1.451l4.816-.652a16.484,16.484,0,0,0,1.189,1.723l-2.258,4.316a15.419,15.419,0,0,0,1.122,1.111l4.262-2.354a17.687,17.687,0,0,0,1.759,1.181l-.545,4.838c.475.232.957.434,1.447.624l3.13-3.733a17.218,17.218,0,0,0,2.063.451l1.237,4.713c.521.035,1.048.054,1.579.049l1.564-4.616a18.74,18.74,0,0,0,2.07-.325l2.854,3.937c.5-.163,1-.338,1.5-.537l-.2-4.874a17.425,17.425,0,0,0,1.774-1.031l4.073,2.645c.436-.342.842-.7,1.239-1.066l-1.959-4.47a17.726,17.726,0,0,0,1.247-1.572l4.756.992c.28-.481.546-.969.8-1.471l-3.453-3.468a17.945,17.945,0,0,0,.58-1.862l4.8-.794c.091-.558.156-1.122.2-1.682l-4.462-2c-.01-.622-.054-1.256-.123-1.889Zm-17.123,15.66a11.906,11.906,0,1,1,6.614-15.478A11.9,11.9,0,0,1,3029.1,780.141Z" transform="translate(-2844.84 -706.147)" fill="#fff"/>
        <path id="Trazado_205049" data-name="Trazado 205049" d="M2851,1237.823c-.142-.671-.3-1.338-.5-2l-5.855-.284a.277.277,0,0,0-.015-.062,20.128,20.128,0,0,0-.906-1.97l3.606-4.581c-.383-.588-.788-1.154-1.2-1.7l-5.561,1.838a19.363,19.363,0,0,0-1.57-1.527l1.712-5.581c-.574-.414-1.142-.809-1.751-1.181l-4.509,3.725a20.775,20.775,0,0,0-2.007-.856l-.418-5.828c-.679-.185-1.36-.333-2.054-.463l-2.857,5.094a19.956,19.956,0,0,0-2.184-.086l-2.5-5.291c-.687.068-1.385.171-2.07.288l-.825,5.793a18.1,18.1,0,0,0-2.114.722h0l-4.242-4.038c-.615.317-1.212.656-1.788,1l1.309,5.684a21.208,21.208,0,0,0-1.747,1.461l-5.423-2.225c-.444.5-.883,1.027-1.284,1.564l3.272,4.816a19.223,19.223,0,0,0-1.128,2.05l-5.863-.123c-.229.615-.424,1.261-.613,1.891l4.779,3.307a20.028,20.028,0,0,0-.317,2.383l-5.5,1.994c0,.652.027,1.3.091,1.957l5.658,1.348a21.535,21.535,0,0,0,.586,2.395l-4.4,3.863c.243.589.5,1.173.79,1.731l5.761-.778a21.576,21.576,0,0,0,1.436,2.062l-2.71,5.166c.443.465.879.91,1.352,1.331l5.1-2.809a19.98,19.98,0,0,0,2.112,1.4l-.669,5.8c.576.263,1.142.513,1.741.739l3.737-4.476a21.485,21.485,0,0,0,2.472.558l1.492,5.643c.626.037,1.261.049,1.887.043l1.875-5.53a18.722,18.722,0,0,0,2.476-.389l3.412,4.721c.6-.187,1.208-.4,1.811-.644l-.245-5.839a22.9,22.9,0,0,0,2.126-1.222l4.892,3.165c.508-.412,1-.846,1.469-1.278l-2.342-5.361a21.079,21.079,0,0,0,1.49-1.875l5.7,1.185c.346-.582.659-1.159.949-1.754l-4.134-4.159a16.31,16.31,0,0,0,.7-2.231l5.75-.947c.113-.671.195-1.348.249-2.025l-5.353-2.383a18.489,18.489,0,0,0-.14-2.264Zm-20.492,18.745a14.252,14.252,0,1,1,7.9-18.541A14.261,14.261,0,0,1,2830.511,1256.568Z" transform="translate(-2681.792 -1082.088)" fill="#fff"/>
        <path id="Trazado_205050" data-name="Trazado 205050" d="M2407.273,700.736c-.163-.772-.35-1.527-.582-2.287l-6.678-.337a.471.471,0,0,1-.025-.056,20.076,20.076,0,0,0-1.043-2.235l4.134-5.248c-.442-.675-.908-1.327-1.379-1.951l-6.351,2.1c-.572-.6-1.173-1.189-1.8-1.737l1.957-6.384c-.646-.465-1.307-.91-1.994-1.334l-5.162,4.252c-.745-.364-1.506-.693-2.278-.978l-.488-6.668c-.774-.206-1.556-.37-2.342-.519l-3.273,5.814c-.825-.072-1.657-.109-2.5-.1l-2.857-6.036c-.792.076-1.572.2-2.359.342l-.949,6.6a24.572,24.572,0,0,0-2.406.821h0l-4.849-4.6c-.706.354-1.389.749-2.054,1.148l1.506,6.477a23.387,23.387,0,0,0-2,1.683l-6.189-2.538c-.514.574-1.011,1.167-1.472,1.774l3.742,5.509a24.909,24.909,0,0,0-1.293,2.338l-6.7-.134c-.268.71-.5,1.432-.7,2.157l5.46,3.779a23.848,23.848,0,0,0-.369,2.731L2347.7,707.4c.01.724.043,1.467.111,2.214l6.464,1.55a25.9,25.9,0,0,0,.673,2.735l-5.038,4.4c.284.681.591,1.338.912,1.986l6.586-.885a24.729,24.729,0,0,0,1.632,2.356l-3.095,5.906c.5.531,1.01,1.041,1.539,1.517l5.832-3.219a22.034,22.034,0,0,0,2.408,1.607l-.743,6.629a20.718,20.718,0,0,0,1.984.842l4.277-5.1a27.006,27.006,0,0,0,2.82.624l1.694,6.45c.724.043,1.436.064,2.159.064l2.147-6.32a23.593,23.593,0,0,0,2.832-.449l3.9,5.386c.693-.212,1.379-.449,2.062-.729l-.272-6.672a23.04,23.04,0,0,0,2.431-1.4l5.579,3.614c.589-.467,1.142-.947,1.687-1.451l-2.68-6.125a26.149,26.149,0,0,0,1.708-2.147l6.51,1.354c.381-.661.745-1.327,1.078-2.009l-4.715-4.75a24.877,24.877,0,0,0,.8-2.546l6.571-1.082c.126-.759.214-1.537.276-2.3l-6.114-2.731a25.744,25.744,0,0,0-.169-2.589Zm-23.431,21.43a16.289,16.289,0,1,1,9.047-21.185A16.3,16.3,0,0,1,2383.842,722.165Z" transform="translate(-2320.838 -650.045)" fill="#fff"/>
        <path id="Trazado_205051" data-name="Trazado 205051" d="M2672.32,1382.614c-.082-.383-.173-.766-.286-1.142l-3.338-.163a.086.086,0,0,0-.006-.037c-.154-.389-.333-.759-.517-1.122l2.052-2.608c-.216-.333-.446-.658-.683-.973l-3.168,1.054a11.9,11.9,0,0,0-.9-.873l.979-3.184c-.321-.237-.652-.457-1-.665l-2.572,2.12c-.37-.175-.749-.35-1.146-.5l-.239-3.316c-.387-.107-.772-.195-1.173-.268l-1.63,2.9c-.4-.031-.829-.05-1.241-.045l-1.428-3.021c-.391.045-.786.107-1.179.169l-.473,3.3a11.017,11.017,0,0,0-1.2.409h0l-2.42-2.3c-.35.181-.685.376-1.02.576l.749,3.243a11.4,11.4,0,0,0-1,.829l-3.089-1.266c-.255.288-.5.582-.737.889l1.867,2.746a11.609,11.609,0,0,0-.642,1.167l-3.344-.07c-.126.358-.243.716-.343,1.079l2.719,1.887a13,13,0,0,0-.185,1.356l-3.132,1.14c0,.37.016.739.053,1.117l3.227.77a13.4,13.4,0,0,0,.333,1.368l-2.508,2.2a10.752,10.752,0,0,0,.449.984l3.283-.438c.253.407.527.8.821,1.179l-1.548,2.941c.251.263.506.514.774.759l2.908-1.607a12.66,12.66,0,0,0,1.2.811l-.376,3.3c.323.138.648.288.987.42l2.135-2.552a11.558,11.558,0,0,0,1.412.313l.842,3.223c.36.019.721.025,1.079.019l1.064-3.147a11,11,0,0,0,1.416-.22l1.949,2.682a9.143,9.143,0,0,0,1.027-.37l-.14-3.322a12.448,12.448,0,0,0,1.214-.7l2.787,1.813c.288-.251.57-.49.84-.733l-1.34-3.062a9.921,9.921,0,0,0,.85-1.072l3.25.677c.194-.331.377-.657.544-1l-2.359-2.371a9.982,9.982,0,0,0,.4-1.28l3.274-.539c.068-.381.113-.765.148-1.152l-3.054-1.362a11.109,11.109,0,0,0-.08-1.286Zm-11.685,10.691a8.126,8.126,0,1,1,4.509-10.572A8.132,8.132,0,0,1,2660.636,1393.3Z" transform="translate(-2556.764 -1205.055)" fill="#fff"/>
      </g>
      <g id="Grupo_146879" data-name="Grupo 146879" transform="translate(-6132 -10202.236)">
        <g id="Grupo_146872" data-name="Grupo 146872" transform="translate(0 0)">
          <path id="Trazado_205052" data-name="Trazado 205052" d="M857.219,1426.858c-2.853-.014-4.212.673-4.212,1.806s1.42,1.737,4.25,1.737c2.761,0,4.214-.586,4.214-1.758C861.471,1427.569,860.111,1426.844,857.219,1426.858Z" transform="translate(-763.381 -1257.684)" fill="#0071bc"/>
          <path id="Trazado_205053" data-name="Trazado 205053" d="M857.219,919.482c-2.853-.02-4.212.666-4.212,1.8s1.42,1.74,4.25,1.74c2.761,0,4.214-.592,4.214-1.759C861.471,920.189,860.111,919.462,857.219,919.482Z" transform="translate(-763.381 -851.777)" fill="#0071bc"/>
          <path id="Trazado_205054" data-name="Trazado 205054" d="M857.219,1571.842c-2.853-.02-4.212.67-4.212,1.8s1.42,1.744,4.25,1.744c2.761,0,4.214-.591,4.214-1.759C861.471,1572.553,860.111,1571.822,857.219,1571.842Z" transform="translate(-763.381 -1373.673)" fill="#0071bc"/>
          <path id="Trazado_205055" data-name="Trazado 205055" d="M857.219,702.022c-2.853-.019-4.212.666-4.212,1.8s1.42,1.745,4.25,1.745c2.761,0,4.214-.6,4.214-1.761C861.471,702.728,860.111,702,857.219,702.022Z" transform="translate(-763.381 -677.806)" fill="#0071bc"/>
          <path id="Trazado_205056" data-name="Trazado 205056" d="M857.219,1281.912c-2.853-.019-4.212.67-4.212,1.8s1.42,1.745,4.25,1.745c2.761,0,4.214-.6,4.214-1.764C861.471,1282.619,860.111,1281.894,857.219,1281.912Z" transform="translate(-763.381 -1141.725)" fill="#0071bc"/>
          <path id="Trazado_205057" data-name="Trazado 205057" d="M857.219,1499.372c-2.853-.025-4.212.666-4.212,1.794s1.42,1.745,4.25,1.745c2.761,0,4.214-.592,4.214-1.761C861.471,1500.079,860.111,1499.347,857.219,1499.372Z" transform="translate(-763.381 -1315.696)" fill="#0071bc"/>
          <path id="Trazado_205058" data-name="Trazado 205058" d="M857.219,1064.45c-2.853-.025-4.212.672-4.212,1.8s1.42,1.744,4.25,1.744c2.761,0,4.214-.591,4.214-1.764C861.471,1065.156,860.111,1064.425,857.219,1064.45Z" transform="translate(-763.381 -967.753)" fill="#0071bc"/>
          <path id="Trazado_205059" data-name="Trazado 205059" d="M1033.841,788.343c-2.854-.017-4.209.672-4.209,1.806s1.414,1.739,4.25,1.739c2.756,0,4.214-.6,4.214-1.759C1038.1,789.057,1036.735,788.326,1033.841,788.343Z" transform="translate(-904.683 -746.864)" fill="#0071bc"/>
          <path id="Trazado_205060" data-name="Trazado 205060" d="M1033.841,860.834c-2.854-.02-4.209.673-4.209,1.8s1.414,1.745,4.25,1.745c2.756,0,4.214-.592,4.214-1.758C1038.1,861.544,1036.735,860.814,1033.841,860.834Z" transform="translate(-904.683 -804.858)" fill="#0071bc"/>
          <path id="Trazado_205061" data-name="Trazado 205061" d="M1365.777,843.889c-2.853-.022-4.215.667-4.215,1.8s1.42,1.744,4.256,1.744a7.6,7.6,0,0,0,3.359-.562c-.111-.869-.25-1.737-.427-2.589A8.643,8.643,0,0,0,1365.777,843.889Z" transform="translate(-1170.231 -791.301)" fill="#0071bc"/>
          <path id="Trazado_205062" data-name="Trazado 205062" d="M1033.841,1005.78c-2.854-.017-4.209.672-4.209,1.8s1.414,1.741,4.25,1.741c2.756,0,4.214-.591,4.214-1.761C1038.1,1006.492,1036.735,1005.763,1033.841,1005.78Z" transform="translate(-904.683 -920.816)" fill="#0071bc"/>
          <path id="Trazado_205063" data-name="Trazado 205063" d="M1033.841,1585.708c-2.854-.025-4.209.664-4.209,1.8s1.414,1.745,4.25,1.745c2.756,0,4.214-.6,4.214-1.766C1038.1,1586.413,1036.735,1585.683,1033.841,1585.708Z" transform="translate(-904.683 -1384.766)" fill="#0071bc"/>
          <path id="Trazado_205064" data-name="Trazado 205064" d="M1189.167,1513.194c-2.845-.016-4.208.674-4.208,1.8s1.416,1.74,4.248,1.74c2.761,0,4.217-.592,4.217-1.758C1193.425,1513.9,1192.064,1513.178,1189.167,1513.194Z" transform="translate(-1028.947 -1326.753)" fill="#0071bc"/>
          <path id="Trazado_205065" data-name="Trazado 205065" d="M680.616,771.4c-2.853-.019-4.211.67-4.211,1.8s1.417,1.745,4.251,1.745c2.755,0,4.208-.592,4.208-1.766C684.864,772.109,683.509,771.386,680.616,771.4Z" transform="translate(-622.097 -733.313)" fill="#0071bc"/>
          <path id="Trazado_205066" data-name="Trazado 205066" d="M1033.841,1440.726c-2.854-.017-4.209.667-4.209,1.8s1.414,1.744,4.25,1.744c2.756,0,4.214-.6,4.214-1.764C1038.1,1441.438,1036.735,1440.708,1033.841,1440.726Z" transform="translate(-904.683 -1268.778)" fill="#0071bc"/>
          <path id="Trazado_205067" data-name="Trazado 205067" d="M1033.841,1223.241c-2.854-.012-4.209.672-4.209,1.8s1.414,1.74,4.25,1.74c2.756,0,4.214-.588,4.214-1.761C1038.1,1223.954,1036.735,1223.229,1033.841,1223.241Z" transform="translate(-904.683 -1094.788)" fill="#0071bc"/>
          <path id="Trazado_205068" data-name="Trazado 205068" d="M509.954,868.161c2.759,0,4.215-.592,4.215-1.758a1.178,1.178,0,0,0-.373-.841,34.261,34.261,0,0,0-6.609,2.286A9.937,9.937,0,0,0,509.954,868.161Z" transform="translate(-486.721 -808.641)" fill="#0071bc"/>
          <path id="Trazado_205069" data-name="Trazado 205069" d="M508.938,1370.024c0-1.072-1.363-1.8-4.25-1.776-2.3-.016-3.609.43-4.04,1.191a35.6,35.6,0,0,0,5.278,2.3C507.893,1371.577,508.938,1371.01,508.938,1370.024Z" transform="translate(-481.49 -1210.794)" fill="#0071bc"/>
          <path id="Trazado_205070" data-name="Trazado 205070" d="M1189.167,1368.247c-2.845-.025-4.208.669-4.208,1.8s1.416,1.745,4.248,1.745c2.761,0,4.217-.6,4.217-1.766C1193.425,1368.952,1192.064,1368.222,1189.167,1368.247Z" transform="translate(-1028.947 -1210.794)" fill="#0071bc"/>
          <path id="Trazado_205071" data-name="Trazado 205071" d="M1029.64,1660.032a37.792,37.792,0,0,0,3.383-1.751C1030.76,1658.394,1029.663,1659.037,1029.64,1660.032Z" transform="translate(-904.69 -1442.825)" fill="#0071bc"/>
          <path id="Trazado_205072" data-name="Trazado 205072" d="M1361.562,776.724c0,.836.778,1.388,2.322,1.616q-.9-1.312-1.9-2.534A1.266,1.266,0,0,0,1361.562,776.724Z" transform="translate(-1170.231 -736.834)" fill="#0071bc"/>
          <path id="Trazado_205073" data-name="Trazado 205073" d="M1189.352,721.061c2.761,0,4.217-.6,4.217-1.766,0-.577-.414-1.053-1.236-1.366a31.994,31.994,0,0,0-7.193,1.609C1185.329,720.525,1186.718,721.061,1189.352,721.061Z" transform="translate(-1029.091 -690.533)" fill="#0071bc"/>
          <path id="Trazado_205074" data-name="Trazado 205074" d="M859.775,613.779c2.761,0,4.214-.6,4.214-1.759,0-1.028-1.259-1.73-3.9-1.77a36.361,36.361,0,0,0-3.936,2.853A6.976,6.976,0,0,0,859.775,613.779Z" transform="translate(-765.899 -604.388)" fill="#0071bc"/>
          <path id="Trazado_205075" data-name="Trazado 205075" d="M503.988,1078.272c-2.855-.016-4.215.675-4.215,1.8s1.417,1.745,4.25,1.745c2.759,0,4.215-.6,4.215-1.764C508.238,1078.981,506.876,1078.256,503.988,1078.272Z" transform="translate(-480.79 -978.811)" fill="#0071bc"/>
          <path id="Trazado_205076" data-name="Trazado 205076" d="M680.616,1496.271c-2.853-.022-4.211.666-4.211,1.8s1.417,1.739,4.251,1.739c2.755,0,4.208-.592,4.208-1.758C684.864,1496.976,683.509,1496.249,680.616,1496.271Z" transform="translate(-622.097 -1313.215)" fill="#0071bc"/>
          <path id="Trazado_205077" data-name="Trazado 205077" d="M680.616,1351.272c-2.853-.014-4.211.67-4.211,1.8s1.417,1.74,4.251,1.74c2.755,0,4.208-.592,4.208-1.766C684.864,1351.981,683.509,1351.258,680.616,1351.272Z" transform="translate(-622.097 -1197.214)" fill="#0071bc"/>
          <path id="Trazado_205078" data-name="Trazado 205078" d="M503.988,1150.787c-2.855-.02-4.215.669-4.215,1.8s1.417,1.74,4.25,1.74c2.759,0,4.215-.6,4.215-1.766C508.238,1151.5,506.876,1150.767,503.988,1150.787Z" transform="translate(-480.79 -1036.824)" fill="#0071bc"/>
          <path id="Trazado_205079" data-name="Trazado 205079" d="M680.616,1133.812c-2.853-.014-4.211.67-4.211,1.8s1.417,1.745,4.251,1.745c2.755,0,4.208-.592,4.208-1.761C684.864,1134.523,683.509,1133.8,680.616,1133.812Z" transform="translate(-622.097 -1023.244)" fill="#0071bc"/>
          <path id="Trazado_205080" data-name="Trazado 205080" d="M503.988,1005.78c-2.855-.017-4.215.672-4.215,1.8s1.417,1.741,4.25,1.741c2.759,0,4.215-.591,4.215-1.761C508.238,1006.492,506.876,1005.763,503.988,1005.78Z" transform="translate(-480.79 -920.816)" fill="#0071bc"/>
          <path id="Trazado_205081" data-name="Trazado 205081" d="M680.616,843.889c-2.853-.022-4.211.667-4.211,1.8s1.417,1.744,4.251,1.744c2.755,0,4.208-.6,4.208-1.764C684.864,844.594,683.509,843.867,680.616,843.889Z" transform="translate(-622.097 -791.301)" fill="#0071bc"/>
          <path id="Trazado_205082" data-name="Trazado 205082" d="M536.87,1440.648l-.566-1.187c.145.416.3.825.464,1.227h.1Z" transform="translate(-510.015 -1267.766)" fill="#0071bc"/>
          <path id="Trazado_205083" data-name="Trazado 205083" d="M1365.777,1133.812c-2.853-.014-4.215.67-4.215,1.8s1.42,1.745,4.256,1.745c2.758,0,4.208-.592,4.208-1.761C1370.026,1134.523,1368.671,1133.8,1365.777,1133.812Z" transform="translate(-1170.231 -1023.244)" fill="#0071bc"/>
          <path id="Trazado_205084" data-name="Trazado 205084" d="M1189.167,1150.787c-2.845-.02-4.208.669-4.208,1.8s1.416,1.74,4.248,1.74c2.761,0,4.217-.6,4.217-1.766C1193.425,1151.5,1192.064,1150.767,1189.167,1150.787Z" transform="translate(-1028.947 -1036.824)" fill="#0071bc"/>
          <path id="Trazado_205085" data-name="Trazado 205085" d="M1189.167,1078.272c-2.845-.016-4.208.675-4.208,1.8s1.416,1.745,4.248,1.745c2.761,0,4.217-.6,4.217-1.764C1193.425,1078.981,1192.064,1078.256,1189.167,1078.272Z" transform="translate(-1028.947 -978.811)" fill="#0071bc"/>
          <path id="Trazado_205086" data-name="Trazado 205086" d="M604.064,640.606c0-.411-.016-.823-.034-1.242a9.446,9.446,0,0,1-3.555.617c-3.85,0-6.495-1.556-6.495-4.726,0-3.226,2.894-4.642,6.417-4.662a10.581,10.581,0,0,1,2.158.225,32.286,32.286,0,0,0-2.244-5.35c-3.754-.039-6.331-1.588-6.331-4.72a4.02,4.02,0,0,1,.955-2.683,32.389,32.389,0,0,0-23.381-9.92c-.111,0-.219.006-.328.006a4.4,4.4,0,0,1,.3,1.583c0,3.34-2.967,4.637-6.376,4.637-3.367,0-5.815-1.181-6.371-3.612-.709.3-1.409.625-2.1.973a38.085,38.085,0,0,0-25.834-29.012h-3.042v-.828a38.094,38.094,0,0,0-25.069,2.85,4.158,4.158,0,0,1,2.4,3.864c0,3.333-2.965,4.636-6.376,4.636-2.467,0-4.43-.645-5.522-1.939a38.044,38.044,0,0,0-8.554,11.862,31.122,31.122,0,0,0-25.431,2.342h7.771v-.034l-1.128-2.378,2.181-.481,1.53,3.3v2.411H457.167v-1.526a31.005,31.005,0,0,0-13.388,30.236c-1.111-.1-2.24-.156-3.383-.156a37.728,37.728,0,0,0-6.112.5,4.44,4.44,0,0,1,.216,1.356c0,3.331-2.969,4.634-6.375,4.634-2.412,0-4.351-.608-5.462-1.845-10.929,6.317-17.811,18.416-17.811,32.333a39.3,39.3,0,0,0,3.981,17.433,36.019,36.019,0,0,0,13.155,47.133c.845-2.014,3.236-2.948,6.062-2.964,3.6,0,6.45,1.531,6.45,4.751,0,2.894-2.237,4.248-5.057,4.564a32.4,32.4,0,0,0,1.291,6.637l2.028-.436,1.531,3.284v2.42h-1.413a32.533,32.533,0,0,0,43.807,14.085,38.06,38.06,0,0,0,15.8,24.094v-.275h9.863v-.041l-1.131-2.369,2.181-.484,1.534,3.292V797.4h-8.192a38.081,38.081,0,0,0,30.959,1.644,4.753,4.753,0,0,1-.1-.944c0-3.222,2.891-4.626,6.412-4.647a9.806,9.806,0,0,1,2.975.433,38.233,38.233,0,0,0,11.7-14.548,31.133,31.133,0,0,0,41.234-29.4,30.63,30.63,0,0,0-.322-4.462c1.113.094,2.24.153,3.384.153,20.718,0,35.542-16.554,35.542-36.979a39.372,39.372,0,0,0-3.981-17.44,36.048,36.048,0,0,0-20.475-50.6ZM421.844,652.392h9.862v-.045l-1.131-2.373,2.186-.475,1.531,3.289V655.2H421.844Zm12.448,75.294H421.844v-2.817h9.862v-.036l-1.131-2.375,2.186-.483,1.531,3.3Zm0-14.5H421.844v-2.817h9.862v-.036l-1.131-2.38,2.186-.47,1.531,3.294Zm-6.167-11.839c-3.845,0-6.49-1.548-6.49-4.729,0-3.211,2.89-4.633,6.415-4.653,3.6,0,6.45,1.536,6.45,4.751C434.5,700.048,431.531,701.35,428.125,701.35Zm0-14.494c-3.845,0-6.49-1.552-6.49-4.726,0-3.222,2.89-4.636,6.415-4.656,3.6,0,6.45,1.531,6.45,4.75C434.5,685.554,431.531,686.855,428.125,686.855Zm0-14.493c-3.845,0-6.49-1.555-6.49-4.731,0-3.22,2.89-4.636,6.415-4.656,3.6,0,6.45,1.536,6.45,4.753C434.5,671.061,431.531,672.362,428.125,672.362Zm35.32,98.082c-3.848,0-6.492-1.55-6.492-4.731,0-3.215,2.894-4.631,6.417-4.651,3.6,0,6.456,1.531,6.456,4.745C469.825,769.143,466.855,770.444,463.444,770.444Zm2.456-22.383,2.181-.481,1.53,3.294v2.411H457.167v-2.809h9.862v-.045Zm-2.456-6.611c-3.848,0-6.492-1.548-6.492-4.725,0-3.22,2.894-4.637,6.417-4.657,3.6,0,6.456,1.529,6.456,4.751C469.825,740.149,466.855,741.45,463.444,741.45Zm2.456-36.884,2.181-.477,1.53,3.294V709.8H457.167v-2.818h9.862v-.034Zm0,14.5,2.181-.483,1.53,3.3V724.3H457.167v-2.818h9.862v-.036Zm-2.456-21.107c-3.848,0-6.492-1.553-6.492-4.729,0-3.216,2.894-4.633,6.417-4.653,3.6,0,6.456,1.53,6.456,4.747C469.825,696.659,466.855,697.961,463.444,697.961Zm2.456-51.377,2.181-.481,1.53,3.3v2.409H457.167V649h9.862v-.045Zm0,14.5,2.181-.481,1.53,3.294V666.3H457.167v-2.814h9.862v-.038Zm0,14.491,2.181-.478,1.53,3.3v2.416H457.167v-2.819h9.862v-.041Zm-2.456-35.592c-3.848,0-6.492-1.556-6.492-4.726,0-3.226,2.894-4.642,6.417-4.662,3.6,0,6.456,1.533,6.456,4.75C469.825,638.674,466.855,639.981,463.444,639.981Zm0-14.5c-3.848,0-6.492-1.552-6.492-4.731,0-3.209,2.894-4.631,6.417-4.646,3.6,0,6.456,1.531,6.456,4.742C469.825,624.177,466.855,625.479,463.444,625.479Zm35.32,160.083c-3.845,0-6.489-1.552-6.489-4.728,0-3.217,2.889-4.634,6.414-4.656,3.6,0,6.451,1.531,6.451,4.753C505.14,784.26,502.175,785.562,498.764,785.562Zm0-14.493c-3.845,0-6.489-1.548-6.489-4.734,0-3.216,2.889-4.634,6.414-4.653,3.6,0,6.451,1.531,6.451,4.756C505.14,769.763,502.175,771.069,498.764,771.069Zm0-14.5c-3.845,0-6.489-1.556-6.489-4.731,0-3.217,2.889-4.631,6.414-4.651,3.6,0,6.451,1.53,6.451,4.744C505.14,755.268,502.175,756.57,498.764,756.57Zm2.453-22.389,2.181-.476L504.933,737v2.411H492.485V736.6h9.863v-.041Zm-2.453-6.606c-3.845,0-6.489-1.548-6.489-4.723,0-3.222,2.889-4.639,6.414-4.659,3.6,0,6.451,1.531,6.451,4.751C505.14,726.273,502.175,727.575,498.764,727.575Zm2.453-36.884,2.181-.47,1.534,3.287v2.411H492.485v-2.808h9.863v-.044Zm0,14.5,2.181-.474,1.534,3.292v2.414H492.485V707.6h9.863v-.039Zm-2.453-21.1c-3.845,0-6.489-1.548-6.489-4.729,0-3.215,2.889-4.633,6.414-4.648,3.6,0,6.451,1.526,6.451,4.742C505.14,682.788,502.175,684.085,498.764,684.085Zm2.453-22.386,2.181-.48,1.534,3.3v2.409H492.485v-2.814h9.863v-.034Zm-2.453-6.606c-3.845,0-6.489-1.551-6.489-4.726,0-3.219,2.889-4.637,6.414-4.656,3.6,0,6.451,1.531,6.451,4.747C505.14,653.792,502.175,655.093,498.764,655.093Zm2.453-36.879,2.181-.483,1.534,3.3v2.414H492.485v-2.817h9.863v-.036Zm0,14.5,2.181-.478,1.534,3.3v2.4H492.485v-2.808h9.863v-.045ZM498.764,611.6c-3.845,0-6.489-1.551-6.489-4.726,0-3.219,2.889-4.636,6.414-4.651,3.6,0,6.451,1.526,6.451,4.753C505.14,610.3,502.175,611.6,498.764,611.6Zm29.044-17.2h9.862v-.039l-1.131-2.375,2.186-.48,1.53,3.3v2.409H527.808Zm0,14.493h9.862v-.036l-1.131-2.376,2.186-.477,1.53,3.289v2.412H527.808Zm6.281,179.432c-3.848,0-6.492-1.553-6.492-4.729,0-3.215,2.891-4.628,6.412-4.648,3.6,0,6.457,1.526,6.457,4.747C540.466,787.032,537.5,788.329,534.089,788.329Zm2.45-22.381,2.186-.478,1.53,3.291v2.411H527.808v-2.808h9.862v-.047Zm-2.45-6.606c-3.848,0-6.492-1.556-6.492-4.731,0-3.226,2.891-4.636,6.412-4.651,3.6,0,6.457,1.526,6.457,4.747C540.466,758.035,537.5,759.342,534.089,759.342Zm2.45-36.884,2.186-.483,1.53,3.3v2.416H527.808v-2.817h9.862v-.036Zm0,14.495,2.186-.48,1.53,3.294v2.414H527.808v-2.809h9.862v-.041Zm-2.45-21.105c-3.848,0-6.492-1.556-6.492-4.726,0-3.22,2.891-4.636,6.412-4.656,3.6,0,6.457,1.531,6.457,4.747C540.466,714.546,537.5,715.847,534.089,715.847Zm2.45-36.879,2.186-.483,1.53,3.3V684.2H527.808v-2.817h9.862v-.036Zm0,14.49,2.186-.475,1.53,3.294v2.415H527.808v-2.815h9.862v-.041Zm-2.45-21.1c-3.848,0-6.492-1.555-6.492-4.731,0-3.22,2.891-4.636,6.412-4.656,3.6,0,6.457,1.536,6.457,4.753C540.466,671.061,537.5,672.362,534.089,672.362Zm2.45-22.389,2.186-.475,1.53,3.289V655.2H527.808v-2.812h9.862v-.045Zm-2.45-6.606c-3.848,0-6.492-1.553-6.492-4.733,0-3.211,2.891-4.631,6.412-4.647,3.6,0,6.457,1.531,6.457,4.745C540.466,642.064,537.5,643.367,534.089,643.367Zm0-14.495c-3.848,0-6.492-1.555-6.492-4.736,0-3.211,2.891-4.626,6.412-4.646,3.6,0,6.457,1.526,6.457,4.747C540.466,627.571,537.5,628.873,534.089,628.873Zm24.783-5.481h9.865v-.036l-1.131-2.375,2.183-.475,1.531,3.289v2.416H558.872Zm6.281,150.443c-3.845,0-6.489-1.556-6.489-4.733,0-3.216,2.89-4.631,6.407-4.65,3.6,0,6.457,1.531,6.457,4.748C571.529,772.531,568.562,773.835,565.152,773.835Zm2.453-22.385,2.183-.477,1.531,3.284v2.42H558.872v-2.819h9.865v-.039Zm-2.453-6.611c-3.845,0-6.489-1.548-6.489-4.725,0-3.215,2.89-4.637,6.407-4.658,3.6,0,6.457,1.531,6.457,4.751C571.529,743.538,568.562,744.839,565.152,744.839Zm2.453-36.884,2.183-.47,1.531,3.294v2.409H558.872v-2.817h9.865v-.036Zm0,14.5,2.183-.483,1.531,3.3v2.416H558.872v-2.817h9.865v-.036Zm-2.453-21.108c-3.845,0-6.489-1.548-6.489-4.729,0-3.211,2.89-4.633,6.407-4.653,3.6,0,6.457,1.536,6.457,4.751C571.529,700.048,568.562,701.35,565.152,701.35Zm0-14.494c-3.845,0-6.489-1.552-6.489-4.726,0-3.222,2.89-4.636,6.407-4.656,3.6,0,6.457,1.531,6.457,4.75C571.529,685.554,568.562,686.855,565.152,686.855Zm0-14.493c-3.845,0-6.489-1.555-6.489-4.731,0-3.22,2.89-4.636,6.407-4.656,3.6,0,6.457,1.536,6.457,4.753C571.529,671.061,568.562,672.362,565.152,672.362Zm2.453-22.389,2.183-.475,1.531,3.289V655.2H558.872v-2.812h9.865v-.045Zm-2.453-6.606c-3.845,0-6.489-1.553-6.489-4.733,0-3.211,2.89-4.631,6.407-4.647,3.6,0,6.457,1.531,6.457,4.745C571.529,642.064,568.562,643.367,565.152,643.367ZM594.193,649h9.86v-.045l-1.125-2.373,2.18-.481,1.533,3.3v2.409H594.193Zm0,14.488h9.86v-.038l-1.125-2.372,2.18-.481,1.533,3.294V666.3H594.193Zm0,14.5h9.86v-.041l-1.125-2.375,2.18-.478,1.533,3.3v2.416H594.193Zm6.282,63.462c-3.85,0-6.495-1.548-6.495-4.725,0-3.22,2.894-4.637,6.417-4.657,3.6,0,6.456,1.529,6.456,4.751C606.853,740.149,603.88,741.45,600.475,741.45Zm2.453-36.884,2.18-.477,1.533,3.294V709.8H594.193v-2.818h9.86v-.034Zm0,14.5,2.18-.483,1.533,3.3V724.3H594.193v-2.818h9.86v-.036Zm-2.453-21.107c-3.85,0-6.495-1.553-6.495-4.729,0-3.216,2.894-4.633,6.417-4.653,3.6,0,6.456,1.53,6.456,4.747C606.853,696.659,603.88,697.961,600.475,697.961Z" transform="translate(-404.851 -580.938)" fill="#224e89"/>
          <path id="Trazado_205087" data-name="Trazado 205087" d="M1189.167,1005.78c-2.845-.017-4.208.672-4.208,1.8s1.416,1.741,4.248,1.741c2.761,0,4.217-.591,4.217-1.761C1193.425,1006.492,1192.064,1005.763,1189.167,1005.78Z" transform="translate(-1028.947 -920.816)" fill="#0071bc"/>
          <path id="Trazado_205088" data-name="Trazado 205088" d="M1189.167,860.834c-2.845-.02-4.208.673-4.208,1.8s1.416,1.745,4.248,1.745c2.761,0,4.217-.592,4.217-1.758C1193.425,861.544,1192.064,860.814,1189.167,860.834Z" transform="translate(-1028.947 -804.858)" fill="#0071bc"/>
          <path id="Trazado_205089" data-name="Trazado 205089" d="M1365.777,1351.272c-2.853-.014-4.215.67-4.215,1.8s1.42,1.74,4.256,1.74c2.758,0,4.208-.592,4.208-1.766C1370.026,1351.981,1368.671,1351.258,1365.777,1351.272Z" transform="translate(-1170.231 -1197.214)" fill="#0071bc"/>
          <path id="Trazado_205090" data-name="Trazado 205090" d="M499.375,869.138c3.406,0,6.375-1.3,6.375-4.634a4.44,4.44,0,0,0-.216-1.356c-.8.134-1.581.292-2.358.483a1.178,1.178,0,0,1,.373.841c0,1.166-1.456,1.758-4.215,1.758a9.937,9.937,0,0,1-2.767-.313c-.909.423-1.794.878-2.655,1.377C495.024,868.531,496.963,869.138,499.375,869.138Z" transform="translate(-476.102 -806.709)" fill="#fff"/>
          <path id="Trazado_205091" data-name="Trazado 205091" d="M502.267,927.047l-1.531-3.289-2.186.475,1.131,2.373v.045H489.82v2.812h12.448Z" transform="translate(-472.827 -855.198)" fill="#fff"/>
          <path id="Trazado_205092" data-name="Trazado 205092" d="M495.188,991.148c-3.525.02-6.415,1.436-6.415,4.656,0,3.176,2.645,4.731,6.49,4.731,3.406,0,6.375-1.3,6.375-4.634C501.638,992.684,498.786,991.148,495.188,991.148Zm.034,6.472c-2.833,0-4.25-.606-4.25-1.74s1.361-1.822,4.215-1.8c2.887-.017,4.25.713,4.25,1.784C499.438,997.029,497.982,997.62,495.223,997.62Z" transform="translate(-471.99 -909.111)" fill="#fff"/>
          <path id="Trazado_205093" data-name="Trazado 205093" d="M495.188,1063.641c-3.525.02-6.415,1.434-6.415,4.656,0,3.175,2.645,4.726,6.49,4.726,3.406,0,6.375-1.3,6.375-4.633C501.638,1065.172,498.786,1063.641,495.188,1063.641Zm.034,6.475c-2.833,0-4.25-.617-4.25-1.745s1.361-1.819,4.215-1.8c2.887-.016,4.25.709,4.25,1.784C499.438,1069.519,497.982,1070.116,495.223,1070.116Z" transform="translate(-471.99 -967.106)" fill="#fff"/>
          <path id="Trazado_205094" data-name="Trazado 205094" d="M495.188,1136.117c-3.525.02-6.415,1.442-6.415,4.653,0,3.181,2.645,4.729,6.49,4.729,3.406,0,6.375-1.3,6.375-4.631C501.638,1137.653,498.786,1136.117,495.188,1136.117Zm.034,6.478c-2.833,0-4.25-.613-4.25-1.74s1.361-1.823,4.215-1.8c2.887-.02,4.25.709,4.25,1.778C499.438,1142,497.982,1142.595,495.223,1142.595Z" transform="translate(-471.99 -1025.088)" fill="#fff"/>
          <path id="Trazado_205095" data-name="Trazado 205095" d="M498.55,1214.181l1.131,2.38v.036H489.82v2.817h12.448V1217l-1.531-3.294Z" transform="translate(-472.827 -1087.164)" fill="#fff"/>
          <path id="Trazado_205096" data-name="Trazado 205096" d="M498.55,1286.647l1.131,2.375v.036H489.82v2.817h12.448v-2.416l-1.531-3.3Z" transform="translate(-472.827 -1145.127)" fill="#fff"/>
          <path id="Trazado_205097" data-name="Trazado 205097" d="M503.05,1358.329c0-3.22-2.851-4.751-6.45-4.751-2.826.016-5.217.95-6.062,2.964.656.411,1.333.794,2.022,1.161.431-.761,1.745-1.206,4.04-1.191,2.887-.025,4.25.7,4.25,1.776,0,.986-1.045,1.553-3.012,1.715a.029.029,0,0,1,.02.011c0,.964.05,1.923.134,2.878C500.812,1362.577,503.05,1361.223,503.05,1358.329Z" transform="translate(-473.402 -1199.059)" fill="#fff"/>
          <path id="Trazado_205098" data-name="Trazado 205098" d="M537.824,1434.448l-1.531-3.284-2.028.436c.127.419.264.822.408,1.223l.566,1.187v.039h-.1c.381.961.806,1.9,1.275,2.819h1.413Z" transform="translate(-508.384 -1261.129)" fill="#fff"/>
          <path id="Trazado_205099" data-name="Trazado 205099" d="M678.889,695.027v-2.411l-1.529-3.3-2.181.481,1.128,2.378v.034h-7.771c-.713.4-1.416.828-2.09,1.288v1.526Z" transform="translate(-614.129 -667.645)" fill="#fff"/>
          <path id="Trazado_205100" data-name="Trazado 205100" d="M671.791,756.766c-3.523.016-6.417,1.437-6.417,4.647,0,3.179,2.644,4.731,6.492,4.731,3.411,0,6.381-1.3,6.381-4.635C678.247,758.3,675.391,756.766,671.791,756.766Zm.041,6.471c-2.834,0-4.251-.617-4.251-1.745s1.358-1.817,4.211-1.8c2.894-.019,4.248.7,4.248,1.778C676.039,762.645,674.586,763.237,671.831,763.237Z" transform="translate(-613.272 -721.602)" fill="#fff"/>
          <path id="Trazado_205101" data-name="Trazado 205101" d="M671.791,829.227c-3.523.02-6.417,1.436-6.417,4.662,0,3.17,2.644,4.726,6.492,4.726,3.411,0,6.381-1.308,6.381-4.639C678.247,830.76,675.391,829.227,671.791,829.227Zm.041,6.476c-2.834,0-4.251-.609-4.251-1.744s1.358-1.822,4.211-1.8c2.894-.022,4.248.7,4.248,1.779C676.039,835.1,674.586,835.7,671.831,835.7Z" transform="translate(-613.272 -779.572)" fill="#fff"/>
          <path id="Trazado_205102" data-name="Trazado 205102" d="M666.445,909.681v2.806h12.445v-2.409l-1.53-3.3-2.181.481,1.128,2.373v.045Z" transform="translate(-614.129 -841.616)" fill="#fff"/>
          <path id="Trazado_205103" data-name="Trazado 205103" d="M666.445,982.164v2.814h12.445v-2.411l-1.53-3.294-2.181.481,1.128,2.372v.037Z" transform="translate(-614.129 -899.611)" fill="#fff"/>
          <path id="Trazado_205104" data-name="Trazado 205104" d="M666.445,1054.644v2.819h12.445v-2.415l-1.53-3.3-2.181.478,1.128,2.375v.041Z" transform="translate(-614.129 -957.593)" fill="#fff"/>
          <path id="Trazado_205105" data-name="Trazado 205105" d="M671.791,1119.172c-3.523.02-6.417,1.437-6.417,4.653,0,3.176,2.644,4.729,6.492,4.729,3.411,0,6.381-1.3,6.381-4.636C678.247,1120.7,675.391,1119.172,671.791,1119.172Zm.041,6.471c-2.834,0-4.251-.617-4.251-1.745s1.358-1.812,4.211-1.8c2.894-.014,4.248.711,4.248,1.783C676.039,1125.051,674.586,1125.643,671.831,1125.643Z" transform="translate(-613.272 -1011.531)" fill="#fff"/>
          <path id="Trazado_205106" data-name="Trazado 205106" d="M666.445,1199.625v2.819h12.445v-2.415l-1.53-3.294-2.181.477,1.128,2.38v.034Z" transform="translate(-614.129 -1073.582)" fill="#fff"/>
          <path id="Trazado_205107" data-name="Trazado 205107" d="M666.445,1272.1v2.819h12.445v-2.416l-1.53-3.3-2.181.483,1.128,2.375v.036Z" transform="translate(-614.129 -1131.564)" fill="#fff"/>
          <path id="Trazado_205108" data-name="Trazado 205108" d="M671.791,1336.633c-3.523.02-6.417,1.437-6.417,4.657,0,3.177,2.644,4.725,6.492,4.725,3.411,0,6.381-1.3,6.381-4.631C678.247,1338.163,675.391,1336.633,671.791,1336.633Zm.041,6.471c-2.834,0-4.251-.612-4.251-1.74s1.358-1.817,4.211-1.8c2.894-.014,4.248.709,4.248,1.778C676.039,1342.512,674.586,1343.1,671.831,1343.1Z" transform="translate(-613.272 -1185.503)" fill="#fff"/>
          <path id="Trazado_205109" data-name="Trazado 205109" d="M666.445,1417.09v2.809h12.445v-2.411l-1.53-3.293-2.181.481,1.128,2.369v.045Z" transform="translate(-614.129 -1247.554)" fill="#fff"/>
          <path id="Trazado_205110" data-name="Trazado 205110" d="M671.791,1481.609c-3.523.021-6.417,1.436-6.417,4.651,0,3.181,2.644,4.731,6.492,4.731,3.411,0,6.381-1.3,6.381-4.637C678.247,1483.14,675.391,1481.609,671.791,1481.609Zm.041,6.47c-2.834,0-4.251-.613-4.251-1.739s1.358-1.82,4.211-1.8c2.894-.022,4.248.7,4.248,1.78C676.039,1487.487,674.586,1488.079,671.831,1488.079Z" transform="translate(-613.272 -1301.485)" fill="#fff"/>
          <path id="Trazado_205111" data-name="Trazado 205111" d="M852.357,608.461c3.411,0,6.376-1.3,6.376-4.636a4.158,4.158,0,0,0-2.4-3.864,37.162,37.162,0,0,0-3.7,2.058c2.639.041,3.9.742,3.9,1.77,0,1.164-1.453,1.759-4.214,1.759a6.976,6.976,0,0,1-3.62-.676c-.642.531-1.266,1.078-1.864,1.65C847.927,607.815,849.89,608.461,852.357,608.461Z" transform="translate(-758.443 -596.157)" fill="#fff"/>
          <path id="Trazado_205112" data-name="Trazado 205112" d="M848.413,687.383c-3.525.016-6.414,1.433-6.414,4.651,0,3.175,2.644,4.726,6.489,4.726,3.411,0,6.376-1.3,6.376-4.625C854.864,688.91,852.014,687.383,848.413,687.383Zm.037,6.473c-2.829,0-4.25-.612-4.25-1.745s1.359-1.818,4.212-1.8c2.892-.019,4.251.706,4.251,1.784C852.664,693.258,851.211,693.856,848.45,693.856Z" transform="translate(-754.575 -666.095)" fill="#fff"/>
          <path id="Trazado_205113" data-name="Trazado 205113" d="M843.046,767.808v2.817h12.448v-2.414l-1.534-3.3-2.181.483,1.131,2.375v.036Z" transform="translate(-755.412 -728.121)" fill="#fff"/>
          <path id="Trazado_205114" data-name="Trazado 205114" d="M843.046,840.323v2.808h12.448v-2.4l-1.534-3.3-2.181.478,1.131,2.37v.045Z" transform="translate(-755.412 -786.134)" fill="#fff"/>
          <path id="Trazado_205115" data-name="Trazado 205115" d="M848.413,904.82c-3.525.019-6.414,1.438-6.414,4.656,0,3.175,2.644,4.726,6.489,4.726,3.411,0,6.376-1.3,6.376-4.635C854.864,906.351,852.014,904.82,848.413,904.82Zm.037,6.472c-2.829,0-4.25-.613-4.25-1.74s1.359-1.819,4.212-1.8c2.892-.02,4.251.706,4.251,1.78C852.664,910.7,851.211,911.292,848.45,911.292Z" transform="translate(-754.575 -840.047)" fill="#fff"/>
          <path id="Trazado_205116" data-name="Trazado 205116" d="M843.046,985.261v2.814h12.448v-2.409l-1.534-3.3-2.181.48,1.131,2.38v.034Z" transform="translate(-755.412 -902.086)" fill="#fff"/>
          <path id="Trazado_205117" data-name="Trazado 205117" d="M848.413,1049.813c-3.525.016-6.414,1.433-6.414,4.648,0,3.181,2.644,4.729,6.489,4.729,3.411,0,6.376-1.3,6.376-4.636C854.864,1051.339,852.014,1049.813,848.413,1049.813Zm.037,6.471c-2.829,0-4.25-.611-4.25-1.744s1.359-1.825,4.212-1.8c2.892-.025,4.251.706,4.251,1.78C852.664,1055.694,851.211,1056.284,848.45,1056.284Z" transform="translate(-754.575 -956.043)" fill="#fff"/>
          <path id="Trazado_205118" data-name="Trazado 205118" d="M843.046,1130.273v2.808h12.448v-2.411l-1.534-3.287-2.181.47,1.131,2.376v.044Z" transform="translate(-755.412 -1018.1)" fill="#fff"/>
          <path id="Trazado_205119" data-name="Trazado 205119" d="M843.046,1202.747v2.819h12.448v-2.414l-1.534-3.292-2.181.473,1.131,2.375v.039Z" transform="translate(-755.412 -1076.082)" fill="#fff"/>
          <path id="Trazado_205120" data-name="Trazado 205120" d="M848.413,1267.25c-3.525.02-6.414,1.438-6.414,4.659,0,3.175,2.644,4.723,6.489,4.723,3.411,0,6.376-1.3,6.376-4.631C854.864,1268.781,852.014,1267.25,848.413,1267.25Zm.037,6.476c-2.829,0-4.25-.616-4.25-1.745s1.359-1.817,4.212-1.8c2.892-.019,4.251.706,4.251,1.78C852.664,1273.129,851.211,1273.726,848.45,1273.726Z" transform="translate(-754.575 -1129.996)" fill="#fff"/>
          <path id="Trazado_205121" data-name="Trazado 205121" d="M843.046,1347.7v2.812h12.448v-2.411l-1.534-3.294-2.181.477,1.131,2.375v.041Z" transform="translate(-755.412 -1192.047)" fill="#fff"/>
          <path id="Trazado_205122" data-name="Trazado 205122" d="M848.413,1412.234c-3.525.02-6.414,1.434-6.414,4.651,0,3.175,2.644,4.731,6.489,4.731,3.411,0,6.376-1.3,6.376-4.639C854.864,1413.764,852.014,1412.234,848.413,1412.234Zm.037,6.468c-2.829,0-4.25-.614-4.25-1.737s1.359-1.82,4.212-1.806c2.892-.014,4.251.711,4.251,1.786C852.664,1418.116,851.211,1418.7,848.45,1418.7Z" transform="translate(-754.575 -1245.984)" fill="#fff"/>
          <path id="Trazado_205123" data-name="Trazado 205123" d="M848.413,1484.711c-3.525.019-6.414,1.437-6.414,4.653,0,3.186,2.644,4.734,6.489,4.734,3.411,0,6.376-1.306,6.376-4.631C854.864,1486.242,852.014,1484.711,848.413,1484.711Zm.037,6.471c-2.829,0-4.25-.612-4.25-1.745s1.359-1.819,4.212-1.794c2.892-.025,4.251.706,4.251,1.778C852.664,1490.59,851.211,1491.182,848.45,1491.182Z" transform="translate(-754.575 -1303.967)" fill="#fff"/>
          <path id="Trazado_205124" data-name="Trazado 205124" d="M848.413,1557.2c-3.525.022-6.414,1.439-6.414,4.656,0,3.176,2.644,4.728,6.489,4.728,3.411,0,6.376-1.3,6.376-4.631C854.864,1558.726,852.014,1557.2,848.413,1557.2Zm.037,6.472c-2.829,0-4.25-.611-4.25-1.744s1.359-1.819,4.212-1.8c2.892-.02,4.251.711,4.251,1.783C852.664,1563.076,851.211,1563.667,848.45,1563.667Z" transform="translate(-754.575 -1361.955)" fill="#fff"/>
          <path id="Trazado_205125" data-name="Trazado 205125" d="M855.494,1638.042l-1.534-3.292-2.181.484,1.131,2.369v.041h-9.863v.275a37.08,37.08,0,0,0,4.256,2.539h8.192Z" transform="translate(-755.412 -1424)" fill="#fff"/>
          <path id="Trazado_205126" data-name="Trazado 205126" d="M1022.713,586.539q-1.5-.476-3.042-.828v.828Z" transform="translate(-896.714 -584.756)" fill="#fff"/>
          <path id="Trazado_205127" data-name="Trazado 205127" d="M1032.117,637.1l-1.53-3.3-2.186.48,1.131,2.375v.039h-9.862v2.812h12.446Z" transform="translate(-896.714 -623.232)" fill="#fff"/>
          <path id="Trazado_205128" data-name="Trazado 205128" d="M1032.117,709.586l-1.53-3.289-2.186.477,1.131,2.376v.036h-9.862V712h12.446Z" transform="translate(-896.714 -681.227)" fill="#fff"/>
          <path id="Trazado_205129" data-name="Trazado 205129" d="M1025.028,773.711c-3.522.02-6.412,1.436-6.412,4.647,0,3.181,2.644,4.736,6.492,4.736,3.409,0,6.378-1.3,6.378-4.636C1031.486,775.238,1028.63,773.711,1025.028,773.711Zm.041,6.471c-2.836,0-4.25-.617-4.25-1.739s1.355-1.823,4.209-1.806c2.894-.017,4.254.714,4.254,1.786C1029.283,779.586,1027.825,780.182,1025.069,780.182Z" transform="translate(-895.87 -735.159)" fill="#fff"/>
          <path id="Trazado_205130" data-name="Trazado 205130" d="M1025.028,846.2c-3.522.016-6.412,1.436-6.412,4.647,0,3.179,2.644,4.733,6.492,4.733,3.409,0,6.378-1.3,6.378-4.634C1031.486,847.734,1028.63,846.2,1025.028,846.2Zm.041,6.47c-2.836,0-4.25-.617-4.25-1.745s1.355-1.819,4.209-1.8c2.894-.02,4.254.709,4.254,1.786C1029.283,852.081,1027.825,852.673,1025.069,852.673Z" transform="translate(-895.87 -793.153)" fill="#fff"/>
          <path id="Trazado_205131" data-name="Trazado 205131" d="M1019.671,926.651v2.812h12.446v-2.417l-1.53-3.289-2.186.475,1.131,2.373v.045Z" transform="translate(-896.714 -855.198)" fill="#fff"/>
          <path id="Trazado_205132" data-name="Trazado 205132" d="M1025.028,991.148c-3.522.02-6.412,1.436-6.412,4.656,0,3.176,2.644,4.731,6.492,4.731,3.409,0,6.378-1.3,6.378-4.634C1031.486,992.684,1028.63,991.148,1025.028,991.148Zm.041,6.472c-2.836,0-4.25-.606-4.25-1.74s1.355-1.822,4.209-1.8c2.894-.017,4.254.713,4.254,1.784C1029.283,997.029,1027.825,997.62,1025.069,997.62Z" transform="translate(-895.87 -909.111)" fill="#fff"/>
          <path id="Trazado_205133" data-name="Trazado 205133" d="M1019.671,1071.6v2.817h12.446V1072l-1.53-3.3-2.186.483,1.131,2.375v.036Z" transform="translate(-896.714 -971.156)" fill="#fff"/>
          <path id="Trazado_205134" data-name="Trazado 205134" d="M1019.671,1144.089v2.815h12.446v-2.415l-1.53-3.294-2.186.475,1.131,2.378v.041Z" transform="translate(-896.714 -1029.15)" fill="#fff"/>
          <path id="Trazado_205135" data-name="Trazado 205135" d="M1025.028,1208.609c-3.522.02-6.412,1.436-6.412,4.656,0,3.17,2.644,4.726,6.492,4.726,3.409,0,6.378-1.3,6.378-4.635C1031.486,1210.14,1028.63,1208.609,1025.028,1208.609Zm.041,6.472c-2.836,0-4.25-.613-4.25-1.74s1.355-1.817,4.209-1.8c2.894-.012,4.254.713,4.254,1.784C1029.283,1214.493,1027.825,1215.081,1025.069,1215.081Z" transform="translate(-895.87 -1083.082)" fill="#fff"/>
          <path id="Trazado_205136" data-name="Trazado 205136" d="M1019.671,1289.058v2.817h12.446v-2.416l-1.53-3.3-2.186.483,1.131,2.375v.036Z" transform="translate(-896.714 -1145.127)" fill="#fff"/>
          <path id="Trazado_205137" data-name="Trazado 205137" d="M1019.671,1361.554v2.809h12.446v-2.414l-1.53-3.293-2.186.48,1.131,2.378v.041Z" transform="translate(-896.714 -1203.122)" fill="#fff"/>
          <path id="Trazado_205138" data-name="Trazado 205138" d="M1025.028,1426.094c-3.522.016-6.412,1.425-6.412,4.651,0,3.175,2.644,4.731,6.492,4.731,3.409,0,6.378-1.306,6.378-4.636C1031.486,1427.621,1028.63,1426.094,1025.028,1426.094Zm.041,6.47c-2.836,0-4.25-.616-4.25-1.744s1.355-1.817,4.209-1.8c2.894-.017,4.254.712,4.254,1.779C1029.283,1431.969,1027.825,1432.564,1025.069,1432.564Z" transform="translate(-895.87 -1257.073)" fill="#fff"/>
          <path id="Trazado_205139" data-name="Trazado 205139" d="M1019.671,1506.542v2.808h12.446v-2.411l-1.53-3.29-2.186.478,1.131,2.369v.047Z" transform="translate(-896.714 -1319.117)" fill="#fff"/>
          <path id="Trazado_205140" data-name="Trazado 205140" d="M1025.028,1571.063c-3.522.02-6.412,1.433-6.412,4.648,0,3.176,2.644,4.729,6.492,4.729,3.409,0,6.378-1.3,6.378-4.631C1031.486,1572.589,1028.63,1571.063,1025.028,1571.063Zm.041,6.471c-2.836,0-4.25-.622-4.25-1.745s1.355-1.822,4.209-1.8c2.894-.025,4.254.7,4.254,1.776C1029.283,1576.938,1027.825,1577.534,1025.069,1577.534Z" transform="translate(-895.87 -1373.05)" fill="#fff"/>
          <path id="Trazado_205141" data-name="Trazado 205141" d="M1018.616,1648.2a4.757,4.757,0,0,0,.1.944c.713-.272,1.409-.577,2.1-.894.023-1,1.12-1.639,3.383-1.751a37.646,37.646,0,0,0,3.8-2.512,9.8,9.8,0,0,0-2.975-.433C1021.507,1643.575,1018.616,1644.98,1018.616,1648.2Z" transform="translate(-895.87 -1431.044)" fill="#fff"/>
          <path id="Trazado_205142" data-name="Trazado 205142" d="M1180.917,723.236c3.409,0,6.376-1.3,6.376-4.637a4.4,4.4,0,0,0-.3-1.583c-1.059.009-2.1.072-3.133.183.822.312,1.236.789,1.236,1.366,0,1.169-1.456,1.766-4.217,1.766-2.634,0-4.023-.536-4.212-1.522q-1.073.368-2.119.816C1175.1,722.055,1177.551,723.236,1180.917,723.236Z" transform="translate(-1020.616 -689.802)" fill="#fff"/>
          <path id="Trazado_205143" data-name="Trazado 205143" d="M1187.447,782.078l-1.531-3.289-2.183.475,1.131,2.375v.036H1175v2.819h12.448Z" transform="translate(-1020.979 -739.221)" fill="#fff"/>
          <path id="Trazado_205144" data-name="Trazado 205144" d="M1180.367,846.2c-3.517.016-6.407,1.436-6.407,4.647,0,3.179,2.644,4.733,6.489,4.733,3.409,0,6.376-1.3,6.376-4.634C1186.825,847.734,1183.972,846.2,1180.367,846.2Zm.041,6.47c-2.833,0-4.248-.617-4.248-1.745s1.363-1.819,4.208-1.8c2.9-.02,4.257.709,4.257,1.786C1184.625,852.081,1183.169,852.673,1180.408,852.673Z" transform="translate(-1020.147 -793.153)" fill="#fff"/>
          <path id="Trazado_205145" data-name="Trazado 205145" d="M1175,926.651v2.812h12.448v-2.417l-1.531-3.289-2.183.475,1.131,2.373v.045Z" transform="translate(-1020.979 -855.198)" fill="#fff"/>
          <path id="Trazado_205146" data-name="Trazado 205146" d="M1180.367,991.148c-3.517.02-6.407,1.436-6.407,4.656,0,3.176,2.644,4.731,6.489,4.731,3.409,0,6.376-1.3,6.376-4.634C1186.825,992.684,1183.972,991.148,1180.367,991.148Zm.041,6.472c-2.833,0-4.248-.606-4.248-1.74s1.363-1.822,4.208-1.8c2.9-.017,4.257.713,4.257,1.784C1184.625,997.029,1183.169,997.62,1180.408,997.62Z" transform="translate(-1020.147 -909.111)" fill="#fff"/>
          <path id="Trazado_205147" data-name="Trazado 205147" d="M1180.367,1063.641c-3.517.02-6.407,1.434-6.407,4.656,0,3.175,2.644,4.726,6.489,4.726,3.409,0,6.376-1.3,6.376-4.633C1186.825,1065.172,1183.972,1063.641,1180.367,1063.641Zm.041,6.475c-2.833,0-4.248-.617-4.248-1.745s1.363-1.819,4.208-1.8c2.9-.016,4.257.709,4.257,1.784C1184.625,1069.519,1183.169,1070.116,1180.408,1070.116Z" transform="translate(-1020.147 -967.106)" fill="#fff"/>
          <path id="Trazado_205148" data-name="Trazado 205148" d="M1180.367,1136.117c-3.517.02-6.407,1.442-6.407,4.653,0,3.181,2.644,4.729,6.489,4.729,3.409,0,6.376-1.3,6.376-4.631C1186.825,1137.653,1183.972,1136.117,1180.367,1136.117Zm.041,6.478c-2.833,0-4.248-.613-4.248-1.74s1.363-1.823,4.208-1.8c2.9-.02,4.257.709,4.257,1.778C1184.625,1142,1183.169,1142.595,1180.408,1142.595Z" transform="translate(-1020.147 -1025.088)" fill="#fff"/>
          <path id="Trazado_205149" data-name="Trazado 205149" d="M1175,1216.6v2.817h12.448V1217l-1.531-3.294-2.183.47,1.131,2.38v.036Z" transform="translate(-1020.979 -1087.164)" fill="#fff"/>
          <path id="Trazado_205150" data-name="Trazado 205150" d="M1175,1289.058v2.817h12.448v-2.416l-1.531-3.3-2.183.483,1.131,2.375v.036Z" transform="translate(-1020.979 -1145.127)" fill="#fff"/>
          <path id="Trazado_205151" data-name="Trazado 205151" d="M1180.367,1353.578c-3.517.02-6.407,1.442-6.407,4.657,0,3.176,2.644,4.725,6.489,4.725,3.409,0,6.376-1.3,6.376-4.631C1186.825,1355.109,1183.972,1353.578,1180.367,1353.578Zm.041,6.476c-2.833,0-4.248-.617-4.248-1.745s1.363-1.822,4.208-1.8c2.9-.025,4.257.7,4.257,1.776C1184.625,1359.458,1183.169,1360.054,1180.408,1360.054Z" transform="translate(-1020.147 -1199.059)" fill="#fff"/>
          <path id="Trazado_205152" data-name="Trazado 205152" d="M1175,1434.05v2.818h12.448v-2.42l-1.531-3.284-2.183.477,1.131,2.37v.039Z" transform="translate(-1020.979 -1261.129)" fill="#fff"/>
          <path id="Trazado_205153" data-name="Trazado 205153" d="M1180.367,1498.563c-3.517.019-6.407,1.434-6.407,4.65,0,3.176,2.644,4.733,6.489,4.733,3.409,0,6.376-1.3,6.376-4.634C1186.825,1500.094,1183.972,1498.563,1180.367,1498.563Zm.041,6.468c-2.833,0-4.248-.611-4.248-1.74s1.363-1.817,4.208-1.8c2.9-.016,4.257.709,4.257,1.784C1184.625,1504.439,1183.169,1505.031,1180.408,1505.031Z" transform="translate(-1020.147 -1315.049)" fill="#fff"/>
          <path id="Trazado_205154" data-name="Trazado 205154" d="M1356.885,773.989a32.657,32.657,0,0,0-1.808-3.025c-1.544-.228-2.322-.78-2.322-1.616a1.265,1.265,0,0,1,.419-.919c-.528-.633-1.086-1.247-1.666-1.844a4.02,4.02,0,0,0-.954,2.683C1350.554,772.4,1353.13,773.95,1356.885,773.989Z" transform="translate(-1161.424 -729.458)" fill="#fff"/>
          <path id="Trazado_205155" data-name="Trazado 205155" d="M1350.554,833.889c0,3.17,2.645,4.726,6.495,4.726A9.445,9.445,0,0,0,1360.6,838c-.034-.964-.114-1.914-.233-2.858a7.6,7.6,0,0,1-3.359.562c-2.836,0-4.256-.609-4.256-1.744s1.362-1.822,4.215-1.8a8.643,8.643,0,0,1,2.973.392q-.333-1.58-.816-3.1a10.577,10.577,0,0,0-2.158-.225C1353.448,829.247,1350.554,830.663,1350.554,833.889Z" transform="translate(-1161.424 -779.572)" fill="#fff"/>
          <path id="Trazado_205156" data-name="Trazado 205156" d="M1364.064,910.078l-1.533-3.3-2.18.481,1.125,2.373v.045h-9.86v2.806h12.448Z" transform="translate(-1162.274 -841.616)" fill="#fff"/>
          <path id="Trazado_205157" data-name="Trazado 205157" d="M1364.064,982.567l-1.533-3.294-2.18.481,1.125,2.372v.037h-9.86v2.814h12.448Z" transform="translate(-1162.274 -899.611)" fill="#fff"/>
          <path id="Trazado_205158" data-name="Trazado 205158" d="M1364.064,1055.047l-1.533-3.3-2.18.478,1.125,2.375v.041h-9.86v2.819h12.448Z" transform="translate(-1162.274 -957.593)" fill="#fff"/>
          <path id="Trazado_205159" data-name="Trazado 205159" d="M1356.971,1119.172c-3.523.02-6.417,1.437-6.417,4.653,0,3.176,2.645,4.729,6.495,4.729,3.4,0,6.378-1.3,6.378-4.636C1363.427,1120.7,1360.572,1119.172,1356.971,1119.172Zm.041,6.471c-2.836,0-4.256-.617-4.256-1.745s1.362-1.812,4.215-1.8c2.894-.014,4.248.711,4.248,1.783C1361.219,1125.051,1359.769,1125.643,1357.011,1125.643Z" transform="translate(-1161.424 -1011.531)" fill="#fff"/>
          <path id="Trazado_205160" data-name="Trazado 205160" d="M1351.616,1199.625v2.819h12.448v-2.415l-1.533-3.294-2.18.477,1.125,2.38v.034Z" transform="translate(-1162.274 -1073.582)" fill="#fff"/>
          <path id="Trazado_205161" data-name="Trazado 205161" d="M1351.616,1272.1v2.819h12.448v-2.416l-1.533-3.3-2.18.483,1.125,2.375v.036Z" transform="translate(-1162.274 -1131.564)" fill="#fff"/>
          <path id="Trazado_205162" data-name="Trazado 205162" d="M1356.971,1336.633c-3.523.02-6.417,1.437-6.417,4.657,0,3.177,2.645,4.725,6.495,4.725,3.4,0,6.378-1.3,6.378-4.631C1363.427,1338.163,1360.572,1336.633,1356.971,1336.633Zm.041,6.471c-2.836,0-4.256-.612-4.256-1.74s1.362-1.817,4.215-1.8c2.894-.014,4.248.709,4.248,1.778C1361.219,1342.512,1359.769,1343.1,1357.011,1343.1Z" transform="translate(-1161.424 -1185.503)" fill="#fff"/>
        </g>
        <g id="Grupo_146873" data-name="Grupo 146873" transform="translate(44.405 122.53)">
          <path id="Trazado_205163" data-name="Trazado 205163" d="M626.89,1321.055v9.979c0,1.864,6.329,3.375,14.132,3.375s14.13-1.511,14.13-3.375v-9.979Z" transform="translate(-626.89 -1295.571)" fill="#29abe2"/>
          <path id="Trazado_205164" data-name="Trazado 205164" d="M655.152,1307.555c0,1.869-6.328,3.379-14.13,3.379s-14.132-1.511-14.132-3.379,6.329-3.375,14.132-3.375S655.152,1305.691,655.152,1307.555Z" transform="translate(-626.89 -1282.07)" fill="#155671"/>
          <path id="Trazado_205165" data-name="Trazado 205165" d="M626.89,1265.789v9.97c0,1.869,6.329,3.379,14.132,3.379s14.13-1.511,14.13-3.379v-9.97Z" transform="translate(-626.89 -1251.357)" fill="#29abe2"/>
          <path id="Trazado_205166" data-name="Trazado 205166" d="M655.152,1252.27c0,1.864-6.328,3.373-14.13,3.373s-14.132-1.509-14.132-3.373,6.329-3.379,14.132-3.379S655.152,1250.4,655.152,1252.27Z" transform="translate(-626.89 -1237.838)" fill="#155671"/>
          <path id="Trazado_205167" data-name="Trazado 205167" d="M626.89,1210.492v9.976c0,1.862,6.329,3.373,14.132,3.373s14.13-1.511,14.13-3.373v-9.976Z" transform="translate(-626.89 -1207.119)" fill="#29abe2"/>
          <path id="Trazado_205168" data-name="Trazado 205168" d="M655.152,1197c0,1.87-6.328,3.375-14.13,3.375s-14.132-1.5-14.132-3.375,6.329-3.373,14.132-3.373S655.152,1195.131,655.152,1197Z" transform="translate(-626.89 -1193.625)" fill="#0071bc"/>
        </g>
        <g id="Grupo_146874" data-name="Grupo 146874" transform="translate(119.799 20.946)">
          <path id="Trazado_205169" data-name="Trazado 205169" d="M1003.882,774.758v6.968c0,1.3,4.42,2.354,9.876,2.354s9.874-1.053,9.874-2.354v-6.968Z" transform="translate(-1003.882 -756.942)" fill="#29abe2"/>
          <path id="Trazado_205170" data-name="Trazado 205170" d="M1023.632,765.32c0,1.306-4.425,2.359-9.874,2.359s-9.876-1.053-9.876-2.359,4.42-2.359,9.876-2.359S1023.632,764.014,1023.632,765.32Z" transform="translate(-1003.882 -747.504)" fill="#155671"/>
          <path id="Trazado_205171" data-name="Trazado 205171" d="M1003.882,736.117v6.973c0,1.3,4.42,2.359,9.876,2.359s9.874-1.058,9.874-2.359v-6.973Z" transform="translate(-1003.882 -726.029)" fill="#29abe2"/>
          <path id="Trazado_205172" data-name="Trazado 205172" d="M1023.632,726.674c0,1.306-4.425,2.362-9.874,2.362s-9.876-1.056-9.876-2.362,4.42-2.361,9.876-2.361S1023.632,725.371,1023.632,726.674Z" transform="translate(-1003.882 -716.585)" fill="#155671"/>
          <path id="Trazado_205173" data-name="Trazado 205173" d="M1003.882,697.469v6.973c0,1.3,4.42,2.362,9.876,2.362s9.874-1.059,9.874-2.362v-6.973Z" transform="translate(-1003.882 -695.11)" fill="#29abe2"/>
          <path id="Trazado_205174" data-name="Trazado 205174" d="M1023.632,688.031c0,1.3-4.425,2.367-9.874,2.367s-9.876-1.062-9.876-2.367,4.42-2.359,9.876-2.359S1023.632,686.73,1023.632,688.031Z" transform="translate(-1003.882 -685.672)" fill="#0071bc"/>
        </g>
        <g id="Grupo_146875" data-name="Grupo 146875" transform="translate(145.381 95.218)">
          <path id="Trazado_205175" data-name="Trazado 205175" d="M1131.8,1191.688v10.537c0,1.965,6.681,3.562,14.926,3.562s14.924-1.6,14.924-3.562v-10.537Z" transform="translate(-1131.796 -1164.763)" fill="#00defc"/>
          <path id="Trazado_205176" data-name="Trazado 205176" d="M1161.646,1177.413c0,1.979-6.684,3.573-14.924,3.573s-14.926-1.594-14.926-3.573,6.681-3.569,14.926-3.569S1161.646,1175.446,1161.646,1177.413Z" transform="translate(-1131.796 -1150.488)" fill="#138597"/>
          <path id="Trazado_205177" data-name="Trazado 205177" d="M1131.8,1133.305v10.532c0,1.975,6.681,3.569,14.926,3.569s14.924-1.594,14.924-3.569v-10.532Z" transform="translate(-1131.796 -1118.056)" fill="#00defc"/>
          <path id="Trazado_205178" data-name="Trazado 205178" d="M1161.646,1119.036c0,1.97-6.684,3.57-14.924,3.57s-14.926-1.6-14.926-3.57,6.681-3.567,14.926-3.567S1161.646,1117.066,1161.646,1119.036Z" transform="translate(-1131.796 -1103.787)" fill="#138597"/>
          <path id="Trazado_205179" data-name="Trazado 205179" d="M1131.8,1074.922v10.531c0,1.972,6.681,3.565,14.926,3.565s14.924-1.594,14.924-3.565v-10.531Z" transform="translate(-1131.796 -1071.349)" fill="#00defc"/>
          <path id="Trazado_205180" data-name="Trazado 205180" d="M1161.646,1060.628c0,1.967-6.684,3.562-14.924,3.562s-14.926-1.6-14.926-3.562,6.681-3.573,14.926-3.573S1161.646,1058.653,1161.646,1060.628Z" transform="translate(-1131.796 -1057.055)" fill="#138597"/>
        </g>
        <g id="Grupo_148134" data-name="Grupo 148134" transform="translate(15.15 67.329)">
          <path id="Trazado_205175-2" data-name="Trazado 205175" d="M1131.8,1191.688v6.335c0,1.182,4.017,2.142,8.974,2.142s8.974-.96,8.974-2.142v-6.335Z" transform="translate(-1131.796 -1175.499)" fill="#00defc"/>
          <path id="Trazado_205176-2" data-name="Trazado 205176" d="M1149.744,1175.99c0,1.19-4.019,2.148-8.974,2.148s-8.974-.958-8.974-2.148,4.017-2.146,8.974-2.146S1149.744,1174.807,1149.744,1175.99Z" transform="translate(-1131.796 -1159.8)" fill="#138597"/>
          <path id="Trazado_205177-2" data-name="Trazado 205177" d="M1131.8,1133.305v6.333c0,1.187,4.017,2.146,8.974,2.146s8.974-.958,8.974-2.146v-6.333Z" transform="translate(-1131.796 -1124.136)" fill="#00defc"/>
          <path id="Trazado_205178-2" data-name="Trazado 205178" d="M1149.744,1117.614c0,1.185-4.019,2.146-8.974,2.146s-8.974-.962-8.974-2.146,4.017-2.145,8.974-2.145S1149.744,1116.429,1149.744,1117.614Z" transform="translate(-1131.796 -1108.445)" fill="#138597"/>
          <path id="Trazado_205179-2" data-name="Trazado 205179" d="M1131.8,1074.922v6.332c0,1.186,4.017,2.144,8.974,2.144s8.974-.958,8.974-2.144v-6.332Z" transform="translate(-1131.796 -1072.774)" fill="#00defc"/>
          <path id="Trazado_205180-2" data-name="Trazado 205180" d="M1149.744,1059.2c0,1.183-4.019,2.142-8.974,2.142s-8.974-.959-8.974-2.142,4.017-2.148,8.974-2.148S1149.744,1058.016,1149.744,1059.2Z" transform="translate(-1131.796 -1057.055)" fill="#138597"/>
        </g>
        <g id="Grupo_146877" data-name="Grupo 146877" transform="translate(84.976 79.791)">
          <path id="Trazado_205187" data-name="Trazado 205187" d="M829.757,1060.063v6.27c0,1.169,3.975,2.119,8.882,2.119s8.879-.95,8.879-2.119v-6.27Z" transform="translate(-829.757 -1044.034)" fill="#ffb30b"/>
          <path id="Trazado_205188" data-name="Trazado 205188" d="M847.519,1051.575c0,1.17-3.978,2.12-8.879,2.12s-8.882-.95-8.882-2.12,3.975-2.122,8.882-2.122S847.519,1050.4,847.519,1051.575Z" transform="translate(-829.757 -1035.546)" fill="#ab790b"/>
          <path id="Trazado_205189" data-name="Trazado 205189" d="M829.757,1025.3v6.265c0,1.173,3.975,2.123,8.882,2.123s8.879-.95,8.879-2.123V1025.3Z" transform="translate(-829.757 -1016.221)" fill="#ffb30b"/>
          <path id="Trazado_205190" data-name="Trazado 205190" d="M847.519,1016.8c0,1.177-3.978,2.125-8.879,2.125s-8.882-.948-8.882-2.125,3.975-2.123,8.882-2.123S847.519,1015.63,847.519,1016.8Z" transform="translate(-829.757 -1007.727)" fill="#ab790b"/>
          <path id="Trazado_205191" data-name="Trazado 205191" d="M829.757,990.531v6.27c0,1.18,3.975,2.123,8.882,2.123s8.879-.944,8.879-2.123v-6.27Z" transform="translate(-829.757 -988.408)" fill="#ffb30b"/>
          <path id="Trazado_205192" data-name="Trazado 205192" d="M847.519,982.037c0,1.177-3.978,2.126-8.879,2.126s-8.882-.95-8.882-2.126,3.975-2.123,8.882-2.123S847.519,980.869,847.519,982.037Z" transform="translate(-829.757 -979.914)" fill="#ab790b"/>
        </g>
        <g id="Grupo_146878" data-name="Grupo 146878" transform="translate(120.295 153.594)">
          <path id="Trazado_205193" data-name="Trazado 205193" d="M1006.359,1433.594v6.615c0,1.247,4.195,2.242,9.381,2.242s9.375-1,9.375-2.242v-6.615Z" transform="translate(-1006.359 -1416.667)" fill="#ffb30b"/>
          <path id="Trazado_205194" data-name="Trazado 205194" d="M1025.114,1424.612c0,1.237-4.2,2.242-9.375,2.242s-9.381-1-9.381-2.242,4.195-2.245,9.381-2.245S1025.114,1423.372,1025.114,1424.612Z" transform="translate(-1006.359 -1407.685)" fill="#ab790b"/>
          <path id="Trazado_205195" data-name="Trazado 205195" d="M1006.359,1396.867v6.622c0,1.236,4.195,2.24,9.381,2.24s9.375-1,9.375-2.24v-6.622Z" transform="translate(-1006.359 -1387.285)" fill="#ffb30b"/>
          <path id="Trazado_205196" data-name="Trazado 205196" d="M1025.114,1387.886c0,1.239-4.2,2.247-9.375,2.247s-9.381-1.008-9.381-2.247,4.195-2.245,9.381-2.245S1025.114,1386.65,1025.114,1387.886Z" transform="translate(-1006.359 -1378.304)" fill="#ab790b"/>
          <path id="Trazado_205197" data-name="Trazado 205197" d="M1006.359,1360.141v6.625c0,1.237,4.195,2.247,9.381,2.247s9.375-1.009,9.375-2.247v-6.625Z" transform="translate(-1006.359 -1357.904)" fill="#ffb30b"/>
          <path id="Trazado_205198" data-name="Trazado 205198" d="M1025.114,1351.19c0,1.244-4.2,2.245-9.375,2.245s-9.381-1-9.381-2.245,4.195-2.237,9.381-2.237S1025.114,1349.953,1025.114,1351.19Z" transform="translate(-1006.359 -1348.953)" fill="#ab790b"/>
        </g>
      </g>
      <rect id="Rect치ngulo_297180" data-name="Rect치ngulo 297180" width="209.475" height="47.7" rx="8" transform="translate(-6125 -9931.678)" fill="#084a93"/>
      <rect id="Rect치ngulo_297181" data-name="Rect치ngulo 297181" width="3.001" height="34.558" transform="translate(-6022 -9973.636)" fill="#b0c0d2"/>
      <rect id="Rect치ngulo_297182" data-name="Rect치ngulo 297182" width="3.001" height="34.558" transform="translate(-5649.684 -9973.636)" fill="#b0c0d2"/>
      <rect id="Rect치ngulo_297183" data-name="Rect치ngulo 297183" width="3.001" height="34.558" transform="translate(-5287 -9973.636)" fill="#b0c0d2"/>
      <text id="Extracci칩n_" data-name="Extracci칩n " transform="translate(-6085 -9898.678)" fill="#fff" font-size="26" font-family="Roboto-Bold, Roboto" font-weight="700"><tspan x="0" y="0">Extracci칩n </tspan></text>
      <rect id="Rect치ngulo_297184" data-name="Rect치ngulo 297184" width="209.475" height="47.7" rx="8" transform="translate(-5753 -9931.678)" fill="#ffb30b"/>
      <text id="Datos" transform="translate(-5648 -9898.678)" fill="#12263f" font-size="26" font-family="Roboto-Bold, Roboto" font-weight="700"><tspan x="-33.655" y="0">Datos</tspan></text>
      <rect id="Rect치ngulo_297185" data-name="Rect치ngulo 297185" width="209.475" height="47.7" rx="8" transform="translate(-5390 -9931.678)" fill="#084a93"/>
      <text id="Almacenes" transform="translate(-5285 -9898.678)" fill="#fff" font-size="26" font-family="Roboto-Bold, Roboto" font-weight="700"><tspan x="-65.216" y="0">Almacenes</tspan></text>
      <g id="Grupo_146881" data-name="Grupo 146881" transform="translate(-6040 -9896.078)">
        <g transform="matrix(1, 0, 0, 1, -92, -313.92)" filter="url(#Elipse_180)">
          <circle id="Elipse_180-4" data-name="Elipse 180" cx="20" cy="20" r="20" transform="translate(92 315.92)" fill="#ffb30b"/>
        </g>
      </g>
      <g id="Grupo_148136" data-name="Grupo 148136" transform="translate(-5305 -9896.078)">
        <g transform="matrix(1, 0, 0, 1, -827, -313.92)" filter="url(#Elipse_180-2)">
          <circle id="Elipse_180-5" data-name="Elipse 180" cx="20" cy="20" r="20" transform="translate(827 315.92)" fill="#ffb30b"/>
        </g>
      </g>
      <g id="Grupo_148135" data-name="Grupo 148135" transform="translate(-5669 -9896.078)">
        <g transform="matrix(1, 0, 0, 1, -463, -313.92)" filter="url(#Elipse_180-3)">
          <circle id="Elipse_180-6" data-name="Elipse 180" cx="20" cy="20" r="20" transform="translate(463 315.92)" fill="#00defc"/>
        </g>
      </g>
    </g>
  </g>
</svg>
