<svg xmlns="http://www.w3.org/2000/svg" width="85" height="79.307" viewBox="0 0 85 79.307">
  <g id="Grupo_148244" data-name="Grupo 148244" transform="translate(5841 10484.307)">
    <g id="Page-1" transform="translate(-5841 -10484.307)">
      <g id="_067---Cloud-Database-Storage" data-name="067---Cloud-Database-Storage" transform="translate(0 0)">
        <ellipse id="Oval" cx="30" cy="8.5" rx="30" ry="8.5" transform="translate(1 1)" fill="#0a60bf"/>
        <path id="Path" d="M22.624,1c-.717,0-1.416.017-2.124.031C35.936,1.343,48.116,5.015,48.116,9.5S35.936,17.652,20.5,17.963c.708.014,1.408.031,2.124.031,16.428,0,29.74-3.81,29.74-8.5S39.052,1,22.624,1Z" transform="translate(8.532 0.416)" fill="#084a93" fill-rule="evenodd"/>
        <path id="Path-2" data-name="Path" d="M60.48,7V35.338a3.844,3.844,0,0,0-.411-.014A14.063,14.063,0,0,0,46.092,47.673a7.046,7.046,0,0,0-10.239,7.548,10.17,10.17,0,0,0-6.529,9.517,9.8,9.8,0,0,0,.156,1.728C13.632,66.282,1,62.543,1,57.983V7c0,4.688,13.312,8.5,29.74,8.5S60.48,11.688,60.48,7Z" transform="translate(0.416 2.913)" fill="#00defc" fill-rule="evenodd"/>
        <path id="Path-3" data-name="Path" d="M33.6,35.483a6.948,6.948,0,0,0-2.148-.353,7.05,7.05,0,0,0-6.925,8.384A10.17,10.17,0,0,0,18,53.031a9.732,9.732,0,0,0,.142,1.579c1.395.075,2.813.132,4.268.149a9.8,9.8,0,0,1-.161-1.728,10.17,10.17,0,0,1,6.529-9.517,7.1,7.1,0,0,1-.127-1.345A7.01,7.01,0,0,1,33.6,35.483Z" transform="translate(7.491 14.621)" fill="#00afc7" fill-rule="evenodd"/>
        <path id="Path-4" data-name="Path" d="M44.191,11.358v23.98a3.844,3.844,0,0,0-.411-.014A14.057,14.057,0,0,0,29.929,46.918a6.17,6.17,0,0,1,4.123.755A14.063,14.063,0,0,1,48.029,35.324a3.844,3.844,0,0,1,.411.014V7C48.44,8.595,46.871,10.082,44.191,11.358Z" transform="translate(12.456 2.913)" fill="#00afc7" fill-rule="evenodd"/>
        <path id="Path-5" data-name="Path" d="M74.815,56.415A10.239,10.239,0,0,1,64.562,66.654H31.253a10.221,10.221,0,0,1-10.1-8.511A9.8,9.8,0,0,1,21,56.414,10.17,10.17,0,0,1,27.529,46.9a7.041,7.041,0,0,1,10.239-7.548A14.063,14.063,0,0,1,51.746,27a3.845,3.845,0,0,1,.411.014A14.046,14.046,0,0,1,64.874,46.2a10.215,10.215,0,0,1,9.942,10.211Z" transform="translate(8.74 11.237)" fill="#f5f5f5" fill-rule="evenodd"/>
        <path id="Path-6" data-name="Path" d="M56.466,46.2A14.046,14.046,0,0,0,43.748,27.014,3.844,3.844,0,0,0,43.338,27a14.153,14.153,0,0,0-2.136.176A14.032,14.032,0,0,1,52.217,46.2a10.226,10.226,0,0,1-.312,20.45h4.249a10.226,10.226,0,0,0,.312-20.45Z" transform="translate(17.148 11.237)" fill="#cfd8dc" fill-rule="evenodd"/>
        <g id="Grupo_133774" data-name="Grupo 133774">
          <path id="Path-7" data-name="Path" d="M38.416,21.081a1.416,1.416,0,0,0,1.416-1.416V15.416a1.416,1.416,0,0,0-2.832,0v4.249A1.416,1.416,0,0,0,38.416,21.081Z" transform="translate(15.399 5.827)" fill-rule="evenodd"/>
          <path id="Shape" d="M75.483,56.223A15.34,15.34,0,0,0,76,52.3,15.512,15.512,0,0,0,62.312,36.937V9.913C62.312,3.4,46.639,0,31.156,0S0,3.4,0,9.913V60.9c0,2.844,3.094,5.1,7.856,6.747a1.33,1.33,0,0,0,.3.1A74.239,74.239,0,0,0,28.76,70.776a11.678,11.678,0,0,0,11.23,8.531H73.3a11.64,11.64,0,0,0,2.178-23.084ZM45.431,48.643a8.375,8.375,0,0,0-8.214,2.151c-1.947.118-3.979.184-6.068.184a75.612,75.612,0,0,1-21.236-2.64v-14a82.829,82.829,0,0,0,21.243,2.478c11.511,0,23.121-1.884,28.324-5.523v5.57a15.463,15.463,0,0,0-14.047,11.78ZM59.48,26.908c0,2.888-11.034,7.081-28.324,7.081A75.612,75.612,0,0,1,9.913,31.345v-14a82.829,82.829,0,0,0,21.243,2.478c11.511,0,23.121-1.884,28.324-5.523Zm-52.4,3.44c-2.746-1.141-4.249-2.378-4.249-3.44V14.3a19.209,19.209,0,0,0,4.249,2.124Zm-4.249.95a19.209,19.209,0,0,0,4.249,2.124V47.339C4.335,46.2,2.832,44.964,2.832,43.9ZM31.156,2.832c17.29,0,28.324,4.193,28.324,7.081s-11.034,7.081-28.324,7.081S2.832,12.8,2.832,9.913,13.866,2.832,31.156,2.832ZM2.832,60.9v-12.6a19.209,19.209,0,0,0,4.249,2.124V64.357C4.322,63.213,2.832,61.967,2.832,60.9ZM9.913,65.36V51.34a82.829,82.829,0,0,0,21.243,2.476c1.416,0,2.8-.035,4.155-.088a8.375,8.375,0,0,0-.582,3.058c0,.16,0,.316.013.472a11.531,11.531,0,0,0-6.418,10.4c0,.089.011.176.013.265A72.4,72.4,0,0,1,9.913,65.36ZM73.3,76.474H39.99a8.836,8.836,0,0,1-8.834-8.817,8.725,8.725,0,0,1,5.627-8.214,1.416,1.416,0,0,0,.879-1.61,5.075,5.075,0,0,1-.1-1.055,5.634,5.634,0,0,1,5.632-5.612,5.57,5.57,0,0,1,1.841.319c-.016.283-.055.545-.055.824a14.674,14.674,0,0,0,.085,1.585,1.417,1.417,0,1,0,2.817-.3,11.612,11.612,0,0,1-.069-1.275,11.3,11.3,0,0,1,.106-1.558,12.675,12.675,0,0,1,25.251,1.558,12.475,12.475,0,0,1-.877,4.613,12.835,12.835,0,0,1-1.7,3.043,1.416,1.416,0,0,0,2.266,1.7,15.7,15.7,0,0,0,1.613-2.742A8.813,8.813,0,0,1,73.3,76.474Z" transform="translate(0 0)"/>
        </g>
      </g>
    </g>
  </g>
</svg>
