<svg xmlns="http://www.w3.org/2000/svg" xmlns:xlink="http://www.w3.org/1999/xlink" width="860.109" height="441.149" viewBox="0 0 860.109 441.149">
  <defs>
    <linearGradient id="linear-gradient" x1="0.5" x2="0.5" y2="1" gradientUnits="objectBoundingBox">
      <stop offset="0" stop-color="#004e96"/>
      <stop offset="1" stop-color="#0c284a"/>
    </linearGradient>
  </defs>
  <g id="Grupo_148234" data-name="Grupo 148234" transform="translate(9927.055 7995)">
    <g id="Grupo_146858" data-name="Grupo 146858" transform="translate(-10268.001 -8428.075)">
      <g id="Grupo_146857" data-name="Grupo 146857" transform="translate(340.946 433.075)">
        <g id="Grupo_146812" data-name="Grupo 146812" transform="translate(0 242.433)">
          <path id="Trazado_204571" data-name="Trazado 204571" d="M448.929,1486.741c-14.856-11.216-30.4-22.747-48.673-26.3-8.23-1.6-18.815.052-22.59,6.839a10.988,10.988,0,0,0-1.121,2.978,11.358,11.358,0,0,0,.086,5.279c1.532,6.131,7.811,11.269,13.486,15.039l4.8,3.186h137.4c-.8-3.374-1.6-6.747-2.356-10.126-11.49-51.6-11.059-105.343-23.432-156.742-2.156-8.949-4.912-18.205-11.289-24.853-4.608-4.814-11.589-7.883-17.98-6.766a15.712,15.712,0,0,0-3.462,1.062c-9.77,4.419-11.543,17.417-10.918,28.112,1.376,23.385,7.6,46.186,13.78,68.776,8.557,31.238,17.216,62.735,32.016,91.548-2.229,1.843-5.732,1.207-7.965-.628s-3.488-4.555-4.69-7.174c-20.549-44.785-45.263-88.251-78.989-124.164-12.052-12.831-25.631-24.907-42.125-31.074-5.8-2.17-12.059-3.572-18.178-2.62a21,21,0,0,0-9.715,4.176c-.424.347-.836.7-1.227,1.074a15.6,15.6,0,0,0-3.547,5.056c-2.951,6.891-.308,14.783,2.567,21.71A332.9,332.9,0,0,0,448.929,1486.741Z" transform="translate(-340.946 -1295.041)" fill="#ffb30b"/>
          <path id="Trazado_204572" data-name="Trazado 204572" d="M518.461,1933.9c-16.006-9.238-32.356-17.918-48.7-26.482a10.76,10.76,0,0,0-.683,1.485c15.422,8.083,30.883,16.3,46.056,25Z" transform="translate(-433.04 -1735.185)" fill="#636363"/>
          <path id="Trazado_204573" data-name="Trazado 204573" d="M499.425,1565.935h2.093q-69.532-86.51-142.141-170.473c-.424.347-.836.7-1.227,1.074q19.072,22.056,37.941,44.285Q448.6,1502.686,499.425,1565.935Z" transform="translate(-353.311 -1367.218)" fill="#636363"/>
          <path id="Trazado_204574" data-name="Trazado 204574" d="M846.909,1419.963c5.692,24.891,11.946,49.651,18.306,74.382H866.9q-4.521-17.576-8.929-35.186c-7.589-30.536-14.514-61.2-20.473-92.091-4.6-23.893-9.133-47.858-15.946-71.21a13.171,13.171,0,0,0-1.582.377c3.145,10.74,5.809,21.617,8.2,32.557C834.8,1359.1,840,1389.7,846.909,1419.963Z" transform="translate(-685.24 -1295.628)" fill="#636363"/>
        </g>
        <g id="Grupo_146825" data-name="Grupo 146825" transform="translate(203.069 166.281)">
          <path id="Trazado_204575" data-name="Trazado 204575" d="M2383.867,1594.975H2426.5a13.961,13.961,0,0,1,13.658,16.853l-19.63,92.69h-48.138Z" transform="translate(-2004.106 -1434.465)" fill="#dbd5d5"/>
          <path id="Trazado_204576" data-name="Trazado 204576" d="M2465.879,1760.266l-14.789,6.09-1.885-15.949Z" transform="translate(-2059.315 -1546.181)" fill="#452a20"/>
          <path id="Rectángulo_296913" data-name="Rectángulo 296913" d="M0,0H24.144a0,0,0,0,1,0,0V10.295a0,0,0,0,1,0,0H10.295A10.295,10.295,0,0,1,0,0V0A0,0,0,0,1,0,0Z" transform="translate(149.054 247.289)" fill="#e86e41"/>
          <path id="Trazado_204577" data-name="Trazado 204577" d="M1677.5,1777.214l-16.529,56.838,54.518,3.48,13.4-46.9Z" transform="translate(-1492.773 -1565.448)" fill="#e86e41"/>
          <path id="Trazado_204578" data-name="Trazado 204578" d="M1717.394,1433.172s-9.815,4.547-16.27,16.727-26.754,80.327-26.754,80.327,25.15,7.25,43.024,11.89,20.491,4.93,20.491,4.93Z" transform="translate(-1502.407 -1318.17)" fill="#0e4075"/>
          <g id="Grupo_146814" data-name="Grupo 146814" transform="translate(224.151)">
            <path id="Trazado_204579" data-name="Trazado 204579" d="M2022.368,1249.107l-13.058,16.964-16.738-5s-2.967-8.125-5.507-14.868c-.652-1.714-1.27-3.34-1.8-4.715-.879-2.253-1.531-3.854-1.722-4.123l1.061-26.969,24.707,4.663Z" transform="translate(-1948.773 -1158.049)" fill="#ff9c78"/>
            <path id="Trazado_204580" data-name="Trazado 204580" d="M2010.605,1265.1c-1.383,6.012-7.516,10.44-12.24,11.6a39.923,39.923,0,0,1-6.9,1.009c-.652-1.714-1.27-3.34-1.8-4.715l13.328-13.406,4.359-5.359S2011.979,1259.078,2010.605,1265.1Z" transform="translate(-1953.174 -1189.552)" fill="#e86e41"/>
            <g id="Grupo_146813" data-name="Grupo 146813" transform="translate(0 6.237)">
              <circle id="Elipse_5292" data-name="Elipse 5292" cx="25.772" cy="25.772" r="25.772" transform="translate(0 36.447) rotate(-45)" fill="#ff9c78"/>
              <path id="Trazado_204581" data-name="Trazado 204581" d="M1902.458,1176.364s4.434,16.757,10.547,24.91c7.595,10.129,11.8,11.407,18.472,9.421,8.036-2.392,11.585-6.408,16.208-15.045,4.068-7.6,4.855-30.378,4.855-30.378Z" transform="translate(-1890.495 -1131.856)" fill="#ff9c78"/>
            </g>
            <path id="Trazado_204582" data-name="Trazado 204582" d="M1951.465,1329.116l14.137-9.135,29.892-7.348,30.135,12.35s-18.269,42.411-19.139,43.063-34.146,7.177-34.8,7.177S1951.465,1329.116,1951.465,1329.116Z" transform="translate(-1925.718 -1231.534)" fill="#ff9c78"/>
            <path id="Trazado_204583" data-name="Trazado 204583" d="M1939.986,1221.018a4.154,4.154,0,0,0-2.055-2.843,1.248,1.248,0,0,0-1.122.088,1.537,1.537,0,0,0-.545.99,4.1,4.1,0,0,0,.725,3.234,1.874,1.874,0,0,0,1.8.88C1939.962,1223.085,1940.214,1222.077,1939.986,1221.018Z" transform="translate(-1914.734 -1163.577)" fill="#452a20"/>
            <path id="Trazado_204584" data-name="Trazado 204584" d="M1998.057,1199.061a4.152,4.152,0,0,0-2.055-2.843,1.249,1.249,0,0,0-1.123.088,1.538,1.538,0,0,0-.545.99,4.1,4.1,0,0,0,.725,3.234,1.875,1.875,0,0,0,1.8.88C1998.033,1201.128,1998.286,1200.12,1998.057,1199.061Z" transform="translate(-1956.473 -1147.796)" fill="#452a20"/>
            <path id="Trazado_204585" data-name="Trazado 204585" d="M1965.9,1223.481c-3.533-.6-1.992-4.111-2.243-6.474a14.259,14.259,0,0,0-2.081-5.31c-.544-.973-2.108-.209-1.559.773a13.391,13.391,0,0,1,1.9,4.524c.209,1.53-.462,3-.195,4.513a4.653,4.653,0,0,0,4.06,3.71C1966.886,1225.4,1967,1223.666,1965.9,1223.481Z" transform="translate(-1931.784 -1158.662)" fill="#e86e41"/>
            <path id="Trazado_204586" data-name="Trazado 204586" d="M1982.35,1255.922a6.774,6.774,0,0,1-7.979,4.18c-1.09-.247-1.556,1.431-.463,1.678a8.576,8.576,0,0,0,10.119-5.395C1984.434,1255.341,1982.753,1254.889,1982.35,1255.922Z" transform="translate(-1941.401 -1190.353)" fill="#e86e41"/>
            <path id="Trazado_204587" data-name="Trazado 204587" d="M1921.462,1192.231a3.439,3.439,0,0,0-.786-.1c-2.5-.076-6,1.144-7.334,3.411a1.748,1.748,0,0,0-.283.837c-.028,1.69,2.485.266,3.144-.068a16.6,16.6,0,0,1,4.548-1.53c.745-.135,1.661-.359,1.831-1.1a1.2,1.2,0,0,0-.557-1.2A1.885,1.885,0,0,0,1921.462,1192.231Z" transform="translate(-1898.113 -1144.919)" fill="#452a20"/>
            <path id="Trazado_204588" data-name="Trazado 204588" d="M1978.207,1174.713a3.441,3.441,0,0,1,.587-.533c2.014-1.488,5.585-2.479,7.972-1.374a1.745,1.745,0,0,1,.709.527c.986,1.372-1.891,1.634-2.622,1.735a16.6,16.6,0,0,0-4.609,1.334c-.688.313-1.569.651-2.129.142a1.2,1.2,0,0,1-.228-1.307A1.884,1.884,0,0,1,1978.207,1174.713Z" transform="translate(-1944.639 -1130.694)" fill="#452a20"/>
            <path id="Trazado_204589" data-name="Trazado 204589" d="M1917.124,1033.783c-1.979-4.495-5.6-6.525-11.548-4.785s-5.107-2.9-12.631-4.35-13.9,1.595-15.208,6.38-5.81,0-11.419,2.429c-3.858,1.672-6.326,7.075-5.024,11.1.569,1.757,1.542,3.327,1.1,5.257-.309,1.365-1.077,2.584-1.424,3.94a9.159,9.159,0,0,0,.4,5.731,15.675,15.675,0,0,0,9.766,9.281s.194-6.969,10.337-11.492c11.464-5.111,21.083-.753,22.847.334s6.793,13.694,7.989,14.238,3.154.544,3.263-2.61,2.322-6.45,3.524-7.752a16.276,16.276,0,0,1,2.434-2.149S1919.1,1038.278,1917.124,1033.783Z" transform="translate(-1860.472 -1024.285)" fill="#452a20"/>
          </g>
          <path id="Trazado_204590" data-name="Trazado 204590" d="M2007.57,1350.8c-.061.565-.13,1.148-.2,1.74-.687,6.194-1.549,13.841-2.453,22.236-.061.574-.122,1.157-.192,1.74-.687,6.507-1.4,13.424-2.079,20.427-.052.583-.113,1.157-.166,1.74-.574,6.037-1.114,12.119-1.575,18.034-.052.591-.1,1.183-.139,1.766-1.523,19.679-2.184,37.243-.574,44.9a357.937,357.937,0,0,1,6.09,43.786l-77.349,1.74s-.548-6.2-1.392-15.859c-.052-.574-.1-1.157-.157-1.757-.426-4.785-.913-10.318-1.444-16.3-.044-.574-.1-1.157-.148-1.749-1.566-17.721-3.454-39.027-5-56.487-.052-.609-.113-1.209-.165-1.81-.539-6.1-1.035-11.684-1.47-16.416-.044-.592-.1-1.175-.148-1.74-.565-6.3-.983-10.857-1.175-12.789-.269-2.81-.678-6.629-1.148-10.831-.061-.574-.13-1.157-.191-1.74-.531-4.767-1.122-9.9-1.662-14.537-.07-.592-.139-1.175-.2-1.749-.887-7.569-1.583-13.406-1.583-13.406l17.53-8.2s6.908,12.719,12.545,22.071c.339.565.679,1.122,1.009,1.662,2.8,4.567,5.133,7.995,5.89,8.091.713.087,3.436-3.654,6.873-8.9.383-.574.766-1.175,1.166-1.783,7.751-12.005,18.208-29.84,18.208-29.84s31.754,11.814,32.624,12.11C2009.092,1337.011,2008.518,1342.335,2007.57,1350.8Z" transform="translate(-1673.955 -1240.307)" fill="#fff"/>
          <path id="Trazado_204591" data-name="Trazado 204591" d="M1948.178,1434.706a219.6,219.6,0,0,1-29.3-.383c-.07-.592-.139-1.175-.2-1.749a211.869,211.869,0,0,0,28.491.47C1947.508,1433.61,1947.847,1434.167,1948.178,1434.706Z" transform="translate(-1678.001 -1317.741)" fill="#dbd5d5"/>
          <path id="Trazado_204592" data-name="Trazado 204592" d="M2119.619,1417.14c-.061.565-.131,1.148-.2,1.74-16.834.6-33.659,2.636-50.475,3.923.383-.574.766-1.174,1.166-1.783C2086.595,1419.715,2103.106,1417.731,2119.619,1417.14Z" transform="translate(-1786.004 -1306.648)" fill="#dbd5d5"/>
          <path id="Trazado_204593" data-name="Trazado 204593" d="M2013.72,1493.827c-.061.574-.122,1.157-.192,1.74a576.992,576.992,0,0,1-88.041-3.349c-.061-.574-.131-1.157-.191-1.74A575.263,575.263,0,0,0,2013.72,1493.827Z" transform="translate(-1682.759 -1359.359)" fill="#dbd5d5"/>
          <path id="Trazado_204594" data-name="Trazado 204594" d="M2017.875,1580.8c-.052.583-.113,1.157-.166,1.74q-41.667.235-83.325-.157c-.044-.591-.1-1.175-.148-1.74Q1976.047,1581.035,2017.875,1580.8Z" transform="translate(-1689.184 -1424.165)" fill="#dbd5d5"/>
          <path id="Trazado_204595" data-name="Trazado 204595" d="M1999.365,1642.945c-.052.591-.1,1.183-.139,1.766a229.6,229.6,0,0,1-79.976-1.731c-2.584-.513-5.159-1.079-7.725-1.679-1.088-.261-.626-1.94.47-1.679q3.536.835,7.09,1.549A228.006,228.006,0,0,0,1999.365,1642.945Z" transform="translate(-1672.415 -1466.535)" fill="#dbd5d5"/>
          <path id="Trazado_204596" data-name="Trazado 204596" d="M2003.892,1851.664q-42.43,1.253-84.852-.877c-1.119-.056-1.116,1.684,0,1.74q42.395,2.13,84.852.877C2005.009,1853.371,2005.013,1851.631,2003.892,1851.664Z" transform="translate(-1677.66 -1618.328)" fill="#dbd5d5"/>
          <path id="Trazado_204597" data-name="Trazado 204597" d="M2038.135,1920.594c-24.664.679-49.527,1.253-73.956-2.184-.052-.574-.1-1.157-.157-1.757,24.481,3.48,49.4,2.879,74.113,2.2C2039.258,1918.819,2039.249,1920.559,2038.135,1920.594Z" transform="translate(-1710.593 -1665.67)" fill="#dbd5d5"/>
          <path id="Trazado_204598" data-name="Trazado 204598" d="M1844.007,1374.825s3.417,57.5,6.433,85.045,9.661,88.447,9.661,88.447h-22.159s-14.644-57.708-19.864-82.067-11.89-64.575-8.7-70.757S1844.007,1374.825,1844.007,1374.825Z" transform="translate(-1598.847 -1276.234)" fill="#0e4075"/>
          <path id="Trazado_204599" data-name="Trazado 204599" d="M2156.406,1342.609s-8.067,63.367-10.387,107.156,0,75.4,0,75.4h74.527s2.03-141.225-3.19-152.534S2156.406,1342.609,2156.406,1342.609Z" transform="translate(-1840.66 -1253.079)" fill="#0e4075"/>
          <path id="Trazado_204600" data-name="Trazado 204600" d="M2127.352,1758.313c-8.7,12.467-29.866,7.83-38.279,5.22-5.889-1.827-46.682-18.617-70.563-28.491q-1.07-.443-2.088-.861c-3.393-1.409-6.377-2.645-8.778-3.645-.026-.009-.061-.026-.087-.035-3.976-1.644-6.351-2.636-6.351-2.636l14.441-34.216,6.063,1.514.079.017,9.248,2.3,1.74.435,49.44,12.3,3.958-18.6,42.915,14.79S2136.052,1745.847,2127.352,1758.313Z" transform="translate(-1737.319 -1503.924)" fill="#ff9c78"/>
          <path id="Trazado_204601" data-name="Trazado 204601" d="M1888.886,1591.153c7.244,2.741,11.259,6.192,10.661,11.453s-8.328,4.267-15.573,1.526-11.833-7.805-10.661-11.453C1875.442,1586.055,1881.642,1588.412,1888.886,1591.153Z" transform="translate(-1645.265 -1429.738)" fill="#ff9c78"/>
          <path id="Trazado_204602" data-name="Trazado 204602" d="M2291.43,1433.172s9.061,5.707,16.02,19.337,17.979,79.747,17.979,79.747l-61.664-7.791s-10.756-61.806-9.924-64.706S2291.43,1433.172,2291.43,1433.172Z" transform="translate(-1918.865 -1318.17)" fill="#0e4075"/>
          <path id="Trazado_204603" data-name="Trazado 204603" d="M1932.458,1619.283s-13.573-20.009-28.435-26.1-17.548-4.954-17.548-4.954l-1.016,10.55s27.337,13.4,27.917,13.833S1932.458,1619.283,1932.458,1619.283Z" transform="translate(-1654.126 -1429.557)" fill="#ff9c78"/>
          <path id="Trazado_204604" data-name="Trazado 204604" d="M1849.109,1627.6s-17.343-14.064-23.288-16.964-24.359-8.7-31.9-10.15-13.049-1.232-13.049,4.06c0,5.8,24.649,13.339,24.649,13.339s-18.414-3.363-25.664-4.219-9.859,1.824-10.295,5.014,1.16,5,4.785,6.889,7.1,3.625,7.1,3.625-6.792-1.065-7.54,3.625c-.983,6.162,8.156,9.425,19.248,13.448,9.448,3.427,41.5,15.551,41.5,15.551l23.779-11.6Z" transform="translate(-1570.776 -1437.875)" fill="#ff9c78"/>
          <rect id="Rectángulo_296914" data-name="Rectángulo 296914" width="419.904" height="9.28" rx="4.64" transform="translate(0 265.413)" fill="#bdacac"/>
          <path id="Trazado_204605" data-name="Trazado 204605" d="M1671.181,1843.893c-2.182,8.86-5.253,14.219-11.672,14.219s-5.431-9.114-3.249-17.974,5.136-16.616,12.134-14.028C1672.759,1827.724,1673.364,1835.032,1671.181,1843.893Z" transform="translate(-1488.199 -1600.229)" fill="#ff9c78"/>
          <path id="Trazado_204606" data-name="Trazado 204606" d="M1563.9,1839.247c-2.237,8.847-2.618,17.918,3.621,18.036,4.759.09,9.077-5.493,11.314-14.339s5.889-19.668-4.119-18.084C1570.051,1825.6,1566.14,1830.4,1563.9,1839.247Z" transform="translate(-1421.939 -1599.582)" fill="#ff9c78"/>
          <path id="Trazado_204607" data-name="Trazado 204607" d="M1621.644,1834.276c-2.458,9.981-6.366,15.819-13.392,15.87s-6.948-10.294-4.489-20.275,8.4-16.833,13.392-15.87C1626.221,1815.752,1624.1,1824.295,1621.644,1834.276Z" transform="translate(-1450.57 -1591.825)" fill="#ff9c78"/>
          <path id="Trazado_204608" data-name="Trazado 204608" d="M1681.983,1829.346s9.932,9.914,13.194,19.049,3.045,12.107,3.045,12.107l-26.171.3Z" transform="translate(-1500.74 -1602.918)" fill="#ff9c78"/>
          <path id="Trazado_204609" data-name="Trazado 204609" d="M1695.131,1883.905c-4.374.087-11.669.048-12.94-5.486-1.626-7.076,8.373-5.932,12.276-4.728,1.073.331,1.531-1.348.463-1.678a23.193,23.193,0,0,0-5.32-.946,27.049,27.049,0,0,0,1.169-4.585c.178-1.1-1.5-1.567-1.678-.462a27.058,27.058,0,0,1-1.242,4.8.791.791,0,0,0-.032.223c-3.936.147-7.545,1.665-7.506,6.24.065,7.558,9.22,8.468,14.81,8.357A.87.87,0,0,0,1695.131,1883.905Z" transform="translate(-1506.684 -1628.826)" fill="#e86e41"/>
          <path id="Trazado_204610" data-name="Trazado 204610" d="M1661.809,1838.9a68.394,68.394,0,0,0-4.238,19.777c-.072,1.118,1.668,1.113,1.74,0a66.844,66.844,0,0,1,4.176-19.314C1663.88,1838.313,1662.2,1837.859,1661.809,1838.9Z" transform="translate(-1490.331 -1609.362)" fill="#e86e41"/>
          <path id="Trazado_204611" data-name="Trazado 204611" d="M1610.561,1833.443c-1.985,6.713-4.6,14.363-4.2,21.439.063,1.113,1.8,1.12,1.74,0-.389-6.905,2.192-14.4,4.135-20.976A.871.871,0,0,0,1610.561,1833.443Z" transform="translate(-1453.499 -1605.424)" fill="#e86e41"/>
          <path id="Trazado_204612" data-name="Trazado 204612" d="M1844.012,1710.95a181.361,181.361,0,0,0-20.681-5.507c-1.082-.24-1.664,1.4-.573,1.643a181.278,181.278,0,0,1,20.681,5.507A.871.871,0,0,0,1844.012,1710.95Z" transform="translate(-1608.64 -1513.847)" fill="#e86e41"/>
          <path id="Trazado_204613" data-name="Trazado 204613" d="M1906.612,1615.1q-9.889-4.544-20.079-8.354c-1.05-.393-1.5,1.289-.463,1.678q9.983,3.731,19.663,8.178C1906.744,1617.068,1907.629,1615.569,1906.612,1615.1Z" transform="translate(-1654.141 -1442.885)" fill="#e86e41"/>
          <path id="Trazado_204614" data-name="Trazado 204614" d="M1907.565,1666.189l-5.1-1.993c-1.043-.408-1.5,1.274-.462,1.678l5.1,1.993C1908.146,1668.275,1908.6,1666.593,1907.565,1666.189Z" transform="translate(-1665.599 -1484.173)" fill="#e86e41"/>
          <g id="Grupo_146815" data-name="Grupo 146815" transform="translate(0.699 163.889)">
            <path id="Trazado_204615" data-name="Trazado 204615" d="M1205.967,1708.515H1089.1l-23.587-98.305a2.61,2.61,0,0,1,2.538-3.219h111.5a2.61,2.61,0,0,1,2.538,2Z" transform="translate(-1065.442 -1606.991)" fill="#dbd5d5"/>
            <path id="Rectángulo_296915" data-name="Rectángulo 296915" d="M0,0H113.6a7.83,7.83,0,0,1,7.83,7.83v0a0,0,0,0,1,0,0H0a0,0,0,0,1,0,0V0A0,0,0,0,1,0,0Z" transform="translate(127.766 93.694)" fill="#dbd5d5"/>
          </g>
          <g id="Grupo_146816" data-name="Grupo 146816" transform="translate(341.485 148.893)">
            <path id="Trazado_204616" data-name="Trazado 204616" d="M2277.919,1609.82a.893.893,0,0,1-.09,0,.815.815,0,0,1-.721-.9l5.976-54.518a.815.815,0,1,1,1.62.177l-5.976,54.517A.815.815,0,0,1,2277.919,1609.82Z" transform="translate(-2277.104 -1553.674)" fill="#b9ddfc"/>
          </g>
          <g id="Grupo_146817" data-name="Grupo 146817" transform="translate(311.068 92.636)">
            <path id="Trazado_204617" data-name="Trazado 204617" d="M2169.769,1404.723a.815.815,0,0,1-.141-1.617c5.926-1.045,12.439-2.372,14.07-2.959-.451-3.821-4.076-30.964-6.036-45.573a.815.815,0,1,1,1.615-.217c1.018,7.587,6.1,45.475,6.1,46.216,0,.787,0,1.409-15.463,4.137A.8.8,0,0,1,2169.769,1404.723Z" transform="translate(-2168.955 -1353.651)" fill="#b9ddfc"/>
          </g>
          <g id="Grupo_146818" data-name="Grupo 146818" transform="translate(232.501 102.059)">
            <path id="Trazado_204618" data-name="Trazado 204618" d="M1904.032,1433.805a.808.808,0,0,1-.2-.025c-13.773-3.443-14.054-4.285-14.2-4.737-.234-.7,1.806-14.565,6.062-41.2a.815.815,0,1,1,1.609.257c-2.378,14.884-5.849,37.208-6.081,40.3,1.352.686,7.464,2.419,13.011,3.806a.815.815,0,0,1-.2,1.605Z" transform="translate(-1889.611 -1387.154)" fill="#b9ddfc"/>
          </g>
          <g id="Grupo_146822" data-name="Grupo 146822" transform="translate(238.69 45.404)">
            <g id="Grupo_146819" data-name="Grupo 146819" transform="translate(0 6.167)">
              <path id="Trazado_204619" data-name="Trazado 204619" d="M1918.531,1221.464a6.91,6.91,0,1,1,6.5-9.238h0a6.912,6.912,0,0,1-6.5,9.238Zm-.012-13.005a6.095,6.095,0,1,0,5.745,4.042A6.068,6.068,0,0,0,1918.519,1208.459Z" transform="translate(-1911.615 -1207.644)" fill="#fff"/>
            </g>
            <g id="Grupo_146820" data-name="Grupo 146820" transform="translate(17.226)">
              <path id="Trazado_204620" data-name="Trazado 204620" d="M1979.783,1199.54a6.912,6.912,0,1,1,2.321-.4A6.922,6.922,0,0,1,1979.783,1199.54Zm0-13.008a6.1,6.1,0,1,0,5.734,4.045h0a6.106,6.106,0,0,0-5.734-4.045Z" transform="translate(-1972.863 -1185.717)" fill="#fff"/>
            </g>
            <g id="Grupo_146821" data-name="Grupo 146821" transform="translate(12.895 8.719)">
              <rect id="Rectángulo_296916" data-name="Rectángulo 296916" width="5.295" height="0.815" transform="matrix(0.942, -0.337, 0.337, 0.942, 0, 1.784)" fill="#fff"/>
            </g>
          </g>
          <g id="Grupo_146823" data-name="Grupo 146823" transform="translate(268.939 38.647)">
            <rect id="Rectángulo_296917" data-name="Rectángulo 296917" width="17.5" height="0.815" transform="translate(0 10.847) rotate(-38.303)" fill="#fff"/>
          </g>
          <path id="Trazado_204621" data-name="Trazado 204621" d="M2070.18,1155.942c-1.244,9.956-10.334,15.01-10.334,15.01s-2.919-8.317-3.516-13.788,2.313-10.278,6.5-10.734S2070.863,1150.48,2070.18,1155.942Z" transform="translate(-1776.882 -1112.053)" fill="#ff9c78"/>
          <path id="Trazado_204622" data-name="Trazado 204622" d="M2065.242,1177.182c-.716-.862-1.942.375-1.23,1.23a5.69,5.69,0,0,1,.332,6.782c-.61.943.9,1.816,1.5.878A7.465,7.465,0,0,0,2065.242,1177.182Z" transform="translate(-1782.305 -1133.969)" fill="#e86e41"/>
          <path id="Trazado_204623" data-name="Trazado 204623" d="M1275.933,1746.2c0,2.8-6.362,5.075-14.21,5.075s-14.21-2.272-14.21-5.075,6.362-5.075,14.21-5.075S1275.933,1743.4,1275.933,1746.2Z" transform="translate(-1195.606 -1539.511)" fill="#fff"/>
          <path id="Trazado_204624" data-name="Trazado 204624" d="M2049.982,1707.17c-4.707,12.3-9.152,25.125-14.19,37.286-3.393-1.409-9.3-3.849-11.7-4.85q7.282-17.578,14.067-35.373l.078.017Z" transform="translate(-1753.77 -1512.995)" fill="#452a20"/>
          <circle id="Elipse_5293" data-name="Elipse 5293" cx="9.164" cy="9.164" r="9.164" transform="translate(273.075 216.874) rotate(-79.099)" fill="#fff"/>
          <g id="Grupo_146824" data-name="Grupo 146824" transform="translate(2.347 167.289)">
            <path id="Trazado_204625" data-name="Trazado 204625" d="M1203.481,1710.926a.815.815,0,0,1-.792-.624l-21.6-89.594H1072.117a.815.815,0,0,1,0-1.63h110.258l21.9,90.842a.814.814,0,0,1-.793,1.005Z" transform="translate(-1071.302 -1619.079)" fill="#bdacac"/>
          </g>
        </g>
        <g id="Grupo_146833" data-name="Grupo 146833" transform="translate(511.534 26.36)">
          <path id="Trazado_204626" data-name="Trazado 204626" d="M2201.036,667.778c.024.035.053.076.082.112a11.431,11.431,0,0,0,7.735,4.4,11.07,11.07,0,0,0,1.478.094h261.995c6.675,0,12.349-.106,12.662-6.77l5.062-97.091a11.413,11.413,0,0,0-10.278-12.008c-.418-.041-.83-.065-1.254-.065h-262a12.792,12.792,0,0,0-12.661,12.073l-5.062,97.091C2198.664,668.431,2199.512,665.723,2201.036,667.778Z" transform="translate(-2187.792 -548.113)" fill="url(#linear-gradient)"/>
          <path id="Trazado_204627" data-name="Trazado 204627" d="M2159.712,632.5a11.622,11.622,0,0,0,11.743,12.267h266.727a13.007,13.007,0,0,0,12.885-12.267l4.655-88.409.235-5.009a11.613,11.613,0,0,0-11.737-12.261H2177.494a13.007,13.007,0,0,0-12.891,12.261l-.236,5.009Z" transform="translate(-2159.698 -526.818)" fill="#fff"/>
          <path id="Trazado_204628" data-name="Trazado 204628" d="M2162.491,660.787l4.083-94.975a4.625,4.625,0,0,1-.6.2l-4.073,94.777a11.876,11.876,0,0,0,9.984,12.375,2.471,2.471,0,0,1,.007-.6A11.322,11.322,0,0,1,2162.491,660.787Z" transform="translate(-2161.273 -554.839)" fill="#c2a59b"/>
          <path id="Trazado_204629" data-name="Trazado 204629" d="M2467.782,539.068a11.613,11.613,0,0,0-11.738-12.261l-267.006-.007a13.007,13.007,0,0,0-12.891,12.261Z" transform="translate(-2171.521 -526.799)" fill="#b9ddfc"/>
          <g id="Grupo_146832" data-name="Grupo 146832" transform="translate(18.532 25.472)">
            <g id="Grupo_146826" data-name="Grupo 146826" transform="translate(15.597 8.708)">
              <path id="Trazado_204630" data-name="Trazado 204630" d="M2289.094,649.738l-.257,4.367a1.5,1.5,0,0,0,1.5,1.588h7.984a1.5,1.5,0,0,0,1.5-1.412l.257-4.367a1.5,1.5,0,0,0-1.5-1.588h-7.984A1.5,1.5,0,0,0,2289.094,649.738Z" transform="translate(-2286.644 -648.326)" fill="#0e4075"/>
              <path id="Trazado_204631" data-name="Trazado 204631" d="M2286.41,743.331h7.984a1.5,1.5,0,0,0,1.5-1.412l.257-4.367a1.5,1.5,0,0,0-1.5-1.588h-7.984a1.5,1.5,0,0,0-1.5,1.412l-.257,4.367A1.5,1.5,0,0,0,2286.41,743.331Z" transform="translate(-2283.823 -711.316)" fill="#0e4075"/>
              <path id="Trazado_204632" data-name="Trazado 204632" d="M2282.811,832.8h7.449a1.767,1.767,0,0,0,1.764-1.664l.225-3.832a1.767,1.767,0,0,0-1.764-1.871h-7.448a1.767,1.767,0,0,0-1.764,1.663l-.225,3.832A1.767,1.767,0,0,0,2282.811,832.8Z" transform="translate(-2281.044 -775.623)" fill="#0e4075"/>
            </g>
            <g id="Grupo_146827" data-name="Grupo 146827" transform="translate(52.105 8.745)">
              <path id="Trazado_204633" data-name="Trazado 204633" d="M2421.767,655.8h22.123a1.5,1.5,0,0,0,1.5-1.4l.29-4.342a1.5,1.5,0,0,0-1.5-1.6h-22.123a1.5,1.5,0,0,0-1.5,1.4l-.29,4.342A1.5,1.5,0,0,0,2421.767,655.8Z" transform="translate(-2417.618 -648.457)" fill="#0e4075"/>
              <path id="Trazado_204634" data-name="Trazado 204634" d="M2416.884,743.35h29.775a1.5,1.5,0,0,0,1.5-1.4l.29-4.342a1.5,1.5,0,0,0-1.5-1.6h-29.775a1.5,1.5,0,0,0-1.5,1.4l-.29,4.342A1.5,1.5,0,0,0,2416.884,743.35Z" transform="translate(-2414.108 -711.385)" fill="#0e4075"/>
              <path id="Trazado_204635" data-name="Trazado 204635" d="M2412.349,832.646h22.711a1.5,1.5,0,0,0,1.5-1.4l.29-4.342a1.5,1.5,0,0,0-1.5-1.6h-22.711a1.5,1.5,0,0,0-1.5,1.4l-.29,4.342A1.5,1.5,0,0,0,2412.349,832.646Z" transform="translate(-2410.849 -775.566)" fill="#0e4075"/>
            </g>
            <g id="Grupo_146828" data-name="Grupo 146828" transform="translate(159.261 8.745)">
              <path id="Trazado_204636" data-name="Trazado 204636" d="M2797.788,743.35h29.775a1.5,1.5,0,0,0,1.5-1.4l.29-4.342a1.5,1.5,0,0,0-1.5-1.6h-29.775a1.5,1.5,0,0,0-1.5,1.4l-.29,4.342A1.5,1.5,0,0,0,2797.788,743.35Z" transform="translate(-2795.037 -711.385)" fill="#0e4075"/>
              <path id="Trazado_204637" data-name="Trazado 204637" d="M2976.379,743.35h29.775a1.5,1.5,0,0,0,1.5-1.4l.29-4.342a1.5,1.5,0,0,0-1.5-1.6H2976.67a1.5,1.5,0,0,0-1.5,1.4l-.29,4.342A1.5,1.5,0,0,0,2976.379,743.35Z" transform="translate(-2923.399 -711.385)" fill="#0e4075"/>
              <path id="Trazado_204638" data-name="Trazado 204638" d="M2793.34,830.771h29.775a1.5,1.5,0,0,0,1.5-1.4l.29-4.342a1.5,1.5,0,0,0-1.5-1.6H2793.63a1.5,1.5,0,0,0-1.5,1.4l-.29,4.342A1.5,1.5,0,0,0,2793.34,830.771Z" transform="translate(-2791.84 -774.218)" fill="#0e4075"/>
              <path id="Trazado_204639" data-name="Trazado 204639" d="M2802.322,655.8h22.123a1.5,1.5,0,0,0,1.5-1.4l.29-4.342a1.5,1.5,0,0,0-1.5-1.6h-22.123a1.5,1.5,0,0,0-1.5,1.4l-.29,4.342A1.5,1.5,0,0,0,2802.322,655.8Z" transform="translate(-2798.296 -648.457)" fill="#0e4075"/>
            </g>
            <g id="Grupo_146829" data-name="Grupo 146829" transform="translate(104.53 33.406)">
              <path id="Trazado_204640" data-name="Trazado 204640" d="M2603.019,743.481h28.6a1.5,1.5,0,0,0,1.5-1.4l.29-4.342a1.5,1.5,0,0,0-1.5-1.6h-28.6a1.5,1.5,0,0,0-1.5,1.4l-.29,4.342A1.5,1.5,0,0,0,2603.019,743.481Z" transform="translate(-2600.317 -736.14)" fill="#0e4075"/>
              <path id="Trazado_204641" data-name="Trazado 204641" d="M2598.746,832.777h22.123a1.5,1.5,0,0,0,1.5-1.4l.29-4.342a1.5,1.5,0,0,0-1.5-1.6h-22.123a1.5,1.5,0,0,0-1.5,1.4l-.29,4.342A1.5,1.5,0,0,0,2598.746,832.777Z" transform="translate(-2597.246 -800.321)" fill="#0e4075"/>
            </g>
            <g id="Grupo_146830" data-name="Grupo 146830" transform="translate(211.723 8.696)">
              <path id="Trazado_204642" data-name="Trazado 204642" d="M2979.868,830.728h22.123a1.5,1.5,0,0,0,1.5-1.4l.29-4.342a1.5,1.5,0,0,0-1.5-1.6h-22.123a1.5,1.5,0,0,0-1.5,1.4l-.29,4.342A1.5,1.5,0,0,0,2979.868,830.728Z" transform="translate(-2978.368 -774.138)" fill="#0e4075"/>
              <path id="Trazado_204643" data-name="Trazado 204643" d="M2988.762,655.624h27.42a1.5,1.5,0,0,0,1.5-1.4l.29-4.342a1.5,1.5,0,0,0-1.5-1.6h-27.42a1.5,1.5,0,0,0-1.5,1.4l-.29,4.342A1.5,1.5,0,0,0,2988.762,655.624Z" transform="translate(-2984.761 -648.283)" fill="#0e4075"/>
            </g>
            <path id="Trazado_204644" data-name="Trazado 204644" d="M2320.442,693.366l-.03.559v.029h53.878v-.029l.029-.559Zm-53.831,0-.03.559v.029h52.065v-.029l.029-.559Zm53.831,0-.03.559v.029h53.878v-.029l.029-.559Zm-53.831,0-.03.559v.029h52.065v-.029l.029-.559Zm212.775-51.019-.03.588-2.08,41.148c-.047,1.666-1.242,3.838-3.126,5.662a12.948,12.948,0,0,1-6.546,3.591,2.68,2.68,0,0,1-.424.029H2237.721c-.712,0-1.307-.012-1.819-.029a16,16,0,0,1-2.561-.265c-4.568-.842-7.228-6.328-7.164-9.03l2.086-41.106.029-.588.736-15.11c.077-2.984,3.72-8.205,8.059-8.994a17.425,17.425,0,0,1,3.214-.288h229.461c5.856,0,10.46,5.639,10.36,9.324Zm-212.775,51.019-.03.559v.029h52.065v-.029l.029-.559Zm53.831,0-.03.559v.029h53.878v-.029l.029-.559Zm152.613-75.449a9.826,9.826,0,0,0-3.231-.553H2240.363a18.169,18.169,0,0,0-3.326.3,7.261,7.261,0,0,0-.977.253c-4.185,1.372-7.54,6.4-7.623,9.359l-.736,15.069-.03.589-2.08,41.148c-.076,2.99,2.537,7.8,6.434,9.253a6.46,6.46,0,0,0,1.154.324,18.453,18.453,0,0,0,2.631.265c.524.017,1.13.029,1.854.029h229.461a3.026,3.026,0,0,0,.448-.029,8.041,8.041,0,0,0,2.142-.589,15.522,15.522,0,0,0,4.833-3.2c2-1.936,3.273-4.279,3.326-6.1l2.08-41.106.03-.589.736-15.1v-.006C2480.8,624.051,2477.588,619.489,2473.055,617.917Z" transform="translate(-2225.59 -617.364)" fill="#0e4075"/>
            <path id="Trazado_204645" data-name="Trazado 204645" d="M2374.439,617.364l-.029.553v.035l-1.319,24.393-.035.589-1.318,24.328-.03.589-1.383,25.505-.03.589-.12.008h-.589l.12-.008.03-.589,1.383-25.505.03-.589,1.318-24.328.035-.589,1.319-24.393v-.035l.029-.553Z" transform="translate(-2329.087 -617.364)" fill="#0e4075"/>
            <path id="Trazado_204646" data-name="Trazado 204646" d="M2561.646,617.364l-.03.553v.035l-1.318,24.393-.035.589-1.319,24.328-.029.589-1.383,25.505-.029.589-.12.008h-.589l.12-.008.029-.589,1.384-25.505.029-.589,1.319-24.328.035-.589,1.318-24.393v-.035l.03-.553Z" transform="translate(-2463.641 -617.364)" fill="#0e4075"/>
            <path id="Trazado_204647" data-name="Trazado 204647" d="M2748.942,619.373l-.029.589-4.135,75.435h-.589l4.135-75.435.029-.589Z" transform="translate(-2598.331 -618.808)" fill="#0e4075"/>
            <path id="Trazado_204648" data-name="Trazado 204648" d="M2936.046,619.331l-.03.589-4.134,75.447h-.589l4.135-75.447.03-.589Z" transform="translate(-2732.81 -618.778)" fill="#0e4075"/>
            <g id="Grupo_146831" data-name="Grupo 146831" transform="translate(0.867 24.984)">
              <path id="Trazado_204649" data-name="Trazado 204649" d="M2485.3,706.193l-.029.589H2232.984l.03-.589Z" transform="translate(-2231.771 -706.193)" fill="#0e4075"/>
              <path id="Trazado_204650" data-name="Trazado 204650" d="M2480.979,794.784l-.024.589H2228.674l.029-.589Z" transform="translate(-2228.674 -769.867)" fill="#0e4075"/>
            </g>
          </g>
          <path id="Trazado_204651" data-name="Trazado 204651" d="M3077.964,542.085h5.82a1.7,1.7,0,0,0,1.7-1.59l.263-3.933a1.7,1.7,0,0,0-1.7-1.817h-5.82a1.7,1.7,0,0,0-1.7,1.59l-.263,3.933A1.7,1.7,0,0,0,3077.964,542.085Z" transform="translate(-2818.472 -532.509)" fill="#0e4075"/>
          <path id="Trazado_204652" data-name="Trazado 204652" d="M3125.054,542.608h5.82a1.7,1.7,0,0,0,1.7-1.59l.263-3.933a1.7,1.7,0,0,0-1.7-1.817h-5.82a1.7,1.7,0,0,0-1.7,1.59l-.263,3.934A1.7,1.7,0,0,0,3125.054,542.608Z" transform="translate(-2852.318 -532.885)" fill="#0e4075"/>
        </g>
        <g id="Grupo_146839" data-name="Grupo 146839" transform="translate(554.237 184.434)">
          <g id="Grupo_146834" data-name="Grupo 146834" transform="translate(8.699 13.773)">
            <path id="Trazado_204653" data-name="Trazado 204653" d="M2529.572,1145.68l-1.171,24.881-1.64,38.756-.495,10.5-.265,5.651a8.175,8.175,0,0,1-.306,1.831l-.135,2.878a8.353,8.353,0,0,1-3.6,6.463.006.006,0,0,1-.006.006,7.826,7.826,0,0,1-4.456,1.413l-30.609.006-21.1.006-108.6.018c-10.16-.065-13.892-2.825-14.733-10.925l.883-19.125,2.182-50.781c.135-2.937,1.442,2.714,3.826,1.36l.606-12.932a8.246,8.246,0,0,1,8.058-7.882h164.235A7.367,7.367,0,0,1,2529.572,1145.68Z" transform="translate(-2342.459 -1137.798)" fill="url(#linear-gradient)"/>
            <path id="Trazado_204654" data-name="Trazado 204654" d="M2528.406,1204.481l-1.646,38.75-.495,10.5-.265,5.651a8.175,8.175,0,0,1-.306,1.831l-.135,2.878a8.353,8.353,0,0,1-3.6,6.463.006.006,0,0,1-.006.006,7.826,7.826,0,0,1-4.456,1.413l-30.609.006-21.1.006-108.6.018c-10.16-.065-13.892-2.825-14.733-10.925l.883-19.125c26.412-.512,47.432,5.51,73.827,5.492,17.453-.012,37.284-.654,53.548-3.856,8.435-1.654,16.009,10.142,23.508,5.857-.854-.647-1.7-1.289-2.549-1.942a5.831,5.831,0,0,1-2-7.323,6.048,6.048,0,0,1,6.228-3.538l-2.425-1.76c-5.939-4.32-.276-13.2,6.251-10.124q5.978,2.825,11.961,5.639-7.108-5.209-14.221-10.431c-4.515-3.314-2.149-9.671,2.148-10.731-.406-.33-.806-.647-1.207-.971a5.986,5.986,0,0,1,1.684-10.466c-.83-.618-1.655-1.236-2.484-1.854a5.958,5.958,0,0,1-1.678-8.017c1.589-2.566,5.463-3.926,7.923-2.1q12.388,9.174,24.546,18.654Z" transform="translate(-2342.459 -1171.712)" fill="url(#linear-gradient)"/>
          </g>
          <path id="Trazado_204655" data-name="Trazado 204655" d="M2315.658,1096.709l-4.107,92a7.471,7.471,0,0,0,7.546,7.882h171.448a8.032,8.032,0,0,0,2.339-.347,8.37,8.37,0,0,0,5.945-7.535l4.107-92a7.446,7.446,0,0,0-5.239-7.535,7.717,7.717,0,0,0-2.307-.346H2323.942A8.364,8.364,0,0,0,2315.658,1096.709Z" transform="translate(-2311.538 -1088.827)" fill="#fff"/>
          <path id="Trazado_204656" data-name="Trazado 204656" d="M2316.224,1117.906l-4.1,91.779a7.2,7.2,0,0,0,7.266,7.589h.976a2.762,2.762,0,0,0,.141.586h-1.144a7.755,7.755,0,0,1-7.827-8.175l4.094-91.72A2.689,2.689,0,0,0,2316.224,1117.906Z" transform="translate(-2311.529 -1109.727)" fill="#dbd5d5"/>
          <path id="Trazado_204657" data-name="Trazado 204657" d="M2325.509,1096.709l-.262,5.071h187.279l.261-5.071a7.446,7.446,0,0,0-5.239-7.535,7.716,7.716,0,0,0-2.307-.346H2333.792A8.363,8.363,0,0,0,2325.509,1096.709Z" transform="translate(-2321.389 -1088.827)" fill="#b9ddfc"/>
          <g id="Grupo_146838" data-name="Grupo 146838" transform="translate(16.847 26.05)">
            <path id="Trazado_204658" data-name="Trazado 204658" d="M2592.309,1220.993h23.612a1.164,1.164,0,0,0,1.163-1.116l.141-3.447a1.163,1.163,0,0,0-1.162-1.211H2592.45a1.164,1.164,0,0,0-1.163,1.116l-.141,3.447A1.164,1.164,0,0,0,2592.309,1220.993Z" transform="translate(-2529.349 -1205.721)" fill="#0e4075"/>
            <path id="Trazado_204659" data-name="Trazado 204659" d="M2430.432,1219.486h8.526a1.163,1.163,0,0,0,1.162-1.116l.141-3.447a1.163,1.163,0,0,0-1.163-1.211h-8.526a1.163,1.163,0,0,0-1.163,1.116l-.141,3.446A1.163,1.163,0,0,0,2430.432,1219.486Z" transform="translate(-2413 -1204.638)" fill="#0e4075"/>
            <path id="Trazado_204660" data-name="Trazado 204660" d="M2784.631,1217.373l-.083,3.448a1.163,1.163,0,0,0,1.163,1.191h24.52a1.164,1.164,0,0,0,1.163-1.135l.083-3.448a1.164,1.164,0,0,0-1.163-1.192h-24.52A1.163,1.163,0,0,0,2784.631,1217.373Z" transform="translate(-2668.356 -1206.452)" fill="#0e4075"/>
            <path id="Trazado_204661" data-name="Trazado 204661" d="M2585.332,1366.8h18.9a1.163,1.163,0,0,0,1.162-1.116l.141-3.447a1.163,1.163,0,0,0-1.162-1.211h-18.9a1.163,1.163,0,0,0-1.162,1.116l-.141,3.447A1.164,1.164,0,0,0,2585.332,1366.8Z" transform="translate(-2524.334 -1310.516)" fill="#0e4075"/>
            <path id="Trazado_204662" data-name="Trazado 204662" d="M2423.456,1365.29h8.526a1.163,1.163,0,0,0,1.162-1.116l.141-3.447a1.164,1.164,0,0,0-1.163-1.211H2423.6a1.164,1.164,0,0,0-1.162,1.116l-.141,3.447A1.164,1.164,0,0,0,2423.456,1365.29Z" transform="translate(-2407.987 -1309.433)" fill="#0e4075"/>
            <path id="Trazado_204663" data-name="Trazado 204663" d="M2777.655,1363.177l-.083,3.448a1.163,1.163,0,0,0,1.163,1.191h21.577a1.164,1.164,0,0,0,1.163-1.135l.083-3.448a1.163,1.163,0,0,0-1.163-1.191h-21.577A1.163,1.163,0,0,0,2777.655,1363.177Z" transform="translate(-2663.341 -1311.248)" fill="#0e4075"/>
            <path id="Trazado_204664" data-name="Trazado 204664" d="M2589.2,1293.631h29.435a1.163,1.163,0,0,0,1.163-1.129l.1-3.447a1.164,1.164,0,0,0-1.163-1.2h-29.435a1.164,1.164,0,0,0-1.163,1.129l-.1,3.447A1.164,1.164,0,0,0,2589.2,1293.631Z" transform="translate(-2527.117 -1257.929)" fill="#0e4075"/>
            <path id="Trazado_204665" data-name="Trazado 204665" d="M2782.035,1289.638l-.073,3.448a1.163,1.163,0,0,0,1.163,1.188h17.093a1.163,1.163,0,0,0,1.163-1.139l.074-3.448a1.164,1.164,0,0,0-1.163-1.188H2783.2A1.164,1.164,0,0,0,2782.035,1289.638Z" transform="translate(-2666.497 -1258.39)" fill="#0e4075"/>
            <path id="Trazado_204666" data-name="Trazado 204666" d="M2426.622,1294.132h12.064a1.163,1.163,0,0,0,1.162-1.116l.141-3.447a1.164,1.164,0,0,0-1.162-1.211h-12.064a1.163,1.163,0,0,0-1.163,1.116l-.141,3.447A1.164,1.164,0,0,0,2426.622,1294.132Z" transform="translate(-2410.262 -1258.29)" fill="#0e4075"/>
            <g id="Grupo_146836" data-name="Grupo 146836">
              <path id="Trazado_204667" data-name="Trazado 204667" d="M2426.311,1245.324h53.878l.03-.589H2426.34Zm54.466,0h2.031l.029-.589h-2.031Zm-54.466,0h53.878l.03-.589H2426.34Zm54.5-.589-.03.589h2.031l.029-.589Zm-108.774-9.283,2.331-44.087c.288-3.685,4.3-9.324,10.16-9.324h131.748a16.942,16.942,0,0,1,3.184.289c4.256.789,7.352,6.01,7.117,8.994l-2.331,44.087c-.212,2.7-3.449,8.194-8.105,9.035a17.685,17.685,0,0,1-3.232.289H2381.156a8.256,8.256,0,0,1-6.854-2.973A9.292,9.292,0,0,1,2372.032,1235.452Zm108.744,9.871h2.031l.029-.589h-2.031Zm-54.466,0h53.878l.03-.589H2426.34Zm93.258-63.568a17.716,17.716,0,0,0-3.3-.3H2384.524c-6.157,0-10.443,5.975-10.749,9.871v.006l-2.331,44.083a9.9,9.9,0,0,0,2.423,6.752,8.85,8.85,0,0,0,7.29,3.161H2512.9a18.863,18.863,0,0,0,3.337-.294c4.615-.836,8.329-6.3,8.588-9.577l.541-10.213.03-.589,1.1-20.8.03-.589.63-11.9C2527.408,1188.177,2524.106,1182.6,2519.568,1181.755Z" transform="translate(-2371.428 -1181.453)" fill="#0e4075"/>
              <g id="Grupo_146835" data-name="Grupo 146835" transform="translate(45.465)">
                <path id="Trazado_204668" data-name="Trazado 204668" d="M2729.585,1182.036l.03-.589h.589l-.03.589-2.825,62.693-.03.589h-.589l.03-.589Z" transform="translate(-2672.264 -1181.447)" fill="#0e4075"/>
                <path id="Trazado_204669" data-name="Trazado 204669" d="M2535.926,1182.036l.03-.589h.594l-.029.589-2.826,62.693-.029.589h-.589l.029-.589Z" transform="translate(-2533.077 -1181.447)" fill="#0e4075"/>
              </g>
            </g>
            <g id="Grupo_146837" data-name="Grupo 146837" transform="translate(0.894 21.817)">
              <path id="Trazado_204670" data-name="Trazado 204670" d="M2532.064,1259.017l-.03.589H2379.125l.03-.589Z" transform="translate(-2377.854 -1259.017)" fill="#0e4075"/>
              <path id="Trazado_204671" data-name="Trazado 204671" d="M2527.685,1335.052l-.03.589H2374.6l.029-.589Z" transform="translate(-2374.605 -1313.667)" fill="#0e4075"/>
            </g>
          </g>
          <path id="Trazado_204672" data-name="Trazado 204672" d="M2920.85,1104.814h5.82a1.7,1.7,0,0,0,1.7-1.59l.263-3.934a1.7,1.7,0,0,0-1.7-1.818h-5.82a1.7,1.7,0,0,0-1.7,1.59l-.263,3.934A1.7,1.7,0,0,0,2920.85,1104.814Z" transform="translate(-2748.251 -1095.041)" fill="#0e4075"/>
          <path id="Trazado_204673" data-name="Trazado 204673" d="M2872.016,1104.814h5.82a1.7,1.7,0,0,0,1.7-1.59l.263-3.934a1.7,1.7,0,0,0-1.7-1.818h-5.82a1.7,1.7,0,0,0-1.7,1.59l-.263,3.934A1.7,1.7,0,0,0,2872.016,1104.814Z" transform="translate(-2713.151 -1095.041)" fill="#0e4075"/>
        </g>
        <g id="Grupo_146847" data-name="Grupo 146847" transform="translate(102.903 0)">
          <path id="Trazado_204674" data-name="Trazado 204674" d="M741.657,485.617l-5.533,119.728c1.383,12.333,7.367,16.535,23.65,16.635l147.013-.029,103.418-.023a12.874,12.874,0,0,0,12.876-11.995l.154-3.293a11.55,11.55,0,0,0,.3-2.1l6.728-143.759a11.5,11.5,0,0,0-11.753-11.995H761.787a12.875,12.875,0,0,0-12.876,11.995l-.679,14.507A12.627,12.627,0,0,0,741.657,485.617Z" transform="translate(-727.881 -444.364)" fill="url(#linear-gradient)"/>
          <path id="Trazado_204676" data-name="Trazado 204676" d="M707.86,592.542A11.621,11.621,0,0,0,719.6,604.8H985.324a13.007,13.007,0,0,0,12.891-12.261l6.8-145.492.082-1.713a11.619,11.619,0,0,0-11.737-12.261H727.638a13.01,13.01,0,0,0-12.885,12.261l-.082,1.7Z" transform="translate(-707.556 -433.075)" fill="#fff"/>
          <path id="Trazado_204677" data-name="Trazado 204677" d="M726.873,435.627H992.6a11.911,11.911,0,0,1,12.022,12.556l-.049,1.04a2.442,2.442,0,0,0-.579-.222l.039-.818a11.356,11.356,0,0,0-11.461-11.97H726.845a12.713,12.713,0,0,0-12.581,11.97l-6.847,146.144a11.315,11.315,0,0,0,7.333,11.215,2.238,2.238,0,0,0,.123.68,11.873,11.873,0,0,1-8.045-11.9l6.847-146.144A13.336,13.336,0,0,1,726.873,435.627Z" transform="translate(-706.815 -434.909)" fill="#dbd5d5"/>
          <path id="Trazado_204678" data-name="Trazado 204678" d="M730.948,447.158l290.676-.109.082-1.713a11.619,11.619,0,0,0-11.737-12.261H744.242c-6.8,0-12.9,5.18-13.221,11.949Z" transform="translate(-724.16 -433.075)" fill="#d3e1f0"/>
          <g id="Grupo_146846" data-name="Grupo 146846" transform="translate(24.83 38.116)">
            <g id="Grupo_146840" data-name="Grupo 146840" transform="translate(15.528 8.709)">
              <path id="Trazado_204679" data-name="Trazado 204679" d="M862.863,600.971l-.257,4.367a1.5,1.5,0,0,0,1.5,1.587h7.984a1.5,1.5,0,0,0,1.5-1.412l.256-4.367a1.5,1.5,0,0,0-1.5-1.587H864.36A1.5,1.5,0,0,0,862.863,600.971Z" transform="translate(-859.146 -599.559)" fill="#084a93"/>
              <path id="Trazado_204680" data-name="Trazado 204680" d="M860.179,694.564h7.984a1.5,1.5,0,0,0,1.5-1.412l.256-4.367a1.5,1.5,0,0,0-1.5-1.587h-7.984a1.5,1.5,0,0,0-1.5,1.412l-.257,4.367A1.5,1.5,0,0,0,860.179,694.564Z" transform="translate(-856.325 -662.549)" fill="#084a93"/>
              <path id="Trazado_204681" data-name="Trazado 204681" d="M856.58,784.035h7.448a1.767,1.767,0,0,0,1.764-1.663l.225-3.832a1.767,1.767,0,0,0-1.764-1.87h-7.448a1.767,1.767,0,0,0-1.764,1.663l-.225,3.832A1.767,1.767,0,0,0,856.58,784.035Z" transform="translate(-853.546 -726.856)" fill="#084a93"/>
              <path id="Trazado_204682" data-name="Trazado 204682" d="M851.808,877.168h7.984a1.5,1.5,0,0,0,1.5-1.412l.256-4.367a1.5,1.5,0,0,0-1.5-1.587h-7.984a1.5,1.5,0,0,0-1.5,1.412l-.256,4.367A1.5,1.5,0,0,0,851.808,877.168Z" transform="translate(-850.309 -793.795)" fill="#084a93"/>
            </g>
            <g id="Grupo_146841" data-name="Grupo 146841" transform="translate(51.93 8.745)">
              <path id="Trazado_204683" data-name="Trazado 204683" d="M995.536,607.031h22.123a1.5,1.5,0,0,0,1.5-1.4l.29-4.342a1.5,1.5,0,0,0-1.5-1.6H995.826a1.5,1.5,0,0,0-1.5,1.4l-.29,4.342A1.5,1.5,0,0,0,995.536,607.031Z" transform="translate(-990.014 -599.69)" fill="#084a93"/>
              <path id="Trazado_204684" data-name="Trazado 204684" d="M990.653,694.583h29.775a1.5,1.5,0,0,0,1.5-1.4l.29-4.342a1.5,1.5,0,0,0-1.5-1.6H990.943a1.5,1.5,0,0,0-1.5,1.4l-.29,4.342A1.5,1.5,0,0,0,990.653,694.583Z" transform="translate(-986.504 -662.618)" fill="#084a93"/>
              <path id="Trazado_204685" data-name="Trazado 204685" d="M986.118,783.879h22.711a1.5,1.5,0,0,0,1.5-1.4l.29-4.342a1.5,1.5,0,0,0-1.5-1.6H986.408a1.5,1.5,0,0,0-1.5,1.4l-.29,4.342A1.5,1.5,0,0,0,986.118,783.879Z" transform="translate(-983.245 -726.799)" fill="#084a93"/>
              <path id="Trazado_204686" data-name="Trazado 204686" d="M981.235,877.709h28.009a1.5,1.5,0,0,0,1.5-1.4l.29-4.342a1.5,1.5,0,0,0-1.5-1.6H981.525a1.5,1.5,0,0,0-1.5,1.4l-.29,4.342A1.5,1.5,0,0,0,981.235,877.709Z" transform="translate(-979.735 -794.238)" fill="#084a93"/>
            </g>
            <g id="Grupo_146842" data-name="Grupo 146842" transform="translate(158.718 8.745)">
              <path id="Trazado_204687" data-name="Trazado 204687" d="M1371.557,694.583h29.775a1.5,1.5,0,0,0,1.5-1.4l.29-4.342a1.5,1.5,0,0,0-1.5-1.6h-29.775a1.5,1.5,0,0,0-1.5,1.4l-.29,4.342A1.5,1.5,0,0,0,1371.557,694.583Z" transform="translate(-1367.065 -662.618)" fill="#084a93"/>
              <path id="Trazado_204688" data-name="Trazado 204688" d="M1367.109,782h29.775a1.5,1.5,0,0,0,1.5-1.4l.29-4.342a1.5,1.5,0,0,0-1.5-1.6H1367.4a1.5,1.5,0,0,0-1.5,1.4l-.29,4.342A1.5,1.5,0,0,0,1367.109,782Z" transform="translate(-1363.868 -725.451)" fill="#084a93"/>
              <path id="Trazado_204689" data-name="Trazado 204689" d="M1376.091,607.031h22.123a1.5,1.5,0,0,0,1.5-1.4l.29-4.342a1.5,1.5,0,0,0-1.5-1.6h-22.123a1.5,1.5,0,0,0-1.5,1.4l-.29,4.342A1.5,1.5,0,0,0,1376.091,607.031Z" transform="translate(-1370.323 -599.69)" fill="#084a93"/>
              <path id="Trazado_204690" data-name="Trazado 204690" d="M1360.918,869.251h22.123a1.5,1.5,0,0,0,1.5-1.4l.29-4.342a1.5,1.5,0,0,0-1.5-1.6h-22.123a1.5,1.5,0,0,0-1.5,1.4l-.29,4.342A1.5,1.5,0,0,0,1360.918,869.251Z" transform="translate(-1359.418 -788.159)" fill="#084a93"/>
            </g>
            <g id="Grupo_146843" data-name="Grupo 146843" transform="translate(104.429 8.745)">
              <path id="Trazado_204691" data-name="Trazado 204691" d="M1176.788,694.713h28.6a1.5,1.5,0,0,0,1.5-1.4l.29-4.342a1.5,1.5,0,0,0-1.5-1.6h-28.6a1.5,1.5,0,0,0-1.5,1.4l-.29,4.342A1.5,1.5,0,0,0,1176.788,694.713Z" transform="translate(-1172.786 -662.711)" fill="#084a93"/>
              <path id="Trazado_204692" data-name="Trazado 204692" d="M1172.515,784.01h22.123a1.5,1.5,0,0,0,1.5-1.4l.29-4.342a1.5,1.5,0,0,0-1.5-1.6H1172.8a1.5,1.5,0,0,0-1.5,1.4l-.29,4.342A1.5,1.5,0,0,0,1172.515,784.01Z" transform="translate(-1169.715 -726.893)" fill="#084a93"/>
              <path id="Trazado_204693" data-name="Trazado 204693" d="M1182.674,607.031H1204.8a1.5,1.5,0,0,0,1.5-1.4l.29-4.342a1.5,1.5,0,0,0-1.5-1.6h-22.123a1.5,1.5,0,0,0-1.5,1.4l-.29,4.342A1.5,1.5,0,0,0,1182.674,607.031Z" transform="translate(-1177.017 -599.69)" fill="#084a93"/>
              <path id="Trazado_204694" data-name="Trazado 204694" d="M1167.893,877.579h27.421a1.5,1.5,0,0,0,1.5-1.4l.29-4.342a1.5,1.5,0,0,0-1.5-1.6h-27.42a1.5,1.5,0,0,0-1.5,1.4l-.29,4.342A1.5,1.5,0,0,0,1167.893,877.579Z" transform="translate(-1166.393 -794.145)" fill="#084a93"/>
            </g>
            <g id="Grupo_146844" data-name="Grupo 146844" transform="translate(211.352 8.696)">
              <path id="Trazado_204695" data-name="Trazado 204695" d="M1548.056,869.164h25.654a1.5,1.5,0,0,0,1.5-1.4l.29-4.342a1.5,1.5,0,0,0-1.5-1.6h-25.654a1.5,1.5,0,0,0-1.5,1.4l-.29,4.342A1.5,1.5,0,0,0,1548.056,869.164Z" transform="translate(-1546.556 -788.047)" fill="#084a93"/>
              <path id="Trazado_204696" data-name="Trazado 204696" d="M1553.637,781.96h22.123a1.5,1.5,0,0,0,1.5-1.4l.29-4.342a1.5,1.5,0,0,0-1.5-1.6h-22.123a1.5,1.5,0,0,0-1.5,1.4l-.29,4.342A1.5,1.5,0,0,0,1553.637,781.96Z" transform="translate(-1550.567 -725.37)" fill="#084a93"/>
              <path id="Trazado_204697" data-name="Trazado 204697" d="M1562.531,606.856h27.42a1.5,1.5,0,0,0,1.5-1.4l.29-4.342a1.5,1.5,0,0,0-1.5-1.6h-27.42a1.5,1.5,0,0,0-1.5,1.4l-.29,4.342A1.5,1.5,0,0,0,1562.531,606.856Z" transform="translate(-1556.96 -599.515)" fill="#084a93"/>
            </g>
            <path id="Trazado_204698" data-name="Trazado 204698" d="M889.949,670.72l-.03.559v.029H943.8v-.029l.029-.559Zm-53.831,0-.029.559v.029h52.065v-.029l.03-.559Zm53.831,0-.03.559v.029H943.8v-.029l.029-.559Zm-53.831,0-.029.559v.029h52.065v-.029l.03-.559Zm213.974-77.14-.03.589L1048.88,618.5l-.03.589-1.242,25.506-.029.589-.795,16.258c-.047,1.666-1.242,3.838-3.126,5.663a12.948,12.948,0,0,1-6.546,3.591,2.639,2.639,0,0,1-.424.03H807.229c-.712,0-1.307-.012-1.819-.03a15.922,15.922,0,0,1-2.561-.265c-4.568-.842-7.228-6.328-7.164-9.029l.795-16.217.024-.589,1.248-25.506.03-.589,1.189-24.328.029-.589.736-15.11c.076-2.984,3.72-8.206,8.058-8.994a17.4,17.4,0,0,1,3.214-.289h229.461c5.857,0,10.46,5.639,10.36,9.324ZM836.119,670.72l-.029.559v.029h52.065v-.029l.03-.559Zm53.831,0-.03.559v.029H943.8v-.029l.029-.559ZM1043.761,569.15a9.827,9.827,0,0,0-3.231-.554H811.068a18.15,18.15,0,0,0-3.326.3,7.205,7.205,0,0,0-.977.253c-4.185,1.371-7.54,6.4-7.623,9.359l-.736,15.069-.03.589-1.183,24.328-.029.588-1.242,25.506-.03.589-.794,16.258c-.077,2.99,2.537,7.8,6.434,9.253a6.448,6.448,0,0,0,1.154.324,18.349,18.349,0,0,0,2.631.265c.524.018,1.13.03,1.854.03h229.461a3,3,0,0,0,.448-.03,8.032,8.032,0,0,0,2.142-.589,15.518,15.518,0,0,0,4.833-3.2c2-1.937,3.273-4.279,3.326-6.1l.789-16.217.03-.589,1.248-25.506.024-.588,1.189-24.328.029-.589.736-15.1v-.006C1051.508,575.283,1048.294,570.721,1043.761,569.15Z" transform="translate(-795.097 -568.596)" fill="#084a93"/>
            <path id="Trazado_204699" data-name="Trazado 204699" d="M945.144,568.6l-.029.553v.035L943.8,593.578l-.035.589-1.318,24.328-.03.589-1.383,25.505-.03.589-1.318,26.129h-.589l1.318-26.129.03-.589,1.383-25.505.03-.589,1.318-24.328.035-.589,1.319-24.393v-.035l.029-.553Z" transform="translate(-898.594 -568.596)" fill="#084a93"/>
            <path id="Trazado_204700" data-name="Trazado 204700" d="M1132.352,568.6l-.03.553v.035L1131,593.578l-.035.589-1.319,24.328-.029.589-1.383,25.505-.029.589-1.319,26.129h-.589l1.319-26.129.029-.589,1.383-25.505.029-.589,1.319-24.328.035-.589,1.318-24.393v-.035l.03-.553Z" transform="translate(-1033.148 -568.596)" fill="#084a93"/>
            <path id="Trazado_204701" data-name="Trazado 204701" d="M1319.648,570.605l-.029.589-5.333,101.557h-.589l5.333-101.557.029-.589Z" transform="translate(-1167.838 -570.04)" fill="#084a93"/>
            <path id="Trazado_204702" data-name="Trazado 204702" d="M1506.752,570.564l-.03.589-5.333,101.569h-.589l5.333-101.569.03-.589Z" transform="translate(-1302.318 -570.01)" fill="#084a93"/>
            <g id="Grupo_146845" data-name="Grupo 146845" transform="translate(0.794 24.984)">
              <path id="Trazado_204703" data-name="Trazado 204703" d="M1059.065,657.425l-.029.589H806.753l.03-.589Z" transform="translate(-804.269 -657.425)" fill="#084a93"/>
              <path id="Trazado_204704" data-name="Trazado 204704" d="M1054.748,746.016l-.024.589H802.443l.029-.589Z" transform="translate(-801.171 -721.1)" fill="#084a93"/>
              <path id="Trazado_204705" data-name="Trazado 204705" d="M1050.227,838.794l-.029.589H797.922l.029-.589Z" transform="translate(-797.922 -787.783)" fill="#084a93"/>
            </g>
          </g>
        </g>
        <g id="Grupo_146851" data-name="Grupo 146851" transform="translate(20.928 198.402)">
          <path id="Trazado_204706" data-name="Trazado 204706" d="M457.235,1249.823c1.26,12.791,7.346,18.183,22.751,18.283l194.732-.053a12.059,12.059,0,0,0,9.624-5.068,13.48,13.48,0,0,0,2.613-7.37l.129-2.872,2.7-52.112.536-11.849c.318-6.87-4.638-12.438-11.078-12.438H472.993c-6.44,0-11.92,5.568-12.238,12.438l-3.338,68.788Z" transform="translate(-445.456 -1165.697)" fill="url(#linear-gradient)"/>
          <path id="Trazado_204707" data-name="Trazado 204707" d="M1182.3,1266.274c.813-.966-2.172-1.7-.853-1.99-.406-.294-.807-.571-1.213-.859C1179.424,1262.842,1182.861,1264.007,1182.3,1266.274Z" transform="translate(-965.019 -1228.179)" fill="#c25a3d"/>
          <path id="Trazado_204708" data-name="Trazado 204708" d="M1183.63,1279.339a45.2,45.2,0,0,1,.883-5.4A5.014,5.014,0,0,0,1183.63,1279.339Z" transform="translate(-967.231 -1235.84)" fill="#c25a3d"/>
          <path id="Trazado_204709" data-name="Trazado 204709" d="M1182.083,1351.057c0,.241,0,.483.006.724a5.28,5.28,0,0,1,1.177.041Z" transform="translate(-966.437 -1291.271)" fill="#c25a3d"/>
          <path id="Trazado_204710" data-name="Trazado 204710" d="M1171.244,1324.558l1.242.806c-.024-3.325.059-6.8.242-10.054C1168.784,1316.665,1166.847,1321.721,1171.244,1324.558Z" transform="translate(-956.84 -1265.579)" fill="#c25a3d"/>
          <path id="Trazado_204711" data-name="Trazado 204711" d="M418.938,1150.752l-3.57,72.417a11.623,11.623,0,0,0,11.74,12.262H638.558a13.008,13.008,0,0,0,12.888-12.262l3.57-72.417a11.619,11.619,0,0,0-11.74-12.262H431.826A13.012,13.012,0,0,0,418.938,1150.752Z" transform="translate(-415.355 -1138.49)" fill="#b9ddfc"/>
          <path id="Trazado_204712" data-name="Trazado 204712" d="M698.82,1236.114h23.612a1.163,1.163,0,0,0,1.162-1.116l.141-3.447a1.163,1.163,0,0,0-1.162-1.211H698.961a1.164,1.164,0,0,0-1.162,1.116l-.141,3.447A1.163,1.163,0,0,0,698.82,1236.114Z" transform="translate(-618.258 -1204.507)" fill="#0e4075"/>
          <path id="Trazado_204713" data-name="Trazado 204713" d="M536.943,1234.607h8.526a1.163,1.163,0,0,0,1.162-1.116l.141-3.447a1.163,1.163,0,0,0-1.162-1.211h-8.526a1.163,1.163,0,0,0-1.162,1.116l-.141,3.447A1.163,1.163,0,0,0,536.943,1234.607Z" transform="translate(-501.909 -1203.424)" fill="#0e4075"/>
          <path id="Trazado_204714" data-name="Trazado 204714" d="M891.142,1232.493l-.083,3.448a1.163,1.163,0,0,0,1.163,1.192h24.52A1.164,1.164,0,0,0,917.9,1236l.083-3.448a1.163,1.163,0,0,0-1.163-1.191h-24.52A1.163,1.163,0,0,0,891.142,1232.493Z" transform="translate(-757.264 -1205.238)" fill="#0e4075"/>
          <path id="Trazado_204715" data-name="Trazado 204715" d="M1079.962,1237.415h8.526a1.163,1.163,0,0,0,1.162-1.116l.141-3.447a1.163,1.163,0,0,0-1.162-1.211H1080.1a1.163,1.163,0,0,0-1.162,1.116l-.141,3.447A1.163,1.163,0,0,0,1079.962,1237.415Z" transform="translate(-892.201 -1205.443)" fill="#0e4075"/>
          <path id="Trazado_204716" data-name="Trazado 204716" d="M691.843,1381.918h18.9a1.163,1.163,0,0,0,1.162-1.116l.141-3.447a1.163,1.163,0,0,0-1.162-1.211h-18.9a1.163,1.163,0,0,0-1.162,1.116l-.141,3.447A1.164,1.164,0,0,0,691.843,1381.918Z" transform="translate(-613.243 -1309.303)" fill="#0e4075"/>
          <path id="Trazado_204717" data-name="Trazado 204717" d="M529.967,1380.411h8.526a1.164,1.164,0,0,0,1.162-1.116l.141-3.446a1.164,1.164,0,0,0-1.163-1.211h-8.526a1.164,1.164,0,0,0-1.163,1.116l-.141,3.446A1.164,1.164,0,0,0,529.967,1380.411Z" transform="translate(-496.895 -1308.219)" fill="#0e4075"/>
          <path id="Trazado_204718" data-name="Trazado 204718" d="M884.166,1378.3l-.084,3.448a1.164,1.164,0,0,0,1.163,1.192h21.576a1.163,1.163,0,0,0,1.163-1.135l.083-3.448a1.163,1.163,0,0,0-1.163-1.192H885.329A1.163,1.163,0,0,0,884.166,1378.3Z" transform="translate(-752.25 -1310.033)" fill="#0e4075"/>
          <path id="Trazado_204719" data-name="Trazado 204719" d="M1072.985,1383.219h16.178a1.163,1.163,0,0,0,1.162-1.116l.141-3.447a1.163,1.163,0,0,0-1.162-1.211h-16.178a1.163,1.163,0,0,0-1.162,1.116l-.141,3.447A1.164,1.164,0,0,0,1072.985,1383.219Z" transform="translate(-887.187 -1310.238)" fill="#4a52bd"/>
          <path id="Trazado_204720" data-name="Trazado 204720" d="M695.716,1308.751h29.435a1.163,1.163,0,0,0,1.163-1.129l.1-3.447a1.164,1.164,0,0,0-1.163-1.2H695.818a1.164,1.164,0,0,0-1.163,1.129l-.1,3.447A1.163,1.163,0,0,0,695.716,1308.751Z" transform="translate(-616.026 -1256.715)" fill="#0e4075"/>
          <path id="Trazado_204721" data-name="Trazado 204721" d="M888.546,1304.758l-.073,3.448a1.163,1.163,0,0,0,1.163,1.188h17.093a1.163,1.163,0,0,0,1.163-1.139l.073-3.448a1.163,1.163,0,0,0-1.163-1.188H889.709A1.164,1.164,0,0,0,888.546,1304.758Z" transform="translate(-755.405 -1257.176)" fill="#0e4075"/>
          <path id="Trazado_204722" data-name="Trazado 204722" d="M533.133,1309.253H545.2a1.163,1.163,0,0,0,1.162-1.116l.141-3.447a1.163,1.163,0,0,0-1.162-1.211H533.274a1.163,1.163,0,0,0-1.162,1.116l-.141,3.447A1.164,1.164,0,0,0,533.133,1309.253Z" transform="translate(-499.171 -1257.075)" fill="#0e4075"/>
          <path id="Trazado_204723" data-name="Trazado 204723" d="M1076.587,1308.34h12.064a1.163,1.163,0,0,0,1.162-1.116l.141-3.447a1.164,1.164,0,0,0-1.162-1.211h-12.064a1.163,1.163,0,0,0-1.162,1.116l-.141,3.447A1.163,1.163,0,0,0,1076.587,1308.34Z" transform="translate(-889.776 -1256.419)" fill="#4a52bd"/>
          <g id="Grupo_146849" data-name="Grupo 146849" transform="translate(17.606 16.335)">
            <path id="Trazado_204724" data-name="Trazado 204724" d="M532.831,1260.439h53.878l.03-.589H532.86Zm54.466,0h52.065l.029-.589H587.326Zm-54.466,0h53.878l.03-.589H532.86Zm54.5-.589-.03.589h52.065l.029-.589Zm-108.774-9.283,2.331-44.087c.288-3.685,5.48-9.324,11.337-9.324h180.6a16.96,16.96,0,0,1,3.184.288c4.256.789,7.352,6.01,7.117,8.995l-2.331,44.087c-.212,2.7-3.45,8.194-8.105,9.036a17.706,17.706,0,0,1-3.232.289h-180.6a10.761,10.761,0,0,1-7.77-3.62C479.394,1254.406,478.423,1252.234,478.553,1250.568Zm108.744,9.871h52.065l.029-.589H587.326Zm-54.466,0h53.878l.03-.589H532.86Zm143.291-63.57a17.678,17.678,0,0,0-3.3-.3h-180.6c-6.157,0-11.62,5.974-11.926,9.871v.006l-2.331,44.083c-.141,1.819.889,4.161,2.684,6.1a11.364,11.364,0,0,0,8.206,3.808h180.6a18.867,18.867,0,0,0,3.338-.294c4.615-.836,8.329-6.3,8.588-9.577l.541-10.213.03-.589,1.1-20.8.03-.589.63-11.9C683.962,1203.291,680.66,1197.711,676.122,1196.869Z" transform="translate(-477.951 -1196.569)" fill="#0e4075"/>
            <g id="Grupo_146848" data-name="Grupo 146848" transform="translate(45.461)">
              <path id="Trazado_204725" data-name="Trazado 204725" d="M1023.3,1197.156l.029-.589h.589l-.029.589-2.826,62.693-.029.589h-.589l.029-.589Z" transform="translate(-913.33 -1196.568)" fill="#0e4075"/>
              <path id="Trazado_204726" data-name="Trazado 204726" d="M836.1,1197.156l.03-.589h.589l-.03.589-2.825,62.693-.03.589h-.589l.03-.589Z" transform="translate(-778.775 -1196.568)" fill="#0e4075"/>
              <path id="Trazado_204727" data-name="Trazado 204727" d="M642.437,1197.156l.029-.589h.595l-.029.589-2.826,62.693-.029.589h-.589l.029-.589Z" transform="translate(-639.588 -1196.568)" fill="#0e4075"/>
            </g>
          </g>
          <g id="Grupo_146850" data-name="Grupo 146850" transform="translate(18.496 38.15)">
            <path id="Trazado_204728" data-name="Trazado 204728" d="M688.609,1274.131l-.03.589H485.636l.03-.589Z" transform="translate(-484.365 -1274.131)" fill="#0e4075"/>
            <path id="Trazado_204729" data-name="Trazado 204729" d="M684.23,1350.165l-.03.589H481.116l.029-.589Z" transform="translate(-481.116 -1328.78)" fill="#0e4075"/>
          </g>
        </g>
        <g id="Grupo_146852" data-name="Grupo 146852" transform="translate(752.721 128.565)">
          <path id="Trazado_204730" data-name="Trazado 204730" d="M3040.279,957.393c1.26,12.791.871,18.183,16.276,18.283l71.119-.053a12.057,12.057,0,0,0,9.624-5.068,13.477,13.477,0,0,0,2.613-7.369l.129-2.873.6-7.987.536-11.849c.318-6.869-4.638-12.438-11.078-12.438h-76.163c-6.44,0-11.92,5.569-12.238,12.438l-1.231,24.663Z" transform="translate(-3033.798 -917.392)" fill="url(#linear-gradient)"/>
          <path id="Trazado_204731" data-name="Trazado 204731" d="M3018.712,902.447l-1.463,28.292A11.622,11.622,0,0,0,3028.989,943h76.063a13.008,13.008,0,0,0,12.888-12.262l1.464-28.292a11.619,11.619,0,0,0-11.74-12.262H3031.6A13.012,13.012,0,0,0,3018.712,902.447Z" transform="translate(-3017.235 -890.185)" fill="#b9ddfc"/>
          <path id="Trazado_204732" data-name="Trazado 204732" d="M3127.423,957.744H3068.2a7.634,7.634,0,0,1-7.708-8.052l.924-17.867a8.523,8.523,0,0,1,8.433-8.024h59.219a7.632,7.632,0,0,1,7.708,8.052l-.924,17.868A8.523,8.523,0,0,1,3127.423,957.744Zm-57.57-33.354a7.927,7.927,0,0,0-7.845,7.463h0l-.924,17.867a7.045,7.045,0,0,0,7.12,7.434h59.219a7.928,7.928,0,0,0,7.845-7.463l.924-17.868a7.043,7.043,0,0,0-7.12-7.434Z" transform="translate(-3048.322 -914.347)" fill="#0e4075"/>
          <path id="Trazado_204733" data-name="Trazado 204733" d="M3078.993,1086.915l-16.07-15.042h15.5Q3079.059,1079.376,3078.993,1086.915Z" transform="translate(-3050.073 -1020.772)" fill="#d3e1f0"/>
        </g>
        <g id="Grupo_146853" data-name="Grupo 146853" transform="translate(319.247 267.295)">
          <path id="Trazado_204734" data-name="Trazado 204734" d="M1499.069,1450.646c1.26,12.791.871,18.183,16.276,18.283l71.119-.053a12.058,12.058,0,0,0,9.624-5.068,13.479,13.479,0,0,0,2.613-7.37l.129-2.872.6-7.987.536-11.849c.318-6.869-4.638-12.438-11.078-12.438h-76.163c-6.44,0-11.92,5.569-12.238,12.438l-1.231,24.663Z" transform="translate(-1492.588 -1410.645)" fill="url(#linear-gradient)"/>
          <path id="Trazado_204735" data-name="Trazado 204735" d="M1477.5,1395.7l-1.463,28.291a11.622,11.622,0,0,0,11.74,12.262h76.063a13.008,13.008,0,0,0,12.888-12.262l1.463-28.291a11.619,11.619,0,0,0-11.74-12.262H1490.39A13.012,13.012,0,0,0,1477.5,1395.7Z" transform="translate(-1476.025 -1383.438)" fill="#b9ddfc"/>
          <path id="Trazado_204736" data-name="Trazado 204736" d="M1592.734,1453.659H1539.99a7.634,7.634,0,0,1-7.708-8.052l.6-9.017a8.523,8.523,0,0,1,8.433-8.024h52.744a7.633,7.633,0,0,1,7.708,8.052l-.6,9.019A8.522,8.522,0,0,1,1592.734,1453.659Zm-51.423-24.5a7.927,7.927,0,0,0-7.845,7.463h0l-.6,9.017a7.045,7.045,0,0,0,7.12,7.434h52.744a7.927,7.927,0,0,0,7.845-7.463l.6-9.018a7.043,7.043,0,0,0-7.12-7.434Z" transform="translate(-1516.453 -1415.874)" fill="#0e4075"/>
          <path id="Trazado_204737" data-name="Trazado 204737" d="M1743.408,1579.645l-16.07-15.042h15.5Q1743.474,1572.106,1743.408,1579.645Z" transform="translate(-1656.655 -1513.649)" fill="#d3e1f0"/>
        </g>
        <g id="Grupo_146856" data-name="Grupo 146856" transform="translate(642.927 315.732)">
          <path id="Trazado_204738" data-name="Trazado 204738" d="M2722.4,1566.175c-.648-4.664-3.122-8.751-7.888-10.046-.112-.035-.233-.061-.345-.088-.276-.07-.562-.131-.842-.175-3.96-.683-8.374.367-12.312,1.969-9.168,3.737-17.187,11.078-23.835,18.324-13.9,15.156-23.361,33.419-31.444,51.472a351.679,351.679,0,0,0-18.868,53.231h62.656c1.7-4.62,3.394-9.25,5.056-13.879q2.975-8.256,5.872-16.53,3.488-9.871,6.862-19.768c3.8-11.1,7.741-22.236,10.775-33.472a147.965,147.965,0,0,0,3.483-16.014C2722.341,1576.23,2723.069,1571.005,2722.4,1566.175Z" transform="translate(-2626.866 -1555.655)" fill="#ffb30b"/>
          <path id="Trazado_204739" data-name="Trazado 204739" d="M2909.8,1820.4c-.411-8.768-3.551-18.394-12.637-21.116a17.051,17.051,0,0,0-5.014-.691c-.3,0-.618.009-.925.035-7.1.376-14.483,4.533-20.192,9.083a81.6,81.6,0,0,0-16.116,17.353,83.472,83.472,0,0,0-13.058,29.866l-.083.578h65.078a.36.36,0,0,1-.038-.237C2908.779,1843.736,2910.327,1831.765,2909.8,1820.4Z" transform="translate(-2781.328 -1730.264)" fill="#ffb30b"/>
          <g id="Grupo_146854" data-name="Grupo 146854" transform="translate(34.875 0.169)">
            <path id="Trazado_204740" data-name="Trazado 204740" d="M2803.559,1556.583l.015-.038c-.094-.026-.191-.051-.284-.072-.277-.07-.563-.131-.842-.175-.1-.017-.2-.028-.3-.043l-31.736,77.631c-3.559,8.7-7.215,17.536-10.751,26.083q-4.387,10.6-8.755,21.214l-.045.111h1.727q18.961-46.437,37.959-92.875Q2797.059,1572.509,2803.559,1556.583Z" transform="translate(-2750.865 -1556.255)" fill="#636363"/>
          </g>
          <g id="Grupo_146855" data-name="Grupo 146855" transform="translate(90.154 68.327)">
            <path id="Trazado_204741" data-name="Trazado 204741" d="M2968.342,1798.7l.036-.094c-.1,0-.2-.009-.307-.009-.3,0-.618.009-.925.035-.106.006-.214.02-.321.028-7.107,18.774-13.632,37.873-19.392,56.768l-.026.085h1.5c3.794-12.434,7.9-24.911,12.2-37.086C2963.365,1812.035,2965.8,1805.4,2968.342,1798.7Z" transform="translate(-2947.407 -1798.592)" fill="#636363"/>
          </g>
        </g>
        <path id="Trazado_204742" data-name="Trazado 204742" d="M427.617,1426.758q.351-.267.725-.5-5.487-6.5-11.314-12.725c-12.052-12.831-25.631-24.907-42.125-31.075-5.8-2.17-12.059-3.572-18.178-2.62a21,21,0,0,0-9.715,4.176c-.424.347-.836.7-1.227,1.074a15.6,15.6,0,0,0-3.547,5.056c-2.951,6.891-.308,14.783,2.567,21.71a329.423,329.423,0,0,0,26.6,50.906C389.387,1449.637,409.83,1440.258,427.617,1426.758Z" transform="translate(-340.946 -1113.338)" fill="#ffb30b"/>
        <path id="Trazado_204743" data-name="Trazado 204743" d="M410.117,1457.43l1.419-.84q-25.886-30.73-52.159-61.128c-.424.347-.836.7-1.227,1.074q19.072,22.056,37.941,44.285Q403.124,1449.109,410.117,1457.43Z" transform="translate(-353.311 -1124.786)" fill="#636363"/>
      </g>
      <circle id="Elipse_5294" data-name="Elipse 5294" cx="26.577" cy="26.577" r="26.577" transform="translate(673.112 545.606)" fill="#0e4075"/>
      <circle id="Elipse_5295" data-name="Elipse 5295" cx="26.577" cy="26.577" r="26.577" transform="translate(675.44 543.474)" fill="#084a93"/>
      <circle id="Elipse_5296" data-name="Elipse 5296" cx="26.577" cy="26.577" r="26.577" transform="translate(865.365 517.341)" fill="#0e4075"/>
      <circle id="Elipse_5297" data-name="Elipse 5297" cx="26.577" cy="26.577" r="26.577" transform="translate(867.693 515.209)" fill="#084a93"/>
      <circle id="Elipse_5298" data-name="Elipse 5298" cx="26.577" cy="26.577" r="26.577" transform="translate(908.376 666.516)" fill="#0e4075"/>
      <circle id="Elipse_5299" data-name="Elipse 5299" cx="26.577" cy="26.577" r="26.577" transform="translate(910.704 664.385)" fill="#084a93"/>
      <circle id="Elipse_5300" data-name="Elipse 5300" cx="26.577" cy="26.577" r="26.577" transform="translate(540.141 672.383)" fill="#0e4075"/>
      <circle id="Elipse_5301" data-name="Elipse 5301" cx="26.577" cy="26.577" r="26.577" transform="translate(542.469 670.251)" fill="#084a93"/>
    </g>
  </g>
</svg>
