<svg xmlns="http://www.w3.org/2000/svg" xmlns:xlink="http://www.w3.org/1999/xlink" width="269.114" height="266.599" viewBox="0 0 269.114 266.599">
  <defs>
    <clipPath id="clip-path">
      <rect id="Rectángulo_297679" data-name="Rectángulo 297679" width="269.114" height="266.598" fill="none"/>
    </clipPath>
  </defs>
  <g id="Grupo_148227" data-name="Grupo 148227" transform="translate(9058.958 10668.74)">
    <g id="Grupo_148212" data-name="Grupo 148212" transform="translate(7.042 -740)">
      <g id="Grupo_148203" data-name="Grupo 148203" transform="translate(-9075 -9928.74)">
        <g id="Grupo_148202" data-name="Grupo 148202" transform="translate(9)" clip-path="url(#clip-path)">
          <path id="Trazado_207467" data-name="Trazado 207467" d="M119.692,59.843c0,.254,0,.513-.011.767-.011.91-.044,1.821-.094,2.72a59.837,59.837,0,0,1-49,55.391,58.061,58.061,0,0,1-6.24.8q-2.226.174-4.5.171a59.846,59.846,0,1,1,59.843-59.849" transform="translate(0)" fill="#0c70de"/>
          <path id="Trazado_207468" data-name="Trazado 207468" d="M420.646,405.132a59.837,59.837,0,0,1-49,55.391L326.78,415.659l13.991-14L323.359,384.25l3.415-1.142h8.474l12.937,11.442,4.75-9.544,7.967-11.073,2.008-6.814L380.8,385.006l3-3h11.128l.386-2.207Z" transform="translate(-301.059 -341.802)" fill="#084a93"/>
          <path id="Trazado_207469" data-name="Trazado 207469" d="M1250.126,1027.489h-6.069a.276.276,0,0,1,0-.552h6.069a.276.276,0,0,1,0,.552" transform="translate(-1158.008 -956.117)" fill="#10123d"/>
          <path id="Trazado_207470" data-name="Trazado 207470" d="M527.78,574.933v24a24,24,0,1,1,24-24Z" transform="translate(-469.039 -512.94)" fill="#10123d"/>
          <path id="Trazado_207471" data-name="Trazado 207471" d="M524.333,595.487h-.276a24.275,24.275,0,1,1,24.275-24.275v.276h-24Zm-.276-48a23.723,23.723,0,0,0-.276,47.445v-24h24a23.75,23.75,0,0,0-23.722-23.447" transform="translate(-465.316 -509.219)" fill="#fff"/>
          <path id="Trazado_207472" data-name="Trazado 207472" d="M929.049,970.313l22.146.241a22.147,22.147,0,0,1-22.033,21.906Z" transform="translate(-864.979 -903.398)" fill="#10123d"/>
          <path id="Trazado_207473" data-name="Trazado 207473" d="M925.143,988.968l-.115-22.7,22.7.247,0,.276a22.423,22.423,0,0,1-22.307,22.179Zm.439-22.145.11,21.589a21.871,21.871,0,0,0,21.478-21.354Z" transform="translate(-861.236 -899.629)" fill="#fff"/>
          <path id="Trazado_207474" data-name="Trazado 207474" d="M726.83,500.166c-8.906.015-9.746,4.434-9.825,9.71a1.657,1.657,0,0,0,1.654,1.685h16.181a1.658,1.658,0,0,0,1.653-1.7c-.108-5.539-1.09-9.714-9.663-9.7" transform="translate(-667.558 -465.673)" fill="#ffb30b"/>
          <path id="Trazado_207475" data-name="Trazado 207475" d="M731.116,508.111H714.935a1.932,1.932,0,0,1-1.93-1.965c.079-5.251.911-9.966,10.1-9.982v0h.044c8.96,0,9.794,4.716,9.9,9.97a1.934,1.934,0,0,1-1.929,1.977m-7.966-11.395h-.043c-8.7.015-9.472,4.283-9.55,9.439a1.381,1.381,0,0,0,1.378,1.4h16.181a1.363,1.363,0,0,0,.98-.412,1.38,1.38,0,0,0,.4-1c-.1-5.159-.874-9.429-9.344-9.429" transform="translate(-663.834 -461.947)" fill="#fff"/>
          <path id="Trazado_207476" data-name="Trazado 207476" d="M826.077,518.934,824.6,524.2l2.306,2.937,2.306-3.074-1.651-5.133Z" transform="translate(-767.732 -483.147)" fill="#fff"/>
          <path id="Trazado_207477" data-name="Trazado 207477" d="M796.528,357.948c0,3.215-2.167,5.821-4.841,5.821s-4.841-2.606-4.841-5.821,2.167-5.82,4.841-5.82,4.841,2.606,4.841,5.82" transform="translate(-732.583 -327.844)" fill="#fff"/>
          <path id="Trazado_207478" data-name="Trazado 207478" d="M787.961,360.318c-2.821,0-5.117-2.735-5.117-6.1s2.3-6.1,5.117-6.1,5.117,2.735,5.117,6.1-2.3,6.1-5.117,6.1m0-11.641c-2.517,0-4.565,2.487-4.565,5.545s2.048,5.545,4.565,5.545,4.565-2.488,4.565-5.545-2.048-5.545-4.565-5.545" transform="translate(-728.857 -324.117)" fill="#10123d"/>
          <path id="Trazado_207479" data-name="Trazado 207479" d="M382.83,924.165c-8.906.015-9.746,4.434-9.825,9.71a1.657,1.657,0,0,0,1.654,1.685h16.181a1.658,1.658,0,0,0,1.653-1.7c-.108-5.539-1.09-9.714-9.663-9.7" transform="translate(-347.281 -860.432)" fill="#ffb30b"/>
          <path id="Trazado_207480" data-name="Trazado 207480" d="M387.116,932.111H370.935a1.932,1.932,0,0,1-1.93-1.965c.079-5.251.911-9.966,10.1-9.982v0c9,.01,9.837,4.708,9.939,9.97a1.934,1.934,0,0,1-1.929,1.977m-7.966-11.395h-.043c-8.7.015-9.472,4.283-9.55,9.439a1.381,1.381,0,0,0,1.378,1.4h16.181a1.363,1.363,0,0,0,.98-.412,1.38,1.38,0,0,0,.4-1c-.1-5.159-.874-9.429-9.344-9.429" transform="translate(-343.557 -856.707)" fill="#fff"/>
          <path id="Trazado_207481" data-name="Trazado 207481" d="M482.077,942.934,480.6,948.2l2.306,2.937,2.306-3.074-1.651-5.133Z" transform="translate(-447.455 -877.906)" fill="#fff"/>
          <path id="Trazado_207482" data-name="Trazado 207482" d="M452.528,781.948c0,3.215-2.167,5.82-4.841,5.82s-4.841-2.606-4.841-5.82,2.167-5.821,4.841-5.821,4.841,2.606,4.841,5.821" transform="translate(-412.306 -722.604)" fill="#fff"/>
          <path id="Trazado_207483" data-name="Trazado 207483" d="M443.962,784.318c-2.822,0-5.117-2.735-5.117-6.1s2.3-6.1,5.117-6.1,5.117,2.735,5.117,6.1-2.3,6.1-5.117,6.1m0-11.641c-2.517,0-4.565,2.488-4.565,5.545s2.048,5.545,4.565,5.545,4.565-2.488,4.565-5.545-2.048-5.545-4.565-5.545" transform="translate(-408.581 -718.877)" fill="#10123d"/>
          <path id="Trazado_207484" data-name="Trazado 207484" d="M1006.83,1180.166c-8.906.015-9.746,4.434-9.825,9.71a1.657,1.657,0,0,0,1.654,1.685h16.181a1.658,1.658,0,0,0,1.653-1.7c-.108-5.539-1.09-9.714-9.663-9.7" transform="translate(-928.248 -1098.778)" fill="#ffb30b"/>
          <path id="Trazado_207485" data-name="Trazado 207485" d="M1011.115,1188.111H994.935a1.932,1.932,0,0,1-1.93-1.965c.079-5.251.911-9.966,10.1-9.982v0h.044c8.96,0,9.793,4.716,9.9,9.97a1.935,1.935,0,0,1-1.929,1.977m-7.966-11.4h-.043c-8.7.015-9.472,4.283-9.55,9.439a1.381,1.381,0,0,0,1.378,1.4h16.181a1.363,1.363,0,0,0,.98-.412,1.38,1.38,0,0,0,.4-1c-.1-5.159-.874-9.429-9.344-9.429" transform="translate(-924.525 -1095.053)" fill="#fff"/>
          <path id="Trazado_207486" data-name="Trazado 207486" d="M1106.077,1198.934l-1.478,5.27,2.306,2.937,2.306-3.074-1.651-5.133Z" transform="translate(-1028.422 -1116.252)" fill="#fff"/>
          <path id="Trazado_207487" data-name="Trazado 207487" d="M1076.527,1037.948c0,3.215-2.167,5.821-4.841,5.821s-4.841-2.606-4.841-5.821,2.167-5.82,4.841-5.82,4.841,2.606,4.841,5.82" transform="translate(-993.273 -960.95)" fill="#fff"/>
          <path id="Trazado_207488" data-name="Trazado 207488" d="M1067.961,1040.318c-2.822,0-5.117-2.735-5.117-6.1s2.3-6.1,5.117-6.1,5.117,2.735,5.117,6.1-2.3,6.1-5.117,6.1m0-11.641c-2.517,0-4.565,2.487-4.565,5.545s2.048,5.544,4.565,5.544,4.565-2.487,4.565-5.544-2.048-5.545-4.565-5.545" transform="translate(-989.547 -957.223)" fill="#10123d"/>
          <path id="Trazado_207489" data-name="Trazado 207489" d="M1044.058,589.971a.276.276,0,0,1-.2-.471l10.482-10.482a.276.276,0,0,1,.2-.081h8.276a.276.276,0,1,1,0,.552h-8.161l-10.4,10.4a.275.275,0,0,1-.195.081" transform="translate(-971.8 -539.012)" fill="#fff"/>
          <path id="Trazado_207490" data-name="Trazado 207490" d="M399.919,605.419a.274.274,0,0,1-.174-.062l-12.061-9.868h-7.625a.276.276,0,1,1,0-.552h7.724a.275.275,0,0,1,.175.062l12.137,9.931a.276.276,0,0,1-.175.489" transform="translate(-353.591 -553.909)" fill="#fff"/>
          <path id="Trazado_207491" data-name="Trazado 207491" d="M325.3,561.692a2.758,2.758,0,1,1-2.759-2.758,2.759,2.759,0,0,1,2.759,2.758" transform="translate(-297.728 -520.388)" fill="#4ab1ff"/>
          <path id="Trazado_207492" data-name="Trazado 207492" d="M318.816,561.006a3.034,3.034,0,1,1,3.034-3.034,3.038,3.038,0,0,1-3.034,3.034m0-5.517a2.483,2.483,0,1,0,2.483,2.483,2.485,2.485,0,0,0-2.483-2.483" transform="translate(-294.005 -516.667)" fill="#fff"/>
          <path id="Trazado_207493" data-name="Trazado 207493" d="M1301.3,545.693a2.758,2.758,0,1,1-2.758-2.758,2.758,2.758,0,0,1,2.758,2.758" transform="translate(-1206.421 -505.492)" fill="#4ab1ff"/>
          <path id="Trazado_207494" data-name="Trazado 207494" d="M1294.816,545.006a3.034,3.034,0,1,1,3.034-3.034,3.038,3.038,0,0,1-3.034,3.034m0-5.517a2.483,2.483,0,1,0,2.483,2.483,2.485,2.485,0,0,0-2.483-2.483" transform="translate(-1202.697 -501.771)" fill="#fff"/>
          <path id="Trazado_207495" data-name="Trazado 207495" d="M1341.3,993.693a2.758,2.758,0,1,1-2.758-2.758,2.758,2.758,0,0,1,2.758,2.758" transform="translate(-1243.662 -922.597)" fill="#4ab1ff"/>
          <path id="Trazado_207496" data-name="Trazado 207496" d="M1334.816,993.006a3.034,3.034,0,1,1,3.034-3.034,3.038,3.038,0,0,1-3.034,3.034m0-5.517a2.483,2.483,0,1,0,2.483,2.483,2.485,2.485,0,0,0-2.483-2.483" transform="translate(-1239.939 -918.875)" fill="#fff"/>
          <path id="Trazado_207497" data-name="Trazado 207497" d="M2286.412,59.843c0,.221,0,.447-.011.668v.1a59.828,59.828,0,0,1-55.336,58.91c-.921.072-1.854.122-2.792.144-.563.022-1.136.028-1.7.028a59.846,59.846,0,1,1,59.843-59.849" transform="translate(-2017.297)" fill="#0c70de"/>
          <path id="Trazado_207498" data-name="Trazado 207498" d="M2658.262,448.046v.1a59.828,59.828,0,0,1-55.335,58.911c-.921.072-1.854.121-2.792.144L2573.8,480.867l4.231-3.272-1.567-5.616-.6-2.417-9.74-10.446,7.174-11.727,10.653-11,3.614-6.107h9.053V416.241l11.078,11.078,4.066-4.055,8.612,8.612,2.714-3.062-5.953-5.947,5.953-6.56,8.728,8.728,3.9.464Z" transform="translate(-2389.159 -387.536)" fill="#084a93"/>
          <path id="Trazado_207499" data-name="Trazado 207499" d="M2578.542,784.146c-14.635.024-15.984,7.274-16.108,15.916a2.653,2.653,0,0,0,2.653,2.689h26.646a2.655,2.655,0,0,0,2.653-2.7c-.17-9.075-1.756-15.924-15.843-15.9" transform="translate(-2385.721 -730.069)" fill="#00defc"/>
          <path id="Trazado_207500" data-name="Trazado 207500" d="M2588.008,799.305h-26.646a2.929,2.929,0,0,1-2.928-2.969c.122-8.517,1.468-16.164,16.383-16.188h.073c14.557,0,15.879,7.323,16.046,16.171a2.932,2.932,0,0,1-2.929,2.986M2574.818,780.7c-14.433.024-15.71,7.1-15.833,15.644a2.377,2.377,0,0,0,2.377,2.409h26.646a2.38,2.38,0,0,0,2.377-2.424c-.161-8.551-1.44-15.63-15.5-15.63Z" transform="translate(-2381.997 -726.347)" fill="#fff"/>
          <path id="Trazado_207501" data-name="Trazado 207501" d="M2741.261,814.791l-2.423,8.6,3.781,4.795,3.781-5.019-2.708-8.381Z" transform="translate(-2549.96 -758.601)" fill="#fff"/>
          <path id="Trazado_207502" data-name="Trazado 207502" d="M2692.817,551.937c0,5.249-3.553,9.5-7.936,9.5s-7.936-4.255-7.936-9.5,3.553-9.5,7.936-9.5,7.936,4.255,7.936,9.5" transform="translate(-2492.336 -505.025)" fill="#fff"/>
          <path id="Trazado_207503" data-name="Trazado 207503" d="M2681.158,558c-4.528,0-8.212-4.387-8.212-9.78s3.684-9.779,8.212-9.779,8.212,4.387,8.212,9.779-3.684,9.78-8.212,9.78m0-19.007c-4.224,0-7.66,4.139-7.66,9.228s3.437,9.228,7.66,9.228,7.66-4.14,7.66-9.228-3.437-9.228-7.66-9.228" transform="translate(-2488.612 -501.305)" fill="#10123d"/>
          <path id="Trazado_207504" data-name="Trazado 207504" d="M2658.917,1092.475v-1.34a.951.951,0,0,0-.72-.922l-1.467-.367a.936.936,0,0,1-.672-.627,8.765,8.765,0,0,0-.642-1.553.936.936,0,0,1,.031-.919l.777-1.3a.951.951,0,0,0-.143-1.161l-.948-.948a.951.951,0,0,0-1.162-.143l-1.3.777a.937.937,0,0,1-.919.031,8.79,8.79,0,0,0-1.553-.642.935.935,0,0,1-.627-.672l-.367-1.467a.951.951,0,0,0-.922-.72h-1.34a.951.951,0,0,0-.922.72l-.367,1.467a.935.935,0,0,1-.627.672,8.783,8.783,0,0,0-1.553.642.936.936,0,0,1-.919-.031l-1.3-.777a.951.951,0,0,0-1.161.143l-.948.948a.952.952,0,0,0-.143,1.161l.778,1.3a.936.936,0,0,1,.031.919,8.765,8.765,0,0,0-.642,1.553.936.936,0,0,1-.672.627l-1.467.367a.951.951,0,0,0-.72.922v1.34a.951.951,0,0,0,.72.922l1.467.367a.936.936,0,0,1,.672.627,8.758,8.758,0,0,0,.642,1.553.935.935,0,0,1-.031.919l-.778,1.3a.952.952,0,0,0,.143,1.162l.948.948a.95.95,0,0,0,1.161.143l1.3-.777a.936.936,0,0,1,.919-.031,8.791,8.791,0,0,0,1.553.642.934.934,0,0,1,.627.672l.367,1.467a.951.951,0,0,0,.922.72h1.34a.951.951,0,0,0,.922-.72l.367-1.467a.934.934,0,0,1,.627-.672,8.8,8.8,0,0,0,1.553-.642.936.936,0,0,1,.919.031l1.3.777a.951.951,0,0,0,1.162-.143l.948-.948a.951.951,0,0,0,.143-1.162l-.777-1.3a.936.936,0,0,1-.031-.919,8.758,8.758,0,0,0,.642-1.553.936.936,0,0,1,.672-.627l1.467-.367a.951.951,0,0,0,.72-.922" transform="translate(-2454.51 -1005.991)" fill="#10123d"/>
          <path id="Trazado_207505" data-name="Trazado 207505" d="M2644.563,1099.659h-1.34a1.224,1.224,0,0,1-1.19-.929l-.366-1.467a.661.661,0,0,0-.44-.475,9.085,9.085,0,0,1-1.6-.663.665.665,0,0,0-.648.024l-1.3.778a1.223,1.223,0,0,1-1.5-.184l-.948-.948a1.225,1.225,0,0,1-.184-1.5l.777-1.3a.664.664,0,0,0,.024-.648,9.065,9.065,0,0,1-.663-1.6.661.661,0,0,0-.475-.441l-1.467-.367a1.224,1.224,0,0,1-.929-1.19v-1.34a1.225,1.225,0,0,1,.929-1.19l1.467-.367a.66.66,0,0,0,.475-.441,9.069,9.069,0,0,1,.663-1.6.664.664,0,0,0-.024-.648l-.777-1.3a1.225,1.225,0,0,1,.184-1.5l.948-.948a1.225,1.225,0,0,1,1.5-.184l1.3.777a.662.662,0,0,0,.648.024,9.1,9.1,0,0,1,1.6-.663.659.659,0,0,0,.44-.475l.367-1.467a1.224,1.224,0,0,1,1.19-.929h1.34a1.225,1.225,0,0,1,1.19.929l.367,1.467a.661.661,0,0,0,.441.475,9.028,9.028,0,0,1,1.6.663.666.666,0,0,0,.648-.024l1.3-.777a1.225,1.225,0,0,1,1.5.184l.948.948a1.225,1.225,0,0,1,.185,1.5l-.778,1.3a.664.664,0,0,0-.024.648,9.088,9.088,0,0,1,.663,1.6.659.659,0,0,0,.475.441l1.467.367a1.225,1.225,0,0,1,.929,1.19v1.34a1.225,1.225,0,0,1-.929,1.19l-1.467.367a.66.66,0,0,0-.475.44,9.073,9.073,0,0,1-.663,1.6.663.663,0,0,0,.024.648l.778,1.3a1.225,1.225,0,0,1-.185,1.5l-.948.948a1.225,1.225,0,0,1-1.5.184l-1.3-.778a.662.662,0,0,0-.648-.024,9.038,9.038,0,0,1-1.6.663.661.661,0,0,0-.441.475l-.367,1.467a1.224,1.224,0,0,1-1.19.929m-5.238-4.158a1.187,1.187,0,0,1,.557.137,8.507,8.507,0,0,0,1.5.622,1.215,1.215,0,0,1,.814.869l.367,1.467a.674.674,0,0,0,.655.511h1.34a.674.674,0,0,0,.655-.511l.367-1.467a1.217,1.217,0,0,1,.814-.869,8.507,8.507,0,0,0,1.5-.622,1.216,1.216,0,0,1,1.19.038l1.3.777a.676.676,0,0,0,.825-.1l.948-.948a.675.675,0,0,0,.1-.825l-.777-1.3a1.216,1.216,0,0,1-.039-1.19,8.535,8.535,0,0,0,.622-1.5,1.215,1.215,0,0,1,.869-.815l1.467-.367a.673.673,0,0,0,.511-.655v-1.34a.673.673,0,0,0-.511-.655l-1.467-.367a1.216,1.216,0,0,1-.869-.815,8.524,8.524,0,0,0-.622-1.5,1.216,1.216,0,0,1,.039-1.19l.777-1.3a.675.675,0,0,0-.1-.825l-.948-.948a.675.675,0,0,0-.825-.1l-1.3.777a1.222,1.222,0,0,1-1.19.039,8.474,8.474,0,0,0-1.5-.623,1.216,1.216,0,0,1-.814-.869l-.367-1.467a.674.674,0,0,0-.655-.511h-1.34a.673.673,0,0,0-.655.511l-.367,1.467a1.214,1.214,0,0,1-.814.869,8.517,8.517,0,0,0-1.5.622,1.22,1.22,0,0,1-1.19-.038l-1.3-.777a.675.675,0,0,0-.825.1l-.948.948a.675.675,0,0,0-.1.825l.777,1.3a1.218,1.218,0,0,1,.039,1.19,8.515,8.515,0,0,0-.623,1.5,1.217,1.217,0,0,1-.869.815l-1.467.367a.673.673,0,0,0-.511.655v1.34a.673.673,0,0,0,.511.655l1.467.367a1.217,1.217,0,0,1,.869.815,8.517,8.517,0,0,0,.623,1.5,1.217,1.217,0,0,1-.039,1.19l-.777,1.3a.675.675,0,0,0,.1.825l.948.948a.674.674,0,0,0,.825.1l1.3-.777a1.238,1.238,0,0,1,.634-.176" transform="translate(-2450.785 -1002.269)" fill="#fff"/>
          <path id="Trazado_207506" data-name="Trazado 207506" d="M2764.859,1206.223a2.825,2.825,0,1,1-2.825-2.825,2.825,2.825,0,0,1,2.825,2.825" transform="translate(-2568.927 -1120.408)" fill="#2c9ef5"/>
          <path id="Trazado_207507" data-name="Trazado 207507" d="M2758.312,1205.6a3.1,3.1,0,1,1,3.1-3.1,3.1,3.1,0,0,1-3.1,3.1m0-5.65a2.549,2.549,0,1,0,2.549,2.549,2.552,2.552,0,0,0-2.549-2.549" transform="translate(-2565.204 -1116.684)" fill="#fff"/>
          <path id="Trazado_207508" data-name="Trazado 207508" d="M2898.319,426.819h-7.872a.276.276,0,1,1,0-.552h7.6V412.494a.276.276,0,0,1,.552,0v14.049a.276.276,0,0,1-.276.276" transform="translate(-2690.858 -383.79)" fill="#10123d"/>
          <path id="Trazado_207509" data-name="Trazado 207509" d="M2951.448,416.435a.276.276,0,0,1-.195-.471l3.665-3.665a.276.276,0,0,1,.39,0l3.665,3.665a.276.276,0,0,1-.39.39l-3.469-3.47-3.47,3.47a.274.274,0,0,1-.195.081" transform="translate(-2747.651 -383.791)" fill="#10123d"/>
          <path id="Trazado_207510" data-name="Trazado 207510" d="M3036.089,1050.495h-13.782a.276.276,0,0,1-.276-.276v-7.872a.276.276,0,0,1,.552,0v7.6h13.506a.276.276,0,1,1,0,.552" transform="translate(-2813.624 -970.207)" fill="#10123d"/>
          <path id="Trazado_207511" data-name="Trazado 207511" d="M3172.882,1110.959a.276.276,0,0,1-.2-.471l3.47-3.47-3.47-3.47a.276.276,0,0,1,.39-.39l3.665,3.665a.276.276,0,0,1,0,.39l-3.665,3.665a.275.275,0,0,1-.195.081" transform="translate(-2953.814 -1027.007)" fill="#10123d"/>
          <path id="Trazado_207512" data-name="Trazado 207512" d="M3138.326,527.086h-5.3a.709.709,0,0,1-.709-.709v-12.02a.709.709,0,0,1,.709-.709h5.3a.709.709,0,0,1,.708.709v12.02a.709.709,0,0,1-.708.709" transform="translate(-2916.303 -478.225)" fill="#fff"/>
          <path id="Trazado_207513" data-name="Trazado 207513" d="M3134.6,523.638h-5.3a.986.986,0,0,1-.985-.985v-12.02a.986.986,0,0,1,.985-.985h5.3a.986.986,0,0,1,.985.985v12.02a.986.986,0,0,1-.985.985m-5.3-13.438a.434.434,0,0,0-.433.433v12.02a.434.434,0,0,0,.433.433h5.3a.434.434,0,0,0,.433-.433v-12.02a.434.434,0,0,0-.433-.433Z" transform="translate(-2912.58 -474.501)" fill="#10123d"/>
          <path id="Trazado_207514" data-name="Trazado 207514" d="M3306.612,595.5h-5.3a.709.709,0,0,1-.709-.709v-9.577a.709.709,0,0,1,.709-.709h5.3a.709.709,0,0,1,.708.709v9.577a.709.709,0,0,1-.708.709" transform="translate(-3072.984 -544.197)" fill="#fff"/>
          <path id="Trazado_207515" data-name="Trazado 207515" d="M3302.892,592.054h-5.3a.986.986,0,0,1-.984-.985v-9.577a.986.986,0,0,1,.984-.984h5.3a.986.986,0,0,1,.984.984v9.577a.986.986,0,0,1-.984.985m-5.3-10.995a.433.433,0,0,0-.433.433v9.577a.433.433,0,0,0,.433.433h5.3a.433.433,0,0,0,.433-.433v-9.577a.433.433,0,0,0-.433-.433Z" transform="translate(-3069.263 -540.475)" fill="#10123d"/>
          <path id="Trazado_207516" data-name="Trazado 207516" d="M3306.612,422.939h-5.3a.709.709,0,0,1-.709-.709v-5.3a.709.709,0,0,1,.709-.709h5.3a.709.709,0,0,1,.708.709v5.3a.709.709,0,0,1-.708.709" transform="translate(-3072.984 -387.516)" fill="#10123d"/>
          <path id="Trazado_207517" data-name="Trazado 207517" d="M3306.612,814.485h-5.3a.709.709,0,0,1-.709-.709v-7.134a.709.709,0,0,1,.709-.709h5.3a.709.709,0,0,1,.708.709v7.134a.709.709,0,0,1-.708.709" transform="translate(-3072.984 -750.355)" fill="#10123d"/>
          <path id="Trazado_207518" data-name="Trazado 207518" d="M3483.755,791.883h-5.3a.709.709,0,0,1-.708-.709V771.214a.709.709,0,0,1,.708-.709h5.3a.709.709,0,0,1,.708.709v19.961a.709.709,0,0,1-.708.709" transform="translate(-3237.911 -717.369)" fill="#fff"/>
          <path id="Trazado_207519" data-name="Trazado 207519" d="M3480.033,788.438h-5.3a.985.985,0,0,1-.984-.985V767.492a.985.985,0,0,1,.984-.984h5.3a.986.986,0,0,1,.985.984v19.961a.986.986,0,0,1-.985.985m-5.3-21.378a.433.433,0,0,0-.433.433v19.961a.433.433,0,0,0,.433.433h5.3a.434.434,0,0,0,.433-.433V767.492a.433.433,0,0,0-.433-.433Z" transform="translate(-3234.188 -713.648)" fill="#10123d"/>
          <path id="Trazado_207520" data-name="Trazado 207520" d="M3483.755,551.215h-5.3a.709.709,0,0,1-.708-.709v-9.577a.709.709,0,0,1,.708-.709h5.3a.709.709,0,0,1,.708.709v9.577a.709.709,0,0,1-.708.709" transform="translate(-3237.911 -502.965)" fill="#10123d"/>
          <path id="Trazado_207521" data-name="Trazado 207521" d="M2286.412,2190.083c0,.254,0,.513-.011.767-.005.469-.016.932-.033,1.4a59.83,59.83,0,0,1-55.3,57.515c-.932.072-1.87.121-2.814.143-.557.022-1.12.028-1.682.028a59.846,59.846,0,1,1,59.843-59.849" transform="translate(-2017.297 -1983.333)" fill="#0c70de"/>
          <path id="Trazado_207522" data-name="Trazado 207522" d="M2617.817,2537.549a59.831,59.831,0,0,1-55.3,57.515c-.932.072-1.87.121-2.814.143l-36.98-36.98,35.017-39.767,6.262-3.123,2.593-8.5,7.266,7.271,3.8-1.854-5.964-5.964,6.273-5.175,7.972,7.972,3.426.006Z" transform="translate(-2348.747 -2328.636)" fill="#084a93"/>
          <path id="Trazado_207523" data-name="Trazado 207523" d="M2886.458,3337.8l5.483-11.034h8.653l5.726,11.034Z" transform="translate(-2687.401 -3097.348)" fill="#10123d"/>
          <path id="Trazado_207524" data-name="Trazado 207524" d="M2902.595,3334.358h-19.861a.276.276,0,0,1-.247-.4l5.483-11.034a.276.276,0,0,1,.247-.153h8.653a.276.276,0,0,1,.245.148l5.725,11.034a.275.275,0,0,1-.245.4m-19.416-.552h18.963l-5.439-10.482h-8.314Z" transform="translate(-2683.676 -3093.626)" fill="#fff"/>
          <path id="Trazado_207525" data-name="Trazado 207525" d="M2586.626,2688.463v41.377c0,.987-1.233,1.655-2.222,1.655h-67.767a1.575,1.575,0,0,1-1.667-1.655v-41.377c0-.988,1.228-1.655,2.222-1.655H2584.4c.989,0,2.222.667,2.222,1.655" transform="translate(-2341.532 -2501.519)" fill="#fff"/>
          <path id="Trazado_207526" data-name="Trazado 207526" d="M2589.667,3214.808v6.62c0,.988-1.225,1.655-2.207,1.655h-67.308a1.57,1.57,0,0,1-1.655-1.655v-6.62Z" transform="translate(-2344.816 -2993.106)" fill="#10123d"/>
          <path id="Trazado_207527" data-name="Trazado 207527" d="M2583.735,3219.631h-67.308a1.847,1.847,0,0,1-1.931-1.931v-6.62a.276.276,0,0,1,.276-.276h71.169a.276.276,0,0,1,.276.276v6.62c0,1.138-1.308,1.931-2.483,1.931m-68.687-8.275v6.344a1.292,1.292,0,0,0,1.379,1.379h67.308c.893,0,1.931-.6,1.931-1.379v-6.344Z" transform="translate(-2341.091 -2989.378)" fill="#fff"/>
          <path id="Trazado_207528" data-name="Trazado 207528" d="M2790.042,3484.121h-35.309a.276.276,0,1,1,0-.552h35.309a.276.276,0,1,1,0,.552" transform="translate(-2564.503 -3243.333)" fill="#fff"/>
          <path id="Trazado_207529" data-name="Trazado 207529" d="M2634.4,2804.076H2607.83a1.333,1.333,0,0,1-1.333-1.333v-19.4a1.333,1.333,0,0,1,1.333-1.333h8.795a1.335,1.335,0,0,1,.926.373l4.374,4.219a1.335,1.335,0,0,0,.926.374H2634.4a1.333,1.333,0,0,1,1.333,1.333v14.436a1.333,1.333,0,0,1-1.333,1.333" transform="translate(-2426.746 -2590.153)" fill="#ffb30b"/>
          <path id="Trazado_207530" data-name="Trazado 207530" d="M2935.905,2984.615l-11.455-2.765.762,11.477,2.6-2.831,5.924,7.271,4.424-3.6-5.924-7.271Z" transform="translate(-2722.773 -2776.213)" fill="#10123d"/>
          <path id="Trazado_207531" data-name="Trazado 207531" d="M2930.011,2994.322a.275.275,0,0,1-.214-.1l-5.723-7.024-2.385,2.6a.276.276,0,0,1-.479-.168l-.762-11.477a.275.275,0,0,1,.1-.229.279.279,0,0,1,.242-.057l11.455,2.765a.276.276,0,0,1,.081.5l-3.4,2.111,5.725,7.028a.276.276,0,0,1-.04.388l-4.425,3.6a.275.275,0,0,1-.174.062m-5.924-7.823h.008a.274.274,0,0,1,.206.1l5.75,7.057,4-3.256-5.75-7.057a.275.275,0,0,1,.068-.408l3.107-1.928-10.449-2.522.694,10.46,2.166-2.357a.275.275,0,0,1,.2-.089" transform="translate(-2719.047 -2772.493)" fill="#fff"/>
          <path id="Trazado_207532" data-name="Trazado 207532" d="M2716.567,2745.042a3.034,3.034,0,1,1-3.035-3.034,3.035,3.035,0,0,1,3.035,3.034" transform="translate(-2523.575 -2552.912)" fill="#10123d"/>
          <path id="Trazado_207533" data-name="Trazado 207533" d="M2709.807,2744.628a3.31,3.31,0,1,1,3.31-3.311,3.314,3.314,0,0,1-3.31,3.311m0-6.069a2.759,2.759,0,1,0,2.759,2.758,2.761,2.761,0,0,0-2.759-2.758" transform="translate(-2519.85 -2549.188)" fill="#fff"/>
          <path id="Trazado_207534" data-name="Trazado 207534" d="M2690.211,2900.021a7.73,7.73,0,0,1-4.539-1.512.276.276,0,0,1,.319-.45,7.321,7.321,0,0,0,8.629.007.276.276,0,0,1,.337.437,8.533,8.533,0,0,1-4.746,1.519" transform="translate(-2500.353 -2698.154)" fill="#fff"/>
          <path id="Trazado_207535" data-name="Trazado 207535" d="M2653.446,2954.63a12.262,12.262,0,0,1-7.2-2.4.276.276,0,1,1,.319-.45c7.249,5.136,14,.059,14.067.007a.276.276,0,0,1,.337.437,13.529,13.529,0,0,1-7.521,2.407" transform="translate(-2463.644 -2748.17)" fill="#fff"/>
          <path id="Trazado_207536" data-name="Trazado 207536" d="M3081.568,2596.656h-5.179a.546.546,0,0,1-.546-.546v-11.449a.546.546,0,0,1,.546-.546h5.179a.546.546,0,0,1,.546.546v11.449a.546.546,0,0,1-.546.546" transform="translate(-2863.725 -2405.908)" fill="#fff"/>
          <path id="Trazado_207537" data-name="Trazado 207537" d="M3077.848,2593.209h-5.179a.823.823,0,0,1-.822-.822v-11.449a.822.822,0,0,1,.822-.822h5.179a.823.823,0,0,1,.822.822v11.449a.823.823,0,0,1-.822.822m-5.179-12.541a.27.27,0,0,0-.27.27v11.449a.271.271,0,0,0,.27.27h5.179a.271.271,0,0,0,.27-.27v-11.449a.27.27,0,0,0-.27-.27Z" transform="translate(-2860.005 -2402.185)" fill="#10123d"/>
          <path id="Trazado_207538" data-name="Trazado 207538" d="M3238.625,2660.5h-5.179a.546.546,0,0,1-.546-.546v-9.169a.546.546,0,0,1,.546-.546h5.179a.546.546,0,0,1,.546.546v9.169a.546.546,0,0,1-.546.546" transform="translate(-3009.951 -2467.476)" fill="#fff"/>
          <path id="Trazado_207539" data-name="Trazado 207539" d="M3234.9,2657.054h-5.178a.822.822,0,0,1-.822-.822v-9.169a.823.823,0,0,1,.822-.822h5.178a.823.823,0,0,1,.822.822v9.169a.823.823,0,0,1-.822.822m-5.178-10.261a.271.271,0,0,0-.27.271v9.169a.271.271,0,0,0,.27.27h5.178a.271.271,0,0,0,.27-.27v-9.169a.271.271,0,0,0-.27-.271Z" transform="translate(-3006.229 -2463.75)" fill="#10123d"/>
          <path id="Trazado_207540" data-name="Trazado 207540" d="M3238.625,2499.458h-5.179a.546.546,0,0,1-.546-.546v-5.179a.546.546,0,0,1,.546-.546h5.179a.546.546,0,0,1,.546.546v5.179a.546.546,0,0,1-.546.546" transform="translate(-3009.951 -2321.251)" fill="#10123d"/>
          <path id="Trazado_207541" data-name="Trazado 207541" d="M3238.625,2864.876h-5.179a.546.546,0,0,1-.546-.546v-6.889a.546.546,0,0,1,.546-.546h5.179a.546.546,0,0,1,.546.546v6.889a.546.546,0,0,1-.546.546" transform="translate(-3009.951 -2659.877)" fill="#10123d"/>
          <path id="Trazado_207542" data-name="Trazado 207542" d="M3403.947,2843.784h-5.179a.546.546,0,0,1-.546-.546v-18.86a.546.546,0,0,1,.546-.546h5.179a.546.546,0,0,1,.546.546v18.86a.546.546,0,0,1-.546.546" transform="translate(-3163.872 -2629.093)" fill="#fff"/>
          <path id="Trazado_207543" data-name="Trazado 207543" d="M3400.223,2840.339h-5.179a.823.823,0,0,1-.822-.822v-18.86a.823.823,0,0,1,.822-.821h5.179a.823.823,0,0,1,.822.821v18.86a.824.824,0,0,1-.822.822m-5.179-19.952a.271.271,0,0,0-.27.27v18.86a.271.271,0,0,0,.27.271h5.179a.271.271,0,0,0,.271-.271v-18.86a.271.271,0,0,0-.271-.27Z" transform="translate(-3160.148 -2625.373)" fill="#10123d"/>
          <path id="Trazado_207544" data-name="Trazado 207544" d="M3403.947,2619.174h-5.179a.546.546,0,0,1-.546-.546v-9.169a.546.546,0,0,1,.546-.546h5.179a.546.546,0,0,1,.546.546v9.169a.546.546,0,0,1-.546.546" transform="translate(-3163.872 -2428.996)" fill="#10123d"/>
          <path id="Trazado_207545" data-name="Trazado 207545" d="M119.692,2190.083c0,.254,0,.513-.011.767-.006.353-.011.7-.022,1.048a59.83,59.83,0,0,1-55.314,57.862c-.883.066-1.765.116-2.659.138-.607.022-1.225.033-1.837.033a59.846,59.846,0,1,1,59.843-59.849" transform="translate(0 -1983.333)" fill="#0c70de"/>
          <path id="Trazado_207546" data-name="Trazado 207546" d="M450.288,2532.361a59.83,59.83,0,0,1-55.313,57.862c-.883.066-1.766.116-2.659.138l-37.2-37.2,26.25-29.24,13.18-12.59,4.5-9.688,8.331,8.331-2.207,1.357,3.956,3.211,1.1-7.371-5.534-5.528,5.727-5.727,10.344,10.344,1.054-2.361Z" transform="translate(-330.63 -2323.796)" fill="#084a93"/>
          <path id="Trazado_207547" data-name="Trazado 207547" d="M719.891,3340.2l5.483-11.034h8.653l5.725,11.034Z" transform="translate(-670.246 -3099.583)" fill="#10123d"/>
          <path id="Trazado_207548" data-name="Trazado 207548" d="M736.028,3336.758H716.167a.276.276,0,0,1-.247-.4l5.483-11.034a.276.276,0,0,1,.247-.153H730.3a.276.276,0,0,1,.245.149l5.725,11.034a.276.276,0,0,1-.245.4m-19.416-.552h18.962l-5.439-10.482h-8.314Z" transform="translate(-666.521 -3095.859)" fill="#fff"/>
          <path id="Trazado_207549" data-name="Trazado 207549" d="M420.059,2690.863v41.378c0,.987-1.233,1.655-2.222,1.655H350.069a1.575,1.575,0,0,1-1.666-1.655v-41.378c0-.988,1.228-1.655,2.222-1.655h67.212c.989,0,2.222.667,2.222,1.655" transform="translate(-324.376 -2503.753)" fill="#fff"/>
          <path id="Trazado_207550" data-name="Trazado 207550" d="M423.1,3217.208v6.62c0,.988-1.225,1.655-2.207,1.655H353.585a1.57,1.57,0,0,1-1.655-1.655v-6.62Z" transform="translate(-327.66 -2995.341)" fill="#10123d"/>
          <path id="Trazado_207551" data-name="Trazado 207551" d="M417.168,3222.038H349.861a1.848,1.848,0,0,1-1.931-1.931v-6.62a.276.276,0,0,1,.276-.276h71.169a.276.276,0,0,1,.276.276v6.62c0,1.138-1.308,1.931-2.483,1.931m-68.687-8.275v6.344a1.293,1.293,0,0,0,1.379,1.379h67.307c.893,0,1.931-.6,1.931-1.379v-6.344Z" transform="translate(-323.936 -2991.619)" fill="#fff"/>
          <path id="Trazado_207552" data-name="Trazado 207552" d="M623.476,3486.52H588.167a.276.276,0,0,1,0-.552h35.309a.276.276,0,0,1,0,.552" transform="translate(-547.348 -3245.566)" fill="#fff"/>
          <path id="Trazado_207553" data-name="Trazado 207553" d="M532.618,2939.68a.812.812,0,0,1-.32-.066.772.772,0,0,1-.265-.177.815.815,0,0,1-.243-.585.834.834,0,0,1,.37-.69,1.078,1.078,0,0,1,.138-.077,1.645,1.645,0,0,1,.16-.044.776.776,0,0,1,.32,0,1.208,1.208,0,0,1,.155.044,1.152,1.152,0,0,1,.143.077,1.2,1.2,0,0,1,.127.1.809.809,0,0,1,.1.127.656.656,0,0,1,.072.138.852.852,0,0,1,.05.155.833.833,0,0,1,.016.165.864.864,0,0,1-.061.315.9.9,0,0,1-.182.27.794.794,0,0,1-.27.177.765.765,0,0,1-.315.066" transform="translate(-495.116 -2735.411)" fill="#10123d"/>
          <path id="Trazado_207554" data-name="Trazado 207554" d="M531.79,3002.574a.828.828,0,1,1,.828.828.826.826,0,0,1-.828-.828m0-3.862a.828.828,0,1,1,.828.827.826.826,0,0,1-.828-.827m0-3.862a.828.828,0,1,1,.828.827.826.826,0,0,1-.828-.827" transform="translate(-495.116 -2787.547)" fill="#10123d"/>
          <path id="Trazado_207555" data-name="Trazado 207555" d="M532.618,3107.825a.826.826,0,0,1-.585-.243.889.889,0,0,1-.182-.27.858.858,0,0,1-.061-.314.84.84,0,0,1,.017-.165c.011-.05.028-.105.044-.155a1.148,1.148,0,0,1,.077-.138.825.825,0,0,1,.1-.127.854.854,0,0,1,1.17,0,.807.807,0,0,1,.1.127.656.656,0,0,1,.072.138.858.858,0,0,1,.05.155.835.835,0,0,1,.016.165.769.769,0,0,1-.066.314.787.787,0,0,1-.177.27.835.835,0,0,1-.585.243" transform="translate(-495.116 -2891.97)" fill="#10123d"/>
          <path id="Trazado_207556" data-name="Trazado 207556" d="M604.617,3106.85a.828.828,0,1,1,.828.827.826.826,0,0,1-.828-.827m-4.414,0a.828.828,0,1,1,.828.827.826.826,0,0,1-.828-.827m-4.414,0a.828.828,0,1,1,.828.827.826.826,0,0,1-.828-.827" transform="translate(-554.703 -2891.823)" fill="#10123d"/>
          <path id="Trazado_207557" data-name="Trazado 207557" d="M724.618,3107.825a.826.826,0,0,1-.585-.243.89.89,0,0,1-.182-.27.858.858,0,0,1-.061-.314.835.835,0,0,1,.017-.165,1.6,1.6,0,0,1,.044-.155,1.14,1.14,0,0,1,.077-.138.824.824,0,0,1,.1-.127.854.854,0,0,1,1.17,0,.8.8,0,0,1,.1.127.657.657,0,0,1,.072.138.863.863,0,0,1,.05.155.84.84,0,0,1,.016.165.864.864,0,0,1-.061.314.891.891,0,0,1-.182.27.835.835,0,0,1-.585.243" transform="translate(-673.876 -2891.97)" fill="#10123d"/>
          <path id="Trazado_207558" data-name="Trazado 207558" d="M743.456,2942.493a10.085,10.085,0,1,1-10-10.14,10.07,10.07,0,0,1,10,10.14" transform="translate(-673.406 -2730.13)" fill="#10123d"/>
          <path id="Trazado_207559" data-name="Trazado 207559" d="M729.646,2949.008h-.091a10.328,10.328,0,0,1,.089-20.657h.091a10.344,10.344,0,0,1,10.271,10.417l-.276,0,.276,0a10.358,10.358,0,0,1-10.36,10.24m0-20.105a9.8,9.8,0,0,0-9.808,9.692,9.792,9.792,0,0,0,9.724,9.862h.086a9.8,9.8,0,0,0,9.808-9.693,9.792,9.792,0,0,0-9.724-9.861h-.086" transform="translate(-669.68 -2726.404)" fill="#fff"/>
          <path id="Trazado_207560" data-name="Trazado 207560" d="M829.675,2979.807c.015-1.685-1.073-2.63-3.013-3.4-1.583-.626-2.331-1.16-2.322-2.232.007-.783.586-1.714,2.157-1.7a4.535,4.535,0,0,1,2.167.563l.414-1.2a4.343,4.343,0,0,0-2.331-.582c-.078,0-.021.005-.021.009l.013-1.463-1.5-.013-.014,1.625a3.035,3.035,0,0,0-2.446,2.922c-.014,1.617,1.139,2.6,3.011,3.277,1.548.609,2.158,1.227,2.149,2.3-.01,1.157-.9,1.949-2.424,1.936a5.276,5.276,0,0,1-2.657-.772l-.387,1.239a4.414,4.414,0,0,0,2.653.745l-.014,1.64,1.5.013.015-1.682a3.047,3.047,0,0,0,3.051-3.224" transform="translate(-765.754 -2764.984)" fill="#fff"/>
          <path id="Trazado_207561" data-name="Trazado 207561" d="M431.456,2622.493a10.085,10.085,0,1,1-10-10.14,10.07,10.07,0,0,1,10,10.14" transform="translate(-382.922 -2432.198)" fill="#10123d"/>
          <path id="Trazado_207562" data-name="Trazado 207562" d="M417.646,2629.009h-.091a10.329,10.329,0,0,1,.089-20.657h.091a10.344,10.344,0,0,1,10.271,10.417l-.276,0,.276,0a10.358,10.358,0,0,1-10.36,10.24m0-20.106a9.8,9.8,0,0,0-9.808,9.692,9.792,9.792,0,0,0,9.724,9.862h.086a9.8,9.8,0,0,0,9.808-9.692,9.792,9.792,0,0,0-9.724-9.861h-.086" transform="translate(-379.196 -2428.472)" fill="#fff"/>
          <path id="Trazado_207563" data-name="Trazado 207563" d="M517.675,2659.807c.015-1.685-1.073-2.631-3.013-3.4-1.583-.626-2.331-1.16-2.322-2.232.007-.783.586-1.714,2.157-1.7a4.532,4.532,0,0,1,2.167.563l.414-1.2a4.34,4.34,0,0,0-2.331-.582c-.078,0-.021,0-.021.008l.013-1.462-1.5-.013-.014,1.625a3.035,3.035,0,0,0-2.446,2.922c-.014,1.617,1.139,2.6,3.011,3.277,1.548.609,2.158,1.227,2.149,2.3-.01,1.157-.9,1.949-2.424,1.936a5.276,5.276,0,0,1-2.657-.772l-.387,1.239a4.41,4.41,0,0,0,2.653.745l-.014,1.64,1.5.013.015-1.682a3.047,3.047,0,0,0,3.051-3.224" transform="translate(-475.27 -2467.052)" fill="#fff"/>
          <path id="Trazado_207564" data-name="Trazado 207564" d="M914.852,2591.5h-5.179a.546.546,0,0,1-.546-.546V2579.5a.546.546,0,0,1,.546-.546h5.179a.546.546,0,0,1,.546.546v11.449a.546.546,0,0,1-.546.546" transform="translate(-846.432 -2401.105)" fill="#fff"/>
          <path id="Trazado_207565" data-name="Trazado 207565" d="M911.129,2588.046h-5.178a.823.823,0,0,1-.822-.822v-11.449a.823.823,0,0,1,.822-.822h5.178a.823.823,0,0,1,.822.822v11.449a.823.823,0,0,1-.822.822m-5.178-12.542a.271.271,0,0,0-.27.271v11.449a.271.271,0,0,0,.27.271h5.178a.27.27,0,0,0,.27-.271v-11.449a.27.27,0,0,0-.27-.271Z" transform="translate(-842.709 -2397.377)" fill="#10123d"/>
          <path id="Trazado_207566" data-name="Trazado 207566" d="M1071.909,2655.346h-5.179a.546.546,0,0,1-.546-.546v-9.169a.546.546,0,0,1,.546-.546h5.179a.546.546,0,0,1,.546.546v9.169a.546.546,0,0,1-.546.546" transform="translate(-992.657 -2462.673)" fill="#fff"/>
          <path id="Trazado_207567" data-name="Trazado 207567" d="M1068.185,2651.9h-5.179a.823.823,0,0,1-.822-.822v-9.169a.823.823,0,0,1,.822-.822h5.179a.823.823,0,0,1,.822.822v9.169a.823.823,0,0,1-.822.822m-5.179-10.261a.27.27,0,0,0-.27.27v9.169a.27.27,0,0,0,.27.27h5.179a.27.27,0,0,0,.27-.27v-9.169a.27.27,0,0,0-.27-.27Z" transform="translate(-988.933 -2458.95)" fill="#10123d"/>
          <path id="Trazado_207568" data-name="Trazado 207568" d="M1071.909,2494.3h-5.179a.546.546,0,0,1-.546-.546v-5.178a.546.546,0,0,1,.546-.546h5.179a.546.546,0,0,1,.546.546v5.178a.546.546,0,0,1-.546.546" transform="translate(-992.657 -2316.448)" fill="#10123d"/>
          <path id="Trazado_207569" data-name="Trazado 207569" d="M1071.909,2859.719h-5.179a.546.546,0,0,1-.546-.546v-6.889a.546.546,0,0,1,.546-.546h5.179a.546.546,0,0,1,.546.546v6.889a.546.546,0,0,1-.546.546" transform="translate(-992.657 -2655.075)" fill="#10123d"/>
          <path id="Trazado_207570" data-name="Trazado 207570" d="M1237.23,2838.625h-5.178a.546.546,0,0,1-.546-.546v-18.86a.546.546,0,0,1,.546-.546h5.178a.546.546,0,0,1,.546.546v18.86a.546.546,0,0,1-.546.546" transform="translate(-1146.578 -2624.291)" fill="#fff"/>
          <path id="Trazado_207571" data-name="Trazado 207571" d="M1233.508,2835.175h-5.179a.823.823,0,0,1-.822-.822v-18.86a.823.823,0,0,1,.822-.822h5.179a.823.823,0,0,1,.822.822v18.86a.823.823,0,0,1-.822.822m-5.179-19.952a.27.27,0,0,0-.27.271v18.86a.27.27,0,0,0,.27.27h5.179a.27.27,0,0,0,.27-.27v-18.86a.271.271,0,0,0-.27-.271Z" transform="translate(-1142.856 -2620.565)" fill="#10123d"/>
          <path id="Trazado_207572" data-name="Trazado 207572" d="M1237.23,2614.016h-5.178a.546.546,0,0,1-.546-.546V2604.3a.546.546,0,0,1,.546-.546h5.178a.546.546,0,0,1,.546.546v9.169a.546.546,0,0,1-.546.546" transform="translate(-1146.578 -2424.193)" fill="#10123d"/>
        </g>
      </g>
    </g>
  </g>
</svg>
