<svg xmlns="http://www.w3.org/2000/svg" xmlns:xlink="http://www.w3.org/1999/xlink" width="439.161" height="226.971" viewBox="0 0 439.161 226.971">
  <defs>
    <linearGradient id="linear-gradient" x1="0.5" x2="0.5" y2="1" gradientUnits="objectBoundingBox">
      <stop offset="0" stop-color="#004e96"/>
      <stop offset="1" stop-color="#0c284a"/>
    </linearGradient>
  </defs>
  <g id="Grupo_148225" data-name="Grupo 148225" transform="translate(10589.591 12173)">
    <g id="Grupo_146721" data-name="Grupo 146721" transform="translate(-10646.525 -12278.879)">
      <g id="OBJECTS" transform="translate(56.935 105.879)">
        <path id="Trazado_204283" data-name="Trazado 204283" d="M436.015,216.274a56.061,56.061,0,0,0-81.17-66.284,90.3,90.3,0,0,0-158.734,28.7,53.117,53.117,0,0,0-83.3,65.909,56.783,56.783,0,0,0-44.758,90.53H489.566a90.355,90.355,0,0,0-53.551-118.856Z" transform="translate(-56.935 -108.371)" fill="url(#linear-gradient)"/>
        <g id="Grupo_146661" data-name="Grupo 146661" transform="translate(62.869)">
          <g id="Grupo_146658" data-name="Grupo 146658">
            <g id="Grupo_146657" data-name="Grupo 146657" transform="translate(4.502)">
              <path id="Trazado_204284" data-name="Trazado 204284" d="M159.493,151.032l-5.361-1.414a72.3,72.3,0,0,1,10.115-20.9c9.8-13.983,23.233-21.85,38.846-22.75,15.656-.907,29.283,5.169,39.392,17.564a61.424,61.424,0,0,1,10.556,19.059l-5.308,1.6a56.9,56.9,0,0,0-9.662-17.3c-9.05-11.017-20.71-16.195-34.658-15.391-14,.808-25.621,7.624-34.527,20.258A68,68,0,0,0,159.493,151.032Z" transform="translate(-154.132 -105.879)" fill="#6258cc"/>
            </g>
            <path id="Trazado_204285" data-name="Trazado 204285" d="M147.637,155.712l1.913,23.847,17.184-16.842-11.369,1.622Z" transform="translate(-147.637 -121.171)" fill="#6258cc"/>
            <path id="Trazado_204286" data-name="Trazado 204286" d="M272.1,146.773l19.129,14.366L290,137.11l-6.317,9.59Z" transform="translate(-185.828 -115.463)" fill="#6258cc"/>
          </g>
          <g id="Grupo_146660" data-name="Grupo 146660" transform="translate(196.807 0.19)">
            <g id="Grupo_146659" data-name="Grupo 146659" transform="translate(7)">
              <path id="Trazado_204287" data-name="Trazado 204287" d="M537.891,158.085l-5.544-.121a56.877,56.877,0,0,0-3.826-19.441c-5.192-13.279-14.674-21.815-28.185-25.372-13.565-3.571-26.722-.689-39.1,8.564a67.964,67.964,0,0,0-14.9,15.413l-4.66-3.005a72.317,72.317,0,0,1,16.093-16.738c13.65-10.258,28.86-13.577,43.985-9.6,15.17,3.993,26.24,13.988,32.011,28.9A61.445,61.445,0,0,1,537.891,158.085Z" transform="translate(-441.671 -106.153)" fill="#ff6a81"/>
            </g>
            <path id="Trazado_204288" data-name="Trazado 204288" d="M437.142,131.876l-5.569,23.266,21.557-10.689-11.312-1.98Z" transform="translate(-431.572 -114.046)" fill="#ff6a81"/>
            <path id="Trazado_204289" data-name="Trazado 204289" d="M559.387,164.391l13.737,19.586,6.276-23.228-8.978,7.161Z" transform="translate(-470.793 -122.907)" fill="#ff6a81"/>
          </g>
        </g>
        <g id="Grupo_146672" data-name="Grupo 146672" transform="translate(13.629 117.439)">
          <g id="Grupo_146670" data-name="Grupo 146670">
            <g id="Grupo_146664" data-name="Grupo 146664">
              <g id="Grupo_146662" data-name="Grupo 146662" transform="translate(33.42)">
                <rect id="Rectángulo_296885" data-name="Rectángulo 296885" width="161.75" height="99.198" rx="6.077" transform="translate(2.432 2.431)" fill="#fff2e9"/>
                <path id="Trazado_204290" data-name="Trazado 204290" d="M284.782,379.371H131.457a6.651,6.651,0,0,1-6.644-6.644V281.954a6.651,6.651,0,0,1,6.644-6.644H284.782a6.651,6.651,0,0,1,6.644,6.644v90.774A6.651,6.651,0,0,1,284.782,379.371Zm-150.5-97.462a1.718,1.718,0,0,0-1.716,1.716v87.433a1.718,1.718,0,0,0,1.716,1.716H281.961a1.717,1.717,0,0,0,1.715-1.716V283.624a1.717,1.717,0,0,0-1.715-1.716Z" transform="translate(-124.813 -275.31)" fill="#0b0542"/>
              </g>
              <g id="Grupo_146663" data-name="Grupo 146663" transform="translate(0 95.594)">
                <path id="Trazado_204291" data-name="Trazado 204291" d="M76.938,413.224a6.85,6.85,0,0,0-.34,2.127v4.426a6.858,6.858,0,0,0,6.859,6.858H303.192a6.858,6.858,0,0,0,6.859-6.858v-4.426a6.83,6.83,0,0,0-.341-2.127Z" transform="translate(-76.598 -413.224)" fill="#362e82"/>
                <path id="Trazado_204292" data-name="Trazado 204292" d="M205.849,413.224v4.561a4.522,4.522,0,0,0,4.523,4.523H255.6a4.522,4.522,0,0,0,4.523-4.523v-4.561Z" transform="translate(-116.26 -413.224)" fill="#0b0542"/>
              </g>
            </g>
            <g id="Grupo_146669" data-name="Grupo 146669" transform="translate(93.159 33.749)">
              <g id="Grupo_146665" data-name="Grupo 146665">
                <path id="Trazado_204293" data-name="Trazado 204293" d="M234.567,371.134a23.567,23.567,0,1,1,23.567-23.567A23.593,23.593,0,0,1,234.567,371.134Zm0-44.361a20.794,20.794,0,1,0,20.794,20.794A20.818,20.818,0,0,0,234.567,326.773Z" transform="translate(-211 -324)" fill="#0e4075"/>
              </g>
              <g id="Grupo_146666" data-name="Grupo 146666" transform="translate(8.371)">
                <path id="Trazado_204294" data-name="Trazado 204294" d="M238.273,371.134c-8.379,0-15.2-10.572-15.2-23.567S229.894,324,238.273,324s15.2,10.572,15.2,23.567S246.651,371.134,238.273,371.134Zm0-44.361c-6.85,0-12.423,9.328-12.423,20.794s5.573,20.794,12.423,20.794,12.423-9.328,12.423-20.794S245.123,326.773,238.273,326.773Z" transform="translate(-223.077 -324)" fill="#0e4075"/>
              </g>
              <g id="Grupo_146667" data-name="Grupo 146667" transform="translate(16.982)">
                <path id="Trazado_204295" data-name="Trazado 204295" d="M242.085,371.134c-5.2,0-6.585-14.814-6.585-23.567S236.887,324,242.085,324s6.585,14.814,6.585,23.567S247.283,371.134,242.085,371.134Zm-.028-44.364c-1.284.4-3.784,7.9-3.784,20.8,0,12.811,2.466,20.291,3.812,20.788,1.347-.5,3.812-7.977,3.812-20.788C245.9,334.666,243.4,327.17,242.056,326.769Z" transform="translate(-235.5 -324)" fill="#0e4075"/>
              </g>
              <g id="Grupo_146668" data-name="Grupo 146668" transform="translate(1.386 22.18)">
                <rect id="Rectángulo_296886" data-name="Rectángulo 296886" width="44.361" height="2.773" fill="#0e4075"/>
              </g>
            </g>
          </g>
          <g id="Grupo_146671" data-name="Grupo 146671" transform="translate(34.142)">
            <path id="Trazado_204296" data-name="Trazado 204296" d="M160.669,347.817A10.939,10.939,0,0,0,171.6,336.889V275.31H132.5a6.652,6.652,0,0,0-6.644,6.644v65.863Z" transform="translate(-125.855 -275.31)" fill="#0b0542" opacity="0.2"/>
            <path id="Trazado_204297" data-name="Trazado 204297" d="M254.76,278.852l11.931-.328q.251,2.4.66,4.781L255.78,286.24l1.363,5.375a83.208,83.208,0,0,0,6.546,17.374l2.522,4.939L276.83,308.5q1.268,2.068,2.678,4.048l-9.163,7.634,3.548,4.261a83.95,83.95,0,0,0,13.321,12.809l4.4,3.379,7.27-9.459q2.031,1.329,4.142,2.515l-5.009,10.823,5.033,2.329a83.274,83.274,0,0,0,17.611,5.869l5.424,1.154,2.485-11.673c.9.118,1.8.215,2.7.3v-29.9c-.692-.112-1.381-.235-2.065-.382-.362-.078-.724-.161-1.068-.245l-.38-.1c-.267-.067-.533-.137-.792-.207l-.162-.045c-.171-.046-.342-.093-.512-.143l-.141-.041c-.284-.083-.566-.171-.856-.263-.162-.052-.324-.107-.486-.161l-.152-.052c-.226-.076-.451-.153-.677-.234l-.4-.143c-.231-.085-.461-.173-.717-.272l-.338-.131c-.281-.111-.56-.227-.846-.348l-.182-.075q-.516-.222-1.026-.457a42.236,42.236,0,0,1-8.126-4.932c-.537-.416-1.076-.854-1.582-1.285l-.181-.154c-.538-.464-1.067-.945-1.571-1.424l-.229-.218q-.188-.181-.373-.365l-.652-.665c-.184-.191-.367-.385-.551-.582l-.268-.291c-.186-.2-.368-.409-.559-.627l-.345-.393a42.173,42.173,0,0,1-5.522-8.275c-.345-.679-.674-1.372-.979-2.064-.122-.277-.243-.554-.358-.834l-.041-.1q-.154-.374-.3-.753l-.043-.112c-.11-.282-.216-.567-.319-.852l-.041-.115c-.116-.324-.229-.649-.336-.974-.082-.248-.159-.5-.237-.75-.069-.22-.134-.442-.2-.666l-.121-.414c-.067-.238-.13-.479-.193-.719a42.262,42.262,0,0,1-1.152-6.421H254.663Z" transform="translate(-165.381 -275.31)" fill="#0b0542" opacity="0.2"/>
          </g>
        </g>
        <g id="Grupo_146705" data-name="Grupo 146705" transform="translate(272.655 64.548)">
          <g id="Grupo_146703" data-name="Grupo 146703" transform="translate(0)">
            <g id="Grupo_146673" data-name="Grupo 146673" transform="translate(6.332 6.33)">
              <rect id="Rectángulo_296887" data-name="Rectángulo 296887" width="128.946" height="138.234" fill="#221276"/>
              <path id="Trazado_204298" data-name="Trazado 204298" d="M588.379,243.822v-7.858H459.432v136.8h13.216V369.2H575.52v3.572h13.216V243.822Z" transform="translate(-459.432 -216.675)" fill="#221276"/>
            </g>
            <g id="Grupo_146702" data-name="Grupo 146702">
              <g id="Grupo_146680" data-name="Grupo 146680">
                <rect id="Rectángulo_296888" data-name="Rectángulo 296888" width="141.61" height="34.807" rx="7.495" fill="#6258cc"/>
                <g id="Grupo_146679" data-name="Grupo 146679" transform="translate(10.593 7.402)">
                  <g id="Grupo_146674" data-name="Grupo 146674" transform="translate(32.147 4.108)">
                    <path id="Trazado_204299" data-name="Trazado 204299" d="M553.036,223.241a1.965,1.965,0,0,1-1.964,1.964H513.923a1.965,1.965,0,0,1-1.964-1.964h0a1.965,1.965,0,0,1,1.964-1.964h37.148a1.965,1.965,0,0,1,1.964,1.964Z" transform="translate(-511.959 -217.348)" fill="#221276"/>
                    <rect id="Rectángulo_296889" data-name="Rectángulo 296889" width="11.787" height="11.787" transform="translate(77.511)" fill="#221276"/>
                    <rect id="Rectángulo_296890" data-name="Rectángulo 296890" width="3.215" height="11.787" transform="translate(71.081)" fill="#ff6a81"/>
                    <rect id="Rectángulo_296891" data-name="Rectángulo 296891" width="3.215" height="11.787" transform="translate(65.188)" fill="#fdfffe"/>
                    <rect id="Rectángulo_296892" data-name="Rectángulo 296892" width="3.215" height="11.787" transform="translate(58.758)" fill="#221276"/>
                    <rect id="Rectángulo_296893" data-name="Rectángulo 296893" width="3.215" height="11.787" transform="translate(51.971)" fill="#221276"/>
                  </g>
                  <g id="Grupo_146678" data-name="Grupo 146678">
                    <g id="Grupo_146675" data-name="Grupo 146675">
                      <path id="Trazado_204300" data-name="Trazado 204300" d="M465.58,211.289a1.607,1.607,0,1,0,1.607-1.607A1.607,1.607,0,0,0,465.58,211.289Z" transform="translate(-465.58 -209.682)" fill="#221276"/>
                      <path id="Trazado_204301" data-name="Trazado 204301" d="M476.041,211.289a1.607,1.607,0,1,0,1.607-1.607A1.607,1.607,0,0,0,476.041,211.289Z" transform="translate(-468.79 -209.682)" fill="#221276"/>
                      <path id="Trazado_204302" data-name="Trazado 204302" d="M486.5,211.289a1.607,1.607,0,1,0,1.607-1.607A1.607,1.607,0,0,0,486.5,211.289Z" transform="translate(-472 -209.682)" fill="#221276"/>
                      <path id="Trazado_204303" data-name="Trazado 204303" d="M496.963,211.289a1.607,1.607,0,1,0,1.607-1.607A1.607,1.607,0,0,0,496.963,211.289Z" transform="translate(-475.21 -209.682)" fill="#221276"/>
                    </g>
                    <g id="Grupo_146676" data-name="Grupo 146676" transform="translate(0 13.752)">
                      <path id="Trazado_204304" data-name="Trazado 204304" d="M465.58,231.129a1.607,1.607,0,1,0,1.607-1.607A1.607,1.607,0,0,0,465.58,231.129Z" transform="translate(-465.58 -229.522)" fill="#221276"/>
                      <path id="Trazado_204305" data-name="Trazado 204305" d="M476.041,231.129a1.607,1.607,0,1,0,1.607-1.607A1.607,1.607,0,0,0,476.041,231.129Z" transform="translate(-468.79 -229.522)" fill="#221276"/>
                      <path id="Trazado_204306" data-name="Trazado 204306" d="M486.5,231.129a1.607,1.607,0,1,0,1.607-1.607A1.607,1.607,0,0,0,486.5,231.129Z" transform="translate(-472 -229.522)" fill="#221276"/>
                      <path id="Trazado_204307" data-name="Trazado 204307" d="M496.963,231.129a1.607,1.607,0,1,0,1.607-1.607A1.607,1.607,0,0,0,496.963,231.129Z" transform="translate(-475.21 -229.522)" fill="#221276"/>
                    </g>
                    <g id="Grupo_146677" data-name="Grupo 146677" transform="translate(3.751 6.876)">
                      <path id="Trazado_204308" data-name="Trazado 204308" d="M470.991,221.209A1.607,1.607,0,1,0,472.6,219.6,1.607,1.607,0,0,0,470.991,221.209Z" transform="translate(-470.991 -219.602)" fill="#221276"/>
                      <path id="Trazado_204309" data-name="Trazado 204309" d="M481.452,221.209a1.607,1.607,0,1,0,1.607-1.607A1.607,1.607,0,0,0,481.452,221.209Z" transform="translate(-474.201 -219.602)" fill="#221276"/>
                      <path id="Trazado_204310" data-name="Trazado 204310" d="M491.913,221.209a1.607,1.607,0,1,0,1.607-1.607A1.607,1.607,0,0,0,491.913,221.209Z" transform="translate(-477.411 -219.602)" fill="#221276"/>
                      <path id="Trazado_204311" data-name="Trazado 204311" d="M502.374,221.209a1.607,1.607,0,1,0,1.607-1.607A1.607,1.607,0,0,0,502.374,221.209Z" transform="translate(-480.621 -219.602)" fill="#221276"/>
                    </g>
                  </g>
                </g>
              </g>
              <g id="Grupo_146687" data-name="Grupo 146687" transform="translate(0 38.458)">
                <rect id="Rectángulo_296894" data-name="Rectángulo 296894" width="141.61" height="34.807" rx="7.495" fill="#6258cc"/>
                <g id="Grupo_146686" data-name="Grupo 146686" transform="translate(10.593 7.402)">
                  <g id="Grupo_146681" data-name="Grupo 146681" transform="translate(32.147 4.108)">
                    <path id="Trazado_204312" data-name="Trazado 204312" d="M553.036,278.724a1.965,1.965,0,0,1-1.964,1.965H513.923a1.965,1.965,0,0,1-1.964-1.965h0a1.965,1.965,0,0,1,1.964-1.964h37.148a1.964,1.964,0,0,1,1.964,1.964Z" transform="translate(-511.959 -272.831)" fill="#221276"/>
                    <rect id="Rectángulo_296895" data-name="Rectángulo 296895" width="11.787" height="11.787" transform="translate(77.511)" fill="#221276"/>
                    <rect id="Rectángulo_296896" data-name="Rectángulo 296896" width="3.215" height="11.787" transform="translate(71.081)" fill="#ff6a81"/>
                    <rect id="Rectángulo_296897" data-name="Rectángulo 296897" width="3.215" height="11.787" transform="translate(65.188)" fill="#fdfffe"/>
                    <rect id="Rectángulo_296898" data-name="Rectángulo 296898" width="3.215" height="11.787" transform="translate(58.758)" fill="#221276"/>
                    <rect id="Rectángulo_296899" data-name="Rectángulo 296899" width="3.215" height="11.787" transform="translate(51.971)" fill="#221276"/>
                  </g>
                  <g id="Grupo_146685" data-name="Grupo 146685">
                    <g id="Grupo_146682" data-name="Grupo 146682">
                      <path id="Trazado_204313" data-name="Trazado 204313" d="M465.58,266.772a1.607,1.607,0,1,0,1.607-1.607A1.607,1.607,0,0,0,465.58,266.772Z" transform="translate(-465.58 -265.165)" fill="#221276"/>
                      <path id="Trazado_204314" data-name="Trazado 204314" d="M476.041,266.772a1.607,1.607,0,1,0,1.607-1.607A1.607,1.607,0,0,0,476.041,266.772Z" transform="translate(-468.79 -265.165)" fill="#221276"/>
                      <path id="Trazado_204315" data-name="Trazado 204315" d="M486.5,266.772a1.607,1.607,0,1,0,1.607-1.607A1.607,1.607,0,0,0,486.5,266.772Z" transform="translate(-472 -265.165)" fill="#221276"/>
                      <path id="Trazado_204316" data-name="Trazado 204316" d="M496.963,266.772a1.607,1.607,0,1,0,1.607-1.607A1.607,1.607,0,0,0,496.963,266.772Z" transform="translate(-475.21 -265.165)" fill="#221276"/>
                    </g>
                    <g id="Grupo_146683" data-name="Grupo 146683" transform="translate(0 13.752)">
                      <path id="Trazado_204317" data-name="Trazado 204317" d="M465.58,286.612a1.607,1.607,0,1,0,1.607-1.607A1.607,1.607,0,0,0,465.58,286.612Z" transform="translate(-465.58 -285.005)" fill="#221276"/>
                      <path id="Trazado_204318" data-name="Trazado 204318" d="M476.041,286.612a1.607,1.607,0,1,0,1.607-1.607A1.607,1.607,0,0,0,476.041,286.612Z" transform="translate(-468.79 -285.005)" fill="#221276"/>
                      <path id="Trazado_204319" data-name="Trazado 204319" d="M486.5,286.612a1.607,1.607,0,1,0,1.607-1.607A1.607,1.607,0,0,0,486.5,286.612Z" transform="translate(-472 -285.005)" fill="#221276"/>
                      <path id="Trazado_204320" data-name="Trazado 204320" d="M496.963,286.612a1.607,1.607,0,1,0,1.607-1.607A1.607,1.607,0,0,0,496.963,286.612Z" transform="translate(-475.21 -285.005)" fill="#221276"/>
                    </g>
                    <g id="Grupo_146684" data-name="Grupo 146684" transform="translate(3.751 6.876)">
                      <path id="Trazado_204321" data-name="Trazado 204321" d="M470.991,276.692a1.607,1.607,0,1,0,1.607-1.607A1.607,1.607,0,0,0,470.991,276.692Z" transform="translate(-470.991 -275.085)" fill="#221276"/>
                      <path id="Trazado_204322" data-name="Trazado 204322" d="M481.452,276.692a1.607,1.607,0,1,0,1.607-1.607A1.607,1.607,0,0,0,481.452,276.692Z" transform="translate(-474.201 -275.085)" fill="#221276"/>
                      <path id="Trazado_204323" data-name="Trazado 204323" d="M491.913,276.692a1.607,1.607,0,1,0,1.607-1.607A1.607,1.607,0,0,0,491.913,276.692Z" transform="translate(-477.411 -275.085)" fill="#221276"/>
                      <path id="Trazado_204324" data-name="Trazado 204324" d="M502.374,276.692a1.607,1.607,0,1,0,1.607-1.607A1.607,1.607,0,0,0,502.374,276.692Z" transform="translate(-480.621 -275.085)" fill="#221276"/>
                    </g>
                  </g>
                </g>
              </g>
              <g id="Grupo_146694" data-name="Grupo 146694" transform="translate(0 76.915)">
                <rect id="Rectángulo_296900" data-name="Rectángulo 296900" width="141.61" height="34.807" rx="7.495" fill="#6258cc"/>
                <g id="Grupo_146693" data-name="Grupo 146693" transform="translate(10.593 7.402)">
                  <g id="Grupo_146688" data-name="Grupo 146688" transform="translate(32.147 4.108)">
                    <path id="Trazado_204325" data-name="Trazado 204325" d="M553.036,334.207a1.965,1.965,0,0,1-1.964,1.965H513.923a1.965,1.965,0,0,1-1.964-1.965h0a1.965,1.965,0,0,1,1.964-1.964h37.148a1.964,1.964,0,0,1,1.964,1.964Z" transform="translate(-511.959 -328.314)" fill="#221276"/>
                    <rect id="Rectángulo_296901" data-name="Rectángulo 296901" width="11.787" height="11.787" transform="translate(77.511)" fill="#221276"/>
                    <rect id="Rectángulo_296902" data-name="Rectángulo 296902" width="3.215" height="11.787" transform="translate(71.081)" fill="#ff6a81"/>
                    <rect id="Rectángulo_296903" data-name="Rectángulo 296903" width="3.215" height="11.787" transform="translate(65.188)" fill="#fdfffe"/>
                    <rect id="Rectángulo_296904" data-name="Rectángulo 296904" width="3.215" height="11.787" transform="translate(58.758)" fill="#221276"/>
                    <rect id="Rectángulo_296905" data-name="Rectángulo 296905" width="3.215" height="11.787" transform="translate(51.971)" fill="#221276"/>
                  </g>
                  <g id="Grupo_146692" data-name="Grupo 146692">
                    <g id="Grupo_146689" data-name="Grupo 146689">
                      <path id="Trazado_204326" data-name="Trazado 204326" d="M465.58,322.255a1.607,1.607,0,1,0,1.607-1.607A1.607,1.607,0,0,0,465.58,322.255Z" transform="translate(-465.58 -320.648)" fill="#221276"/>
                      <path id="Trazado_204327" data-name="Trazado 204327" d="M476.041,322.255a1.607,1.607,0,1,0,1.607-1.607A1.607,1.607,0,0,0,476.041,322.255Z" transform="translate(-468.79 -320.648)" fill="#221276"/>
                      <path id="Trazado_204328" data-name="Trazado 204328" d="M486.5,322.255a1.607,1.607,0,1,0,1.607-1.607A1.607,1.607,0,0,0,486.5,322.255Z" transform="translate(-472 -320.648)" fill="#221276"/>
                      <path id="Trazado_204329" data-name="Trazado 204329" d="M496.963,322.255a1.607,1.607,0,1,0,1.607-1.607A1.607,1.607,0,0,0,496.963,322.255Z" transform="translate(-475.21 -320.648)" fill="#221276"/>
                    </g>
                    <g id="Grupo_146690" data-name="Grupo 146690" transform="translate(0 13.752)">
                      <path id="Trazado_204330" data-name="Trazado 204330" d="M465.58,342.1a1.607,1.607,0,1,0,1.607-1.607A1.607,1.607,0,0,0,465.58,342.1Z" transform="translate(-465.58 -340.488)" fill="#221276"/>
                      <path id="Trazado_204331" data-name="Trazado 204331" d="M476.041,342.1a1.607,1.607,0,1,0,1.607-1.607A1.607,1.607,0,0,0,476.041,342.1Z" transform="translate(-468.79 -340.488)" fill="#221276"/>
                      <path id="Trazado_204332" data-name="Trazado 204332" d="M486.5,342.1a1.607,1.607,0,1,0,1.607-1.607A1.607,1.607,0,0,0,486.5,342.1Z" transform="translate(-472 -340.488)" fill="#221276"/>
                      <path id="Trazado_204333" data-name="Trazado 204333" d="M496.963,342.1a1.607,1.607,0,1,0,1.607-1.607A1.607,1.607,0,0,0,496.963,342.1Z" transform="translate(-475.21 -340.488)" fill="#221276"/>
                    </g>
                    <g id="Grupo_146691" data-name="Grupo 146691" transform="translate(3.751 6.876)">
                      <path id="Trazado_204334" data-name="Trazado 204334" d="M470.991,332.175a1.607,1.607,0,1,0,1.607-1.607A1.607,1.607,0,0,0,470.991,332.175Z" transform="translate(-470.991 -330.568)" fill="#221276"/>
                      <path id="Trazado_204335" data-name="Trazado 204335" d="M481.452,332.175a1.607,1.607,0,1,0,1.607-1.607A1.607,1.607,0,0,0,481.452,332.175Z" transform="translate(-474.201 -330.568)" fill="#221276"/>
                      <path id="Trazado_204336" data-name="Trazado 204336" d="M491.913,332.175a1.607,1.607,0,1,0,1.607-1.607A1.607,1.607,0,0,0,491.913,332.175Z" transform="translate(-477.411 -330.568)" fill="#221276"/>
                      <path id="Trazado_204337" data-name="Trazado 204337" d="M502.374,332.175a1.607,1.607,0,1,0,1.607-1.607A1.607,1.607,0,0,0,502.374,332.175Z" transform="translate(-480.621 -330.568)" fill="#221276"/>
                    </g>
                  </g>
                </g>
              </g>
              <g id="Grupo_146701" data-name="Grupo 146701" transform="translate(0 115.373)">
                <rect id="Rectángulo_296906" data-name="Rectángulo 296906" width="141.61" height="34.807" rx="7.495" fill="#6258cc"/>
                <g id="Grupo_146700" data-name="Grupo 146700" transform="translate(10.593 7.402)">
                  <g id="Grupo_146695" data-name="Grupo 146695" transform="translate(32.147 4.107)">
                    <path id="Trazado_204338" data-name="Trazado 204338" d="M553.036,389.691a1.964,1.964,0,0,1-1.964,1.964H513.923a1.965,1.965,0,0,1-1.964-1.964h0a1.964,1.964,0,0,1,1.964-1.964h37.148a1.964,1.964,0,0,1,1.964,1.964Z" transform="translate(-511.959 -383.798)" fill="#221276"/>
                    <rect id="Rectángulo_296907" data-name="Rectángulo 296907" width="11.787" height="11.787" transform="translate(77.511)" fill="#221276"/>
                    <rect id="Rectángulo_296908" data-name="Rectángulo 296908" width="3.215" height="11.787" transform="translate(71.081)" fill="#ff6a81"/>
                    <rect id="Rectángulo_296909" data-name="Rectángulo 296909" width="3.215" height="11.787" transform="translate(65.188)" fill="#fdfffe"/>
                    <rect id="Rectángulo_296910" data-name="Rectángulo 296910" width="3.215" height="11.787" transform="translate(58.758)" fill="#221276"/>
                    <rect id="Rectángulo_296911" data-name="Rectángulo 296911" width="3.215" height="11.787" transform="translate(51.971)" fill="#221276"/>
                  </g>
                  <g id="Grupo_146699" data-name="Grupo 146699">
                    <g id="Grupo_146696" data-name="Grupo 146696">
                      <path id="Trazado_204339" data-name="Trazado 204339" d="M465.58,377.739a1.607,1.607,0,1,0,1.607-1.607A1.608,1.608,0,0,0,465.58,377.739Z" transform="translate(-465.58 -376.132)" fill="#221276"/>
                      <path id="Trazado_204340" data-name="Trazado 204340" d="M476.041,377.739a1.607,1.607,0,1,0,1.607-1.607A1.608,1.608,0,0,0,476.041,377.739Z" transform="translate(-468.79 -376.132)" fill="#221276"/>
                      <path id="Trazado_204341" data-name="Trazado 204341" d="M486.5,377.739a1.607,1.607,0,1,0,1.607-1.607A1.608,1.608,0,0,0,486.5,377.739Z" transform="translate(-472 -376.132)" fill="#221276"/>
                      <path id="Trazado_204342" data-name="Trazado 204342" d="M496.963,377.739a1.607,1.607,0,1,0,1.607-1.607A1.608,1.608,0,0,0,496.963,377.739Z" transform="translate(-475.21 -376.132)" fill="#221276"/>
                    </g>
                    <g id="Grupo_146697" data-name="Grupo 146697" transform="translate(0 13.752)">
                      <path id="Trazado_204343" data-name="Trazado 204343" d="M465.58,397.579a1.607,1.607,0,1,0,1.607-1.607A1.608,1.608,0,0,0,465.58,397.579Z" transform="translate(-465.58 -395.972)" fill="#221276"/>
                      <path id="Trazado_204344" data-name="Trazado 204344" d="M476.041,397.579a1.607,1.607,0,1,0,1.607-1.607A1.608,1.608,0,0,0,476.041,397.579Z" transform="translate(-468.79 -395.972)" fill="#221276"/>
                      <path id="Trazado_204345" data-name="Trazado 204345" d="M486.5,397.579a1.607,1.607,0,1,0,1.607-1.607A1.608,1.608,0,0,0,486.5,397.579Z" transform="translate(-472 -395.972)" fill="#221276"/>
                      <path id="Trazado_204346" data-name="Trazado 204346" d="M496.963,397.579a1.607,1.607,0,1,0,1.607-1.607A1.608,1.608,0,0,0,496.963,397.579Z" transform="translate(-475.21 -395.972)" fill="#221276"/>
                    </g>
                    <g id="Grupo_146698" data-name="Grupo 146698" transform="translate(3.751 6.876)">
                      <path id="Trazado_204347" data-name="Trazado 204347" d="M470.991,387.659a1.607,1.607,0,1,0,1.607-1.607A1.608,1.608,0,0,0,470.991,387.659Z" transform="translate(-470.991 -386.052)" fill="#221276"/>
                      <path id="Trazado_204348" data-name="Trazado 204348" d="M481.452,387.659a1.607,1.607,0,1,0,1.607-1.607A1.608,1.608,0,0,0,481.452,387.659Z" transform="translate(-474.201 -386.052)" fill="#221276"/>
                      <path id="Trazado_204349" data-name="Trazado 204349" d="M491.913,387.659a1.607,1.607,0,1,0,1.607-1.607A1.608,1.608,0,0,0,491.913,387.659Z" transform="translate(-477.411 -386.052)" fill="#221276"/>
                      <path id="Trazado_204350" data-name="Trazado 204350" d="M502.374,387.659a1.607,1.607,0,1,0,1.607-1.607A1.608,1.608,0,0,0,502.374,387.659Z" transform="translate(-480.621 -386.052)" fill="#221276"/>
                    </g>
                  </g>
                </g>
              </g>
            </g>
          </g>
          <g id="Grupo_146704" data-name="Grupo 146704" transform="translate(0 0)" opacity="0.2">
            <path id="Trazado_204351" data-name="Trazado 204351" d="M450.3,204.2v24.417a5.2,5.2,0,0,0,5.2,5.2h1.137v3.651h-1.137a5.2,5.2,0,0,0-5.2,5.2v24.417a5.2,5.2,0,0,0,5.2,5.2h1.137v3.651h-1.137a5.2,5.2,0,0,0-5.2,5.2v15.274c.138-.147.281-.289.418-.438l9.332,7.4,3.231-4.073a83.38,83.38,0,0,0,9.786-15.615l2.255-4.683-10.714-5.162q1.009-2.557,1.816-5.189l11.6,2.657,1.162-5.067a83.255,83.255,0,0,0,2.1-18.327l.015-5.2-11.912-.034q-.187-2.711-.577-5.4l11.632-2.569-1.121-5.077a82.864,82.864,0,0,0-5.979-17.5l-2.219-4.7L460.357,212.5q-1.346-2.381-2.879-4.659l9.373-7.331-1.178-1.5H455.492A5.2,5.2,0,0,0,450.3,204.2Z" transform="translate(-450.297 -199.003)" fill="#221276"/>
            <path id="Trazado_204352" data-name="Trazado 204352" d="M450.3,352.034a5.193,5.193,0,0,0,2.777,4.6l1.29-1.042L450.3,350.55Z" transform="translate(-450.297 -245.507)" fill="#221276"/>
          </g>
        </g>
        <g id="Grupo_146707" data-name="Grupo 146707" transform="translate(142.512 35.198)">
          <path id="Trazado_204353" data-name="Trazado 204353" d="M416.5,252.067a78.053,78.053,0,0,0,1.964-17.181l-11.725-.034q0-1.522-.059-3.054a67.13,67.13,0,0,0-1.5-11.528l11.441-2.527a77.726,77.726,0,0,0-5.6-16.4l-10.584,5a65.636,65.636,0,0,0-7.724-12.5l9.228-7.218a78.4,78.4,0,0,0-12.069-12.339l-7.427,9.073a66.241,66.241,0,0,0-12.31-8l5.243-10.468A77.8,77.8,0,0,0,359.12,158.9l-2.793,11.374a66.228,66.228,0,0,0-14.575-1.878l.213-11.725c-1.587-.029-3.2-.009-4.786.059a78.314,78.314,0,0,0-17.065,2.63l3.055,11.306a65.422,65.422,0,0,0-13.69,5.393l-5.484-10.339a78.1,78.1,0,0,0-14.279,9.746l7.638,8.889a67.174,67.174,0,0,0-10.006,10.733l-9.4-7a78.131,78.131,0,0,0-8.724,14.921l10.7,4.751a65.424,65.424,0,0,0-4.424,14.031L264,219.532a78.18,78.18,0,0,0-1.433,17.216l11.723-.322c.01.34.017.679.031,1.018a66.853,66.853,0,0,0,1.97,13.518l-11.358,2.881a77.723,77.723,0,0,0,6.109,16.215l10.425-5.324a65.768,65.768,0,0,0,8.106,12.254l-9,7.5a78.341,78.341,0,0,0,12.44,11.961l7.144-9.295a66.073,66.073,0,0,0,12.554,7.622L307.792,305.4a77.732,77.732,0,0,0,16.437,5.477l2.438-11.456a66.475,66.475,0,0,0,14.618,1.429l.145,11.726c.793-.01,1.6-.032,2.391-.066a78.438,78.438,0,0,0,14.73-2.038l-2.7-11.4a65.56,65.56,0,0,0,13.852-4.96l5.161,10.5a78.04,78.04,0,0,0,14.579-9.3l-7.358-9.115a67.187,67.187,0,0,0,7.209-6.778q1.631-1.777,3.117-3.649l9.183,7.286a78.2,78.2,0,0,0,9.176-14.64l-10.543-5.079a65.384,65.384,0,0,0,4.86-13.886ZM388.11,236.694q-.007.179-.016.358c-.03.6-.069,1.2-.121,1.789-.008.091-.018.182-.027.272q-.082.884-.2,1.758c-.006.042-.01.084-.015.126-.08.6-.175,1.2-.277,1.789-.035.2-.068.4-.105.605v.008c-.037.2-.079.4-.118.6q-.106.529-.223,1.053a47.378,47.378,0,0,1-3.672,10.475l-.007.015q-.252.514-.515,1.02v0q-.264.509-.541,1.011l0,0q-.277.5-.565,1h0q-.287.492-.584.976l-.01.016q-.3.485-.607.96l0,0h0q-.311.479-.633.951v0q-.322.471-.656.935l0,0q-.332.461-.674.914l-.008.011a47.962,47.962,0,0,1-8.378,8.585c-.209.166-.418.331-.629.494-.127.1-.255.194-.383.29q-.309.233-.622.461c-.13.095-.261.189-.392.282-.214.153-.431.3-.648.453-.126.087-.252.174-.378.259q-.358.241-.722.475c-.107.069-.213.14-.321.209q-.51.324-1.029.638l-.03.019q-.54.324-1.089.633c-.1.059-.21.116-.315.174-.259.143-.519.286-.782.426-.136.073-.274.143-.411.214q-.351.182-.706.359a47.281,47.281,0,0,1-10.358,3.719q-.606.14-1.218.266c-.089.019-.178.039-.268.056q-.728.144-1.464.267l-.386.06q-.582.093-1.169.171c-.135.018-.27.037-.406.053-.5.062-1,.118-1.506.164q-.576.054-1.155.094h-.006q-.61.042-1.225.067t-1.214.037H341.3a47.686,47.686,0,0,1-10.839-1.053q-.615-.132-1.223-.28l-.412-.1q-.456-.115-.909-.238c-.254-.069-.508-.138-.761-.212h0q-.556-.161-1.106-.337l-.019-.006c-.241-.077-.481-.159-.721-.24q-.384-.129-.763-.264c-.15-.053-.3-.107-.451-.162q-.4-.147-.8-.3c-.132-.051-.265-.1-.4-.154q-.482-.191-.958-.394c-.072-.03-.145-.059-.217-.09q-.582-.25-1.157-.515a47.7,47.7,0,0,1-9.194-5.581q-.923-.713-1.81-1.471l-.184-.157q-.91-.785-1.78-1.614c-.053-.051-.108-.1-.161-.151l-.009-.008q-.409-.394-.808-.8l0,0c-.146-.148-.289-.3-.433-.448q-.314-.324-.621-.655l-.306-.333q-.316-.347-.625-.7c-.112-.129-.227-.255-.338-.385l0,0a47.656,47.656,0,0,1-6.306-9.43q-.583-1.149-1.106-2.334-.209-.472-.408-.95h0q-.222-.536-.433-1.079l0-.007q-.21-.544-.407-1.093h0q-.2-.552-.382-1.109h0c-.093-.281-.181-.564-.269-.847-.077-.249-.151-.5-.225-.749-.046-.158-.093-.317-.138-.475-.076-.27-.147-.541-.218-.812a47.813,47.813,0,0,1-1.513-10.073c-.014-.324-.021-.647-.029-.969-.006-.236-.008-.471-.01-.707,0-.186,0-.374,0-.559,0-.238,0-.474.009-.71s.007-.48.015-.719v-.009q.02-.6.055-1.2v-.008c.017-.29.04-.579.062-.868.024-.306.051-.609.08-.913.014-.147.027-.294.042-.44q.063-.592.14-1.178c.007-.052.012-.1.019-.155q.089-.662.2-1.318c.022-.132.046-.263.068-.394.053-.308.108-.616.167-.923a47.326,47.326,0,0,1,3.3-10.433q.349-.777.723-1.541c.032-.065.065-.129.1-.194q.365-.732.753-1.449c.053-.1.1-.194.156-.29l0-.006q.277-.5.564-1v0c.156-.269.317-.534.479-.8q.5-.826,1.038-1.628l.157-.236q.533-.792,1.1-1.56a47.955,47.955,0,0,1,7.41-8c.427-.367.862-.723,1.3-1.074l.262-.209q.648-.509,1.312-1,.324-.238.654-.471.564-.4,1.138-.782c.077-.051.155-.1.232-.151q.471-.309.95-.607l.365-.225q.462-.282.93-.553c.1-.056.191-.113.288-.168q.6-.344,1.215-.67a47.257,47.257,0,0,1,10.234-4q.4-.105.8-.2c.3-.074.608-.148.914-.216h.009c.184-.041.369-.078.555-.116.268-.057.536-.112.805-.164.17-.033.34-.063.512-.094q.376-.069.756-.132.268-.044.537-.085.374-.057.751-.109c.18-.024.358-.049.539-.071.259-.033.518-.062.778-.09.236-.026.471-.053.708-.076h.007q1.213-.113,2.445-.166c.751-.032,1.5-.044,2.242-.042l.412,0a47.474,47.474,0,0,1,12.723,1.888h0q.56.163,1.115.34h0q.554.177,1.1.366h0c.274.095.546.194.816.294s.548.2.819.31c.133.051.267.1.4.155q.541.215,1.076.444l.116.049c.394.169.785.345,1.174.525l.359.171c.27.128.539.256.8.389a47.755,47.755,0,0,1,9.127,5.908q.861.709,1.688,1.456l.147.132q.864.787,1.689,1.616l.057.055q.849.857,1.655,1.755l.067.076q.773.865,1.5,1.768a47.567,47.567,0,0,1,6.5,10.606h0c.121.273.238.549.355.825q.266.631.516,1.27c.006.017.013.033.019.049.171.443.334.889.493,1.338.1.291.2.584.3.878h0c.1.316.2.634.3.954.166.54.322,1.085.469,1.634.03.113.06.227.089.34.146.56.285,1.123.41,1.691a47.915,47.915,0,0,1,1.091,8.338c.033.768.045,1.531.042,2.292C388.152,235.489,388.136,236.092,388.11,236.694Z" transform="translate(-262.538 -156.659)" fill="#00c0cb"/>
          <g id="Grupo_146706" data-name="Grupo 146706" transform="translate(10.528 10.566)">
            <circle id="Elipse_5286" data-name="Elipse 5286" cx="52.482" cy="52.482" r="52.482" transform="translate(14.915 14.915)" fill="#0b0542" opacity="0.2"/>
            <circle id="Elipse_5287" data-name="Elipse 5287" cx="47.657" cy="47.657" r="47.657" transform="translate(0 67.397) rotate(-45)" fill="#fff"/>
          </g>
        </g>
        <g id="Grupo_146720" data-name="Grupo 146720" transform="translate(23.111 65.866)">
          <g id="Grupo_146718" data-name="Grupo 146718">
            <g id="Grupo_146712" data-name="Grupo 146712">
              <g id="Grupo_146708" data-name="Grupo 146708">
                <rect id="Rectángulo_296912" data-name="Rectángulo 296912" width="59.791" height="114.076" rx="11.35" transform="translate(1.733 1.733)" fill="#fff"/>
                <path id="Trazado_204354" data-name="Trazado 204354" d="M143.935,318.446H99.879a9.611,9.611,0,0,1-9.6-9.6V210.505a9.612,9.612,0,0,1,9.6-9.6h44.057a9.611,9.611,0,0,1,9.6,9.6v98.341A9.61,9.61,0,0,1,143.935,318.446ZM99.879,204.371a6.142,6.142,0,0,0-6.135,6.134v98.341a6.142,6.142,0,0,0,6.135,6.134h44.057a6.141,6.141,0,0,0,6.134-6.134V210.505a6.142,6.142,0,0,0-6.134-6.134Z" transform="translate(-90.278 -200.905)" fill="#ffb30b"/>
              </g>
              <g id="Grupo_146711" data-name="Grupo 146711" transform="translate(1.734 1.733)">
                <g id="Grupo_146709" data-name="Grupo 146709">
                  <path id="Trazado_204355" data-name="Trazado 204355" d="M152.57,213.309v-2.036A7.868,7.868,0,0,0,144.7,203.4H100.646a7.867,7.867,0,0,0-7.867,7.868v2.036Z" transform="translate(-92.779 -203.405)" fill="#ffb30b"/>
                </g>
                <g id="Grupo_146710" data-name="Grupo 146710" transform="translate(0 104.171)">
                  <path id="Trazado_204356" data-name="Trazado 204356" d="M92.779,353.694v2.037a7.867,7.867,0,0,0,7.867,7.867H144.7a7.867,7.867,0,0,0,7.867-7.867v-2.037Z" transform="translate(-92.779 -353.694)" fill="#ffb30b"/>
                </g>
              </g>
            </g>
            <g id="Grupo_146717" data-name="Grupo 146717" transform="translate(36.544 3.534)">
              <g id="Grupo_146716" data-name="Grupo 146716">
                <g id="Grupo_146713" data-name="Grupo 146713" transform="translate(12.477)">
                  <circle id="Elipse_5288" data-name="Elipse 5288" cx="2.773" cy="2.773" r="2.773" fill="#fff"/>
                </g>
                <g id="Grupo_146714" data-name="Grupo 146714" transform="translate(5.898 1.389)">
                  <circle id="Elipse_5289" data-name="Elipse 5289" cx="1.383" cy="1.383" r="1.383" fill="#fff"/>
                </g>
                <g id="Grupo_146715" data-name="Grupo 146715" transform="translate(0 1.389)">
                  <circle id="Elipse_5290" data-name="Elipse 5290" cx="1.383" cy="1.383" r="1.383" fill="#fff"/>
                </g>
              </g>
            </g>
          </g>
          <g id="Grupo_146719" data-name="Grupo 146719" transform="translate(8.693 29.428)">
            <path id="Trazado_204357" data-name="Trazado 204357" d="M138.525,266.358a18.169,18.169,0,0,0,.628-3.983l-2.731-.124c.01-.237.017-.474.017-.713a15.652,15.652,0,0,0-.234-2.7l2.69-.475a18.1,18.1,0,0,0-1.142-3.875l-2.515,1.059a15.351,15.351,0,0,0-1.675-2.99l2.222-1.589a18.294,18.294,0,0,0-2.689-2.994l-1.82,2.04a15.448,15.448,0,0,0-2.788-1.987l1.325-2.386a18.119,18.119,0,0,0-3.727-1.555l-.764,2.621a15.4,15.4,0,0,0-3.376-.582l.166-2.73c-.369-.022-.744-.034-1.115-.034a18.271,18.271,0,0,0-4,.444l.6,2.664a15.256,15.256,0,0,0-3.243,1.121l-1.174-2.463a18.2,18.2,0,0,0-3.423,2.129l1.691,2.147a15.589,15.589,0,0,0-2.438,2.4l-2.12-1.724a18.221,18.221,0,0,0-2.181,3.389l2.445,1.213a15.238,15.238,0,0,0-1.17,3.224l-2.655-.64a18.208,18.208,0,0,0-.5,4l2.734.042c0,.079,0,.158,0,.237a15.572,15.572,0,0,0,.325,3.169l-2.675.558a18.128,18.128,0,0,0,1.262,3.839l2.481-1.137a15.311,15.311,0,0,0,1.767,2.935l-2.172,1.658a18.247,18.247,0,0,0,2.779,2.91l1.757-2.094a15.37,15.37,0,0,0,2.849,1.9l-1.251,2.426a18.1,18.1,0,0,0,3.775,1.44l.681-2.645a15.483,15.483,0,0,0,3.392.478l-.083,2.733c.185.006.373.008.558.008a18.251,18.251,0,0,0,3.451-.329l-.516-2.682a15.272,15.272,0,0,0,3.276-1.018l1.1,2.5a18.19,18.19,0,0,0,3.489-2.023l-1.623-2.2a15.643,15.643,0,0,0,1.747-1.507q.4-.4.762-.819l2.067,1.788a18.208,18.208,0,0,0,2.283-3.319l-2.405-1.287a15.213,15.213,0,0,0,1.27-3.187Zm-6.46-3.863c0,.028,0,.055-.007.082q-.02.209-.046.416c0,.021-.006.042-.009.063-.019.137-.04.273-.063.408l0,.029c-.024.139-.053.277-.082.414-.01.046-.019.094-.03.14h0c-.01.046-.022.092-.034.138-.019.081-.04.162-.062.243a11.042,11.042,0,0,1-.96,2.4v0c-.043.078-.086.155-.13.233h0c-.044.078-.09.155-.137.23h0c-.046.077-.094.153-.142.227h0c-.048.075-.1.148-.146.222l0,0c-.049.073-.1.146-.15.218h0c-.052.073-.1.144-.157.216h0q-.08.107-.162.211h0c-.054.069-.11.138-.166.207l0,0a11.148,11.148,0,0,1-2.037,1.917c-.051.037-.1.073-.152.109l-.091.064-.15.1-.094.062-.155.1-.091.056-.173.1-.077.045c-.082.047-.164.094-.246.139l-.008,0q-.129.07-.26.137l-.075.037-.186.091-.1.046-.168.076a11.028,11.028,0,0,1-2.45.764l-.286.05-.063.01c-.114.017-.229.033-.344.047l-.091.01c-.091.01-.182.02-.274.028l-.095.009c-.117.009-.234.017-.353.023-.089,0-.18.008-.27.01h0c-.1,0-.191,0-.286,0s-.189,0-.283,0h0a11.132,11.132,0,0,1-2.515-.353c-.094-.024-.189-.051-.281-.078l-.1-.028-.209-.065c-.058-.019-.117-.037-.175-.057h0c-.085-.029-.171-.059-.254-.089l0,0-.166-.062-.175-.069-.1-.042c-.061-.026-.122-.051-.182-.078l-.091-.039c-.073-.033-.147-.067-.22-.1l-.049-.024c-.089-.042-.177-.087-.264-.131a11.109,11.109,0,0,1-2.086-1.392c-.139-.116-.274-.237-.408-.36l-.041-.038c-.137-.128-.269-.259-.4-.394l-.036-.037,0,0c-.061-.064-.121-.128-.18-.193h0l-.1-.109c-.047-.053-.093-.105-.139-.159l-.068-.08-.139-.17c-.025-.031-.051-.062-.075-.093h0a11.128,11.128,0,0,1-1.375-2.259q-.124-.273-.234-.555c-.029-.075-.058-.15-.086-.225h0c-.031-.085-.061-.17-.09-.256h0c-.029-.087-.058-.173-.085-.259h0c-.027-.087-.053-.174-.078-.262h0c-.019-.067-.037-.133-.054-.2s-.03-.118-.045-.177c-.009-.037-.019-.074-.028-.112-.015-.063-.028-.127-.042-.191a11.145,11.145,0,0,1-.252-2.362c0-.076,0-.15,0-.226,0-.055,0-.11,0-.165s0-.087.006-.13.006-.11.009-.165.006-.112.01-.168h0c.008-.094.016-.186.025-.279v0c.007-.068.015-.134.024-.2s.018-.141.028-.212c0-.034.009-.068.014-.1.014-.091.028-.182.044-.273l.006-.036c.018-.1.038-.2.059-.3.006-.03.013-.061.019-.091.016-.071.032-.142.049-.213a11.024,11.024,0,0,1,.871-2.4q.088-.178.184-.352l.025-.044q.091-.166.189-.33l.04-.066h0q.07-.114.141-.227h0c.04-.061.08-.121.12-.182.083-.125.17-.247.258-.369l.039-.053c.089-.119.179-.237.272-.352a11.173,11.173,0,0,1,1.806-1.791c.1-.081.208-.159.314-.237l.063-.046c.1-.075.209-.148.315-.22l.157-.1q.135-.087.272-.171l.056-.033c.075-.045.15-.089.227-.132l.087-.049.222-.12.069-.036q.143-.074.29-.143a11.012,11.012,0,0,1,2.424-.831l.187-.04c.071-.014.143-.028.215-.041h0l.13-.021.189-.03.121-.017.177-.023.125-.015.176-.017.126-.012.182-.013.166-.01h0c.189-.01.379-.015.571-.015.175,0,.349,0,.523.012l.1,0a11.068,11.068,0,0,1,2.945.566h0c.086.029.171.059.256.09h0c.085.031.17.063.254.1h0l.187.077c.063.026.125.053.188.08l.091.04c.082.037.165.075.246.114l.027.012c.09.043.18.088.268.134l.082.043.184.1a11.153,11.153,0,0,1,2.068,1.467q.193.174.378.356l.033.033q.193.191.377.393l.012.013c.126.139.25.281.369.426l.015.018q.172.21.333.427a11.123,11.123,0,0,1,1.408,2.536h0c.026.065.05.13.074.2q.056.15.108.3l0,.011c.036.1.069.211.1.317.021.069.042.138.062.207h0c.021.075.041.15.061.225.033.128.064.256.093.385.006.027.012.054.017.08.028.132.055.265.079.4a11.2,11.2,0,0,1,.171,1.953c0,.18,0,.358-.013.534Q132.083,262.285,132.065,262.5Z" transform="translate(-102.819 -243.361)" fill="#00c0cb"/>
            <path id="Trazado_204358" data-name="Trazado 204358" d="M154.759,307.289a15.753,15.753,0,0,0,.544-3.451l-2.366-.107c.009-.205.015-.411.015-.618a13.578,13.578,0,0,0-.2-2.34l2.331-.411a15.692,15.692,0,0,0-.99-3.358l-2.179.918a13.238,13.238,0,0,0-1.451-2.59l1.925-1.378a15.807,15.807,0,0,0-2.33-2.594l-1.577,1.768a13.377,13.377,0,0,0-2.416-1.722l1.149-2.068a15.722,15.722,0,0,0-3.23-1.347l-.661,2.272a13.374,13.374,0,0,0-2.926-.5l.144-2.365c-.32-.019-.645-.03-.967-.03a15.847,15.847,0,0,0-3.467.384l.519,2.309a13.2,13.2,0,0,0-2.81.971l-1.018-2.135a15.8,15.8,0,0,0-2.967,1.844l1.465,1.86a13.606,13.606,0,0,0-2.112,2.08l-1.838-1.494a15.79,15.79,0,0,0-1.889,2.937l2.118,1.051a13.216,13.216,0,0,0-1.014,2.794l-2.3-.555a15.787,15.787,0,0,0-.437,3.463l2.369.035c0,.069,0,.137,0,.206a13.533,13.533,0,0,0,.281,2.746l-2.317.484a15.66,15.66,0,0,0,1.094,3.326l2.15-.985a13.309,13.309,0,0,0,1.53,2.543l-1.882,1.437a15.793,15.793,0,0,0,2.408,2.522l1.522-1.815a13.341,13.341,0,0,0,2.469,1.646l-1.084,2.1a15.67,15.67,0,0,0,3.271,1.247l.591-2.292a13.384,13.384,0,0,0,2.939.414l-.072,2.368c.16,0,.323.007.483.007a15.872,15.872,0,0,0,2.991-.284l-.448-2.325a13.252,13.252,0,0,0,2.839-.882l.951,2.165a15.813,15.813,0,0,0,3.023-1.753l-1.407-1.9a13.518,13.518,0,0,0,1.514-1.306q.344-.345.661-.71l1.791,1.55a15.819,15.819,0,0,0,1.978-2.877l-2.085-1.116a13.174,13.174,0,0,0,1.1-2.761Zm-5.6-3.348-.006.072c-.011.121-.024.241-.04.36l-.008.055c-.016.118-.034.236-.055.353l0,.025c-.021.121-.045.24-.071.359-.008.04-.017.081-.026.121h0l-.029.119c-.017.071-.035.141-.054.211a9.576,9.576,0,0,1-.832,2.083v0c-.037.068-.074.134-.113.2h0c-.039.067-.078.134-.118.2h0c-.04.066-.081.132-.123.2h0c-.042.064-.083.128-.126.192l0,0c-.043.064-.087.127-.131.189h0c-.044.062-.089.125-.136.186h0c-.046.062-.093.123-.141.184h0c-.048.06-.1.12-.144.179l0,0a9.659,9.659,0,0,1-1.765,1.661l-.132.094-.08.055-.13.088-.081.053-.135.086-.078.049-.15.089-.067.04c-.071.041-.141.08-.214.12l-.006,0c-.074.04-.15.08-.225.119l-.065.032-.162.08-.085.039-.146.067a9.6,9.6,0,0,1-2.123.661c-.082.015-.165.03-.248.043l-.055.009q-.148.023-.3.042l-.078.009-.238.024-.082.007c-.1.008-.2.015-.306.02-.078,0-.156.007-.234.009h0c-.082,0-.165,0-.248,0s-.164,0-.245,0h0a9.6,9.6,0,0,1-2.179-.306c-.082-.021-.163-.044-.244-.067l-.082-.024-.182-.056-.152-.049h0l-.22-.078h0c-.049-.017-.1-.036-.143-.055l-.152-.06-.089-.037c-.053-.022-.106-.044-.158-.068l-.079-.034c-.064-.028-.127-.058-.19-.088l-.043-.02c-.077-.037-.153-.075-.229-.114a9.658,9.658,0,0,1-1.808-1.206q-.18-.152-.352-.313l-.036-.033q-.177-.166-.345-.341l-.031-.032,0,0c-.053-.055-.1-.111-.156-.168h0l-.084-.094c-.04-.045-.08-.092-.119-.137l-.059-.07c-.041-.049-.081-.1-.121-.147-.021-.027-.044-.053-.064-.08h0A9.654,9.654,0,0,1,130.8,307.1q-.108-.237-.2-.48c-.026-.065-.051-.13-.074-.2h0c-.026-.073-.053-.147-.078-.221h0c-.025-.075-.049-.149-.073-.225h0c-.024-.076-.046-.151-.067-.227h0c-.016-.058-.031-.115-.046-.173s-.026-.1-.039-.153c-.008-.033-.017-.064-.024-.1-.012-.055-.025-.11-.037-.166a9.667,9.667,0,0,1-.219-2.047c0-.065,0-.13,0-.2,0-.048,0-.1,0-.143l0-.113q0-.072.008-.143c0-.049.006-.1.009-.145v0c.006-.081.013-.161.021-.242h0c.006-.059.013-.117.02-.175s.015-.123.024-.184c0-.03.008-.06.012-.089.012-.079.024-.158.038-.236l0-.031c.016-.089.033-.177.051-.265.006-.026.012-.053.017-.078q.02-.094.042-.185a9.581,9.581,0,0,1,.755-2.078c.051-.1.1-.2.159-.3l.021-.039q.08-.145.164-.286c.012-.019.022-.039.034-.058h0c.04-.066.081-.131.123-.2h0c.034-.053.069-.105.1-.158.072-.108.147-.214.223-.32l.034-.046c.076-.1.155-.205.235-.306a9.688,9.688,0,0,1,1.565-1.551c.089-.071.18-.139.272-.206l.055-.04c.09-.064.181-.128.274-.19.045-.03.09-.06.136-.089.078-.051.157-.1.236-.148l.048-.028.2-.114.076-.042c.063-.035.128-.07.192-.1l.06-.031c.083-.042.167-.085.251-.125a9.554,9.554,0,0,1,2.1-.719l.162-.035.186-.035h0l.113-.019.164-.026.1-.015.154-.02.109-.012.152-.016.11-.009.158-.012.143-.009h0q.246-.013.495-.013.228,0,.453.01l.082,0a9.616,9.616,0,0,1,2.552.491h0c.074.025.148.051.222.078h0l.22.083h0l.162.067.163.069.079.035c.072.033.143.065.213.1l.023.011c.078.037.156.076.233.116l.071.037.159.085a9.655,9.655,0,0,1,1.791,1.271q.168.151.329.308l.028.028c.112.111.221.225.327.341l.011.012c.109.12.216.243.319.368l.012.016q.149.182.288.37a9.63,9.63,0,0,1,1.221,2.2h0c.022.056.044.113.064.169.033.087.064.173.094.261l0,.01c.031.091.06.182.088.274.018.06.036.119.053.18h0c.018.065.035.13.053.2.029.11.055.222.08.334l.015.069q.037.172.069.345a9.717,9.717,0,0,1,.148,1.692q0,.233-.012.463C149.18,303.7,149.172,303.82,149.162,303.941Z" transform="translate(-109.263 -256.863)" fill="#ffa865"/>
          </g>
        </g>
      </g>
      <g id="TEXTS" transform="translate(212.832 190.894)">
        <text id="API" fill="#221276" font-size="55.831" font-family="Roboto-Black, Roboto" font-weight="800" letter-spacing="0.05em"><tspan x="16.14" y="59">API</tspan></text>
      </g>
    </g>
  </g>
</svg>
