<svg xmlns="http://www.w3.org/2000/svg" width="505.001" height="605.427" viewBox="0 0 505.001 605.427">
  <g id="Grupo_148235" data-name="Grupo 148235" transform="translate(10287.001 7386.714)">
    <g id="Metrics-amico" transform="translate(-10314.811 -7351.1)">
      <g id="freepik--Floor--inject-11" transform="translate(27.81 257.33)">
        <path id="Trazado_206846" data-name="Trazado 206846" d="M458.268,271.011c-98.933-57.114-258.809-57.114-357.094,0s-97.728,149.729,1.136,206.82,258.82,57.114,357.117,0S557.2,328.136,458.268,271.011Z" transform="translate(-27.81 -208.175)" fill="#f5f5f5"/>
      </g>
      <g id="freepik--Shadows--inject-11" transform="translate(70.198 272.16)">
        <path id="Trazado_206847" data-name="Trazado 206847" d="M300.105,248.447l-10.773-6.216a7.557,7.557,0,0,0-7.534,0L208.82,284.367c-14.887-2.2-31.3,0-42.9,6.818s-15.421,16.1-11.659,24.671l-47.989,27.716a3.227,3.227,0,0,0,0,5.591l10.773,6.216a7.5,7.5,0,0,0,7.534,0L169.3,329.606c17.682,8.466,43.853,7.955,60.319-1.648s17.318-24.614,2.852-34.819l67.637-39.046a3.239,3.239,0,0,0,0-5.648Z" transform="translate(-59.718 -261.225)" fill="#e6e6e6"/>
        <path id="Trazado_206848" data-name="Trazado 206848" d="M67.314,387.151c-2.932,1.693-2.943,4.432,0,6.125l4.989,2.977a11.625,11.625,0,0,0,10.568,0l131.183-75.739c2.921-1.693,2.943-4.432,0-6.125l-4.989-2.977a11.693,11.693,0,0,0-10.568,0Z" transform="translate(-65.111 -251.825)" fill="#e6e6e6"/>
        <path id="Trazado_206849" data-name="Trazado 206849" d="M227.175,297c-1.943,1.136-1.955,2.932,0,4.057l3.3,1.966a7.75,7.75,0,0,0,7,0l86.83-50.137c1.932-1.136,1.943-2.932,0-4.045l-3.307-1.966a7.659,7.659,0,0,0-6.989,0Z" transform="translate(-43.209 -260.57)" fill="#e6e6e6"/>
        <path id="Trazado_206850" data-name="Trazado 206850" d="M360.093,401.145c-20.9-12.057-54.671-12.057-75.432,0s-20.659,31.637.239,43.7,54.682,12.068,75.444,0S381,413.214,360.093,401.145Z" transform="translate(-37.285 -220.649)" fill="#e6e6e6"/>
        <path id="Trazado_206851" data-name="Trazado 206851" d="M416.234,313.416c-20.9-12.068-54.671-12.068-75.444,0s-20.648,31.625.25,43.694,54.671,12.068,75.444,0S437.132,325.541,416.234,313.416Z" transform="translate(-29.63 -232.614)" fill="#e6e6e6"/>
        <path id="Trazado_206852" data-name="Trazado 206852" d="M241.913,407.9c-20.9-12.068-54.671-12.068-75.432,0s-20.659,31.625.239,43.694,54.682,12.068,75.444,0S262.868,419.965,241.913,407.9Z" transform="translate(-53.401 -219.73)" fill="#e6e6e6"/>
      </g>
      <g id="freepik--Windows--inject-11" transform="translate(373.483 37.277)">
        <path id="Trazado_206853" data-name="Trazado 206853" d="M336.51,88.46l4.455-2.58,47.091,27.08v5.148Z" transform="translate(-331.385 -27.527)" fill="#f5f5f5"/>
        <path id="Trazado_206854" data-name="Trazado 206854" d="M336.511,88.15h0L388.057,117.8v5.886L336.5,94.071Z" transform="translate(-331.386 -27.218)" fill="#e0e0e0"/>
        <rect id="Rect치ngulo_297532" data-name="Rect치ngulo 297532" height="59.466" transform="translate(5.14 60.948) rotate(-60.09)" fill="#e0e0e0"/>
        <path id="Trazado_206855" data-name="Trazado 206855" d="M405.56,128.191l4.455-2.591,47.091,27.08v5.159Z" transform="translate(-321.968 -22.11)" fill="#f5f5f5"/>
        <path id="Trazado_206856" data-name="Trazado 206856" d="M405.561,127.88h0l51.546,29.648v5.886L405.55,133.789Z" transform="translate(-321.97 -21.8)" fill="#e0e0e0"/>
        <rect id="Rect치ngulo_297533" data-name="Rect치ngulo 297533" height="59.466" transform="translate(83.617 106.093) rotate(-60.09)" fill="#e0e0e0"/>
        <path id="Trazado_206857" data-name="Trazado 206857" d="M336.761,44.911l4.455-2.591-.261,133.342-4.455,2.591Z" transform="translate(-331.386 -33.468)" fill="#f0f0f0"/>
        <path id="Trazado_206858" data-name="Trazado 206858" d="M336.5,162.251l4.455-2.591,51.3,29.443-4.455,2.591Z" transform="translate(-331.386 -17.466)" fill="#f5f5f5"/>
        <path id="Trazado_206859" data-name="Trazado 206859" d="M332.261,36.81l61.546,35.364L393.523,217.3,332,181.936ZM388.41,208.4l.261-133.342-51.3-29.4L337.114,179l51.3,29.443" transform="translate(-332 -34.219)" fill="#e0e0e0"/>
        <path id="Trazado_206860" data-name="Trazado 206860" d="M332.23,37.121l4.455-2.591,61.557,35.364-4.466,2.591Z" transform="translate(-331.969 -34.53)" fill="#f5f5f5"/>
        <path id="Trazado_206861" data-name="Trazado 206861" d="M386.425,68.241l4.466-2.591-.3,145.126-4.466,2.591Z" transform="translate(-324.618 -30.286)" fill="#f0f0f0"/>
        <path id="Trazado_206862" data-name="Trazado 206862" d="M405.811,84.641l4.455-2.591L410,215.392l-4.455,2.58Z" transform="translate(-321.97 -28.05)" fill="#f0f0f0"/>
        <path id="Trazado_206863" data-name="Trazado 206863" d="M405.55,201.97,410,199.39l51.3,29.443-4.455,2.58Z" transform="translate(-321.97 -12.047)" fill="#f5f5f5"/>
        <path id="Trazado_206864" data-name="Trazado 206864" d="M401.318,76.54,462.864,111.9l-.3,145.115L401,221.655Zm56.148,171.592.261-133.331-51.3-29.421-.261,133.342,51.3,29.443" transform="translate(-322.59 -28.801)" fill="#e0e0e0"/>
        <path id="Trazado_206865" data-name="Trazado 206865" d="M401.28,76.851l4.455-2.591,61.557,35.364-4.466,2.591Z" transform="translate(-322.552 -29.112)" fill="#f5f5f5"/>
        <path id="Trazado_206866" data-name="Trazado 206866" d="M455.474,107.971l4.466-2.591-.3,145.115-4.455,2.591Z" transform="translate(-315.2 -24.868)" fill="#f0f0f0"/>
      </g>
      <g id="freepik--Screens--inject-11" transform="translate(38.253 -35.614)">
        <path id="Trazado_206867" data-name="Trazado 206867" d="M185.17,311.83v9.193a1.625,1.625,0,0,0,3.239,0V311.83Z" transform="translate(-16.793 26.178)" fill="#084a93"/>
        <path id="Trazado_206868" data-name="Trazado 206868" d="M188.389,273.6a1.625,1.625,0,1,0-3.239,0v43.682h3.239Z" transform="translate(-16.797 20.724)" fill="#263238"/>
        <path id="Trazado_206869" data-name="Trazado 206869" d="M191.784,270.71a1.617,1.617,0,0,0-2.171,2.4l29.046,26.227,2.273-2.273Z" transform="translate(-16.26 20.513)" fill="#263238"/>
        <path id="Trazado_206870" data-name="Trazado 206870" d="M222.552,298.5l-5.159-4.659-2.273,2.273,5.284,4.761a1.579,1.579,0,0,0,1.136.42,1.614,1.614,0,0,0,1.08-2.807Z" transform="translate(-12.709 23.724)" fill="#084a93"/>
        <path id="Trazado_206871" data-name="Trazado 206871" d="M151.593,298.5a1.614,1.614,0,0,0,1.08,2.807,1.579,1.579,0,0,0,1.136-.42l5.284-4.761-2.273-2.273Z" transform="translate(-21.444 23.726)" fill="#084a93"/>
        <path id="Trazado_206872" data-name="Trazado 206872" d="M187.512,270.823a1.614,1.614,0,0,0-2.273-.114L156.08,297.051l2.273,2.273L187.4,273.1A1.614,1.614,0,0,0,187.512,270.823Z" transform="translate(-20.76 20.513)" fill="#263238"/>
        <path id="Trazado_206873" data-name="Trazado 206873" d="M197.288,269.82H178.22v5.5c0,1.42.955,2.83,2.818,3.9a14.773,14.773,0,0,0,13.443,0c1.852-1.068,2.773-2.477,2.761-3.9h0Z" transform="translate(-17.741 20.449)" fill="#37474f"/>
        <path id="Trazado_206874" data-name="Trazado 206874" d="M194.44,266.584c3.727,2.148,3.75,5.682,0,7.784a14.773,14.773,0,0,1-13.443,0c-3.727-2.148-3.75-5.682,0-7.784a14.773,14.773,0,0,1,13.443,0Z" transform="translate(-17.745 19.787)" fill="#455a64"/>
        <path id="Trazado_206875" data-name="Trazado 206875" d="M184.23,92.62V293.395h0a1.341,1.341,0,0,0,.784,1.136,4.171,4.171,0,0,0,3.807,0,1.3,1.3,0,0,0,.784-1.136V92.62Z" transform="translate(-16.922 -3.717)" fill="#263238"/>
        <path id="Trazado_206876" data-name="Trazado 206876" d="M109.16,118.6v172.8L283.6,190.677V17.13Z" transform="translate(-27.159 -14.012)" fill="#455a64"/>
        <path id="Trazado_206877" data-name="Trazado 206877" d="M114.84,120.964,276.364,27.02V185.59L114.84,278.852Z" transform="translate(-26.384 -12.663)" fill="#fafafa"/>
        <path id="Trazado_206878" data-name="Trazado 206878" d="M114.081,104.085a10.761,10.761,0,0,1,4.875,8.466c0,3.1-2.2,4.364-4.909,2.8a10.727,10.727,0,0,1-4.886-8.455C109.171,103.721,111.365,102.471,114.081,104.085Z" transform="translate(-27.159 -2.249)" fill="#263238"/>
        <path id="Trazado_206879" data-name="Trazado 206879" d="M294.131,22.7a1.692,1.692,0,0,0,0-.239v-.477a1.659,1.659,0,0,0,0-.25h0v-.239a.405.405,0,0,0-.057-.25c-.057-.08,0-.068,0-.091h0v-.114l-.068-.261a.232.232,0,0,0-.057-.182v-.08a1.26,1.26,0,0,0-.08-.25,2.218,2.218,0,0,0-.091-.25v-.08l-.068-.159a2.049,2.049,0,0,0-.091-.239,1.141,1.141,0,0,0-.08-.17v-.057l-.1-.239a2.717,2.717,0,0,1-.125-.261h0v-.057l-.114-.2-.136-.25-.068-.125v-.057l-.136-.216-.193-.307v-.057l-.307-.432h0a2.663,2.663,0,0,1-.216-.284c-.068-.068-.125-.148-.182-.216h0l-.193-.227-.182-.2h0l-.136-.148-.2-.2-.068-.057h0l-.1-.091-.216-.193-.1-.08h-.08a1.511,1.511,0,0,0-.216-.159l-.148-.114h0l-.216-.136-.2-.125h0l-.159-.091-.2-.1-.125-.068h-.068l-.193-.091-.2-.068H288.8l-.2-.057h-1.114a2.159,2.159,0,0,0-.284,0h-.068l-.273.068h0a1.637,1.637,0,0,0-.375.182L111.05,116.346a1.886,1.886,0,0,1,.375-.17l.3-.091h0a1.989,1.989,0,0,1,.364,0h.5a.865.865,0,0,1,.409.068h0l.432.114h0a1.235,1.235,0,0,1,.466.193h0c.159.068.318.159.489.25l.489.318h0c.148.114.3.216.443.341h0l.409.364h.057l.4.409h0l.42.466h0l.4.511h0c.125.159.239.33.341.489l.2.318c0,.091.114.17.159.261l.068.125.25.466h0c.1.193.193.375.273.568h0c.08.182.159.375.227.557h0c.08.193.136.386.2.58h0a2.658,2.658,0,0,0,.159.568h0a3.482,3.482,0,0,0,.114.58h0a5.038,5.038,0,0,1,.068.58h0a4.75,4.75,0,0,1,0,.568v.534h0l-.068.455h0a3.525,3.525,0,0,1-.114.409.285.285,0,0,1,0,.08,1.785,1.785,0,0,1-.136.341h0a3.492,3.492,0,0,1-.193.352h0a2.09,2.09,0,0,1-.193.25l-.068.08-.193.182-.08.068a2.35,2.35,0,0,1-.273.193h0L293.177,26.016a1.637,1.637,0,0,0,.284-.2l.08-.068.182-.17.08-.091a2.009,2.009,0,0,0,.182-.25h0c0-.1.125-.216.182-.341h0a1.9,1.9,0,0,0,.091-.227s0-.08,0-.125V24.47a.16.16,0,0,1,0-.068,1.615,1.615,0,0,0,.057-.25.272.272,0,0,0,0-.091V22.97h0a1.377,1.377,0,0,0-.182-.273Z" transform="translate(-26.901 -14.386)" fill="#37474f"/>
        <path id="Trazado_206880" data-name="Trazado 206880" d="M212.916,132.69l19.455,1.67.08,25.773c-12.386,7.148-22.455,1.409-22.5-12.818a40.818,40.818,0,0,1,2.966-14.625Z" transform="translate(-13.414 1.748)" fill="#084a93"/>
        <path id="Trazado_206881" data-name="Trazado 206881" d="M240.873,108.79c6.693.614,11.2,6.33,11.239,15.852,0,14.239-9.966,31.591-22.352,38.75l-.08-25.8,11.091-28.659Z" transform="translate(-10.723 -1.512)" fill="#084a93"/>
        <path id="Trazado_206882" data-name="Trazado 206882" d="M231.947,111.855a19.375,19.375,0,0,1,11.216-3.023l-.057.148-11.091,28.637-19.455-1.67C216.469,126.071,223.651,116.65,231.947,111.855Z" transform="translate(-13.058 -1.508)" fill="#084a93"/>
        <g id="Grupo_148101" data-name="Grupo 148101" transform="translate(199.502 107.307)" opacity="0.2">
          <path id="Trazado_206883" data-name="Trazado 206883" d="M231.947,111.855a19.375,19.375,0,0,1,11.216-3.023l-.057.148-11.091,28.637-19.455-1.67C216.469,126.071,223.651,116.65,231.947,111.855Z" transform="translate(-212.56 -108.816)" fill="#fff"/>
        </g>
        <path id="Trazado_206884" data-name="Trazado 206884" d="M212.916,132.69l19.455,1.67.08,25.773c-12.386,7.148-22.455,1.409-22.5-12.818a40.818,40.818,0,0,1,2.966-14.625Z" transform="translate(-13.414 1.748)" fill="#084a93"/>
        <g id="Grupo_148102" data-name="Grupo 148102" transform="translate(218.957 107.278)" opacity="0.1">
          <path id="Trazado_206885" data-name="Trazado 206885" d="M240.873,108.79c6.693.614,11.2,6.33,11.239,15.852,0,14.239-9.966,31.591-22.352,38.75l-.08-25.8,11.091-28.659Z" transform="translate(-229.68 -108.79)"/>
        </g>
        <path id="Trazado_206886" data-name="Trazado 206886" d="M215.11,74.559c1.67-.955,3.011-.182,3.023,1.727a6.625,6.625,0,0,1-3,5.193c-1.67.966-3.011.193-3.023-1.716a6.659,6.659,0,0,1,3-5.2Z" transform="translate(-13.119 -6.236)" fill="#084a93"/>
        <path id="Trazado_206887" data-name="Trazado 206887" d="M215.14,85.05c1.67-.966,3.011-.193,3.023,1.716a6.648,6.648,0,0,1-3,5.2c-1.67.955-3.011.182-3.023-1.727A6.625,6.625,0,0,1,215.14,85.05Z" transform="translate(-13.115 -4.806)" fill="#084a93"/>
        <path id="Trazado_206888" data-name="Trazado 206888" d="M215.17,95.55c1.659-.966,3.011-.193,3.023,1.716a6.659,6.659,0,0,1-3,5.2c-1.67.955-3.011.182-3.023-1.727A6.625,6.625,0,0,1,215.17,95.55Z" transform="translate(-13.111 -3.374)" fill="#084a93"/>
        <path id="Trazado_206889" data-name="Trazado 206889" d="M215.2,106.05c1.659-.966,3.011-.193,3.023,1.716a6.648,6.648,0,0,1-3,5.2c-1.67.955-3.011.193-3.023-1.727a6.625,6.625,0,0,1,3-5.193Z" transform="translate(-13.107 -1.942)" fill="#084a93"/>
        <path id="Trazado_206890" data-name="Trazado 206890" d="M230.858,67.19l.011,3.977-9.9,5.716-.011-3.966Z" transform="translate(-11.913 -7.185)" fill="#e0e0e0"/>
        <path id="Trazado_206891" data-name="Trazado 206891" d="M242.5,60.47l.011,3.977-9.9,5.716-.011-3.977Z" transform="translate(-10.325 -8.101)" fill="#e0e0e0"/>
        <path id="Trazado_206892" data-name="Trazado 206892" d="M246.41,90.05l.011,3.977-14.25,8.227-.011-3.977Z" transform="translate(-10.385 -4.067)" fill="#e0e0e0"/>
        <path id="Trazado_206893" data-name="Trazado 206893" d="M239.2,83.98l.011,3.966-18.182,10.5-.011-3.977Z" transform="translate(-11.904 -4.895)" fill="#e0e0e0"/>
        <path id="Trazado_206894" data-name="Trazado 206894" d="M233.513,76.36l.011,3.966L221,87.565l-.011-3.977Z" transform="translate(-11.908 -5.934)" fill="#e0e0e0"/>
        <path id="Trazado_206895" data-name="Trazado 206895" d="M230.948,98.67l.011,3.977-9.9,5.716-.011-3.966Z" transform="translate(-11.9 -2.892)" fill="#e0e0e0"/>
        <path id="Trazado_206896" data-name="Trazado 206896" d="M134.9,210.52v3.761l-10.341,5.977-.011-3.761Z" transform="translate(-25.06 12.362)" fill="#e0e0e0"/>
        <path id="Trazado_206897" data-name="Trazado 206897" d="M139.635,194.89v3.75l-15.114,8.727-.011-3.75Z" transform="translate(-25.066 10.23)" fill="#e0e0e0"/>
        <path id="Trazado_206898" data-name="Trazado 206898" d="M157.917,192.21l.011,3.75-33.387,19.284-.011-3.75Z" transform="translate(-25.063 9.865)" fill="#e0e0e0"/>
        <path id="Trazado_206899" data-name="Trazado 206899" d="M205.487,157.96l.011,3.75-30.887,17.83-.011-3.75Z" transform="translate(-18.235 5.194)" fill="#e0e0e0"/>
        <path id="Trazado_206900" data-name="Trazado 206900" d="M164.04,194.76l.011,3.761L138.3,213.385l-.011-3.75Z" transform="translate(-23.187 10.212)" fill="#e0e0e0"/>
        <path id="Trazado_206901" data-name="Trazado 206901" d="M152.445,181.76v3.761L124.5,201.658l-.011-3.761Z" transform="translate(-25.068 8.439)" fill="#e0e0e0"/>
        <path id="Trazado_206902" data-name="Trazado 206902" d="M203.452,164.56l.011,3.761L189.7,176.253l-.011-3.75Z" transform="translate(-16.177 6.094)" fill="#e0e0e0"/>
        <path id="Trazado_206903" data-name="Trazado 206903" d="M204.07,171.17l.011,3.75-18.75,10.83-.011-3.761Z" transform="translate(-16.773 6.995)" fill="#e0e0e0"/>
        <path id="Trazado_206904" data-name="Trazado 206904" d="M209.085,146.09l.011,1.955-84.546,48.83V194.92Z" transform="translate(-25.06 3.575)" fill="#395a65"/>
        <path id="Trazado_206905" data-name="Trazado 206905" d="M152.438,123.03l.2,53.114-12.068,6.966L140.37,130Z" transform="translate(-22.903 0.43)" fill="#084a93"/>
        <path id="Trazado_206906" data-name="Trazado 206906" d="M152.438,105.12v20.352l-12.068,6.966V112.086Z" transform="translate(-22.903 -2.012)" fill="#e0e0e0"/>
        <path id="Trazado_206907" data-name="Trazado 206907" d="M168.387,127.85l.17,37.182L156.5,172.009l-.17-37.194Z" transform="translate(-20.726 1.088)" fill="#084a93"/>
        <path id="Trazado_206908" data-name="Trazado 206908" d="M168.387,95.88v36.33l-12.057,6.966v-36.33Z" transform="translate(-20.726 -3.272)" fill="#e0e0e0"/>
        <path id="Trazado_206909" data-name="Trazado 206909" d="M184.247,98.54l.25,60.046-12.068,6.966-.239-60.046Z" transform="translate(-18.563 -2.91)" fill="#084a93"/>
        <path id="Trazado_206910" data-name="Trazado 206910" d="M184.247,86.98v13.136l-12.057,6.966V93.946Z" transform="translate(-18.563 -4.486)" fill="#e0e0e0"/>
        <path id="Trazado_206911" data-name="Trazado 206911" d="M200.138,77.56l.3,73.444-12.068,6.955-.3-73.432Z" transform="translate(-16.398 -5.771)" fill="#084a93"/>
        <path id="Trazado_206912" data-name="Trazado 206912" d="M136.588,159.41l.114,22.227L124.634,188.6l-.114-22.227Z" transform="translate(-25.064 5.392)" fill="#084a93"/>
        <path id="Trazado_206913" data-name="Trazado 206913" d="M136.588,115.01v50.455l-12.068,6.966V121.976Z" transform="translate(-25.064 -0.663)" fill="#e0e0e0"/>
        <path id="Trazado_206914" data-name="Trazado 206914" d="M214.313,183.735h0a5.682,5.682,0,0,0-4.727-3.125,1.967,1.967,0,0,0-.614.125L67.71,262.3a4.1,4.1,0,0,0-1.659,1.761,4.045,4.045,0,0,0-.42,1.8V392a3.932,3.932,0,0,0,5.261,3.523h0a.67.67,0,0,0,.159-.068l141.263-81.614a4.091,4.091,0,0,0,2.068-3.557v-126.1A1.136,1.136,0,0,0,214.313,183.735Z" transform="translate(-33.095 8.283)" fill="#084a93"/>
        <path id="Trazado_206915" data-name="Trazado 206915" d="M65.64,255.845V381.983a3.932,3.932,0,0,0,5.261,3.523h0a1.023,1.023,0,0,1-1.364-.955V258.414a4.057,4.057,0,0,1,.693-2.273l-4.182-2.091A4.046,4.046,0,0,0,65.64,255.845Z" transform="translate(-33.094 18.298)" fill="#fff" opacity="0.2"/>
        <path id="Trazado_206916" data-name="Trazado 206916" d="M209.535,180.61a1.966,1.966,0,0,0-.614.125L67.659,262.3A4.1,4.1,0,0,0,66,264.065l4.193,2.091a4.069,4.069,0,0,1,1.375-1.3l141.274-81.535a1.023,1.023,0,0,1,1.42.443h0a5.682,5.682,0,0,0-4.727-3.159Z" transform="translate(-33.045 8.283)" fill="#fff" opacity="0.4"/>
        <path id="Trazado_206917" data-name="Trazado 206917" d="M214.313,183.735h0a5.682,5.682,0,0,0-4.727-3.125,1.967,1.967,0,0,0-.614.125L67.71,262.3a4.1,4.1,0,0,0-1.659,1.761,4.045,4.045,0,0,0-.42,1.8V392a3.932,3.932,0,0,0,5.261,3.523h0a.67.67,0,0,0,.159-.068l141.263-81.614a4.091,4.091,0,0,0,2.068-3.557v-126.1A1.136,1.136,0,0,0,214.313,183.735Z" transform="translate(-33.095 8.283)" fill="#fff" opacity="0.3"/>
        <path id="Trazado_206918" data-name="Trazado 206918" d="M204.3,198.886h0a4.33,4.33,0,0,0-3.614-2.386,1.592,1.592,0,0,0-.466.091L77.08,267.523a3.125,3.125,0,0,0-1.58,2.716v89.944a3,3,0,0,0,3.977,2.693h0l.125-.057L202.74,291.853a3.125,3.125,0,0,0,1.58-2.716v-89.91A.829.829,0,0,0,204.3,198.886Z" transform="translate(-31.749 10.45)" fill="#fff" opacity="0.4"/>
        <path id="Trazado_206919" data-name="Trazado 206919" d="M98.806,298.44l.08,31.148L92.5,333.281,92.443,310.3l-.023-8.182Z" transform="translate(-29.442 24.352)" fill="#084a93"/>
        <path id="Trazado_206920" data-name="Trazado 206920" d="M93.208,308.88l.057,22.977-6.386,3.693-.068-22.977Z" transform="translate(-30.207 25.775)" fill="#455a64"/>
        <path id="Trazado_206921" data-name="Trazado 206921" d="M110.036,287.18l.1,36.569-6.386,3.693-.1-36.568Z" transform="translate(-27.91 22.816)" fill="#455a64"/>
        <path id="Trazado_206922" data-name="Trazado 206922" d="M126.9,276.55l.023,5.364.091,32.216-6.386,3.693-.114-37.591Z" transform="translate(-25.611 21.366)" fill="#455a64"/>
        <path id="Trazado_206923" data-name="Trazado 206923" d="M132.536,278.02l.091,32.228-6.386,3.682-.091-32.216Z" transform="translate(-24.842 21.567)" fill="#084a93"/>
        <path id="Trazado_206924" data-name="Trazado 206924" d="M183.046,217.35l.193,67.967-6.386,3.693-.125-44.5-.068-23.477Z" transform="translate(-17.954 13.293)" fill="#084a93"/>
        <path id="Trazado_206925" data-name="Trazado 206925" d="M177.486,241.25l.125,44.5-6.386,3.682-.125-44.489Z" transform="translate(-18.712 16.552)" fill="#455a64"/>
        <path id="Trazado_206926" data-name="Trazado 206926" d="M160.6,244.09l.148,52.341-6.386,3.682-.148-52.341Z" transform="translate(-21.015 16.94)" fill="#455a64"/>
        <path id="Trazado_206927" data-name="Trazado 206927" d="M166.208,234.06l.159,60.046L159.98,297.8l-.148-52.341-.023-7.7Z" transform="translate(-20.252 15.572)" fill="#084a93"/>
        <path id="Trazado_206928" data-name="Trazado 206928" d="M201.464,277.05v1.3L82.19,347.2v-1.3Z" transform="translate(-30.837 21.435)" fill="#455a64"/>
        <path id="Trazado_206929" data-name="Trazado 206929" d="M149.376,257.89l.125,44.034-6.4,3.682-.1-39.762-.011-4.261Z" transform="translate(-22.546 18.822)" fill="#084a93"/>
        <g id="Grupo_148103" data-name="Grupo 148103" transform="translate(44.682 314.382)" opacity="0.4">
          <path id="Trazado_206930" data-name="Trazado 206930" d="M76.34,355.5v3l8.273-4.773V350.72Z" transform="translate(-76.317 -282.901)" fill="#fff"/>
          <path id="Trazado_206931" data-name="Trazado 206931" d="M103.013,336.09,76.32,351.5l.011,3,26.693-15.409Z" transform="translate(-76.32 -284.896)" fill="#fff"/>
          <path id="Trazado_206932" data-name="Trazado 206932" d="M167.453,299.08,140.76,314.489l.011,3,26.693-15.421Z" transform="translate(-67.532 -289.944)" fill="#fff"/>
          <path id="Trazado_206933" data-name="Trazado 206933" d="M109.14,336.941l.011,3,13.716-7.921-.011-3Z" transform="translate(-71.844 -285.861)" fill="#fff"/>
          <path id="Trazado_206934" data-name="Trazado 206934" d="M166.27,298.961l.011,3.011L180,294.051l-.011-3.011Z" transform="translate(-64.053 -291.04)" fill="#fff"/>
          <path id="Trazado_206935" data-name="Trazado 206935" d="M126.16,327.975l.011,3.011,23.909-13.716-.011-3Z" transform="translate(-69.523 -287.872)" fill="#fff"/>
          <path id="Trazado_206936" data-name="Trazado 206936" d="M103.52,335.619v3l24.091-13.909-.011-3Z" transform="translate(-72.611 -286.857)" fill="#fff"/>
          <path id="Trazado_206937" data-name="Trazado 206937" d="M87.32,350.006l.011,3.011,20.58-11.887V338.12Z" transform="translate(-74.82 -284.62)" fill="#fff"/>
          <path id="Trazado_206938" data-name="Trazado 206938" d="M139.41,313.99l-11,6.341.011,3,11-6.352Z" transform="translate(-69.216 -287.91)" fill="#fff"/>
        </g>
        <path id="Trazado_206939" data-name="Trazado 206939" d="M321.749,103.055h0A5.682,5.682,0,0,0,317,99.93a2.034,2.034,0,0,0-.625.114l-88.955,51.3a4.1,4.1,0,0,0-1.648,1.761,4.046,4.046,0,0,0-.42,1.8V281.034a3.932,3.932,0,0,0,5.273,3.523h0l.17-.068,88.955-51.33a4.091,4.091,0,0,0,2.068-3.557V103.5a1.057,1.057,0,0,0-.068-.443Z" transform="translate(-11.314 -2.72)" fill="#084a93"/>
        <path id="Trazado_206940" data-name="Trazado 206940" d="M225.37,148.515V274.653a3.932,3.932,0,0,0,5.273,3.523h0a1.023,1.023,0,0,1-1.364-.955V151.084a4.057,4.057,0,0,1,.693-2.273l-4.193-2.091a4.046,4.046,0,0,0-.409,1.8Z" transform="translate(-11.311 3.661)" fill="#fff" opacity="0.2"/>
        <path id="Trazado_206941" data-name="Trazado 206941" d="M316.948,99.93a2.034,2.034,0,0,0-.625.114l-88.955,51.3a4.1,4.1,0,0,0-1.648,1.761l4.193,2.091a4.069,4.069,0,0,1,1.375-1.3l88.967-51.3a1.023,1.023,0,0,1,1.42.455h0A5.682,5.682,0,0,0,316.948,99.93Z" transform="translate(-11.263 -2.72)" fill="#fff" opacity="0.4"/>
        <path id="Trazado_206942" data-name="Trazado 206942" d="M321.749,103.044h0A5.682,5.682,0,0,0,317,99.93a2.035,2.035,0,0,0-.625.114l-88.955,51.3a4.1,4.1,0,0,0-1.648,1.761,4.046,4.046,0,0,0-.42,1.8V281.034a3.932,3.932,0,0,0,5.273,3.523h0l.17-.068,88.955-51.33a4.091,4.091,0,0,0,2.068-3.557V103.5A1.137,1.137,0,0,0,321.749,103.044Z" transform="translate(-11.314 -2.72)" fill="#fff" opacity="0.3"/>
        <path id="Trazado_206943" data-name="Trazado 206943" d="M236.49,158.1l75.126-43.307v87.739L236.49,245.882Z" transform="translate(-9.795 -0.693)" fill="#fff" opacity="0.4"/>
        <g id="Grupo_148104" data-name="Grupo 148104" transform="translate(226.616 215.336)" opacity="0.4">
          <path id="Trazado_206944" data-name="Trazado 206944" d="M249.383,235.5l.011,3.2-12.955,7.477v-3.216Z" transform="translate(-236.417 -199.568)" fill="#fff"/>
          <path id="Trazado_206945" data-name="Trazado 206945" d="M265.041,233.21l.011,3.2-28.591,16.512-.011-3.216Z" transform="translate(-236.416 -199.88)" fill="#fff"/>
          <path id="Trazado_206946" data-name="Trazado 206946" d="M305.763,203.88l.011,3.2-26.443,15.273-.011-3.216Z" transform="translate(-230.57 -203.88)" fill="#fff"/>
          <path id="Trazado_206947" data-name="Trazado 206947" d="M279.917,212.58V215.8l-18.466,10.671-.011-3.216Z" transform="translate(-233.008 -202.694)" fill="#fff"/>
          <path id="Trazado_206948" data-name="Trazado 206948" d="M278.573,219.6v3.216l-26.762,15.455-.011-3.2Z" transform="translate(-234.323 -201.736)" fill="#fff"/>
          <path id="Trazado_206949" data-name="Trazado 206949" d="M260.352,224.26v3.216l-23.921,13.818-.011-3.227Z" transform="translate(-236.42 -201.101)" fill="#fff"/>
          <path id="Trazado_206950" data-name="Trazado 206950" d="M289.431,218.99l.011,3.216L265.51,236.013V232.8Z" transform="translate(-232.453 -201.819)" fill="#fff"/>
        </g>
        <path id="Trazado_206951" data-name="Trazado 206951" d="M259.167,197.11l2.773,8.273-2.591,10.9-5.489,3.17Z" transform="translate(-7.426 10.533)" fill="#084a93"/>
        <path id="Trazado_206952" data-name="Trazado 206952" d="M259.167,197.11l2.773,8.273-2.591,10.9-5.489,3.17Z" transform="translate(-7.426 10.533)" opacity="0.2"/>
        <path id="Trazado_206953" data-name="Trazado 206953" d="M261.281,204.39l2.648,7.875-5.239,3.023Z" transform="translate(-6.767 11.526)" fill="#084a93"/>
        <g id="Grupo_148105" data-name="Grupo 148105" transform="translate(251.923 215.916)" opacity="0.3">
          <path id="Trazado_206954" data-name="Trazado 206954" d="M261.281,204.39l2.648,7.875-5.239,3.023Z" transform="translate(-258.69 -204.39)"/>
        </g>
        <path id="Trazado_206955" data-name="Trazado 206955" d="M264.516,191.27l6.261,18.648-7.159,4.136-2.648-7.875Z" transform="translate(-6.456 9.736)" fill="#084a93"/>
        <g id="Grupo_148106" data-name="Grupo 148106" transform="translate(254.514 201.006)" opacity="0.2">
          <path id="Trazado_206956" data-name="Trazado 206956" d="M264.516,191.27l6.261,18.648-7.159,4.136-2.648-7.875Z" transform="translate(-260.97 -191.27)"/>
        </g>
        <path id="Trazado_206957" data-name="Trazado 206957" d="M262.075,184l2.773,8.261L261.3,207.171,258.53,198.9Z" transform="translate(-6.789 8.745)" fill="#084a93"/>
        <path id="Trazado_206958" data-name="Trazado 206958" d="M252.5,174.2l8.75,26.034-5.307,22.341-17.318,10Z" transform="translate(-9.504 7.409)" fill="#084a93"/>
        <path id="Trazado_206959" data-name="Trazado 206959" d="M283.523,164.69,294.933,198.7l-22.6,13.057Z" transform="translate(-4.907 6.112)" fill="#084a93"/>
        <path id="Trazado_206960" data-name="Trazado 206960" d="M283.523,164.69,294.933,198.7l-22.6,13.057Z" transform="translate(-4.907 6.112)" opacity="0.2"/>
        <path id="Trazado_206961" data-name="Trazado 206961" d="M276.817,144.18l7.83,23.307-11.193,47.069-3.1,1.784-6.261-18.648Z" transform="translate(-6.031 3.315)" fill="#084a93"/>
        <path id="Trazado_206962" data-name="Trazado 206962" d="M287.646,144.42l17.012,50.66-11.068,6.386L282.18,167.454Z" transform="translate(-3.564 3.347)" fill="#084a93"/>
        <path id="Trazado_206963" data-name="Trazado 206963" d="M293.586,144.453l-5.466,23.034-7.83-23.307-12.727,53.512-2.773-8.261-3.545,14.9-8.75-26.034L238.62,236.669l17.318-10,5.489-3.17,5.239-3.023,7.159-4.136,3.1-1.784,22.6-13.057,11.068-6.386Z" transform="translate(-9.504 3.315)" opacity="0.1"/>
        <path id="Trazado_206964" data-name="Trazado 206964" d="M142.876,140.955h0a5.682,5.682,0,0,0-4.727-3.125,2.091,2.091,0,0,0-.625.125l-98.478,57.08A4.125,4.125,0,0,0,37,198.592V261.6a3.932,3.932,0,0,0,5.273,3.523h0l.17-.068,98.489-57.126A4.068,4.068,0,0,0,143,204.376V141.432A.989.989,0,0,0,142.876,140.955Z" transform="translate(-37 2.449)" fill="#084a93"/>
        <path id="Trazado_206965" data-name="Trazado 206965" d="M37,191.517v63.012a3.932,3.932,0,0,0,5.273,3.523h0a1.023,1.023,0,0,1-1.364-.955V194.074A4.057,4.057,0,0,1,41.6,191.8l-4.193-2.091A4.011,4.011,0,0,0,37,191.517Z" transform="translate(-37 9.524)" fill="#fff" opacity="0.2"/>
        <path id="Trazado_206966" data-name="Trazado 206966" d="M138.09,137.83a2.09,2.09,0,0,0-.625.125L39,195.035A4.034,4.034,0,0,0,37.35,196.8l4.148,2.091a3.966,3.966,0,0,1,1.375-1.3l98.489-57.08a1.023,1.023,0,0,1,1.42.443h0A5.682,5.682,0,0,0,138.09,137.83Z" transform="translate(-36.952 2.449)" fill="#fff" opacity="0.4"/>
        <path id="Trazado_206967" data-name="Trazado 206967" d="M142.876,140.955h0a5.682,5.682,0,0,0-4.727-3.125,2.091,2.091,0,0,0-.625.125l-98.478,57.08A4.125,4.125,0,0,0,37,198.592V261.6a3.932,3.932,0,0,0,5.273,3.523h0l.17-.068,98.489-57.126A4.068,4.068,0,0,0,143,204.376V141.432A.989.989,0,0,0,142.876,140.955Z" transform="translate(-37 2.449)" fill="#fff" opacity="0.3"/>
        <path id="Trazado_206968" data-name="Trazado 206968" d="M130.736,155.55l.011,5.545L48.371,208.653l-.011-5.546.011,5.546,66.478-38.375-.023-5.546Z" transform="translate(-35.451 4.865)" fill="#f5f5f5"/>
        <path id="Trazado_206969" data-name="Trazado 206969" d="M121.567,184.02l.023,5.557L48.441,231.8l-.011-5.557Z" transform="translate(-35.441 8.748)" fill="#fff" opacity="0.4"/>
        <path id="Trazado_206970" data-name="Trazado 206970" d="M130.826,187.25l.011,5.557L48.461,240.364l-.011-5.557.011,5.557,45.807-26.443-.023-5.546Z" transform="translate(-35.438 9.188)" fill="#f5f5f5"/>
        <path id="Trazado_206971" data-name="Trazado 206971" d="M94.246,205.84l.023,5.546L48.461,237.829l-.011-5.557Z" transform="translate(-35.438 11.723)" fill="#084a93"/>
        <path id="Trazado_206972" data-name="Trazado 206972" d="M130.794,179.33l.023,5.557L48.441,232.444l-.011-5.557.011,5.557,73.148-42.228-.023-5.557Z" transform="translate(-35.441 8.108)" fill="#f5f5f5"/>
        <path id="Trazado_206973" data-name="Trazado 206973" d="M130.776,171.4l.023,5.546L48.423,224.5l-.023-5.546.023,5.546,52.114-30.091-.023-5.545Z" transform="translate(-35.445 7.027)" fill="#f5f5f5"/>
        <path id="Trazado_206974" data-name="Trazado 206974" d="M100.514,186.77l.023,5.545L48.423,222.407l-.023-5.545Z" transform="translate(-35.445 9.123)" fill="#084a93"/>
        <path id="Trazado_206975" data-name="Trazado 206975" d="M130.756,163.47l.011,5.546L48.4,216.584l-.023-5.557.023,5.557L79.1,198.857l-.023-5.546Z" transform="translate(-35.448 5.945)" fill="#f5f5f5"/>
        <path id="Trazado_206976" data-name="Trazado 206976" d="M79.073,189.73l.023,5.546L48.4,213l-.023-5.557Z" transform="translate(-35.448 9.526)" fill="#084a93"/>
        <path id="Trazado_206977" data-name="Trazado 206977" d="M114.826,163.63l.023,5.546L48.371,207.551l-.011-5.546Z" transform="translate(-35.451 5.967)" fill="#084a93"/>
        <path id="Trazado_206978" data-name="Trazado 206978" d="M121.567,184.02l.023,5.557L48.441,231.8l-.011-5.557Z" transform="translate(-35.441 8.748)" fill="#fff" opacity="0.4"/>
        <path id="Trazado_206979" data-name="Trazado 206979" d="M94.246,205.84l.023,5.546L48.461,237.829l-.011-5.557Z" transform="translate(-35.438 11.723)" fill="#fff" opacity="0.4"/>
        <path id="Trazado_206980" data-name="Trazado 206980" d="M100.514,186.77l.023,5.545L48.423,222.407l-.023-5.545Z" transform="translate(-35.445 9.123)" fill="#fff" opacity="0.4"/>
        <path id="Trazado_206981" data-name="Trazado 206981" d="M79.073,189.73l.023,5.546L48.4,213l-.023-5.557Z" transform="translate(-35.448 9.526)" fill="#fff" opacity="0.4"/>
        <g id="Grupo_148107" data-name="Grupo 148107" transform="translate(12.909 169.597)" opacity="0.4">
          <path id="Trazado_206982" data-name="Trazado 206982" d="M114.826,163.63l.023,5.546L48.371,207.551l-.011-5.546Z" transform="translate(-48.36 -163.63)" fill="#fff"/>
        </g>
        <path id="Trazado_206983" data-name="Trazado 206983" d="M182.751,183.37v3.761l-17.159,9.909-.011-3.761Z" transform="translate(-19.465 8.659)" fill="#e0e0e0"/>
        <path id="Trazado_206984" data-name="Trazado 206984" d="M188.675,174.23l.011,3.75-30.125,17.4-.011-3.761Z" transform="translate(-20.424 7.413)" fill="#e0e0e0"/>
        <path id="Trazado_206985" data-name="Trazado 206985" d="M175.288,168.13l.011,3.75-21.568,12.455-.011-3.761Z" transform="translate(-21.082 6.581)" fill="#e0e0e0"/>
        <path id="Trazado_206986" data-name="Trazado 206986" d="M173.723,176.32l.011,3.761-31.273,18.046-.011-3.75Z" transform="translate(-22.619 7.698)" fill="#e0e0e0"/>
        <path id="Trazado_206987" data-name="Trazado 206987" d="M143.768,264.89l.1,39.762-6.386,3.693-.114-39.762Z" transform="translate(-23.312 19.776)" fill="#455a64"/>
        <path id="Trazado_206988" data-name="Trazado 206988" d="M115.626,272.6l.136,49.455-6.386,3.682-.1-36.569-.034-12.886Z" transform="translate(-27.148 20.828)" fill="#084a93"/>
        <path id="Trazado_206989" data-name="Trazado 206989" d="M193.818,202.57l-3.261,8.421-1.148-1.6-52,64.648-21.012-1.8L86.76,308.423l-.92-1.364,30.568-37.33,20.989,1.8,51.057-63.466-1.2-1.693Z" transform="translate(-30.339 11.277)" fill="#455a64"/>
      </g>
      <g id="freepik--character-3--inject-11" transform="translate(354.994 148.44)">
        <path id="Trazado_206990" data-name="Trazado 206990" d="M395.561,331.721a3.1,3.1,0,0,0,5.875-.273,9.625,9.625,0,0,0,.534-3.557c.08-4,0-8.011-.284-12.011a40.729,40.729,0,0,1-8.386.875c.42,3.693.852,7.4,1.284,11.091a10.227,10.227,0,0,0,.977,3.875Z" transform="translate(-305.151 -107.324)" fill="#ffa8a7"/>
        <path id="Trazado_206991" data-name="Trazado 206991" d="M404.439,325.977c-1.034-3.341-2.17-6.75-1.932-10.227l-.693.159c.261,4,.364,8.011.284,12.011a9.627,9.627,0,0,1-.534,3.557,3.1,3.1,0,0,1-5.875.273,10.228,10.228,0,0,1-.977-3.875c-.432-3.693-.864-7.4-1.284-11.091h-.886c.75,4.148.2,8.4,0,12.614s-.216,8.591,1.591,12.4a5.58,5.58,0,0,0,2.057,2.534,4.239,4.239,0,0,0,3.329.307,7.443,7.443,0,0,0,2.886-1.8,11.875,11.875,0,0,0,3.511-6.591C406.428,332.818,405.462,329.307,404.439,325.977Z" transform="translate(-305.267 -107.342)" fill="#455a64"/>
        <path id="Trazado_206992" data-name="Trazado 206992" d="M364.53,322.806l.693,4.125a10.227,10.227,0,0,0,4.33-3.318c.079-3.171,0-6.432,0-8.023-.875,1.932-2.784,3.227-3.966,5.011a9.444,9.444,0,0,0-1.057,2.2Z" transform="translate(-309.074 -107.363)" fill="#37474f"/>
        <path id="Trazado_206993" data-name="Trazado 206993" d="M363.6,325.622l1.75.443-.693-4.125C364.225,323.145,363.941,324.383,363.6,325.622Z" transform="translate(-309.201 -106.497)" fill="#263238"/>
        <path id="Trazado_206994" data-name="Trazado 206994" d="M372.306,311.938a16.787,16.787,0,0,0-1.364-3.148,9,9,0,0,1-1.511,4.761c-1.136,1.9-2.761,3.534-3.886,5.466-1.386,2.352-2.1,5.114-3.909,7.148a8.534,8.534,0,0,1-7.148,2.784,3.784,3.784,0,0,1-2.614-1.136,2.159,2.159,0,0,1-.432-1.25,19.223,19.223,0,0,1-2.943,2.58c-1.193.83-2.625,1.7-2.818,3.148a3.08,3.08,0,0,0,1.716,2.932,8.251,8.251,0,0,0,3.489.784,22.341,22.341,0,0,0,7.671-.659,10.694,10.694,0,0,0,6.125-4.443,13.774,13.774,0,0,0,1.364-3.409c.341-1.239.625-2.5,1.057-3.682a9.443,9.443,0,0,1,1.136-2.2c1.136-1.784,3.091-3.08,3.966-5.011,0-.1.1-.2.136-.307A6.818,6.818,0,0,0,372.306,311.938Z" transform="translate(-311.645 -108.291)" fill="#455a64"/>
        <path id="Trazado_206995" data-name="Trazado 206995" d="M353.8,329.046a8.534,8.534,0,0,0,7.148-2.784c1.807-2.034,2.523-4.8,3.909-7.148,1.136-1.932,2.7-3.568,3.886-5.466a9,9,0,0,0,1.511-4.761l-.42-.807c-3.568.636-7.466.864-10.9,2.023a70.457,70.457,0,0,1-4.023,10.5,25.991,25.991,0,0,1-4.159,6.023,2.159,2.159,0,0,0,.432,1.25,3.784,3.784,0,0,0,2.614,1.171Z" transform="translate(-310.953 -108.387)" fill="#ffa8a7"/>
        <path id="Trazado_206996" data-name="Trazado 206996" d="M362.679,195.79l-.58,9.091c-6.818,28.114-4.8,70.126-4.8,70.126l.216,51.216a8.682,8.682,0,0,0,12.136-2.625c1.136-12.591,7.011-32.387,5.261-47.853,2.341-12.182,4.1-29.546,4.1-29.546l5.739,29.978L396.7,334.041c5.273,2.273,9.955.7,11.477-1.352-1.227-31.909-.7-47.25-5.625-62.012,1.523-39.591,1.989-57.478-7.659-71.08l.125-5.136Z" transform="translate(-310.098 -123.882)" fill="#37474f"/>
        <path id="Trazado_206997" data-name="Trazado 206997" d="M376.364,234.635a22.341,22.341,0,0,1-9.784-4.375,9.83,9.83,0,0,0,7.159,6.386l3.011,12.5.909-7.727Z" transform="translate(-308.794 -119)" opacity="0.2"/>
        <path id="Trazado_206998" data-name="Trazado 206998" d="M377.651,168.311l-4.773-.091a11.046,11.046,0,0,0-10.046,6.466l-8.852,19.421c-8.046,2.273-13.636,6.557-21,7.1-1.432,0-6.477-2.511-8.455-3.523a.716.716,0,0,0-1.034.466h0a1.83,1.83,0,0,0,.67,1.932l2.352,1.773c-4.739,1-8.455-1.739-10.091.386s-.489,5.477,4.614,7.239,11.614.852,18.057-.614,20.784-5.682,20.784-5.682C372.333,191.072,377.651,168.311,377.651,168.311Z" transform="translate(-315.729 -127.461)" fill="#ffa8a7"/>
        <path id="Trazado_206999" data-name="Trazado 206999" d="M374.6,168.338c-9.989-1.545-13.739,2.92-15.4,6.432s-8.511,18.852-8.511,18.852a66.9,66.9,0,0,0-12.625,5.591c3.6,4.148,2.648,7.625,1.864,8.739a112.855,112.855,0,0,0,15.909-3.057,7.261,7.261,0,0,0,3.409-2.159C371.991,188.156,374.786,169.611,374.6,168.338Z" transform="translate(-312.683 -127.488)" fill="#455a64"/>
        <path id="Trazado_207000" data-name="Trazado 207000" d="M374.6,168.338c-9.989-1.545-13.739,2.92-15.4,6.432s-8.511,18.852-8.511,18.852a66.9,66.9,0,0,0-12.625,5.591c3.6,4.148,2.648,7.625,1.864,8.739a112.855,112.855,0,0,0,15.909-3.057,7.261,7.261,0,0,0,3.409-2.159C371.991,188.156,374.786,169.611,374.6,168.338Z" transform="translate(-312.683 -127.488)" fill="#fff" opacity="0.2"/>
        <path id="Trazado_207001" data-name="Trazado 207001" d="M374.434,167.94l-3.409.25a4.421,4.421,0,0,0-3.33,1.932l-7.955,11.83a9.591,9.591,0,0,0,.636,11.58h0a5.58,5.58,0,0,1,1.284,4.341l-4.091,31.273c15.7,11.659,39.773,6.9,46.875,3.091a51.785,51.785,0,0,0-6.977-25.2,14.432,14.432,0,0,1-1.375-11.046l2.273-8.125-6.818-19.318Z" transform="translate(-310.023 -127.499)" fill="#455a64"/>
        <path id="Trazado_207002" data-name="Trazado 207002" d="M374.434,167.94l-3.409.25a4.421,4.421,0,0,0-3.33,1.932l-7.955,11.83a9.591,9.591,0,0,0,.636,11.58h0a5.58,5.58,0,0,1,1.284,4.341l-4.091,31.273c15.7,11.659,39.773,6.9,46.875,3.091a51.785,51.785,0,0,0-6.977-25.2,14.432,14.432,0,0,1-1.375-11.046l2.273-8.125-6.818-19.318Z" transform="translate(-310.023 -127.499)" fill="#fff" opacity="0.3"/>
        <path id="Trazado_207003" data-name="Trazado 207003" d="M363.806,154.009a11.136,11.136,0,0,1-1.341-13.966,3.761,3.761,0,0,1,.682-7.193,10.59,10.59,0,0,1,4.045.58,19.592,19.592,0,0,0,6.955,0c2.273-.33,4.6-.83,6.932-1a14.08,14.08,0,0,1,6.818.977,7.659,7.659,0,0,1,4.432,5.091c1.8-.489,3.932.67,5.08,2.125a8.83,8.83,0,0,1,1.67,5.216c.08,1.852-.182,3.7-.273,5.557a12.751,12.751,0,0,0,.693,5.477c.841,2.011,2.5,3.648,3.034,5.75a5.784,5.784,0,0,1-7.08,7,15.577,15.577,0,0,0,.546-4.545c-.182,2.034-2.273,3.636-4.148,4.318a16.1,16.1,0,0,1-6.091.534l-7.2-.284-8.341-.307a11.432,11.432,0,0,1-4.386-.75,7.511,7.511,0,0,1-3.921-6.455,19.591,19.591,0,0,1,1.9-8.125Z" transform="translate(-309.68 -132.352)" fill="#263238"/>
        <path id="Trazado_207004" data-name="Trazado 207004" d="M372.41,162.326v14.932l12.023-9.046V157.19Z" transform="translate(-307.999 -128.965)" fill="#ffa8a7"/>
        <path id="Trazado_207005" data-name="Trazado 207005" d="M384.443,157.19c-1.852,5.489-8.568,9.659-12.023,10.489v-5.352Z" transform="translate(-307.998 -128.965)" fill="#f28f8f"/>
        <path id="Trazado_207006" data-name="Trazado 207006" d="M384.269,151.227a11.713,11.713,0,0,0-.125,2.886,3.409,3.409,0,0,0,.955,1.932,2.148,2.148,0,0,0,1.943.568,3.761,3.761,0,1,1,7.308-1.784,4.727,4.727,0,0,1-.785,3.921,8.943,8.943,0,0,1-3.148,2.625,3.182,3.182,0,0,1-3.8-1.5c-3.67,4.648-10.057,8.136-16.034,7.636a8.6,8.6,0,0,1-4.546-1.614c-2.273-1.75-2.432-4.386-2.716-7a36.966,36.966,0,0,1,.08-9.955A19.6,19.6,0,0,1,369.678,137C371.735,146.864,380.8,150.5,384.269,151.227Z" transform="translate(-309.279 -131.718)" fill="#ffa8a7"/>
        <path id="Trazado_207007" data-name="Trazado 207007" d="M371.252,148.53l-4.1,5.046,3.818,1.318Z" transform="translate(-308.717 -130.146)" fill="#f28f8f"/>
        <path id="Trazado_207008" data-name="Trazado 207008" d="M373.962,156.29,370.78,157.3a1.966,1.966,0,0,0,2.159.977,1.761,1.761,0,0,0,1.023-1.989Z" transform="translate(-308.222 -129.088)" fill="#f28f8f"/>
        <path id="Trazado_207009" data-name="Trazado 207009" d="M373.962,156.29,370.78,157.3a1.966,1.966,0,0,0,2.159.977,1.761,1.761,0,0,0,1.023-1.989Z" transform="translate(-308.222 -129.088)" opacity="0.3"/>
        <path id="Trazado_207010" data-name="Trazado 207010" d="M371.76,158.177a1.841,1.841,0,0,0,1.046,0,1.614,1.614,0,0,0,1.023-1.455,1.83,1.83,0,0,0-2.068,1.4Z" transform="translate(-308.088 -129.032)" fill="#f28f8f"/>
        <path id="Trazado_207011" data-name="Trazado 207011" d="M375.987,149.587a1.111,1.111,0,1,1-1.034-1.136,1.136,1.136,0,0,1,1.034,1.136Z" transform="translate(-307.815 -130.157)" fill="#263238"/>
        <path id="Trazado_207012" data-name="Trazado 207012" d="M367.613,148.887a1.137,1.137,0,1,1-1.08-1.136A1.136,1.136,0,0,1,367.613,148.887Z" transform="translate(-308.964 -130.252)" fill="#263238"/>
        <path id="Trazado_207013" data-name="Trazado 207013" d="M366.87,144.773l-2.6,1.625a1.636,1.636,0,0,1,.58-1.761,1.92,1.92,0,0,1,2.023.136Z" transform="translate(-309.119 -130.707)" fill="#263238"/>
        <path id="Trazado_207014" data-name="Trazado 207014" d="M375.12,145.031l2.443,1.864a1.625,1.625,0,0,0-.42-1.807A1.932,1.932,0,0,0,375.12,145.031Z" transform="translate(-307.63 -130.658)" fill="#263238"/>
        <path id="Trazado_207015" data-name="Trazado 207015" d="M373,166.89a28.57,28.57,0,0,0-4.807,7.08,1.9,1.9,0,0,0,2.2,2.58l2.6-.614Z" transform="translate(-308.594 -127.642)" fill="#e0e0e0"/>
        <path id="Trazado_207016" data-name="Trazado 207016" d="M372.41,175.941l12.023-9.091c.2,5.682-2.557,10.7-4.273,13.261a1.9,1.9,0,0,1-2.886.33Z" transform="translate(-307.999 -127.647)" fill="#e0e0e0"/>
        <path id="Trazado_207017" data-name="Trazado 207017" d="M387.675,168.45c-1.136,10.761,2.648,16.046,12.5,34.739,0,0-2.273,13.761-6.33,21.512-4.023,1.636-6.046,4.421-8.364,5.614a.761.761,0,0,0-.318,1.057c.943,1.5,3.409.352,5.682-.955-2.886,4.682-3.7,5.455-5.159,6.909s-.455,3.83,3.511,3.83,6.193-3.091,6.921-4.148S401.8,226.03,401.8,226.03l8.955-18a9.682,9.682,0,0,0,.239-8.091l-10.227-24.091a12.182,12.182,0,0,0-11.193-7.4Z" transform="translate(-306.275 -127.429)" fill="#ffa8a7"/>
        <path id="Trazado_207018" data-name="Trazado 207018" d="M387.43,168.455c-3.58,12.171,10.352,31.591,12.1,34.7-1.136,2.625-2.727,13.3-2.727,13.3,5.682.693,7.7,3.648,7.7,3.648l5.9-10.455a12.227,12.227,0,0,0,.568-10.864c-2.829-6.557-7.443-17.25-9.773-22.727C397.692,167.773,390.5,168.375,387.43,168.455Z" transform="translate(-306.031 -127.434)" fill="#455a64"/>
        <path id="Trazado_207019" data-name="Trazado 207019" d="M387.43,168.455c-3.58,12.171,10.352,31.591,12.1,34.7-1.136,2.625-2.727,13.3-2.727,13.3,5.682.693,7.7,3.648,7.7,3.648l5.9-10.455a12.227,12.227,0,0,0,.568-10.864c-2.829-6.557-7.443-17.25-9.773-22.727C397.692,167.773,390.5,168.375,387.43,168.455Z" transform="translate(-306.031 -127.434)" fill="#fff" opacity="0.2"/>
      </g>
      <g id="freepik--character-2--inject-11" transform="translate(297.54 241.709)">
        <path id="Trazado_207020" data-name="Trazado 207020" d="M322.054,235.25l-3.034,5.682,2.693,1.83C321.872,240.318,321.9,237.671,322.054,235.25Z" transform="translate(-257.826 -211.589)" fill="#bf706f"/>
        <path id="Trazado_207021" data-name="Trazado 207021" d="M344,254.868c6.318-5.046,11.546,4.421,15.375,14.977,2.273,6.409,4.7,12.659,6.216,16.591a7.955,7.955,0,0,1-1.068,7.659l-11.261,14.966L348.239,298.2l6.227-9.455-6.341-11.6Z" transform="translate(-254.42 -209.104)" fill="#084a93"/>
        <path id="Trazado_207022" data-name="Trazado 207022" d="M294.193,300.509a32.716,32.716,0,0,1-10.784,3.148,20.022,20.022,0,0,1-10.966-1.9,14.773,14.773,0,0,1-7.273-8.409h0a3.409,3.409,0,0,1,4.3-.636,14.33,14.33,0,0,0,10.8,1.284,24.6,24.6,0,0,1-3.046-3.807,2.185,2.185,0,0,1-.4-2.273,1.534,1.534,0,0,1,1.727-.466,5.158,5.158,0,0,1,1.6,1.034,21.807,21.807,0,0,0,9.432,4.421C291.011,295.3,292.784,298.122,294.193,300.509Z" transform="translate(-265.17 -204.484)" fill="#d18786"/>
        <path id="Trazado_207023" data-name="Trazado 207023" d="M307.99,429.439a4.545,4.545,0,0,0,3.3.92,38.511,38.511,0,0,0,10.421-1.455,21.419,21.419,0,0,0,5.489-2.273,14.841,14.841,0,0,0,4.83-4.932,39.873,39.873,0,0,1-.784-6.671h-8.761v4.7a44.852,44.852,0,0,1-14.387,6.284,2.273,2.273,0,0,0,0,3.409Z" transform="translate(-259.422 -187.072)" fill="#d18786"/>
        <path id="Trazado_207024" data-name="Trazado 207024" d="M333.449,423.732c-.261-.943-.489-1.9-.682-2.852a14.841,14.841,0,0,1-4.83,4.932,21.422,21.422,0,0,1-5.489,2.273,38.514,38.514,0,0,1-10.421,1.455,4.546,4.546,0,0,1-3.3-.92,2.273,2.273,0,0,1,0-3.409l-1.136.284a11.671,11.671,0,0,0-3.977,1.284,3.409,3.409,0,0,0-1.693,3.546,4.4,4.4,0,0,0,2.727,2.5,20.114,20.114,0,0,0,14.239.75c2.875-.943,5.682-2.557,8.682-2.466,1.727,0,3.625.614,5.08-.33a3.875,3.875,0,0,0,1.534-3.318,14.205,14.205,0,0,0-.739-3.727Z" transform="translate(-260.164 -186.274)" fill="#084a93"/>
        <path id="Trazado_207025" data-name="Trazado 207025" d="M339.578,398.577a3.3,3.3,0,0,0-2.9,2.739c-.091,1.375.977,2.523,1.966,3.489l3.784,3.693a8.853,8.853,0,0,0,3.614,2.489,5,5,0,0,0,4.239-.909,6,6,0,0,0,1.682-2.045c-.125-.852-.227-1.716-.386-2.568a6.716,6.716,0,0,0-1.136-3.057c-1.2-1.5-3.159-1.7-4.932-1.875a6.387,6.387,0,0,1-3.409-1.807,6.82,6.82,0,0,0-2.523-.148Z" transform="translate(-255.419 -189.323)" fill="#d18786"/>
        <path id="Trazado_207026" data-name="Trazado 207026" d="M352.488,408.323a6,6,0,0,1-1.682,2.046,5,5,0,0,1-4.239.909,8.852,8.852,0,0,1-3.614-2.489L339.17,405.1c-.989-.966-2.057-2.114-1.966-3.489a3.3,3.3,0,0,1,2.9-2.739,6.82,6.82,0,0,1,2.546.148l-.386-.273A17.548,17.548,0,0,0,339.17,397a5.557,5.557,0,0,0-3.75-.489,4.023,4.023,0,0,0-2.58,3.716,7.08,7.08,0,0,0,1.625,4.443,31.157,31.157,0,0,0,3.409,3.409,41.925,41.925,0,0,1,4.239,4.909,26.132,26.132,0,0,0,3.057,3.727,6.25,6.25,0,0,0,4.341,1.841,3.682,3.682,0,0,0,3.227-2.057,5.886,5.886,0,0,0,.284-2.523,56.217,56.217,0,0,0-.534-5.659Z" transform="translate(-255.942 -189.615)" fill="#084a93"/>
        <path id="Trazado_207027" data-name="Trazado 207027" d="M315.786,309.368c-2.659,33.58-.67,68.557-.67,68.557s4.648,37.5,5.318,53.3c3.784,3.739,11.057,0,11.057,0,2.08-27.432,7.568-37.989,1.58-55.069l4.284-39.341,1.7,31.58,6.477,49.239c3.943,2.852,9.034,0,9.034,0,2.1-24.137,7.034-35.1,0-54.728,8.421-39.069,5.682-53.91,4.545-57.853Z" transform="translate(-258.456 -202.07)" fill="#084a93"/>
        <path id="Trazado_207028" data-name="Trazado 207028" d="M315.786,309.368c-2.659,33.58-.67,68.557-.67,68.557s4.648,37.5,5.318,53.3c3.784,3.739,11.057,0,11.057,0,2.08-27.432,7.568-37.989,1.58-55.069l4.284-39.341,1.7,31.58,6.477,49.239c3.943,2.852,9.034,0,9.034,0,2.1-24.137,7.034-35.1,0-54.728,8.421-39.069,5.682-53.91,4.545-57.853Z" transform="translate(-258.456 -202.07)" opacity="0.4"/>
        <path id="Trazado_207029" data-name="Trazado 207029" d="M315.786,309.368c-2.659,33.58-.67,68.557-.67,68.557s4.648,37.5,5.318,53.3c3.784,3.739,11.057,0,11.057,0,2.08-27.432,7.568-37.989,1.58-55.069l4.284-39.341,1.7,31.58,6.477,49.239c3.943,2.852,9.034,0,9.034,0,2.1-24.137,7.034-35.1,0-54.728,8.421-39.069,5.682-53.91,4.545-57.853Z" transform="translate(-258.456 -202.07)" fill="#fff" opacity="0.1"/>
        <path id="Trazado_207030" data-name="Trazado 207030" d="M344,254.868c6.318-5.046,11.546,4.421,15.375,14.977,2.273,6.409,4.7,12.659,6.216,16.591a7.955,7.955,0,0,1-1.068,7.659l-11.261,14.966L348.239,298.2l6.227-9.455-6.341-11.6Z" transform="translate(-254.42 -209.104)" fill="#fff" opacity="0.2"/>
        <path id="Trazado_207031" data-name="Trazado 207031" d="M327.041,257.888c5.682-1.75,22.1-5.341,26.273-1.58,3.636,3.284,6,14.6,1.136,29.137a17.171,17.171,0,0,0,.58,12.682A75.619,75.619,0,0,1,360,312.411c-13.216,13.466-36.489,11.364-45.3,5.682a214.532,214.532,0,0,1,2.773-32.159Z" transform="translate(-258.415 -208.943)" fill="#084a93"/>
        <path id="Trazado_207032" data-name="Trazado 207032" d="M327.041,257.888c5.682-1.75,22.1-5.341,26.273-1.58,3.636,3.284,6,14.6,1.136,29.137a17.171,17.171,0,0,0,.58,12.682A75.619,75.619,0,0,1,360,312.411c-13.216,13.466-36.489,11.364-45.3,5.682a214.532,214.532,0,0,1,2.773-32.159Z" transform="translate(-258.415 -208.943)" fill="#fff" opacity="0.4"/>
        <path id="Trazado_207033" data-name="Trazado 207033" d="M327.041,257.888c5.682-1.75,22.1-5.341,26.273-1.58,3.636,3.284,6,14.6,1.136,29.137a17.171,17.171,0,0,0,.58,12.682A75.619,75.619,0,0,1,360,312.411c-13.216,13.466-36.489,11.364-45.3,5.682a214.532,214.532,0,0,1,2.773-32.159Z" transform="translate(-258.415 -208.943)" fill="#fff" opacity="0.1"/>
        <path id="Trazado_207034" data-name="Trazado 207034" d="M322.651,233.624A9.466,9.466,0,0,1,318,224.737a11.455,11.455,0,0,1,5.773-8.693,13.432,13.432,0,0,1,10.511-.966c3.045.955,5.75,2.9,8.875,3.523,2.716.545,5.682.08,8.2,1.136,3.216,1.318,5.091,4.739,5.909,8.125a22.807,22.807,0,0,1-1.2,14.33,30.182,30.182,0,0,1-11.193,12.239c-4.33,5.17-12.034,1.8-15.3-2.591S322.651,233.624,322.651,233.624Z" transform="translate(-257.969 -214.429)" fill="#7a4140"/>
        <path id="Trazado_207035" data-name="Trazado 207035" d="M324.264,228a21.693,21.693,0,0,0-3.409,9.784,65.363,65.363,0,0,0-.148,10.443,6.693,6.693,0,0,0,.955,3.864,5.33,5.33,0,0,0,4.3,1.693c1.591,0,3.045,0,4.773-.057l.352,7.216c5.682,3.159,12.091.955,13.75-1.3l-.284-7.068c-8.852,1.67-13.636-1.364-14.466-6.818a6.216,6.216,0,0,0,5.114-1.33,5.909,5.909,0,0,0,1.682-4.852,3.9,3.9,0,0,0-.92-2.148,3.409,3.409,0,0,0-3.625-.75,5.489,5.489,0,0,0-2.852,2.534,14.057,14.057,0,0,0-1.33,3.67,3.318,3.318,0,0,1-1.068-3.591c.239-.648.716-1.273.614-1.966s-.909-1.25-1.273-1.943a2.636,2.636,0,0,1-.136-1.955,8.123,8.123,0,0,1,.852-1.8A17.521,17.521,0,0,0,324.264,228Z" transform="translate(-257.616 -212.578)" fill="#d18786"/>
        <path id="Trazado_207036" data-name="Trazado 207036" d="M354.809,250.132a31.819,31.819,0,0,1-7.068-11.466,20.909,20.909,0,0,1-.159-13.33,13.545,13.545,0,0,1,4.25-6.25A9.091,9.091,0,0,1,359,217.143c3.989.727,6.818,4.546,7.568,8.568s-.3,8.08-1.591,11.921c-1.614,4.8-5.318,10.7-4.682,17.477a35.1,35.1,0,0,1-5.489-4.977Z" transform="translate(-254.069 -214.074)" fill="#995e5d"/>
        <path id="Trazado_207037" data-name="Trazado 207037" d="M330.965,257.636c-10.409-4.545-11.614,5.375-17.33,15.909-3.5,6.818-7.818,13.33-7.818,13.33a79.1,79.1,0,0,1-19.318,8.864c-2.273,5.977,2.989,11.852,2.989,11.852l22.352-9.75A20.284,20.284,0,0,0,321,289.886C329.09,276.863,334.987,267.613,330.965,257.636Z" transform="translate(-262.339 -208.691)" fill="#084a93"/>
        <path id="Trazado_207038" data-name="Trazado 207038" d="M330.965,257.636c-10.409-4.545-11.614,5.375-17.33,15.909-3.5,6.818-7.818,13.33-7.818,13.33a79.1,79.1,0,0,1-19.318,8.864c-2.273,5.977,2.989,11.852,2.989,11.852l22.352-9.75A20.284,20.284,0,0,0,321,289.886C329.09,276.863,334.987,267.613,330.965,257.636Z" transform="translate(-262.339 -208.691)" fill="#fff" opacity="0.2"/>
        <path id="Trazado_207039" data-name="Trazado 207039" d="M349.055,318.54a20.125,20.125,0,0,1-13.2,4.932l-1.25,11.5,1.136,21.091,2.273-30.5a15.659,15.659,0,0,0,11.046-7.023Z" transform="translate(-255.702 -200.231)" opacity="0.3"/>
      </g>
      <g id="freepik--character-1--inject-11" transform="translate(163.109 234.693)">
        <path id="Trazado_207040" data-name="Trazado 207040" d="M166.211,282.676l-2.682,5.682,6.409,7.057-.466,16.852L148.8,294.313a5.6,5.6,0,0,1-1.375-6.659l6.307-13.114Z" transform="translate(-146.872 -199.215)" fill="#995e5d"/>
        <path id="Trazado_207041" data-name="Trazado 207041" d="M158.28,291.726a12.965,12.965,0,0,0,3.693-5.045l1.6,1.761A8.261,8.261,0,0,1,158.28,291.726Z" transform="translate(-145.316 -197.559)" fill="#7a4140"/>
        <path id="Trazado_207042" data-name="Trazado 207042" d="M166,287.415c-8.2-.716-13.807-9.227-13.807-9.227,7.352-15.046,13.761-31.818,26.591-27.784Z" transform="translate(-146.147 -202.589)" fill="#084a93"/>
        <path id="Trazado_207043" data-name="Trazado 207043" d="M166,287.415c-8.2-.716-13.807-9.227-13.807-9.227,7.352-15.046,13.761-31.818,26.591-27.784Z" transform="translate(-146.147 -202.589)" opacity="0.4"/>
        <path id="Trazado_207044" data-name="Trazado 207044" d="M192.58,438.986c.773,2.443,3.409,3.841,6.011,4.045s5.068-.523,7.591-.977c5.682-1.023,11.091,0,16.716-.136a24.046,24.046,0,0,0,5.489-.6,8.977,8.977,0,0,0,4.7-2.773,6.046,6.046,0,0,0,1.352-2.943,5.853,5.853,0,0,1-1.352,4.546,9.092,9.092,0,0,1-4.7,2.761,23.423,23.423,0,0,1-5.489.6c-5.625.136-11.068-.886-16.716.136-2.523.466-5.046,1.136-7.591.977s-5.239-1.6-6.011-4.045a6.466,6.466,0,0,1-.193-2.6A4.443,4.443,0,0,0,192.58,438.986Z" transform="translate(-140.673 -177.25)" fill="#263238"/>
        <path id="Trazado_207045" data-name="Trazado 207045" d="M192.724,435.632c.341-1.7.693-3.409,1.034-5.125a7.42,7.42,0,0,1,.875-2.6,2.545,2.545,0,0,1,2.273-1.307c3.091-.409,7.443-1.534,10.011.239a23.1,23.1,0,0,0,13.818,4.011c2.557-.1,5.114-.625,7.648-.307s5.17,1.716,5.932,4.159a4.932,4.932,0,0,1,.125,2.273,6.046,6.046,0,0,1-1.352,2.943,8.977,8.977,0,0,1-4.7,2.773,24.044,24.044,0,0,1-5.489.6c-5.625.125-11.068-.886-16.716.136-2.523.455-5.045,1.136-7.591.977s-5.239-1.6-6.011-4.046a4.442,4.442,0,0,1-.193-.955A11.9,11.9,0,0,1,192.724,435.632Z" transform="translate(-140.67 -178.578)" fill="#455a64"/>
        <path id="Trazado_207046" data-name="Trazado 207046" d="M207.346,422l.216,6.682a2.636,2.636,0,0,1-2.455,2.727,40.2,40.2,0,0,1-6.727-.068,3.8,3.8,0,0,1-3.409-3.568l-.261-4.932Z" transform="translate(-140.348 -179.105)" fill="#ffa8a7"/>
        <path id="Trazado_207047" data-name="Trazado 207047" d="M207.346,422l.216,6.682a2.636,2.636,0,0,1-2.455,2.727,40.2,40.2,0,0,1-6.727-.068,3.8,3.8,0,0,1-3.409-3.568l-.261-4.932Z" transform="translate(-140.348 -179.105)" opacity="0.4"/>
        <path id="Trazado_207048" data-name="Trazado 207048" d="M167.455,420.872a5.091,5.091,0,0,0,.9,2.761,4.989,4.989,0,0,0,3.148,1.773,7.955,7.955,0,0,0,7.818-3.216c.841-1.216,1.318-2.648,2.114-3.9a17.772,17.772,0,0,1,4.386-4.261,18.241,18.241,0,0,0,4.42-4.239,6.227,6.227,0,0,0,.852-5.682,4.88,4.88,0,0,1,.409.716,6.4,6.4,0,0,1-.8,6.011,18.716,18.716,0,0,1-4.546,4.364,18.046,18.046,0,0,0-4.466,4.4c-.818,1.284-1.307,2.761-2.159,4.011a8.08,8.08,0,0,1-7.955,3.318,5.069,5.069,0,0,1-3.216-1.83,6.182,6.182,0,0,1-.932-3.83C167.433,421.156,167.444,421.031,167.455,420.872Z" transform="translate(-144.071 -181.545)" fill="#263238"/>
        <path id="Trazado_207049" data-name="Trazado 207049" d="M169.474,412.878c2.034-3.568,6.216-6.159,9.455-8.671a12.113,12.113,0,0,1,6.261-2.852,5.875,5.875,0,0,1,5.83,2.989,1.136,1.136,0,0,0,.068.182,6.227,6.227,0,0,1-.852,5.682,18.24,18.24,0,0,1-4.42,4.239,17.772,17.772,0,0,0-4.386,4.262c-.8,1.25-1.273,2.682-2.114,3.9a7.955,7.955,0,0,1-7.818,3.216,4.989,4.989,0,0,1-3.148-1.773,5.091,5.091,0,0,1-.9-2.761,8.924,8.924,0,0,1,0-.955A15.7,15.7,0,0,1,169.474,412.878Z" transform="translate(-144.068 -181.926)" fill="#455a64"/>
        <path id="Trazado_207050" data-name="Trazado 207050" d="M178.2,408.77v6.068a10.159,10.159,0,0,1-9.443-.421l-.568-5.454Z" transform="translate(-143.965 -180.909)" fill="#ffa8a7"/>
        <path id="Trazado_207051" data-name="Trazado 207051" d="M178.2,408.77v6.068a10.159,10.159,0,0,1-9.443-.421l-.568-5.454Z" transform="translate(-143.965 -180.909)" opacity="0.4"/>
        <path id="Trazado_207052" data-name="Trazado 207052" d="M166.929,311.85c-1.818,5.455-1.25,34.091-.193,58.989-1.739,12.114-1.682,38.353.6,57.33,0,0,6.33,3.489,15.137.3l5.364-57.58,1.239-29.6s2.273,26.262,4.83,43.1c-.932,12.364,1.136,36.012,2.932,61.228,0,0,9.739,5.682,19.409-.545,3.409-55.75-2.114-112.206-3.227-130.49Z" transform="translate(-144.329 -194.127)" fill="#37474f"/>
        <path id="Trazado_207053" data-name="Trazado 207053" d="M187.441,357.6l1.011-24.137c-6.239,0-12.023-4.659-16.432-9.091,4.227,7.534,12.477,10.943,12.477,10.943Z" transform="translate(-143.443 -192.419)" opacity="0.3"/>
        <path id="Trazado_207054" data-name="Trazado 207054" d="M214.3,277.223v47.262c-27.83,11.659-45.864,1.136-48.307-4.352,1.273-19.239-3.273-41.75-2.921-51.307s1.523-20.341,16.352-18.182l15.761,1.534,7.955,1.943Z" transform="translate(-144.666 -202.512)" fill="#084a93"/>
        <path id="Trazado_207055" data-name="Trazado 207055" d="M214.3,277.223v47.262c-27.83,11.659-45.864,1.136-48.307-4.352,1.273-19.239-3.273-41.75-2.921-51.307s1.523-20.341,16.352-18.182l15.761,1.534,7.955,1.943Z" transform="translate(-144.666 -202.512)" opacity="0.3"/>
        <path id="Trazado_207056" data-name="Trazado 207056" d="M222.426,275.593l5.318,5.523,12.693-16.875a49.228,49.228,0,0,1-3.114-13.989,1.511,1.511,0,0,1,1.511-1.58h0a1.489,1.489,0,0,1,1.352.864l2.364,4.955h0a2.341,2.341,0,0,0,1.466-1.443l.466-1.307a8.239,8.239,0,0,0,.466-2.727v-3.261a2.625,2.625,0,0,1,3.886-2.273,12.75,12.75,0,0,1,3.852,3.182,6.932,6.932,0,0,1,1.568,4.409v4.409a9.773,9.773,0,0,1-.58,3.33l-2.273,6.318a9.68,9.68,0,0,1-.8,1.659L234.188,294.32a7.818,7.818,0,0,1-11.932,1.841l-10.466-9.3Z" transform="translate(-138.019 -203.495)" fill="#995e5d"/>
        <path id="Trazado_207057" data-name="Trazado 207057" d="M229.08,283.581a15.989,15.989,0,0,0-3.25-6.818l1.466-1.943C228.4,276.9,229.955,280.877,229.08,283.581Z" transform="translate(-136.104 -199.177)" fill="#995e5d"/>
        <path id="Trazado_207058" data-name="Trazado 207058" d="M229.08,283.581a15.989,15.989,0,0,0-3.25-6.818l1.466-1.943C228.4,276.9,229.955,280.877,229.08,283.581Z" transform="translate(-136.104 -199.177)" fill="#7a4140"/>
        <path id="Trazado_207059" data-name="Trazado 207059" d="M225.894,274.2,210.94,259.5a20.989,20.989,0,0,0-12.284-5.886h-.261c-6.33,13.864,2.034,20.625,2.034,20.625l13.9,12.773A25.1,25.1,0,0,0,225.894,274.2Z" transform="translate(-140.169 -202.069)" fill="#084a93"/>
        <path id="Trazado_207060" data-name="Trazado 207060" d="M225.894,274.2,210.94,259.5a20.989,20.989,0,0,0-12.284-5.886h-.261c-6.33,13.864,2.034,20.625,2.034,20.625l13.9,12.773A25.1,25.1,0,0,0,225.894,274.2Z" transform="translate(-140.169 -202.069)" opacity="0.4"/>
        <path id="Trazado_207061" data-name="Trazado 207061" d="M201.922,225.4a2.273,2.273,0,0,0,.318-2.466,2.83,2.83,0,0,0,2.352-.33,2.136,2.136,0,0,0,1.023-2A1.807,1.807,0,0,0,204.1,219a2.977,2.977,0,0,0,1.8-1.227,2.943,2.943,0,0,0,.568-2.091,3.818,3.818,0,0,0-2.636-2.932,9.3,9.3,0,0,0-4.114-.227,3.284,3.284,0,0,0-1.727-3.886,4.023,4.023,0,0,0-3.773.614,11.8,11.8,0,0,0-2.67,2.943,11.75,11.75,0,0,0-16.716,6.523,8.068,8.068,0,0,0-5.227,5.443,12.773,12.773,0,0,0,.5,7.648,35.046,35.046,0,0,0,3.568,6.886l1.977,3.125c.83,1.307,2.943,4.546,3.761,5.864a12.273,12.273,0,0,0,11.659-.727,19.83,19.83,0,0,0,7.489-9.284,63.4,63.4,0,0,0,3.364-12.273Z" transform="translate(-143.822 -208.233)" fill="#263238"/>
        <path id="Trazado_207062" data-name="Trazado 207062" d="M184.4,249.034a11.182,11.182,0,0,1-5.1-1.136h0l-1.852-2.886c-.739-1.136-1.489-2.273-1.909-2.977l-.1-.148-1.9-3.08a34.879,34.879,0,0,1-3.591-6.921,13.046,13.046,0,0,1-.455-7.75,8.2,8.2,0,0,1,5.261-5.546,12.5,12.5,0,0,1,6.932-7.17,12.216,12.216,0,0,1,9.864.568,11.568,11.568,0,0,1,2.625-2.864,4.2,4.2,0,0,1,3.943-.636,3.523,3.523,0,0,1,1.909,3.852,9.091,9.091,0,0,1,3.92.261,3.955,3.955,0,0,1,2.75,3.08,3.034,3.034,0,0,1-.6,2.273,3.557,3.557,0,0,1-1.33,1.136,2.068,2.068,0,0,1,1.136,1.58,2.375,2.375,0,0,1-1.136,2.182,3.148,3.148,0,0,1-2.159.432,2.273,2.273,0,0,1-.443,2.273,62.8,62.8,0,0,1-3.409,12.25,19.9,19.9,0,0,1-7.557,9.375,12.91,12.91,0,0,1-6.8,1.852Zm-4.9-1.466a12.046,12.046,0,0,0,11.443-.739,19.921,19.921,0,0,0,7.421-9.2,63.389,63.389,0,0,0,3.409-12.239v-.057h0a2.045,2.045,0,0,0,.284-2.273l-.182-.386.409.136a2.648,2.648,0,0,0,2.193-.307,1.977,1.977,0,0,0,.943-1.841,1.671,1.671,0,0,0-1.364-1.443l-1.307-.148,1.3-.193a2.761,2.761,0,0,0,1.682-1.136,2.648,2.648,0,0,0,.534-1.966A3.591,3.591,0,0,0,203.748,213a9.193,9.193,0,0,0-4.034-.216h-.284l.1-.273a3.171,3.171,0,0,0-1.636-3.671,3.886,3.886,0,0,0-3.6.6,11.659,11.659,0,0,0-2.636,2.9l-.08.125-.136-.068a11.909,11.909,0,0,0-9.7-.625,12.046,12.046,0,0,0-6.761,7.045v.091h-.091a7.955,7.955,0,0,0-5.1,5.318,12.75,12.75,0,0,0,.443,7.545,34.876,34.876,0,0,0,3.568,6.818c.614.989,1.239,1.977,1.864,2.966l.1.159,1.909,2.966C178.384,245.818,179.089,246.909,179.5,247.568Z" transform="translate(-143.841 -208.254)" fill="#272525"/>
        <path id="Trazado_207063" data-name="Trazado 207063" d="M199.57,230.49l2.5,4.33-2.466.909A50.339,50.339,0,0,0,199.57,230.49Z" transform="translate(-139.686 -205.222)" fill="#7a4140"/>
        <path id="Trazado_207064" data-name="Trazado 207064" d="M200.764,223.36a34.672,34.672,0,0,1,1.8,8.1,50.329,50.329,0,0,1,0,5.239,51.206,51.206,0,0,1-.852,7.318,8.057,8.057,0,0,1-1.443,3.671,5.784,5.784,0,0,1-3.989,1.83,17.044,17.044,0,0,1-4.477-.432v7.1c-5.386,1.273-9.841,1.83-14.068-1.42l.443-9.091a13.307,13.307,0,0,0,7.591-1.2c3.716-2.011,4.761-5.216,4.239-7.011a2.784,2.784,0,0,1-2.909,1.023,3.909,3.909,0,0,1-2.42-1.909,8.239,8.239,0,0,1-.9-3.023,5.511,5.511,0,0,1,.545-3.75,3.921,3.921,0,0,1,4.216-1.42,6.08,6.08,0,0,1,3.557,2.966,12.288,12.288,0,0,1,.625,1.364.841.841,0,0,0,1.625-.216,11.137,11.137,0,0,0-1.068-5.932,4.386,4.386,0,0,0,1.989.455,2.477,2.477,0,0,0,1.909-.886,1.693,1.693,0,0,0,.068-2.011C199.048,224.985,200.764,223.36,200.764,223.36Z" transform="translate(-142.664 -206.194)" fill="#995e5d"/>
      </g>
    </g>
  </g>
</svg>
