<svg xmlns="http://www.w3.org/2000/svg" width="1004.5" height="547.5" viewBox="0 0 1004.5 547.5">
  <g id="Grupo_148207" data-name="Grupo 148207" transform="translate(14320 9750.5)">
    <path id="Trazado_116030" data-name="Trazado 116030" d="M4.5,0H195.5c2.488,0,4.5,3.644,4.5,8.14V61.86c0,4.5-2.017,8.14-4.5,8.14H4.5C2.017,70,0,66.356,0,61.86V8.14C0,3.644,2.017,0,4.5,0Z" transform="translate(-13912 -9676)" fill="#084a93"/>
    <path id="Trazado_207573" data-name="Trazado 207573" d="M-64.578,0l2.224-12.8,3.674.009a5.032,5.032,0,0,1,2.325.584,4.393,4.393,0,0,1,1.674,1.6,5.493,5.493,0,0,1,.773,2.355,7.775,7.775,0,0,1-.018,1.564l-.062.466A7.309,7.309,0,0,1-56.2-1.7,6.253,6.253,0,0,1-60.623,0Zm4.43-10.661-1.485,8.543,1.072.009a3.518,3.518,0,0,0,2.852-1.3,6.723,6.723,0,0,0,1.235-3.929l.018-.281a3.544,3.544,0,0,0-.554-2.224,2.114,2.114,0,0,0-1.731-.809ZM-47.8,0a2.566,2.566,0,0,1-.1-.861A3.221,3.221,0,0,1-50.322.176a2.919,2.919,0,0,1-2.07-.813A2.46,2.46,0,0,1-53.161-2.6a2.843,2.843,0,0,1,1.305-2.386,5.924,5.924,0,0,1,3.335-.831l1.16.018.123-.571a1.984,1.984,0,0,0,.026-.554.952.952,0,0,0-.312-.646,1.075,1.075,0,0,0-.708-.242,1.514,1.514,0,0,0-.984.286,1.384,1.384,0,0,0-.519.875l-2.487.009a2.764,2.764,0,0,1,1.252-2.21,4.851,4.851,0,0,1,2.94-.831,3.507,3.507,0,0,1,2.531.962,2.816,2.816,0,0,1,.765,2.386l-.729,4.553-.044.563a2.714,2.714,0,0,0,.149,1.055L-45.365,0Zm-1.907-1.749a2.27,2.27,0,0,0,1.872-.932l.308-1.644-.861-.009a2.406,2.406,0,0,0-1.978.835,1.454,1.454,0,0,0-.272.712.844.844,0,0,0,.2.751A1,1,0,0,0-49.707-1.749Zm10.881-10.1-.413,2.338h1.582l-.325,1.863h-1.582l-.809,4.764a1.211,1.211,0,0,0,.07.686q.123.237.6.255.141.009.756-.044l-.176,1.942a4.169,4.169,0,0,1-1.424.2,2.234,2.234,0,0,1-1.819-.765,2.763,2.763,0,0,1-.492-2.021l.817-5.019h-1.345l.325-1.863h1.345l.4-2.338ZM-32.366,0a2.566,2.566,0,0,1-.1-.861A3.221,3.221,0,0,1-34.888.176a2.919,2.919,0,0,1-2.07-.813A2.46,2.46,0,0,1-37.727-2.6a2.843,2.843,0,0,1,1.305-2.386,5.924,5.924,0,0,1,3.335-.831l1.16.018.123-.571a1.984,1.984,0,0,0,.026-.554.952.952,0,0,0-.312-.646,1.075,1.075,0,0,0-.708-.242,1.514,1.514,0,0,0-.984.286,1.384,1.384,0,0,0-.519.875l-2.487.009a2.764,2.764,0,0,1,1.252-2.21,4.851,4.851,0,0,1,2.94-.831,3.507,3.507,0,0,1,2.531.962A2.816,2.816,0,0,1-29.3-6.337l-.729,4.553-.044.563a2.714,2.714,0,0,0,.149,1.055L-29.931,0Zm-1.907-1.749A2.27,2.27,0,0,0-32.4-2.681l.308-1.644-.861-.009a2.406,2.406,0,0,0-1.978.835,1.454,1.454,0,0,0-.272.712.844.844,0,0,0,.2.751A1,1,0,0,0-34.273-1.749ZM-13.5-3.718l3.085-9.079h2.628L-12.546,0h-2.593l-.677-8.525L-19.165,0h-2.593l-.756-12.8H-20l.255,9.035L-16.3-12.8h2.188ZM-3.415,0a2.566,2.566,0,0,1-.1-.861A3.221,3.221,0,0,1-5.937.176a2.919,2.919,0,0,1-2.07-.813A2.46,2.46,0,0,1-8.776-2.6,2.843,2.843,0,0,1-7.471-4.988a5.924,5.924,0,0,1,3.335-.831l1.16.018.123-.571a1.984,1.984,0,0,0,.026-.554.952.952,0,0,0-.312-.646,1.075,1.075,0,0,0-.708-.242,1.514,1.514,0,0,0-.984.286,1.384,1.384,0,0,0-.519.875l-2.487.009a2.764,2.764,0,0,1,1.252-2.21,4.851,4.851,0,0,1,2.94-.831,3.507,3.507,0,0,1,2.531.962A2.816,2.816,0,0,1-.347-6.337l-.729,4.553-.044.563A2.714,2.714,0,0,0-.971-.167L-.98,0ZM-5.322-1.749A2.27,2.27,0,0,0-3.45-2.681l.308-1.644L-4-4.333A2.406,2.406,0,0,0-5.981-3.5a1.454,1.454,0,0,0-.272.712.844.844,0,0,0,.2.751A1,1,0,0,0-5.322-1.749ZM7.044-7.128a5.117,5.117,0,0,0-.835-.088,2.4,2.4,0,0,0-2.1.993L3.01,0H.532L2.184-9.51l2.329-.009-.229,1.16A2.615,2.615,0,0,1,6.5-9.7a3.615,3.615,0,0,1,.861.123Zm4.465,7.3A4.137,4.137,0,0,1,9.3-.435,3.7,3.7,0,0,1,7.862-2.087,4.605,4.605,0,0,1,7.493-4.4l.026-.352A6.148,6.148,0,0,1,8.328-7.3a4.884,4.884,0,0,1,1.74-1.789,4.306,4.306,0,0,1,2.355-.593,3.29,3.29,0,0,1,2.782,1.351A4.631,4.631,0,0,1,15.921-5L15.781-3.92H9.954A2.041,2.041,0,0,0,10.4-2.443a1.711,1.711,0,0,0,1.318.571,3.041,3.041,0,0,0,2.373-1.055l1.134,1.406A3.527,3.527,0,0,1,13.68-.259,5.059,5.059,0,0,1,11.509.176ZM12.3-7.638a1.761,1.761,0,0,0-1.217.431,3.784,3.784,0,0,0-.954,1.556h3.41l.053-.229a2.33,2.33,0,0,0,.009-.668,1.276,1.276,0,0,0-.431-.8A1.35,1.35,0,0,0,12.3-7.638Zm8-.817a3.314,3.314,0,0,1,2.575-1.23A2.411,2.411,0,0,1,24.952-8.67a3.991,3.991,0,0,1,.5,2.676L24.447,0H21.968l1.011-6.028A2.921,2.921,0,0,0,23-6.661a1,1,0,0,0-1.107-.977,2.141,2.141,0,0,0-1.758.862L18.936,0H16.458L18.8-13.5h2.487Zm11.522-1.23a3.814,3.814,0,0,1,2.167.646,3.638,3.638,0,0,1,1.336,1.731,5.357,5.357,0,0,1,.3,2.448,5.786,5.786,0,0,1-1.578,3.669,4.455,4.455,0,0,1-3.4,1.367,3.8,3.8,0,0,1-2.145-.637A3.624,3.624,0,0,1,27.171-2.18a5.239,5.239,0,0,1-.308-2.426,5.957,5.957,0,0,1,1.6-3.744A4.363,4.363,0,0,1,31.821-9.686Zm-2.5,5.979a2.194,2.194,0,0,0,.4,1.33,1.314,1.314,0,0,0,1.063.5,1.926,1.926,0,0,0,1.793-1.049,5.227,5.227,0,0,0,.606-2.848,2.387,2.387,0,0,0-.409-1.347A1.293,1.293,0,0,0,31.7-7.638,1.929,1.929,0,0,0,29.927-6.6,5.173,5.173,0,0,0,29.316-3.706ZM42.227-.984A3.283,3.283,0,0,1,39.608.176a2.443,2.443,0,0,1-2.074-.984,3.6,3.6,0,0,1-.545-2.549L38.017-9.51H40.5L39.45-3.324a2.446,2.446,0,0,0-.009.545.9.9,0,0,0,.976.906,2.265,2.265,0,0,0,1.907-.889L43.51-9.51h2.5L44.354,0H42.042Zm9.483-1.7q.141-.7-.976-1.02l-.8-.2q-2.839-.782-2.76-2.76a2.731,2.731,0,0,1,1.191-2.193,4.434,4.434,0,0,1,2.764-.831,3.978,3.978,0,0,1,2.6.853,2.809,2.809,0,0,1,1.011,2.224l-2.461-.009a1.084,1.084,0,0,0-1.213-1.239,1.745,1.745,0,0,0-1.006.29,1.194,1.194,0,0,0-.523.782q-.132.7,1.063.993l.352.079a7.071,7.071,0,0,1,1.854.664,2.8,2.8,0,0,1,.989.927,2.3,2.3,0,0,1,.321,1.327,2.533,2.533,0,0,1-.584,1.582A3.577,3.577,0,0,1,52-.167a5.328,5.328,0,0,1-2.043.343,4.015,4.015,0,0,1-2.637-.91,2.933,2.933,0,0,1-1.072-2.307l2.338.018a1.285,1.285,0,0,0,1.459,1.38,2.076,2.076,0,0,0,1.129-.281A1.111,1.111,0,0,0,51.71-2.681ZM59.779.176a4.137,4.137,0,0,1-2.21-.611,3.7,3.7,0,0,1-1.437-1.652A4.605,4.605,0,0,1,55.762-4.4l.026-.352A6.148,6.148,0,0,1,56.6-7.3a4.884,4.884,0,0,1,1.74-1.789,4.306,4.306,0,0,1,2.355-.593,3.29,3.29,0,0,1,2.782,1.351A4.631,4.631,0,0,1,64.191-5L64.05-3.92H58.223a2.041,2.041,0,0,0,.448,1.477,1.711,1.711,0,0,0,1.318.571,3.041,3.041,0,0,0,2.373-1.055L63.5-1.521A3.527,3.527,0,0,1,61.95-.259,5.059,5.059,0,0,1,59.779.176Zm.791-7.813a1.761,1.761,0,0,0-1.217.431A3.784,3.784,0,0,0,58.4-5.651h3.41l.053-.229a2.33,2.33,0,0,0,.009-.668,1.276,1.276,0,0,0-.431-.8A1.35,1.35,0,0,0,60.57-7.638ZM-78.618,18.8a13.488,13.488,0,0,1,.536-3.832A10.112,10.112,0,0,1-76.5,11.744,5.907,5.907,0,0,1-74.232,9.8l.492,1.371a6.118,6.118,0,0,0-2,2.936,13.592,13.592,0,0,0-.721,4.641v.272a13.852,13.852,0,0,0,.712,4.658,6.237,6.237,0,0,0,2.013,2.979L-74.232,28A5.91,5.91,0,0,1-76.46,26.1a9.943,9.943,0,0,1-1.578-3.133,13.408,13.408,0,0,1-.58-3.709Zm13.6,2.566h-4.623L-70.523,24h-2.8l4.764-12.8h2.443L-61.33,24h-2.8Zm-3.911-2.136h3.2l-1.608-4.79ZM-57.621,24H-60.17V10.5h2.549Zm4.474-9.51.079,1.063a3.342,3.342,0,0,1,2.733-1.239,2.536,2.536,0,0,1,2.522,1.45,3.265,3.265,0,0,1,2.856-1.45,2.836,2.836,0,0,1,2.3.9,4.141,4.141,0,0,1,.756,2.711V24h-2.549V17.936a1.811,1.811,0,0,0-.316-1.182,1.4,1.4,0,0,0-1.116-.374,1.585,1.585,0,0,0-1.582,1.09l.009,6.53h-2.54V17.944a1.789,1.789,0,0,0-.325-1.2,1.416,1.416,0,0,0-1.107-.369,1.646,1.646,0,0,0-1.564.9V24h-2.54V14.49ZM-34.436,24a2.821,2.821,0,0,1-.255-.853,3.073,3.073,0,0,1-2.4,1.028,3.376,3.376,0,0,1-2.316-.809,2.6,2.6,0,0,1-.918-2.039,2.687,2.687,0,0,1,1.121-2.32,5.529,5.529,0,0,1,3.239-.817H-34.8v-.545a1.567,1.567,0,0,0-.338-1.055,1.331,1.331,0,0,0-1.068-.4,1.513,1.513,0,0,0-1.006.308,1.045,1.045,0,0,0-.365.844h-2.54a2.551,2.551,0,0,1,.51-1.529,3.37,3.37,0,0,1,1.441-1.1,5.253,5.253,0,0,1,2.092-.4,4.15,4.15,0,0,1,2.791.883,3.09,3.09,0,0,1,1.033,2.483V21.8a4.546,4.546,0,0,0,.378,2.048V24Zm-2.1-1.767a2.188,2.188,0,0,0,1.037-.25,1.645,1.645,0,0,0,.7-.672V19.676h-.949q-1.907,0-2.03,1.318l-.009.149a1.017,1.017,0,0,0,.334.782A1.3,1.3,0,0,0-36.536,22.233Zm10.2-.105a1.666,1.666,0,0,0,1.143-.387,1.355,1.355,0,0,0,.457-1.028h2.382a3.258,3.258,0,0,1-.527,1.771,3.48,3.48,0,0,1-1.419,1.248,4.442,4.442,0,0,1-1.991.444,4.129,4.129,0,0,1-3.217-1.3A5.13,5.13,0,0,1-30.691,19.3v-.167a5.071,5.071,0,0,1,1.169-3.507,4.08,4.08,0,0,1,3.208-1.31,4,4,0,0,1,2.861,1.015,3.594,3.594,0,0,1,1.094,2.7h-2.382a1.745,1.745,0,0,0-.457-1.206,1.524,1.524,0,0,0-1.16-.464,1.53,1.53,0,0,0-1.34.647,3.749,3.749,0,0,0-.453,2.1v.264a3.8,3.8,0,0,0,.448,2.113A1.549,1.549,0,0,0-26.341,22.128Zm9.809,2.048a4.668,4.668,0,0,1-3.406-1.283,4.561,4.561,0,0,1-1.314-3.419v-.246a5.745,5.745,0,0,1,.554-2.562,4.064,4.064,0,0,1,1.569-1.74,4.4,4.4,0,0,1,2.316-.611,3.947,3.947,0,0,1,3.072,1.23,5,5,0,0,1,1.121,3.489v1.037h-6.056a2.36,2.36,0,0,0,.743,1.494,2.245,2.245,0,0,0,1.569.563,2.742,2.742,0,0,0,2.294-1.063l1.248,1.4a3.813,3.813,0,0,1-1.547,1.261A5.075,5.075,0,0,1-16.532,24.176Zm-.29-7.813a1.587,1.587,0,0,0-1.226.512,2.651,2.651,0,0,0-.6,1.466h3.533v-.2a1.891,1.891,0,0,0-.457-1.311A1.638,1.638,0,0,0-16.822,16.362Zm.229-5.862h2.769l-2.435,2.725h-2.065Zm7.752,3.99.079,1.1a3.32,3.32,0,0,1,2.733-1.274,2.759,2.759,0,0,1,2.25.888,4.142,4.142,0,0,1,.756,2.654V24h-2.54V17.918a1.648,1.648,0,0,0-.352-1.173,1.574,1.574,0,0,0-1.169-.365,1.747,1.747,0,0,0-1.608.914V24h-2.54V14.49Zm11.83,4.685a5.731,5.731,0,0,1,1-3.542,3.237,3.237,0,0,1,2.729-1.318,2.913,2.913,0,0,1,2.294,1.037V10.5h2.549V24H9.264l-.123-1.011A2.989,2.989,0,0,1,6.7,24.176,3.228,3.228,0,0,1,4,22.853,5.916,5.916,0,0,1,2.988,19.175Zm2.54.189a3.754,3.754,0,0,0,.466,2.051,1.517,1.517,0,0,0,1.354.713,1.7,1.7,0,0,0,1.661-.995V17.375a1.675,1.675,0,0,0-1.644-.995Q5.528,16.38,5.528,19.364ZM17.9,24.176A4.668,4.668,0,0,1,14.5,22.893a4.561,4.561,0,0,1-1.314-3.419v-.246a5.745,5.745,0,0,1,.554-2.562,4.064,4.064,0,0,1,1.569-1.74,4.4,4.4,0,0,1,2.316-.611,3.947,3.947,0,0,1,3.072,1.23,5,5,0,0,1,1.121,3.489v1.037H15.759a2.36,2.36,0,0,0,.743,1.494,2.245,2.245,0,0,0,1.569.563,2.742,2.742,0,0,0,2.294-1.063l1.248,1.4a3.813,3.813,0,0,1-1.547,1.261A5.075,5.075,0,0,1,17.9,24.176Zm-.29-7.813a1.587,1.587,0,0,0-1.226.512,2.651,2.651,0,0,0-.6,1.466h3.533v-.2a1.891,1.891,0,0,0-.457-1.311A1.638,1.638,0,0,0,17.613,16.362ZM27.905,24V11.2h3.938a5.98,5.98,0,0,1,3.019.76,5.3,5.3,0,0,1,2.079,2.162,6.669,6.669,0,0,1,.747,3.186V17.9a6.688,6.688,0,0,1-.734,3.173,5.256,5.256,0,0,1-2.07,2.153A6.025,6.025,0,0,1,31.869,24Zm2.637-10.661v8.543h1.274a2.863,2.863,0,0,0,2.364-1.011,4.567,4.567,0,0,0,.835-2.892V17.3a4.64,4.64,0,0,0-.809-2.958,2.854,2.854,0,0,0-2.364-1.006ZM44.947,24a2.821,2.821,0,0,1-.255-.853,3.073,3.073,0,0,1-2.4,1.028,3.376,3.376,0,0,1-2.316-.809,2.6,2.6,0,0,1-.918-2.039,2.687,2.687,0,0,1,1.121-2.32,5.529,5.529,0,0,1,3.239-.817h1.169v-.545a1.567,1.567,0,0,0-.338-1.055,1.331,1.331,0,0,0-1.068-.4,1.513,1.513,0,0,0-1.006.308,1.045,1.045,0,0,0-.365.844H39.27a2.551,2.551,0,0,1,.51-1.529,3.37,3.37,0,0,1,1.441-1.1,5.253,5.253,0,0,1,2.092-.4A4.15,4.15,0,0,1,46.1,15.2a3.09,3.09,0,0,1,1.033,2.483V21.8a4.546,4.546,0,0,0,.378,2.048V24Zm-2.1-1.767a2.188,2.188,0,0,0,1.037-.25,1.645,1.645,0,0,0,.7-.672V19.676h-.949q-1.907,0-2.03,1.318l-.009.149a1.017,1.017,0,0,0,.334.782A1.3,1.3,0,0,0,42.847,22.233Zm9.281-10.081V14.49h1.626v1.863H52.128V21.1a1.133,1.133,0,0,0,.2.756,1.015,1.015,0,0,0,.773.229,4.051,4.051,0,0,0,.747-.062v1.925a5.229,5.229,0,0,1-1.538.229,2.425,2.425,0,0,1-2.725-2.7V16.354H48.2V14.49h1.389V12.152Zm2.382,7a5.64,5.64,0,0,1,.545-2.522,3.989,3.989,0,0,1,1.569-1.714A4.577,4.577,0,0,1,59,14.314a4.33,4.33,0,0,1,3.142,1.178,4.727,4.727,0,0,1,1.358,3.2l.018.65A4.97,4.97,0,0,1,62.3,22.853a4.735,4.735,0,0,1-6.561,0,5.058,5.058,0,0,1-1.226-3.586Zm2.54.18a3.555,3.555,0,0,0,.51,2.073,1.831,1.831,0,0,0,2.9.009,3.89,3.89,0,0,0,.519-2.267,3.519,3.519,0,0,0-.519-2.06A1.686,1.686,0,0,0,59,16.362a1.658,1.658,0,0,0-1.441.726A3.955,3.955,0,0,0,57.05,19.338Zm13.184,2.035a.818.818,0,0,0-.461-.734,5.241,5.241,0,0,0-1.481-.479Q64.9,19.447,64.9,17.276a2.613,2.613,0,0,1,1.05-2.114,4.237,4.237,0,0,1,2.747-.848,4.56,4.56,0,0,1,2.9.853,2.687,2.687,0,0,1,1.085,2.215h-2.54a1.229,1.229,0,0,0-.352-.9,1.488,1.488,0,0,0-1.1-.356,1.52,1.52,0,0,0-.993.29.916.916,0,0,0-.352.738.783.783,0,0,0,.4.681,4.114,4.114,0,0,0,1.349.448,11.019,11.019,0,0,1,1.6.426A2.628,2.628,0,0,1,72.7,21.267a2.481,2.481,0,0,1-1.116,2.1,4.815,4.815,0,0,1-2.883.8,5.029,5.029,0,0,1-2.123-.426,3.561,3.561,0,0,1-1.455-1.169,2.716,2.716,0,0,1-.527-1.6h2.408a1.326,1.326,0,0,0,.5,1.037,1.987,1.987,0,0,0,1.248.36,1.839,1.839,0,0,0,1.1-.277A.861.861,0,0,0,70.233,21.372ZM78.715,19a12.8,12.8,0,0,1-.571,3.823A10.378,10.378,0,0,1,76.5,26.065,5.921,5.921,0,0,1,74.206,28l-.492-1.345a6.18,6.18,0,0,0,1.969-2.9,13.431,13.431,0,0,0,.747-4.509v-.466a13.735,13.735,0,0,0-.716-4.632,6.442,6.442,0,0,0-2-3.006L74.206,9.8a5.923,5.923,0,0,1,2.254,1.881A10.244,10.244,0,0,1,78.1,14.851a12.708,12.708,0,0,1,.611,3.753Z" transform="translate(-13812 -9647)" fill="#fff"/>
    <path id="Trazado_207574" data-name="Trazado 207574" d="M0,0V60" transform="translate(-13811.5 -9605.5)" fill="none" stroke="#707070" stroke-linecap="round" stroke-width="2"/>
    <path id="Trazado_207575" data-name="Trazado 207575" d="M0,0V60" transform="translate(-13811.631 -9450.5)" fill="none" stroke="#707070" stroke-linecap="round" stroke-width="2"/>
    <path id="Trazado_116256" data-name="Trazado 116256" d="M10.063,0H289.82c5.558,0,10.063,4.935,10.063,11.024V83.779c0,6.088-4.505,11.024-10.063,11.024H10.063C4.505,94.8,0,89.867,0,83.779V11.024C0,4.935,4.505,0,10.063,0Z" transform="translate(-13961.572 -9545.5)" fill="#75e3d9"/>
    <path id="Trazado_207576" data-name="Trazado 207576" d="M-57.844-4.164h-1.867V0h-2.344V-11.375h4.227a4.778,4.778,0,0,1,3.109.9,3.1,3.1,0,0,1,1.094,2.539A3.5,3.5,0,0,1-54.129-6a3.437,3.437,0,0,1-1.527,1.238L-53.2-.109V0h-2.516Zm-1.867-1.9h1.891a1.936,1.936,0,0,0,1.367-.449,1.606,1.606,0,0,0,.484-1.238,1.719,1.719,0,0,0-.457-1.266,1.9,1.9,0,0,0-1.4-.461h-1.883ZM-48.1.156A4.15,4.15,0,0,1-51.129-.984,4.054,4.054,0,0,1-52.3-4.023v-.219A5.106,5.106,0,0,1-51.8-6.52,3.612,3.612,0,0,1-50.41-8.066a3.914,3.914,0,0,1,2.059-.543,3.508,3.508,0,0,1,2.73,1.094,4.444,4.444,0,0,1,1,3.1v.922h-5.383a2.1,2.1,0,0,0,.66,1.328,2,2,0,0,0,1.395.5,2.437,2.437,0,0,0,2.039-.945L-44.8-1.367A3.389,3.389,0,0,1-46.18-.246,4.511,4.511,0,0,1-48.1.156Zm-.258-6.945a1.411,1.411,0,0,0-1.09.455,2.357,2.357,0,0,0-.535,1.3h3.141v-.181a1.681,1.681,0,0,0-.406-1.165A1.456,1.456,0,0,0-48.359-6.789Zm4.688,2.5a4.954,4.954,0,0,1,.926-3.133,3,3,0,0,1,2.5-1.187,2.631,2.631,0,0,1,2.164.953l.094-.8h2.047V-.281a3.613,3.613,0,0,1-.5,1.93A3.236,3.236,0,0,1-37.867,2.9a4.985,4.985,0,0,1-2.141.43,4.635,4.635,0,0,1-1.812-.371A3.217,3.217,0,0,1-43.156,2l1-1.375a2.645,2.645,0,0,0,2.047.945,1.936,1.936,0,0,0,1.4-.48,1.8,1.8,0,0,0,.5-1.363V-.727a2.612,2.612,0,0,1-2.055.883A2.992,2.992,0,0,1-42.73-1.035a4.953,4.953,0,0,1-.941-3.16Zm2.258.168a3.085,3.085,0,0,0,.461,1.8,1.466,1.466,0,0,0,1.266.653,1.568,1.568,0,0,0,1.477-.775V-6a1.564,1.564,0,0,0-1.461-.775,1.476,1.476,0,0,0-1.277.665A3.477,3.477,0,0,0-41.414-4.121ZM-31.828,0h-2.266V-8.453h2.266Zm-2.4-10.641a1.112,1.112,0,0,1,.34-.836,1.277,1.277,0,0,1,.926-.328,1.28,1.28,0,0,1,.922.328,1.105,1.105,0,0,1,.344.836,1.108,1.108,0,0,1-.348.844,1.283,1.283,0,0,1-.918.328,1.283,1.283,0,0,1-.918-.328A1.108,1.108,0,0,1-34.227-10.641Zm8.836,8.3a.727.727,0,0,0-.41-.652,4.659,4.659,0,0,0-1.316-.426q-3.016-.633-3.016-2.562A2.323,2.323,0,0,1-29.2-7.855a3.766,3.766,0,0,1,2.441-.754,4.053,4.053,0,0,1,2.574.758,2.388,2.388,0,0,1,.965,1.969h-2.258a1.092,1.092,0,0,0-.312-.8A1.322,1.322,0,0,0-26.766-7a1.351,1.351,0,0,0-.883.258.814.814,0,0,0-.312.656.7.7,0,0,0,.355.605,3.657,3.657,0,0,0,1.2.4,9.8,9.8,0,0,1,1.422.379A2.336,2.336,0,0,1-23.2-2.43a2.2,2.2,0,0,1-.992,1.871A4.28,4.28,0,0,1-26.75.156a4.47,4.47,0,0,1-1.887-.379A3.166,3.166,0,0,1-29.93-1.262,2.414,2.414,0,0,1-30.4-2.687h2.141a1.179,1.179,0,0,0,.445.922,1.766,1.766,0,0,0,1.109.32,1.635,1.635,0,0,0,.98-.246A.766.766,0,0,0-25.391-2.336Zm6.352-8.2v2.078h1.445V-6.8h-1.445v4.219a1.007,1.007,0,0,0,.18.672.9.9,0,0,0,.688.2,3.6,3.6,0,0,0,.664-.055V-.047a4.648,4.648,0,0,1-1.367.2,2.156,2.156,0,0,1-2.422-2.4V-6.8h-1.234V-8.453H-21.3v-2.078Zm7.453,4.2A6.134,6.134,0,0,0-12.4-6.4a1.654,1.654,0,0,0-1.68.867V0h-2.258V-8.453H-14.2l.063,1.008a2.092,2.092,0,0,1,1.883-1.164,2.366,2.366,0,0,1,.7.1Zm.453,2.031a5.013,5.013,0,0,1,.484-2.242A3.546,3.546,0,0,1-9.254-8.07a4.069,4.069,0,0,1,2.113-.539A3.849,3.849,0,0,1-4.348-7.562,4.2,4.2,0,0,1-3.141-4.719l.016.578A4.418,4.418,0,0,1-4.211-1.02,3.775,3.775,0,0,1-7.125.156a3.793,3.793,0,0,1-2.918-1.172A4.5,4.5,0,0,1-11.133-4.2Zm2.258.16A3.16,3.16,0,0,0-8.422-2.3a1.5,1.5,0,0,0,1.3.638,1.5,1.5,0,0,0,1.281-.63,3.457,3.457,0,0,0,.461-2.015A3.128,3.128,0,0,0-5.844-6.14a1.5,1.5,0,0,0-1.3-.649,1.474,1.474,0,0,0-1.281.646A3.516,3.516,0,0,0-8.875-4.144ZM1.9-4.289a5.094,5.094,0,0,1,.887-3.148A2.877,2.877,0,0,1,5.211-8.609a2.589,2.589,0,0,1,2.039.922V-12H9.516V0H7.477L7.367-.9A2.657,2.657,0,0,1,5.2.156,2.869,2.869,0,0,1,2.8-1.02,5.258,5.258,0,0,1,1.9-4.289Zm2.258.168A3.337,3.337,0,0,0,4.57-2.3a1.349,1.349,0,0,0,1.2.634A1.511,1.511,0,0,0,7.25-2.548V-5.889a1.489,1.489,0,0,0-1.461-.884Q4.156-6.773,4.156-4.121Zm11,4.277A4.15,4.15,0,0,1,12.129-.984a4.054,4.054,0,0,1-1.168-3.039v-.219a5.106,5.106,0,0,1,.492-2.277,3.612,3.612,0,0,1,1.395-1.547,3.914,3.914,0,0,1,2.059-.543,3.508,3.508,0,0,1,2.73,1.094,4.444,4.444,0,0,1,1,3.1v.922H13.25a2.1,2.1,0,0,0,.66,1.328,2,2,0,0,0,1.395.5,2.437,2.437,0,0,0,2.039-.945l1.109,1.242A3.389,3.389,0,0,1,17.078-.246,4.511,4.511,0,0,1,15.156.156ZM14.9-6.789a1.411,1.411,0,0,0-1.09.455,2.357,2.357,0,0,0-.535,1.3h3.141v-.181a1.681,1.681,0,0,0-.406-1.165A1.456,1.456,0,0,0,14.9-6.789Zm8.648,2.5a5.094,5.094,0,0,1,.887-3.148,2.877,2.877,0,0,1,2.426-1.172,2.589,2.589,0,0,1,2.039.922V-12h2.266V0H29.125l-.109-.9A2.657,2.657,0,0,1,26.844.156,2.869,2.869,0,0,1,24.449-1.02,5.258,5.258,0,0,1,23.547-4.289Zm2.258.168A3.337,3.337,0,0,0,26.219-2.3a1.349,1.349,0,0,0,1.2.634A1.511,1.511,0,0,0,28.9-2.548V-5.889a1.489,1.489,0,0,0-1.461-.884Q25.8-6.773,25.8-4.121ZM37.813,0a2.507,2.507,0,0,1-.227-.758,2.732,2.732,0,0,1-2.133.914,3,3,0,0,1-2.059-.719,2.312,2.312,0,0,1-.816-1.812,2.389,2.389,0,0,1,1-2.062,4.915,4.915,0,0,1,2.879-.727h1.039v-.484a1.393,1.393,0,0,0-.3-.937,1.183,1.183,0,0,0-.949-.352,1.345,1.345,0,0,0-.895.273.929.929,0,0,0-.324.75H32.766a2.268,2.268,0,0,1,.453-1.359,3,3,0,0,1,1.281-.98,4.669,4.669,0,0,1,1.859-.355,3.689,3.689,0,0,1,2.48.785,2.747,2.747,0,0,1,.918,2.207v3.664a4.041,4.041,0,0,0,.336,1.82V0ZM35.945-1.57a1.945,1.945,0,0,0,.922-.223,1.462,1.462,0,0,0,.625-.6V-3.844h-.844q-1.7,0-1.8,1.172l-.008.133a.9.9,0,0,0,.3.7A1.153,1.153,0,0,0,35.945-1.57Zm8.25-8.961v2.078h1.445V-6.8H44.2v4.219a1.007,1.007,0,0,0,.18.672.9.9,0,0,0,.688.2,3.6,3.6,0,0,0,.664-.055V-.047a4.648,4.648,0,0,1-1.367.2,2.156,2.156,0,0,1-2.422-2.4V-6.8H40.7V-8.453h1.234v-2.078ZM46.313-4.3A5.013,5.013,0,0,1,46.8-6.547,3.546,3.546,0,0,1,48.191-8.07,4.069,4.069,0,0,1,50.3-8.609,3.849,3.849,0,0,1,53.1-7.562,4.2,4.2,0,0,1,54.3-4.719l.016.578A4.418,4.418,0,0,1,53.234-1.02,3.775,3.775,0,0,1,50.32.156,3.793,3.793,0,0,1,47.4-1.016,4.5,4.5,0,0,1,46.313-4.2Zm2.258.16A3.16,3.16,0,0,0,49.023-2.3a1.5,1.5,0,0,0,1.3.638,1.5,1.5,0,0,0,1.281-.63,3.457,3.457,0,0,0,.461-2.015A3.128,3.128,0,0,0,51.6-6.14a1.5,1.5,0,0,0-1.3-.649,1.474,1.474,0,0,0-1.281.646A3.516,3.516,0,0,0,48.57-4.144ZM60.289-2.336a.727.727,0,0,0-.41-.652,4.659,4.659,0,0,0-1.316-.426q-3.016-.633-3.016-2.562a2.323,2.323,0,0,1,.934-1.879,3.766,3.766,0,0,1,2.441-.754,4.053,4.053,0,0,1,2.574.758,2.388,2.388,0,0,1,.965,1.969H60.2a1.092,1.092,0,0,0-.312-.8A1.322,1.322,0,0,0,58.914-7a1.351,1.351,0,0,0-.883.258.814.814,0,0,0-.312.656.7.7,0,0,0,.355.605,3.657,3.657,0,0,0,1.2.4A9.8,9.8,0,0,1,60.7-4.7,2.336,2.336,0,0,1,62.484-2.43a2.2,2.2,0,0,1-.992,1.871A4.28,4.28,0,0,1,58.93.156a4.47,4.47,0,0,1-1.887-.379A3.166,3.166,0,0,1,55.75-1.262a2.414,2.414,0,0,1-.469-1.426h2.141a1.179,1.179,0,0,0,.445.922,1.766,1.766,0,0,0,1.109.32,1.635,1.635,0,0,0,.98-.246A.766.766,0,0,0,60.289-2.336ZM-86.359,24a2.507,2.507,0,0,1-.227-.758,2.732,2.732,0,0,1-2.133.914,3,3,0,0,1-2.059-.719,2.312,2.312,0,0,1-.816-1.812,2.389,2.389,0,0,1,1-2.062,4.915,4.915,0,0,1,2.879-.727h1.039v-.484a1.393,1.393,0,0,0-.3-.937,1.183,1.183,0,0,0-.949-.352,1.345,1.345,0,0,0-.895.273.929.929,0,0,0-.324.75h-2.258a2.268,2.268,0,0,1,.453-1.359,3,3,0,0,1,1.281-.98,4.669,4.669,0,0,1,1.859-.355,3.689,3.689,0,0,1,2.48.785,2.747,2.747,0,0,1,.918,2.207v3.664a4.041,4.041,0,0,0,.336,1.82V24Zm-1.867-1.57a1.945,1.945,0,0,0,.922-.223,1.462,1.462,0,0,0,.625-.6V20.156h-.844q-1.7,0-1.8,1.172l-.008.133a.9.9,0,0,0,.3.7A1.153,1.153,0,0,0-88.227,22.43Zm9.2-2.719a4.954,4.954,0,0,1,.926-3.133,3,3,0,0,1,2.5-1.187,2.631,2.631,0,0,1,2.164.953l.094-.8H-71.3v8.172a3.613,3.613,0,0,1-.5,1.93,3.236,3.236,0,0,1-1.418,1.25,4.985,4.985,0,0,1-2.141.43,4.635,4.635,0,0,1-1.812-.371A3.217,3.217,0,0,1-78.508,26l1-1.375a2.645,2.645,0,0,0,2.047.945,1.936,1.936,0,0,0,1.4-.48,1.8,1.8,0,0,0,.5-1.363v-.453a2.612,2.612,0,0,1-2.055.883,2.992,2.992,0,0,1-2.465-1.191,4.953,4.953,0,0,1-.941-3.16Zm2.258.168a3.085,3.085,0,0,0,.461,1.8,1.466,1.466,0,0,0,1.266.653,1.568,1.568,0,0,0,1.477-.775V18a1.564,1.564,0,0,0-1.461-.775,1.476,1.476,0,0,0-1.277.665A3.477,3.477,0,0,0-76.766,19.879Zm11.953-2.215a6.134,6.134,0,0,0-.812-.062,1.654,1.654,0,0,0-1.68.867V24h-2.258V15.547h2.133l.063,1.008a2.092,2.092,0,0,1,1.883-1.164,2.366,2.366,0,0,1,.7.1ZM-59.062,24a2.507,2.507,0,0,1-.227-.758,2.732,2.732,0,0,1-2.133.914,3,3,0,0,1-2.059-.719,2.312,2.312,0,0,1-.816-1.812,2.389,2.389,0,0,1,1-2.062,4.915,4.915,0,0,1,2.879-.727h1.039v-.484a1.393,1.393,0,0,0-.3-.937,1.183,1.183,0,0,0-.949-.352,1.345,1.345,0,0,0-.895.273.929.929,0,0,0-.324.75h-2.258a2.268,2.268,0,0,1,.453-1.359,3,3,0,0,1,1.281-.98,4.669,4.669,0,0,1,1.859-.355,3.689,3.689,0,0,1,2.48.785,2.747,2.747,0,0,1,.918,2.207v3.664a4.041,4.041,0,0,0,.336,1.82V24Zm-1.867-1.57a1.945,1.945,0,0,0,.922-.223,1.462,1.462,0,0,0,.625-.6V20.156h-.844q-1.7,0-1.8,1.172l-.008.133a.9.9,0,0,0,.3.7A1.153,1.153,0,0,0-60.93,22.43Zm7.625-6.883.07.977a2.951,2.951,0,0,1,2.43-1.133,2.453,2.453,0,0,1,2,.789,3.682,3.682,0,0,1,.672,2.359V24h-2.258V18.594a1.465,1.465,0,0,0-.312-1.043,1.4,1.4,0,0,0-1.039-.324,1.553,1.553,0,0,0-1.43.813V24H-55.43V15.547Zm14.758,8.609a4.15,4.15,0,0,1-3.027-1.141,4.054,4.054,0,0,1-1.168-3.039v-.219a5.106,5.106,0,0,1,.492-2.277,3.612,3.612,0,0,1,1.395-1.547,3.914,3.914,0,0,1,2.059-.543,3.508,3.508,0,0,1,2.73,1.094,4.444,4.444,0,0,1,1,3.1v.922h-5.383a2.1,2.1,0,0,0,.66,1.328,2,2,0,0,0,1.395.5,2.437,2.437,0,0,0,2.039-.945l1.109,1.242a3.389,3.389,0,0,1-1.375,1.121A4.511,4.511,0,0,1-38.547,24.156Zm-.258-6.945a1.411,1.411,0,0,0-1.09.455,2.357,2.357,0,0,0-.535,1.3h3.141v-.181a1.681,1.681,0,0,0-.406-1.165A1.456,1.456,0,0,0-38.8,17.211Zm9.594,4.453a.727.727,0,0,0-.41-.652,4.659,4.659,0,0,0-1.316-.426q-3.016-.633-3.016-2.562a2.323,2.323,0,0,1,.934-1.879,3.766,3.766,0,0,1,2.441-.754A4.053,4.053,0,0,1-28,16.148a2.388,2.388,0,0,1,.965,1.969H-29.3a1.092,1.092,0,0,0-.312-.8A1.322,1.322,0,0,0-30.586,17a1.351,1.351,0,0,0-.883.258.814.814,0,0,0-.312.656.7.7,0,0,0,.355.605,3.657,3.657,0,0,0,1.2.4A9.8,9.8,0,0,1-28.8,19.3a2.336,2.336,0,0,1,1.789,2.273,2.2,2.2,0,0,1-.992,1.871,4.28,4.28,0,0,1-2.562.715,4.47,4.47,0,0,1-1.887-.379,3.166,3.166,0,0,1-1.293-1.039,2.414,2.414,0,0,1-.469-1.426h2.141a1.179,1.179,0,0,0,.445.922,1.766,1.766,0,0,0,1.109.32,1.635,1.635,0,0,0,.98-.246A.766.766,0,0,0-29.211,21.664Zm7.164.672a1.481,1.481,0,0,0,1.016-.344,1.2,1.2,0,0,0,.406-.914h2.117a2.9,2.9,0,0,1-.469,1.574,3.093,3.093,0,0,1-1.262,1.109,3.949,3.949,0,0,1-1.77.395A3.67,3.67,0,0,1-24.867,23a4.56,4.56,0,0,1-1.047-3.184v-.148a4.508,4.508,0,0,1,1.039-3.117,3.627,3.627,0,0,1,2.852-1.164,3.555,3.555,0,0,1,2.543.9,3.2,3.2,0,0,1,.973,2.4h-2.117a1.551,1.551,0,0,0-.406-1.072,1.354,1.354,0,0,0-1.031-.412,1.36,1.36,0,0,0-1.191.575,3.333,3.333,0,0,0-.4,1.866v.235a3.375,3.375,0,0,0,.4,1.878A1.377,1.377,0,0,0-22.047,22.336ZM-12.32,24a2.507,2.507,0,0,1-.227-.758,2.732,2.732,0,0,1-2.133.914,3,3,0,0,1-2.059-.719,2.312,2.312,0,0,1-.816-1.812,2.389,2.389,0,0,1,1-2.062,4.915,4.915,0,0,1,2.879-.727h1.039v-.484a1.393,1.393,0,0,0-.3-.937,1.183,1.183,0,0,0-.949-.352,1.345,1.345,0,0,0-.895.273.929.929,0,0,0-.324.75h-2.258a2.268,2.268,0,0,1,.453-1.359,3,3,0,0,1,1.281-.98,4.669,4.669,0,0,1,1.859-.355,3.689,3.689,0,0,1,2.48.785,2.747,2.747,0,0,1,.918,2.207v3.664a4.041,4.041,0,0,0,.336,1.82V24Zm-1.867-1.57a1.945,1.945,0,0,0,.922-.223,1.462,1.462,0,0,0,.625-.6V20.156h-.844q-1.7,0-1.8,1.172l-.008.133a.9.9,0,0,0,.3.7A1.153,1.153,0,0,0-14.187,22.43ZM-6.258,24H-8.523V12h2.266ZM.5,24a2.507,2.507,0,0,1-.227-.758,2.732,2.732,0,0,1-2.133.914,3,3,0,0,1-2.059-.719,2.312,2.312,0,0,1-.816-1.812,2.389,2.389,0,0,1,1-2.062,4.915,4.915,0,0,1,2.879-.727H.18v-.484a1.393,1.393,0,0,0-.3-.937,1.183,1.183,0,0,0-.949-.352,1.345,1.345,0,0,0-.895.273.929.929,0,0,0-.324.75H-4.547a2.268,2.268,0,0,1,.453-1.359,3,3,0,0,1,1.281-.98,4.669,4.669,0,0,1,1.859-.355,3.689,3.689,0,0,1,2.48.785,2.747,2.747,0,0,1,.918,2.207v3.664a4.041,4.041,0,0,0,.336,1.82V24Zm-1.867-1.57a1.945,1.945,0,0,0,.922-.223,1.462,1.462,0,0,0,.625-.6V20.156H-.664q-1.7,0-1.8,1.172l-.008.133a.9.9,0,0,0,.3.7A1.153,1.153,0,0,0-1.367,22.43Zm17.141-2.578a5.07,5.07,0,0,1-.887,3.129,2.843,2.843,0,0,1-2.395,1.176,2.633,2.633,0,0,1-2.07-.891V27.25H8.164v-11.7h2.094l.078.828a2.654,2.654,0,0,1,2.141-.984,2.862,2.862,0,0,1,2.43,1.156,5.207,5.207,0,0,1,.867,3.188Zm-2.258-.164a3.327,3.327,0,0,0-.418-1.82,1.361,1.361,0,0,0-1.215-.641,1.478,1.478,0,0,0-1.461.813V21.5a1.5,1.5,0,0,0,1.477.836Q13.516,22.336,13.516,19.688ZM22.07,24a2.507,2.507,0,0,1-.227-.758,2.732,2.732,0,0,1-2.133.914,3,3,0,0,1-2.059-.719,2.312,2.312,0,0,1-.816-1.812,2.389,2.389,0,0,1,1-2.062,4.915,4.915,0,0,1,2.879-.727H21.75v-.484a1.393,1.393,0,0,0-.3-.937,1.183,1.183,0,0,0-.949-.352,1.345,1.345,0,0,0-.895.273.929.929,0,0,0-.324.75H17.023a2.268,2.268,0,0,1,.453-1.359,3,3,0,0,1,1.281-.98,4.669,4.669,0,0,1,1.859-.355,3.689,3.689,0,0,1,2.48.785,2.747,2.747,0,0,1,.918,2.207v3.664a4.041,4.041,0,0,0,.336,1.82V24ZM20.2,22.43a1.945,1.945,0,0,0,.922-.223,1.462,1.462,0,0,0,.625-.6V20.156h-.844q-1.7,0-1.8,1.172l-.008.133a.9.9,0,0,0,.3.7A1.153,1.153,0,0,0,20.2,22.43Zm10.3-4.766a6.134,6.134,0,0,0-.812-.062,1.654,1.654,0,0,0-1.68.867V24H25.75V15.547h2.133l.063,1.008a2.092,2.092,0,0,1,1.883-1.164,2.366,2.366,0,0,1,.7.1ZM36.25,24a2.507,2.507,0,0,1-.227-.758,2.732,2.732,0,0,1-2.133.914,3,3,0,0,1-2.059-.719,2.312,2.312,0,0,1-.816-1.812,2.389,2.389,0,0,1,1-2.062,4.915,4.915,0,0,1,2.879-.727H35.93v-.484a1.393,1.393,0,0,0-.3-.937,1.183,1.183,0,0,0-.949-.352,1.345,1.345,0,0,0-.895.273.929.929,0,0,0-.324.75H31.2a2.268,2.268,0,0,1,.453-1.359,3,3,0,0,1,1.281-.98,4.669,4.669,0,0,1,1.859-.355,3.689,3.689,0,0,1,2.48.785,2.747,2.747,0,0,1,.918,2.207v3.664a4.041,4.041,0,0,0,.336,1.82V24Zm-1.867-1.57a1.945,1.945,0,0,0,.922-.223,1.462,1.462,0,0,0,.625-.6V20.156h-.844q-1.7,0-1.8,1.172l-.008.133a.9.9,0,0,0,.3.7A1.153,1.153,0,0,0,34.383,22.43ZM48.813,24a2.507,2.507,0,0,1-.227-.758,2.732,2.732,0,0,1-2.133.914,3,3,0,0,1-2.059-.719,2.312,2.312,0,0,1-.816-1.812,2.389,2.389,0,0,1,1-2.062,4.915,4.915,0,0,1,2.879-.727h1.039v-.484a1.393,1.393,0,0,0-.3-.937,1.183,1.183,0,0,0-.949-.352,1.345,1.345,0,0,0-.895.273.929.929,0,0,0-.324.75H43.766a2.268,2.268,0,0,1,.453-1.359,3,3,0,0,1,1.281-.98,4.669,4.669,0,0,1,1.859-.355,3.689,3.689,0,0,1,2.48.785,2.747,2.747,0,0,1,.918,2.207v3.664a4.041,4.041,0,0,0,.336,1.82V24Zm-1.867-1.57a1.945,1.945,0,0,0,.922-.223,1.462,1.462,0,0,0,.625-.6V20.156h-.844q-1.7,0-1.8,1.172l-.008.133a.9.9,0,0,0,.3.7A1.153,1.153,0,0,0,46.945,22.43ZM60.1,19.852a5.07,5.07,0,0,1-.887,3.129,2.843,2.843,0,0,1-2.395,1.176,2.633,2.633,0,0,1-2.07-.891V27.25H52.492v-11.7h2.094l.078.828a2.654,2.654,0,0,1,2.141-.984,2.862,2.862,0,0,1,2.43,1.156,5.207,5.207,0,0,1,.867,3.188Zm-2.258-.164a3.327,3.327,0,0,0-.418-1.82,1.361,1.361,0,0,0-1.215-.641,1.478,1.478,0,0,0-1.461.813V21.5a1.5,1.5,0,0,0,1.477.836Q57.844,22.336,57.844,19.688Zm3.3.008a5.013,5.013,0,0,1,.484-2.242,3.546,3.546,0,0,1,1.395-1.523,4.069,4.069,0,0,1,2.113-.539,3.849,3.849,0,0,1,2.793,1.047,4.2,4.2,0,0,1,1.207,2.844l.016.578A4.418,4.418,0,0,1,68.07,22.98a4.209,4.209,0,0,1-5.832,0,4.5,4.5,0,0,1-1.09-3.187Zm2.258.16a3.16,3.16,0,0,0,.453,1.843,1.628,1.628,0,0,0,2.578.008,3.457,3.457,0,0,0,.461-2.015,3.128,3.128,0,0,0-.461-1.831,1.5,1.5,0,0,0-1.3-.649,1.474,1.474,0,0,0-1.281.646A3.516,3.516,0,0,0,63.406,19.856Zm10.3.949,1.563-5.258h2.422l-3.4,9.766-.187.445a2.577,2.577,0,0,1-2.5,1.656,3.552,3.552,0,0,1-1-.148V25.555l.344.008a1.857,1.857,0,0,0,.957-.2,1.283,1.283,0,0,0,.5-.648l.266-.7L69.7,15.547h2.43ZM83.477,24a2.507,2.507,0,0,1-.227-.758,2.732,2.732,0,0,1-2.133.914,3,3,0,0,1-2.059-.719,2.312,2.312,0,0,1-.816-1.812,2.389,2.389,0,0,1,1-2.062,4.915,4.915,0,0,1,2.879-.727h1.039v-.484a1.393,1.393,0,0,0-.3-.937,1.183,1.183,0,0,0-.949-.352,1.345,1.345,0,0,0-.895.273.929.929,0,0,0-.324.75H78.43a2.268,2.268,0,0,1,.453-1.359,3,3,0,0,1,1.281-.98,4.669,4.669,0,0,1,1.859-.355,3.689,3.689,0,0,1,2.48.785,2.747,2.747,0,0,1,.918,2.207v3.664a4.041,4.041,0,0,0,.336,1.82V24Zm-1.867-1.57a1.945,1.945,0,0,0,.922-.223,1.462,1.462,0,0,0,.625-.6V20.156h-.844q-1.7,0-1.8,1.172l-.008.133a.9.9,0,0,0,.3.7A1.153,1.153,0,0,0,81.609,22.43Zm10.3-4.766a6.134,6.134,0,0,0-.812-.062,1.654,1.654,0,0,0-1.68.867V24H87.156V15.547h2.133l.063,1.008a2.092,2.092,0,0,1,1.883-1.164,2.366,2.366,0,0,1,.7.1ZM-115.375,48.156a4.15,4.15,0,0,1-3.027-1.141,4.054,4.054,0,0,1-1.168-3.039v-.219a5.106,5.106,0,0,1,.492-2.277,3.612,3.612,0,0,1,1.395-1.547,3.914,3.914,0,0,1,2.059-.543,3.508,3.508,0,0,1,2.73,1.094,4.444,4.444,0,0,1,1,3.1v.922h-5.383a2.1,2.1,0,0,0,.66,1.328,2,2,0,0,0,1.395.5,2.437,2.437,0,0,0,2.039-.945l1.109,1.242a3.389,3.389,0,0,1-1.375,1.121A4.511,4.511,0,0,1-115.375,48.156Zm-.258-6.945a1.411,1.411,0,0,0-1.09.455,2.357,2.357,0,0,0-.535,1.3h3.141v-.181a1.681,1.681,0,0,0-.406-1.165A1.456,1.456,0,0,0-115.633,41.211Zm7.4,6.789H-110.5V36h2.266Zm13.453-4.148a5.07,5.07,0,0,1-.887,3.129,2.843,2.843,0,0,1-2.395,1.176,2.633,2.633,0,0,1-2.07-.891V51.25h-2.258v-11.7h2.094l.078.828a2.654,2.654,0,0,1,2.141-.984,2.862,2.862,0,0,1,2.43,1.156,5.207,5.207,0,0,1,.867,3.188Zm-2.258-.164a3.327,3.327,0,0,0-.418-1.82,1.361,1.361,0,0,0-1.215-.641,1.478,1.478,0,0,0-1.461.813V45.5a1.5,1.5,0,0,0,1.477.836Q-97.039,46.336-97.039,43.688Zm8.406-2.023a6.134,6.134,0,0,0-.812-.062,1.654,1.654,0,0,0-1.68.867V48h-2.258V39.547h2.133l.063,1.008A2.092,2.092,0,0,1-89.3,39.391a2.366,2.366,0,0,1,.7.1Zm.453,2.031a5.013,5.013,0,0,1,.484-2.242A3.546,3.546,0,0,1-86.3,39.93a4.069,4.069,0,0,1,2.113-.539,3.849,3.849,0,0,1,2.793,1.047,4.2,4.2,0,0,1,1.207,2.844l.016.578a4.418,4.418,0,0,1-1.086,3.121,3.775,3.775,0,0,1-2.914,1.176,3.793,3.793,0,0,1-2.918-1.172A4.5,4.5,0,0,1-88.18,43.8Zm2.258.16a3.16,3.16,0,0,0,.453,1.843,1.5,1.5,0,0,0,1.3.638,1.5,1.5,0,0,0,1.281-.63,3.457,3.457,0,0,0,.461-2.015,3.128,3.128,0,0,0-.461-1.831,1.5,1.5,0,0,0-1.3-.649,1.474,1.474,0,0,0-1.281.646A3.516,3.516,0,0,0-85.922,43.856Zm10.656,2.48a1.481,1.481,0,0,0,1.016-.344,1.2,1.2,0,0,0,.406-.914h2.117a2.9,2.9,0,0,1-.469,1.574,3.093,3.093,0,0,1-1.262,1.109,3.949,3.949,0,0,1-1.77.395A3.67,3.67,0,0,1-78.086,47a4.56,4.56,0,0,1-1.047-3.184v-.148a4.508,4.508,0,0,1,1.039-3.117,3.627,3.627,0,0,1,2.852-1.164,3.555,3.555,0,0,1,2.543.9,3.2,3.2,0,0,1,.973,2.4h-2.117a1.551,1.551,0,0,0-.406-1.072,1.354,1.354,0,0,0-1.031-.412,1.36,1.36,0,0,0-1.191.575,3.333,3.333,0,0,0-.4,1.866v.235a3.375,3.375,0,0,0,.4,1.878A1.377,1.377,0,0,0-75.266,46.336Zm8.719,1.82a4.15,4.15,0,0,1-3.027-1.141,4.054,4.054,0,0,1-1.168-3.039v-.219a5.106,5.106,0,0,1,.492-2.277,3.612,3.612,0,0,1,1.395-1.547,3.914,3.914,0,0,1,2.059-.543,3.508,3.508,0,0,1,2.73,1.094,4.444,4.444,0,0,1,1,3.1v.922h-5.383a2.1,2.1,0,0,0,.66,1.328,2,2,0,0,0,1.395.5,2.437,2.437,0,0,0,2.039-.945l1.109,1.242a3.389,3.389,0,0,1-1.375,1.121A4.511,4.511,0,0,1-66.547,48.156Zm-.258-6.945a1.411,1.411,0,0,0-1.09.455,2.357,2.357,0,0,0-.535,1.3h3.141v-.181a1.681,1.681,0,0,0-.406-1.165A1.456,1.456,0,0,0-66.8,41.211Zm9.594,4.453a.727.727,0,0,0-.41-.652,4.659,4.659,0,0,0-1.316-.426q-3.016-.633-3.016-2.562a2.323,2.323,0,0,1,.934-1.879,3.766,3.766,0,0,1,2.441-.754A4.053,4.053,0,0,1-56,40.148a2.388,2.388,0,0,1,.965,1.969H-57.3a1.092,1.092,0,0,0-.312-.8A1.322,1.322,0,0,0-58.586,41a1.351,1.351,0,0,0-.883.258.814.814,0,0,0-.312.656.7.7,0,0,0,.355.605,3.657,3.657,0,0,0,1.2.4A9.8,9.8,0,0,1-56.8,43.3a2.336,2.336,0,0,1,1.789,2.273,2.205,2.205,0,0,1-.992,1.871,4.28,4.28,0,0,1-2.562.715,4.47,4.47,0,0,1-1.887-.379,3.166,3.166,0,0,1-1.293-1.039,2.414,2.414,0,0,1-.469-1.426h2.141a1.179,1.179,0,0,0,.445.922,1.766,1.766,0,0,0,1.109.32,1.635,1.635,0,0,0,.98-.246A.766.766,0,0,0-57.211,45.664Zm3.3-1.969a5.013,5.013,0,0,1,.484-2.242,3.546,3.546,0,0,1,1.395-1.523,4.069,4.069,0,0,1,2.113-.539,3.849,3.849,0,0,1,2.793,1.047,4.2,4.2,0,0,1,1.207,2.844l.016.578a4.418,4.418,0,0,1-1.086,3.121,3.775,3.775,0,0,1-2.914,1.176,3.793,3.793,0,0,1-2.918-1.172,4.5,4.5,0,0,1-1.09-3.187Zm2.258.16A3.16,3.16,0,0,0-51.2,45.7a1.5,1.5,0,0,0,1.3.638,1.5,1.5,0,0,0,1.281-.63,3.457,3.457,0,0,0,.461-2.015,3.128,3.128,0,0,0-.461-1.831,1.5,1.5,0,0,0-1.3-.649,1.474,1.474,0,0,0-1.281.646A3.516,3.516,0,0,0-51.656,43.856Zm10.773-.145A5.094,5.094,0,0,1-40,40.563a2.877,2.877,0,0,1,2.426-1.172,2.589,2.589,0,0,1,2.039.922V36h2.266V48H-35.3l-.109-.9a2.657,2.657,0,0,1-2.172,1.055A2.869,2.869,0,0,1-39.98,46.98,5.258,5.258,0,0,1-40.883,43.711Zm2.258.168a3.337,3.337,0,0,0,.414,1.823,1.349,1.349,0,0,0,1.2.634,1.511,1.511,0,0,0,1.477-.884V42.111a1.489,1.489,0,0,0-1.461-.884Q-38.625,41.227-38.625,43.879Zm11,4.277a4.15,4.15,0,0,1-3.027-1.141,4.054,4.054,0,0,1-1.168-3.039v-.219a5.106,5.106,0,0,1,.492-2.277,3.612,3.612,0,0,1,1.395-1.547,3.914,3.914,0,0,1,2.059-.543,3.508,3.508,0,0,1,2.73,1.094,4.444,4.444,0,0,1,1,3.1v.922h-5.383a2.1,2.1,0,0,0,.66,1.328,2,2,0,0,0,1.395.5,2.437,2.437,0,0,0,2.039-.945l1.109,1.242A3.389,3.389,0,0,1-25.7,47.754,4.511,4.511,0,0,1-27.625,48.156Zm-.258-6.945a1.411,1.411,0,0,0-1.09.455,2.357,2.357,0,0,0-.535,1.3h3.141v-.181a1.681,1.681,0,0,0-.406-1.165A1.456,1.456,0,0,0-27.883,41.211Zm11.7-3.742v2.078h1.445V41.2H-16.18v4.219a1.007,1.007,0,0,0,.18.672.9.9,0,0,0,.688.2,3.6,3.6,0,0,0,.664-.055v1.711a4.648,4.648,0,0,1-1.367.2,2.156,2.156,0,0,1-2.422-2.4V41.2h-1.234V39.547h1.234V37.469Zm2.117,6.227a5.013,5.013,0,0,1,.484-2.242,3.546,3.546,0,0,1,1.395-1.523,4.069,4.069,0,0,1,2.113-.539,3.849,3.849,0,0,1,2.793,1.047A4.2,4.2,0,0,1-6.07,43.281l.016.578A4.418,4.418,0,0,1-7.141,46.98a3.775,3.775,0,0,1-2.914,1.176,3.793,3.793,0,0,1-2.918-1.172,4.5,4.5,0,0,1-1.09-3.187Zm2.258.16a3.16,3.16,0,0,0,.453,1.843,1.5,1.5,0,0,0,1.3.638,1.5,1.5,0,0,0,1.281-.63,3.457,3.457,0,0,0,.461-2.015,3.128,3.128,0,0,0-.461-1.831,1.5,1.5,0,0,0-1.3-.649,1.474,1.474,0,0,0-1.281.646A3.516,3.516,0,0,0-11.8,43.856Zm9.258-4.309.07.945a2.971,2.971,0,0,1,2.43-1.1A2.255,2.255,0,0,1,2.2,40.68a2.9,2.9,0,0,1,2.539-1.289,2.521,2.521,0,0,1,2.047.8,3.681,3.681,0,0,1,.672,2.41V48H5.188V42.609a1.61,1.61,0,0,0-.281-1.051,1.246,1.246,0,0,0-.992-.332,1.409,1.409,0,0,0-1.406.969L2.516,48H.258V42.617a1.59,1.59,0,0,0-.289-1.062,1.259,1.259,0,0,0-.984-.328,1.463,1.463,0,0,0-1.391.8V48H-4.664V39.547ZM14.086,48a2.507,2.507,0,0,1-.227-.758,2.732,2.732,0,0,1-2.133.914,3,3,0,0,1-2.059-.719,2.312,2.312,0,0,1-.816-1.812,2.389,2.389,0,0,1,1-2.062,4.915,4.915,0,0,1,2.879-.727h1.039v-.484a1.393,1.393,0,0,0-.3-.937,1.183,1.183,0,0,0-.949-.352,1.345,1.345,0,0,0-.895.273.929.929,0,0,0-.324.75H9.039a2.268,2.268,0,0,1,.453-1.359,3,3,0,0,1,1.281-.98,4.669,4.669,0,0,1,1.859-.355,3.689,3.689,0,0,1,2.48.785,2.747,2.747,0,0,1,.918,2.207v3.664a4.041,4.041,0,0,0,.336,1.82V48Zm-1.867-1.57a1.945,1.945,0,0,0,.922-.223,1.462,1.462,0,0,0,.625-.6V44.156h-.844q-1.7,0-1.8,1.172l-.008.133a.9.9,0,0,0,.3.7A1.153,1.153,0,0,0,12.219,46.43Zm9.18-2.719a5.094,5.094,0,0,1,.887-3.148,2.877,2.877,0,0,1,2.426-1.172,2.589,2.589,0,0,1,2.039.922V36h2.266V48H26.977l-.109-.9A2.657,2.657,0,0,1,24.7,48.156,2.869,2.869,0,0,1,22.3,46.98,5.258,5.258,0,0,1,21.4,43.711Zm2.258.168A3.337,3.337,0,0,0,24.07,45.7a1.349,1.349,0,0,0,1.2.634,1.511,1.511,0,0,0,1.477-.884V42.111a1.489,1.489,0,0,0-1.461-.884Q23.656,41.227,23.656,43.879Zm11,4.277a4.15,4.15,0,0,1-3.027-1.141,4.054,4.054,0,0,1-1.168-3.039v-.219a5.106,5.106,0,0,1,.492-2.277,3.612,3.612,0,0,1,1.395-1.547,3.914,3.914,0,0,1,2.059-.543,3.508,3.508,0,0,1,2.73,1.094,4.444,4.444,0,0,1,1,3.1v.922H32.75a2.1,2.1,0,0,0,.66,1.328,2,2,0,0,0,1.395.5,2.437,2.437,0,0,0,2.039-.945l1.109,1.242a3.389,3.389,0,0,1-1.375,1.121A4.511,4.511,0,0,1,34.656,48.156ZM34.4,41.211a1.411,1.411,0,0,0-1.09.455,2.357,2.357,0,0,0-.535,1.3h3.141v-.181a1.681,1.681,0,0,0-.406-1.165A1.456,1.456,0,0,0,34.4,41.211Zm8.648,2.5a5.094,5.094,0,0,1,.887-3.148,2.877,2.877,0,0,1,2.426-1.172,2.589,2.589,0,0,1,2.039.922V36h2.266V48H48.625l-.109-.9a2.657,2.657,0,0,1-2.172,1.055,2.869,2.869,0,0,1-2.395-1.176A5.258,5.258,0,0,1,43.047,43.711Zm2.258.168a3.337,3.337,0,0,0,.414,1.823,1.349,1.349,0,0,0,1.2.634,1.511,1.511,0,0,0,1.477-.884V42.111a1.489,1.489,0,0,0-1.461-.884Q45.3,41.227,45.3,43.879Zm11,4.277a4.15,4.15,0,0,1-3.027-1.141,4.054,4.054,0,0,1-1.168-3.039v-.219A5.106,5.106,0,0,1,52.6,41.48,3.612,3.612,0,0,1,54,39.934a3.914,3.914,0,0,1,2.059-.543,3.508,3.508,0,0,1,2.73,1.094,4.444,4.444,0,0,1,1,3.1v.922H54.4a2.1,2.1,0,0,0,.66,1.328,2,2,0,0,0,1.395.5,2.437,2.437,0,0,0,2.039-.945L59.6,46.633a3.389,3.389,0,0,1-1.375,1.121A4.511,4.511,0,0,1,56.3,48.156Zm-.258-6.945a1.411,1.411,0,0,0-1.09.455,2.357,2.357,0,0,0-.535,1.3h3.141v-.181a1.681,1.681,0,0,0-.406-1.165A1.456,1.456,0,0,0,56.047,41.211Zm8.531,5.125a1.481,1.481,0,0,0,1.016-.344A1.2,1.2,0,0,0,66,45.078h2.117a2.9,2.9,0,0,1-.469,1.574,3.093,3.093,0,0,1-1.262,1.109,3.949,3.949,0,0,1-1.77.395A3.67,3.67,0,0,1,61.758,47a4.56,4.56,0,0,1-1.047-3.184v-.148a4.508,4.508,0,0,1,1.039-3.117A3.627,3.627,0,0,1,64.6,39.391a3.555,3.555,0,0,1,2.543.9,3.2,3.2,0,0,1,.973,2.4H66a1.551,1.551,0,0,0-.406-1.072,1.51,1.51,0,0,0-2.223.163,3.333,3.333,0,0,0-.4,1.866v.235a3.375,3.375,0,0,0,.4,1.878A1.377,1.377,0,0,0,64.578,46.336ZM71.789,48H69.523V39.547h2.266Zm-2.4-10.641a1.112,1.112,0,0,1,.34-.836,1.465,1.465,0,0,1,1.848,0,1.193,1.193,0,0,1,0,1.68,1.448,1.448,0,0,1-1.836,0A1.108,1.108,0,0,1,69.391,37.359Zm8.836,8.3a.727.727,0,0,0-.41-.652,4.659,4.659,0,0,0-1.316-.426q-3.016-.633-3.016-2.562a2.323,2.323,0,0,1,.934-1.879,3.766,3.766,0,0,1,2.441-.754,4.053,4.053,0,0,1,2.574.758,2.388,2.388,0,0,1,.965,1.969H78.141a1.092,1.092,0,0,0-.312-.8A1.322,1.322,0,0,0,76.852,41a1.351,1.351,0,0,0-.883.258.814.814,0,0,0-.312.656.7.7,0,0,0,.355.605,3.657,3.657,0,0,0,1.2.4,9.8,9.8,0,0,1,1.422.379,2.336,2.336,0,0,1,1.789,2.273,2.2,2.2,0,0,1-.992,1.871,4.28,4.28,0,0,1-2.562.715,4.47,4.47,0,0,1-1.887-.379,3.166,3.166,0,0,1-1.293-1.039,2.414,2.414,0,0,1-.469-1.426h2.141a1.179,1.179,0,0,0,.445.922,1.766,1.766,0,0,0,1.109.32,1.635,1.635,0,0,0,.98-.246A.766.766,0,0,0,78.227,45.664ZM84.258,48H81.992V39.547h2.266Zm-2.4-10.641a1.112,1.112,0,0,1,.34-.836,1.465,1.465,0,0,1,1.848,0,1.193,1.193,0,0,1,0,1.68,1.448,1.448,0,0,1-1.836,0A1.108,1.108,0,0,1,81.859,37.359ZM85.766,43.7a5.013,5.013,0,0,1,.484-2.242,3.546,3.546,0,0,1,1.395-1.523,4.069,4.069,0,0,1,2.113-.539,3.849,3.849,0,0,1,2.793,1.047,4.2,4.2,0,0,1,1.207,2.844l.016.578a4.418,4.418,0,0,1-1.086,3.121,4.209,4.209,0,0,1-5.832,0,4.5,4.5,0,0,1-1.09-3.187Zm2.258.16a3.16,3.16,0,0,0,.453,1.843,1.628,1.628,0,0,0,2.578.008,3.457,3.457,0,0,0,.461-2.015,3.128,3.128,0,0,0-.461-1.831,1.5,1.5,0,0,0-1.3-.649,1.474,1.474,0,0,0-1.281.646A3.516,3.516,0,0,0,88.023,43.856Zm9.219-4.309.07.977a2.951,2.951,0,0,1,2.43-1.133,2.453,2.453,0,0,1,2,.789,3.682,3.682,0,0,1,.672,2.359V48h-2.258V42.594a1.465,1.465,0,0,0-.312-1.043,1.4,1.4,0,0,0-1.039-.324,1.553,1.553,0,0,0-1.43.813V48H95.117V39.547Zm10.773,8.609a4.15,4.15,0,0,1-3.027-1.141,4.054,4.054,0,0,1-1.168-3.039v-.219a5.106,5.106,0,0,1,.492-2.277,3.612,3.612,0,0,1,1.395-1.547,3.914,3.914,0,0,1,2.059-.543,3.508,3.508,0,0,1,2.73,1.094,4.444,4.444,0,0,1,1,3.1v.922h-5.383a2.1,2.1,0,0,0,.66,1.328,2,2,0,0,0,1.395.5,2.437,2.437,0,0,0,2.039-.945l1.109,1.242a3.389,3.389,0,0,1-1.375,1.121A4.511,4.511,0,0,1,108.016,48.156Zm-.258-6.945a1.411,1.411,0,0,0-1.09.455,2.357,2.357,0,0,0-.535,1.3h3.141v-.181a1.681,1.681,0,0,0-.406-1.165A1.456,1.456,0,0,0,107.758,41.211Zm9.594,4.453a.727.727,0,0,0-.41-.652,4.659,4.659,0,0,0-1.316-.426q-3.016-.633-3.016-2.562a2.323,2.323,0,0,1,.934-1.879,3.766,3.766,0,0,1,2.441-.754,4.053,4.053,0,0,1,2.574.758,2.388,2.388,0,0,1,.965,1.969h-2.258a1.092,1.092,0,0,0-.312-.8,1.322,1.322,0,0,0-.977-.316,1.351,1.351,0,0,0-.883.258.814.814,0,0,0-.312.656.7.7,0,0,0,.355.605,3.657,3.657,0,0,0,1.2.4,9.8,9.8,0,0,1,1.422.379,2.336,2.336,0,0,1,1.789,2.273,2.2,2.2,0,0,1-.992,1.871,4.28,4.28,0,0,1-2.562.715,4.47,4.47,0,0,1-1.887-.379,3.166,3.166,0,0,1-1.293-1.039,2.414,2.414,0,0,1-.469-1.426h2.141a1.179,1.179,0,0,0,.445.922,1.766,1.766,0,0,0,1.109.32,1.635,1.635,0,0,0,.98-.246A.766.766,0,0,0,117.352,45.664Z" transform="translate(-13812.131 -9516.5)" fill="#12263f"/>
    <path id="Trazado_207577" data-name="Trazado 207577" d="M5,0H218a5,5,0,0,1,5,5V90a5,5,0,0,1-5,5H5a5,5,0,0,1-5-5V5A5,5,0,0,1,5,0Z" transform="translate(-14320 -9298)" fill="#fee4a9"/>
    <path id="Trazado_207578" data-name="Trazado 207578" d="M5,0H218a5,5,0,0,1,5,5V90a5,5,0,0,1-5,5H5a5,5,0,0,1-5-5V5A5,5,0,0,1,5,0Z" transform="translate(-13783.5 -9298)" fill="#fee4a9"/>
    <path id="Trazado_207579" data-name="Trazado 207579" d="M5,0H187a5,5,0,0,1,5,5V90a5,5,0,0,1-5,5H5a5,5,0,0,1-5-5V5A5,5,0,0,1,5,0Z" transform="translate(-14044 -9298)" fill="#fee4a9"/>
    <path id="Trazado_207580" data-name="Trazado 207580" d="M5,0H187a5,5,0,0,1,5,5V90a5,5,0,0,1-5,5H5a5,5,0,0,1-5-5V5A5,5,0,0,1,5,0Z" transform="translate(-13507.5 -9298)" fill="#fee4a9"/>
    <path id="Trazado_207581" data-name="Trazado 207581" d="M29.293,14.023H24.527L23.457,17H21.91L26.254,5.625h1.313L31.918,17H30.379ZM24.98,12.8h3.867L26.91,7.477ZM34.793,17H33.348V5h1.445Zm3.672-8.453.039.938a3.122,3.122,0,0,1,2.508-1.094A2.417,2.417,0,0,1,43.426,9.75a3.2,3.2,0,0,1,1.1-.984,3.242,3.242,0,0,1,1.6-.375q2.781,0,2.828,2.945V17H47.5V11.422a1.941,1.941,0,0,0-.414-1.355A1.823,1.823,0,0,0,45.7,9.617a1.917,1.917,0,0,0-1.336.48,1.949,1.949,0,0,0-.617,1.293V17H42.293V11.461a1.613,1.613,0,0,0-1.8-1.844,1.934,1.934,0,0,0-1.945,1.211V17H37.1V8.547ZM56.348,17a3.036,3.036,0,0,1-.2-.891,3.225,3.225,0,0,1-2.406,1.047,2.984,2.984,0,0,1-2.051-.707,2.287,2.287,0,0,1-.8-1.793,2.39,2.39,0,0,1,1-2.051,4.733,4.733,0,0,1,2.824-.73h1.406v-.664A1.623,1.623,0,0,0,55.668,10a1.821,1.821,0,0,0-1.336-.449,2.107,2.107,0,0,0-1.3.391,1.151,1.151,0,0,0-.523.945H51.059a2,2,0,0,1,.449-1.223,3.066,3.066,0,0,1,1.219-.934,4.1,4.1,0,0,1,1.691-.344,3.342,3.342,0,0,1,2.289.73,2.635,2.635,0,0,1,.859,2.012v3.891a4.757,4.757,0,0,0,.3,1.852V17Zm-2.4-1.1a2.54,2.54,0,0,0,1.289-.352,2.127,2.127,0,0,0,.883-.914V12.9H54.988q-2.656,0-2.656,1.555a1.316,1.316,0,0,0,.453,1.063A1.742,1.742,0,0,0,53.949,15.9Zm9.273.078a2.082,2.082,0,0,0,1.352-.469,1.649,1.649,0,0,0,.641-1.172h1.367a2.621,2.621,0,0,1-.5,1.383,3.293,3.293,0,0,1-1.23,1.047,3.55,3.55,0,0,1-1.629.391A3.482,3.482,0,0,1,60.477,16a4.59,4.59,0,0,1-1.02-3.152v-.242a5.089,5.089,0,0,1,.453-2.2,3.451,3.451,0,0,1,1.3-1.492,3.7,3.7,0,0,1,2-.531,3.39,3.39,0,0,1,2.363.852,3.043,3.043,0,0,1,1,2.211H65.215a1.992,1.992,0,0,0-.621-1.348,1.932,1.932,0,0,0-1.379-.527,2.023,2.023,0,0,0-1.707.793,3.724,3.724,0,0,0-.605,2.293v.273a3.65,3.65,0,0,0,.6,2.25A2.033,2.033,0,0,0,63.223,15.977Zm8.492,1.18a3.693,3.693,0,0,1-2.8-1.129,4.19,4.19,0,0,1-1.078-3.02v-.266a5.073,5.073,0,0,1,.48-2.246,3.748,3.748,0,0,1,1.344-1.547,3.378,3.378,0,0,1,1.871-.559A3.166,3.166,0,0,1,74.1,9.477a4.7,4.7,0,0,1,.914,3.109v.6H69.285a3,3,0,0,0,.73,2.02,2.3,2.3,0,0,0,1.777.77,2.517,2.517,0,0,0,1.3-.312,3.259,3.259,0,0,0,.93-.828l.883.688A3.55,3.55,0,0,1,71.715,17.156Zm-.18-7.578a1.928,1.928,0,0,0-1.469.637A3.1,3.1,0,0,0,69.332,12h4.234v-.109a2.753,2.753,0,0,0-.594-1.707A1.815,1.815,0,0,0,71.535,9.578Zm6.516-1.031L78.1,9.609a3.08,3.08,0,0,1,2.531-1.219q2.68,0,2.7,3.023V17H81.887V11.406a1.946,1.946,0,0,0-.418-1.352,1.675,1.675,0,0,0-1.277-.437,2.086,2.086,0,0,0-1.234.375,2.546,2.546,0,0,0-.828.984V17H76.684V8.547ZM90.73,17a3.036,3.036,0,0,1-.2-.891,3.225,3.225,0,0,1-2.406,1.047,2.984,2.984,0,0,1-2.051-.707,2.288,2.288,0,0,1-.8-1.793,2.39,2.39,0,0,1,1-2.051,4.733,4.733,0,0,1,2.824-.73H90.5v-.664A1.623,1.623,0,0,0,90.051,10a1.821,1.821,0,0,0-1.336-.449,2.108,2.108,0,0,0-1.3.391,1.151,1.151,0,0,0-.523.945H85.441a2,2,0,0,1,.449-1.223,3.066,3.066,0,0,1,1.219-.934A4.1,4.1,0,0,1,88.8,8.391a3.342,3.342,0,0,1,2.289.73,2.635,2.635,0,0,1,.859,2.012v3.891a4.757,4.757,0,0,0,.3,1.852V17Zm-2.4-1.1a2.54,2.54,0,0,0,1.289-.352,2.127,2.127,0,0,0,.883-.914V12.9H89.371q-2.656,0-2.656,1.555a1.316,1.316,0,0,0,.453,1.063A1.742,1.742,0,0,0,88.332,15.9Zm5.531-3.2a4.952,4.952,0,0,1,.922-3.129,3.137,3.137,0,0,1,4.766-.168V5H101V17H99.668l-.07-.906a2.943,2.943,0,0,1-2.414,1.063,2.887,2.887,0,0,1-2.395-1.2,5.008,5.008,0,0,1-.926-3.141Zm1.445.164a3.749,3.749,0,0,0,.594,2.25,1.92,1.92,0,0,0,1.641.813A2.108,2.108,0,0,0,99.551,14.7V10.813a2.125,2.125,0,0,0-1.992-1.2,1.929,1.929,0,0,0-1.656.82A4.128,4.128,0,0,0,95.309,12.867ZM108.457,17a3.036,3.036,0,0,1-.2-.891,3.225,3.225,0,0,1-2.406,1.047,2.984,2.984,0,0,1-2.051-.707,2.288,2.288,0,0,1-.8-1.793,2.39,2.39,0,0,1,1-2.051,4.733,4.733,0,0,1,2.824-.73h1.406v-.664A1.623,1.623,0,0,0,107.777,10a1.821,1.821,0,0,0-1.336-.449,2.108,2.108,0,0,0-1.3.391,1.151,1.151,0,0,0-.523.945h-1.453a2,2,0,0,1,.449-1.223,3.066,3.066,0,0,1,1.219-.934,4.1,4.1,0,0,1,1.691-.344,3.342,3.342,0,0,1,2.289.73,2.635,2.635,0,0,1,.859,2.012v3.891a4.757,4.757,0,0,0,.3,1.852V17Zm-2.4-1.1a2.54,2.54,0,0,0,1.289-.352,2.127,2.127,0,0,0,.883-.914V12.9H107.1q-2.656,0-2.656,1.555a1.316,1.316,0,0,0,.453,1.063A1.742,1.742,0,0,0,106.059,15.9Zm9.492-3.2a4.952,4.952,0,0,1,.922-3.129,3.137,3.137,0,0,1,4.766-.168V5h1.445V17h-1.328l-.07-.906a2.943,2.943,0,0,1-2.414,1.063,2.887,2.887,0,0,1-2.395-1.2,5.008,5.008,0,0,1-.926-3.141Zm1.445.164a3.749,3.749,0,0,0,.594,2.25,1.92,1.92,0,0,0,1.641.813,2.108,2.108,0,0,0,2.008-1.234V10.813a2.125,2.125,0,0,0-1.992-1.2,1.929,1.929,0,0,0-1.656.82A4.128,4.128,0,0,0,117,12.867Zm11.438,4.289a3.693,3.693,0,0,1-2.8-1.129,4.19,4.19,0,0,1-1.078-3.02v-.266a5.073,5.073,0,0,1,.48-2.246,3.748,3.748,0,0,1,1.344-1.547,3.378,3.378,0,0,1,1.871-.559,3.166,3.166,0,0,1,2.563,1.086,4.7,4.7,0,0,1,.914,3.109v.6H126a3,3,0,0,0,.73,2.02,2.3,2.3,0,0,0,1.777.77,2.517,2.517,0,0,0,1.3-.312,3.258,3.258,0,0,0,.93-.828l.883.688A3.55,3.55,0,0,1,128.434,17.156Zm-.18-7.578a1.928,1.928,0,0,0-1.469.637A3.1,3.1,0,0,0,126.051,12h4.234v-.109a2.753,2.753,0,0,0-.594-1.707A1.815,1.815,0,0,0,128.254,9.578ZM11.012,28.844a4.331,4.331,0,0,0-.711-.055A1.9,1.9,0,0,0,8.371,30v6H6.926V27.547H8.332l.023.977a2.251,2.251,0,0,1,2.016-1.133,1.477,1.477,0,0,1,.641.109Zm4.836,7.313a3.693,3.693,0,0,1-2.8-1.129,4.19,4.19,0,0,1-1.078-3.02v-.266a5.073,5.073,0,0,1,.48-2.246A3.748,3.748,0,0,1,13.8,27.949a3.378,3.378,0,0,1,1.871-.559,3.166,3.166,0,0,1,2.563,1.086,4.7,4.7,0,0,1,.914,3.109v.6H13.418a3,3,0,0,0,.73,2.02,2.3,2.3,0,0,0,1.777.77,2.517,2.517,0,0,0,1.3-.312,3.259,3.259,0,0,0,.93-.828l.883.688A3.55,3.55,0,0,1,15.848,36.156Zm-.18-7.578a1.928,1.928,0,0,0-1.469.637A3.1,3.1,0,0,0,13.465,31H17.7v-.109a2.753,2.753,0,0,0-.594-1.707A1.815,1.815,0,0,0,15.668,28.578Zm12.289,3.289a5.062,5.062,0,0,1-.883,3.109,2.829,2.829,0,0,1-2.391,1.18,3.1,3.1,0,0,1-2.422-.977v4.07H20.816v-11.7h1.32l.07.938a2.977,2.977,0,0,1,2.453-1.094,2.882,2.882,0,0,1,2.41,1.148,5.117,5.117,0,0,1,.887,3.2ZM26.512,31.7a3.735,3.735,0,0,0-.609-2.258,1.963,1.963,0,0,0-1.672-.828,2.125,2.125,0,0,0-1.969,1.164V33.82a2.129,2.129,0,0,0,1.984,1.156,1.954,1.954,0,0,0,1.652-.824A4.077,4.077,0,0,0,26.512,31.7Zm2.9-.008a4.993,4.993,0,0,1,.488-2.234,3.643,3.643,0,0,1,1.359-1.531,3.7,3.7,0,0,1,1.988-.539,3.565,3.565,0,0,1,2.793,1.2,4.6,4.6,0,0,1,1.066,3.18v.1a5.036,5.036,0,0,1-.473,2.215,3.589,3.589,0,0,1-1.352,1.527,3.743,3.743,0,0,1-2.02.547,3.556,3.556,0,0,1-2.785-1.2A4.575,4.575,0,0,1,29.41,31.8Zm1.453.172a3.616,3.616,0,0,0,.652,2.258,2.211,2.211,0,0,0,3.5-.012A3.955,3.955,0,0,0,35.66,31.7,3.61,3.61,0,0,0,35,29.441a2.1,2.1,0,0,0-1.754-.863,2.075,2.075,0,0,0-1.727.852A3.925,3.925,0,0,0,30.863,31.867ZM43.84,33.758a1.064,1.064,0,0,0-.441-.91,4.249,4.249,0,0,0-1.539-.559,7.277,7.277,0,0,1-1.742-.562,2.479,2.479,0,0,1-.953-.781,1.869,1.869,0,0,1-.309-1.078,2.193,2.193,0,0,1,.879-1.758,3.432,3.432,0,0,1,2.246-.719,3.532,3.532,0,0,1,2.332.742,2.357,2.357,0,0,1,.895,1.9H43.754a1.3,1.3,0,0,0-.5-1.023,1.888,1.888,0,0,0-1.27-.43,1.976,1.976,0,0,0-1.234.344,1.082,1.082,0,0,0-.445.9.877.877,0,0,0,.414.789,5.1,5.1,0,0,0,1.5.508,7.8,7.8,0,0,1,1.754.578,2.558,2.558,0,0,1,1,.809,1.988,1.988,0,0,1,.324,1.152,2.163,2.163,0,0,1-.906,1.816,3.8,3.8,0,0,1-2.352.684,4.257,4.257,0,0,1-1.8-.359,2.922,2.922,0,0,1-1.223-1,2.42,2.42,0,0,1-.441-1.395h1.445a1.5,1.5,0,0,0,.582,1.152,2.258,2.258,0,0,0,1.434.426,2.331,2.331,0,0,0,1.316-.332A1.02,1.02,0,0,0,43.84,33.758ZM48.738,36H47.293V27.547h1.445ZM47.176,25.3a.863.863,0,0,1,.215-.594.807.807,0,0,1,.637-.242.819.819,0,0,1,.641.242.854.854,0,0,1,.219.594.826.826,0,0,1-.219.586.834.834,0,0,1-.641.234.821.821,0,0,1-.637-.234A.834.834,0,0,1,47.176,25.3Zm5.836.2v2.047H54.59v1.117H53.012v5.249a1.173,1.173,0,0,0,.211.763.888.888,0,0,0,.719.254,3.5,3.5,0,0,0,.688-.094V36a4.215,4.215,0,0,1-1.109.155,1.8,1.8,0,0,1-1.461-.586,2.517,2.517,0,0,1-.492-1.664V28.664H50.027V27.547h1.539V25.5Zm2.727,6.2a4.993,4.993,0,0,1,.488-2.234,3.643,3.643,0,0,1,1.359-1.531,3.7,3.7,0,0,1,1.988-.539,3.565,3.565,0,0,1,2.793,1.2,4.6,4.6,0,0,1,1.066,3.18v.1a5.036,5.036,0,0,1-.473,2.215,3.589,3.589,0,0,1-1.352,1.527,3.743,3.743,0,0,1-2.02.547,3.556,3.556,0,0,1-2.785-1.2A4.575,4.575,0,0,1,55.738,31.8Zm1.453.172a3.616,3.616,0,0,0,.652,2.258,2.211,2.211,0,0,0,3.5-.012,3.955,3.955,0,0,0,.648-2.418,3.61,3.61,0,0,0-.66-2.254,2.1,2.1,0,0,0-1.754-.863,2.075,2.075,0,0,0-1.727.852A3.925,3.925,0,0,0,57.191,31.867Zm12.141-3.023a4.331,4.331,0,0,0-.711-.055A1.9,1.9,0,0,0,66.691,30v6H65.246V27.547h1.406l.023.977a2.251,2.251,0,0,1,2.016-1.133,1.477,1.477,0,0,1,.641.109ZM72.23,36H70.785V27.547H72.23ZM70.668,25.3a.863.863,0,0,1,.215-.594.807.807,0,0,1,.637-.242.819.819,0,0,1,.641.242.854.854,0,0,1,.219.594.826.826,0,0,1-.219.586.834.834,0,0,1-.641.234.821.821,0,0,1-.637-.234A.834.834,0,0,1,70.668,25.3ZM74.16,31.7a4.993,4.993,0,0,1,.488-2.234,3.643,3.643,0,0,1,1.359-1.531A3.7,3.7,0,0,1,78,27.391a3.565,3.565,0,0,1,2.793,1.2,4.6,4.6,0,0,1,1.066,3.18v.1a5.036,5.036,0,0,1-.473,2.215,3.589,3.589,0,0,1-1.352,1.527,3.743,3.743,0,0,1-2.02.547,3.556,3.556,0,0,1-2.785-1.2A4.575,4.575,0,0,1,74.16,31.8Zm1.453.172a3.616,3.616,0,0,0,.652,2.258,2.211,2.211,0,0,0,3.5-.012A3.955,3.955,0,0,0,80.41,31.7a3.61,3.61,0,0,0-.66-2.254A2.1,2.1,0,0,0,78,28.578a2.075,2.075,0,0,0-1.727.852A3.925,3.925,0,0,0,75.613,31.867ZM87.277,31.7a4.952,4.952,0,0,1,.922-3.129,3.137,3.137,0,0,1,4.766-.168V24H94.41V36H93.082l-.07-.906A2.943,2.943,0,0,1,90.6,36.156a2.887,2.887,0,0,1-2.395-1.2,5.008,5.008,0,0,1-.926-3.141Zm1.445.164a3.749,3.749,0,0,0,.594,2.25,1.92,1.92,0,0,0,1.641.813A2.108,2.108,0,0,0,92.965,33.7V29.813a2.125,2.125,0,0,0-1.992-1.2,1.929,1.929,0,0,0-1.656.82A4.128,4.128,0,0,0,88.723,31.867Zm11.438,4.289a3.693,3.693,0,0,1-2.8-1.129,4.19,4.19,0,0,1-1.078-3.02v-.266a5.073,5.073,0,0,1,.48-2.246,3.748,3.748,0,0,1,1.344-1.547,3.378,3.378,0,0,1,1.871-.559,3.166,3.166,0,0,1,2.563,1.086,4.7,4.7,0,0,1,.914,3.109v.6H97.73a3,3,0,0,0,.73,2.02,2.3,2.3,0,0,0,1.777.77,2.517,2.517,0,0,0,1.3-.312,3.259,3.259,0,0,0,.93-.828l.883.688A3.55,3.55,0,0,1,100.16,36.156Zm-.18-7.578a1.928,1.928,0,0,0-1.469.637A3.1,3.1,0,0,0,97.777,31h4.234v-.109a2.753,2.753,0,0,0-.594-1.707A1.815,1.815,0,0,0,99.98,28.578Zm8.758,3.125a4.952,4.952,0,0,1,.922-3.129,3.137,3.137,0,0,1,4.766-.168V24h1.445V36h-1.328l-.07-.906a2.943,2.943,0,0,1-2.414,1.063,2.887,2.887,0,0,1-2.395-1.2,5.008,5.008,0,0,1-.926-3.141Zm1.445.164a3.749,3.749,0,0,0,.594,2.25,1.92,1.92,0,0,0,1.641.813,2.108,2.108,0,0,0,2.008-1.234V29.813a2.125,2.125,0,0,0-1.992-1.2,1.929,1.929,0,0,0-1.656.82A4.128,4.128,0,0,0,110.184,31.867ZM123.332,36a3.036,3.036,0,0,1-.2-.891,3.225,3.225,0,0,1-2.406,1.047,2.984,2.984,0,0,1-2.051-.707,2.288,2.288,0,0,1-.8-1.793,2.39,2.39,0,0,1,1-2.051,4.733,4.733,0,0,1,2.824-.73h1.406v-.664A1.623,1.623,0,0,0,122.652,29a1.821,1.821,0,0,0-1.336-.449,2.108,2.108,0,0,0-1.3.391,1.151,1.151,0,0,0-.523.945h-1.453a2,2,0,0,1,.449-1.223,3.066,3.066,0,0,1,1.219-.934,4.1,4.1,0,0,1,1.691-.344,3.342,3.342,0,0,1,2.289.73,2.635,2.635,0,0,1,.859,2.012v3.891a4.757,4.757,0,0,0,.3,1.852V36Zm-2.4-1.1a2.54,2.54,0,0,0,1.289-.352,2.127,2.127,0,0,0,.883-.914V31.9h-1.133q-2.656,0-2.656,1.555a1.316,1.316,0,0,0,.453,1.063A1.742,1.742,0,0,0,120.934,34.9Zm7.844-9.4v2.047h1.578v1.117h-1.578v5.249a1.173,1.173,0,0,0,.211.763.888.888,0,0,0,.719.254,3.5,3.5,0,0,0,.688-.094V36a4.215,4.215,0,0,1-1.109.155,1.8,1.8,0,0,1-1.461-.586,2.517,2.517,0,0,1-.492-1.664V28.664h-1.539V27.547h1.539V25.5Zm2.727,6.2a4.993,4.993,0,0,1,.488-2.234,3.642,3.642,0,0,1,1.359-1.531,3.7,3.7,0,0,1,1.988-.539,3.565,3.565,0,0,1,2.793,1.2,4.6,4.6,0,0,1,1.066,3.18v.1a5.036,5.036,0,0,1-.473,2.215,3.589,3.589,0,0,1-1.352,1.527,3.743,3.743,0,0,1-2.02.547,3.556,3.556,0,0,1-2.785-1.2A4.575,4.575,0,0,1,131.5,31.8Zm1.453.172a3.616,3.616,0,0,0,.652,2.258,2.211,2.211,0,0,0,3.5-.012,3.954,3.954,0,0,0,.648-2.418,3.61,3.61,0,0,0-.66-2.254,2.1,2.1,0,0,0-1.754-.863,2.075,2.075,0,0,0-1.727.852A3.925,3.925,0,0,0,132.957,31.867Zm12.977,1.891a1.064,1.064,0,0,0-.441-.91,4.249,4.249,0,0,0-1.539-.559,7.277,7.277,0,0,1-1.742-.562,2.479,2.479,0,0,1-.953-.781,1.869,1.869,0,0,1-.309-1.078,2.193,2.193,0,0,1,.879-1.758,3.432,3.432,0,0,1,2.246-.719,3.532,3.532,0,0,1,2.332.742,2.357,2.357,0,0,1,.895,1.9h-1.453a1.3,1.3,0,0,0-.5-1.023,1.888,1.888,0,0,0-1.27-.43,1.976,1.976,0,0,0-1.234.344,1.082,1.082,0,0,0-.445.9.877.877,0,0,0,.414.789,5.1,5.1,0,0,0,1.5.508,7.8,7.8,0,0,1,1.754.578,2.558,2.558,0,0,1,1,.809,1.988,1.988,0,0,1,.324,1.152,2.163,2.163,0,0,1-.906,1.816,3.8,3.8,0,0,1-2.352.684,4.257,4.257,0,0,1-1.8-.359,2.922,2.922,0,0,1-1.223-1,2.42,2.42,0,0,1-.441-1.395h1.445a1.5,1.5,0,0,0,.582,1.152,2.258,2.258,0,0,0,1.434.426,2.331,2.331,0,0,0,1.316-.332A1.02,1.02,0,0,0,145.934,33.758ZM57.9,47.844a4.331,4.331,0,0,0-.711-.055A1.9,1.9,0,0,0,55.262,49v6H53.816V46.547h1.406l.023.977a2.251,2.251,0,0,1,2.016-1.133,1.477,1.477,0,0,1,.641.109ZM60.8,55H59.355V46.547H60.8ZM59.238,44.3a.863.863,0,0,1,.215-.594.807.807,0,0,1,.637-.242.819.819,0,0,1,.641.242.854.854,0,0,1,.219.594.826.826,0,0,1-.219.586.834.834,0,0,1-.641.234.821.821,0,0,1-.637-.234A.834.834,0,0,1,59.238,44.3Zm3.531,6.4a4.968,4.968,0,0,1,.914-3.145,3.151,3.151,0,0,1,4.836-.074l.07-.937h1.32V54.8a3.439,3.439,0,0,1-.973,2.586,3.589,3.589,0,0,1-2.613.945,4.348,4.348,0,0,1-1.789-.391,3.08,3.08,0,0,1-1.336-1.07l.75-.867a2.826,2.826,0,0,0,2.273,1.148,2.214,2.214,0,0,0,1.645-.594,2.269,2.269,0,0,0,.59-1.672v-.727a2.971,2.971,0,0,1-2.367,1,2.887,2.887,0,0,1-2.4-1.2A5.224,5.224,0,0,1,62.77,50.7Zm1.453.164a3.79,3.79,0,0,0,.586,2.246,1.9,1.9,0,0,0,1.641.816,2.117,2.117,0,0,0,2.008-1.242V48.828a2.142,2.142,0,0,0-1.992-1.211,1.921,1.921,0,0,0-1.648.82A4.128,4.128,0,0,0,64.223,50.867ZM73.66,55H72.215V46.547H73.66ZM72.1,44.3a.863.863,0,0,1,.215-.594.807.807,0,0,1,.637-.242.819.819,0,0,1,.641.242.854.854,0,0,1,.219.594.826.826,0,0,1-.219.586.834.834,0,0,1-.641.234.821.821,0,0,1-.637-.234A.834.834,0,0,1,72.1,44.3Zm3.523,6.4a4.952,4.952,0,0,1,.922-3.129,3.137,3.137,0,0,1,4.766-.168V43h1.445V55H81.426l-.07-.906a2.943,2.943,0,0,1-2.414,1.063,2.887,2.887,0,0,1-2.395-1.2,5.008,5.008,0,0,1-.926-3.141Zm1.445.164a3.749,3.749,0,0,0,.594,2.25,1.92,1.92,0,0,0,1.641.813A2.108,2.108,0,0,0,81.309,52.7V48.813a2.125,2.125,0,0,0-1.992-1.2,1.929,1.929,0,0,0-1.656.82A4.128,4.128,0,0,0,77.066,50.867Zm7.547-.172a4.993,4.993,0,0,1,.488-2.234,3.643,3.643,0,0,1,1.359-1.531,3.7,3.7,0,0,1,1.988-.539,3.565,3.565,0,0,1,2.793,1.2,4.6,4.6,0,0,1,1.066,3.18v.1a5.036,5.036,0,0,1-.473,2.215,3.589,3.589,0,0,1-1.352,1.527,3.743,3.743,0,0,1-2.02.547,3.556,3.556,0,0,1-2.785-1.2A4.575,4.575,0,0,1,84.613,50.8Zm1.453.172a3.616,3.616,0,0,0,.652,2.258,2.211,2.211,0,0,0,3.5-.012,3.955,3.955,0,0,0,.648-2.418,3.61,3.61,0,0,0-.66-2.254,2.1,2.1,0,0,0-1.754-.863,2.075,2.075,0,0,0-1.727.852A3.925,3.925,0,0,0,86.066,50.867Zm12.977,1.891a1.064,1.064,0,0,0-.441-.91,4.249,4.249,0,0,0-1.539-.559,7.277,7.277,0,0,1-1.742-.562,2.479,2.479,0,0,1-.953-.781,1.869,1.869,0,0,1-.309-1.078,2.193,2.193,0,0,1,.879-1.758,3.432,3.432,0,0,1,2.246-.719,3.532,3.532,0,0,1,2.332.742,2.357,2.357,0,0,1,.895,1.9H98.957a1.3,1.3,0,0,0-.5-1.023,1.888,1.888,0,0,0-1.27-.43,1.976,1.976,0,0,0-1.234.344,1.082,1.082,0,0,0-.445.9.877.877,0,0,0,.414.789,5.1,5.1,0,0,0,1.5.508,7.8,7.8,0,0,1,1.754.578,2.558,2.558,0,0,1,1,.809,1.988,1.988,0,0,1,.324,1.152,2.163,2.163,0,0,1-.906,1.816,3.8,3.8,0,0,1-2.352.684,4.257,4.257,0,0,1-1.8-.359,2.922,2.922,0,0,1-1.223-1A2.42,2.42,0,0,1,93.77,52.4h1.445a1.5,1.5,0,0,0,.582,1.152,2.258,2.258,0,0,0,1.434.426,2.331,2.331,0,0,0,1.316-.332A1.02,1.02,0,0,0,99.043,52.758Z" transform="translate(-14285 -9280)" fill="#12263f"/>
    <path id="Trazado_207582" data-name="Trazado 207582" d="M10.59,13.391a4.185,4.185,0,0,1-1.332,2.785,4.365,4.365,0,0,1-2.98.98,4.008,4.008,0,0,1-3.23-1.445,5.815,5.815,0,0,1-1.215-3.867V10.75A6.481,6.481,0,0,1,2.4,7.961,4.231,4.231,0,0,1,4,6.113,4.47,4.47,0,0,1,6.41,5.469,4.11,4.11,0,0,1,9.316,6.48a4.235,4.235,0,0,1,1.273,2.8H9.082a3.268,3.268,0,0,0-.848-1.975A2.565,2.565,0,0,0,6.41,6.7,2.684,2.684,0,0,0,4.156,7.759a4.882,4.882,0,0,0-.816,3.026v1.1a5.018,5.018,0,0,0,.773,2.948A2.5,2.5,0,0,0,6.277,15.93,2.887,2.887,0,0,0,8.2,15.363a3.143,3.143,0,0,0,.887-1.973Zm1.438-.7a4.993,4.993,0,0,1,.488-2.234A3.643,3.643,0,0,1,13.875,8.93a3.7,3.7,0,0,1,1.988-.539,3.565,3.565,0,0,1,2.793,1.2,4.6,4.6,0,0,1,1.066,3.18v.1a5.036,5.036,0,0,1-.473,2.215A3.589,3.589,0,0,1,17.9,16.609a3.743,3.743,0,0,1-2.02.547,3.556,3.556,0,0,1-2.785-1.2A4.575,4.575,0,0,1,12.027,12.8Zm1.453.172a3.616,3.616,0,0,0,.652,2.258,2.211,2.211,0,0,0,3.5-.012,3.955,3.955,0,0,0,.648-2.418,3.61,3.61,0,0,0-.66-2.254,2.1,2.1,0,0,0-1.754-.863,2.075,2.075,0,0,0-1.727.852A3.925,3.925,0,0,0,13.48,12.867Zm9.414-4.32.039.938a3.122,3.122,0,0,1,2.508-1.094A2.417,2.417,0,0,1,27.855,9.75a3.2,3.2,0,0,1,1.1-.984,3.242,3.242,0,0,1,1.6-.375q2.781,0,2.828,2.945V17H31.934V11.422a1.941,1.941,0,0,0-.414-1.355,1.823,1.823,0,0,0-1.391-.449,1.916,1.916,0,0,0-1.336.48,1.949,1.949,0,0,0-.617,1.293V17H26.723V11.461a1.613,1.613,0,0,0-1.8-1.844,1.934,1.934,0,0,0-1.945,1.211V17H21.527V8.547Zm19.8,4.32a5.062,5.062,0,0,1-.883,3.109,2.829,2.829,0,0,1-2.391,1.18A3.1,3.1,0,0,1,37,16.18v4.07H35.559V8.547h1.32l.07.938A2.977,2.977,0,0,1,39.4,8.391a2.882,2.882,0,0,1,2.41,1.148,5.117,5.117,0,0,1,.887,3.2ZM41.254,12.7a3.735,3.735,0,0,0-.609-2.258,1.963,1.963,0,0,0-1.672-.828A2.125,2.125,0,0,0,37,10.781V14.82a2.129,2.129,0,0,0,1.984,1.156,1.954,1.954,0,0,0,1.652-.824A4.077,4.077,0,0,0,41.254,12.7ZM46.105,17H44.66V5h1.445Zm5.82.156a3.693,3.693,0,0,1-2.8-1.129,4.19,4.19,0,0,1-1.078-3.02v-.266a5.073,5.073,0,0,1,.48-2.246,3.748,3.748,0,0,1,1.344-1.547,3.378,3.378,0,0,1,1.871-.559,3.166,3.166,0,0,1,2.563,1.086,4.7,4.7,0,0,1,.914,3.109v.6H49.5a3,3,0,0,0,.73,2.02,2.3,2.3,0,0,0,1.777.77,2.517,2.517,0,0,0,1.3-.312,3.259,3.259,0,0,0,.93-.828l.883.688A3.55,3.55,0,0,1,51.926,17.156Zm-.18-7.578a1.928,1.928,0,0,0-1.469.637A3.1,3.1,0,0,0,49.543,12h4.234v-.109a2.753,2.753,0,0,0-.594-1.707A1.815,1.815,0,0,0,51.746,9.578ZM58.855,6.5V8.547h1.578V9.664H58.855v5.249a1.173,1.173,0,0,0,.211.763.888.888,0,0,0,.719.254,3.5,3.5,0,0,0,.688-.094V17a4.215,4.215,0,0,1-1.109.155A1.8,1.8,0,0,1,57.9,16.57a2.517,2.517,0,0,1-.492-1.664V9.664H55.871V8.547H57.41V6.5ZM67.34,17a3.036,3.036,0,0,1-.2-.891,3.225,3.225,0,0,1-2.406,1.047,2.984,2.984,0,0,1-2.051-.707,2.287,2.287,0,0,1-.8-1.793,2.39,2.39,0,0,1,1-2.051,4.733,4.733,0,0,1,2.824-.73h1.406v-.664A1.623,1.623,0,0,0,66.66,10a1.821,1.821,0,0,0-1.336-.449,2.108,2.108,0,0,0-1.3.391,1.151,1.151,0,0,0-.523.945H62.051A2,2,0,0,1,62.5,9.668a3.066,3.066,0,0,1,1.219-.934,4.1,4.1,0,0,1,1.691-.344,3.342,3.342,0,0,1,2.289.73,2.635,2.635,0,0,1,.859,2.012v3.891a4.757,4.757,0,0,0,.3,1.852V17Zm-2.4-1.1a2.54,2.54,0,0,0,1.289-.352,2.127,2.127,0,0,0,.883-.914V12.9H65.98q-2.656,0-2.656,1.555a1.316,1.316,0,0,0,.453,1.063A1.742,1.742,0,0,0,64.941,15.9ZM76.355,17H74.91V8.547h1.445ZM74.793,6.3a.863.863,0,0,1,.215-.594.807.807,0,0,1,.637-.242.819.819,0,0,1,.641.242A.854.854,0,0,1,76.5,6.3a.826.826,0,0,1-.219.586.834.834,0,0,1-.641.234.821.821,0,0,1-.637-.234A.834.834,0,0,1,74.793,6.3Zm5.242,2.242.047,1.063a3.08,3.08,0,0,1,2.531-1.219q2.68,0,2.7,3.023V17H83.871V11.406a1.946,1.946,0,0,0-.418-1.352,1.675,1.675,0,0,0-1.277-.437,2.086,2.086,0,0,0-1.234.375,2.546,2.546,0,0,0-.828.984V17H78.668V8.547ZM89.457,6.5V8.547h1.578V9.664H89.457v5.249a1.173,1.173,0,0,0,.211.763.888.888,0,0,0,.719.254,3.5,3.5,0,0,0,.688-.094V17a4.215,4.215,0,0,1-1.109.155A1.8,1.8,0,0,1,88.5,16.57a2.517,2.517,0,0,1-.492-1.664V9.664H86.473V8.547h1.539V6.5ZM96.23,17.156a3.693,3.693,0,0,1-2.8-1.129,4.19,4.19,0,0,1-1.078-3.02v-.266a5.073,5.073,0,0,1,.48-2.246A3.748,3.748,0,0,1,94.18,8.949a3.378,3.378,0,0,1,1.871-.559,3.166,3.166,0,0,1,2.563,1.086,4.7,4.7,0,0,1,.914,3.109v.6H93.8a3,3,0,0,0,.73,2.02,2.3,2.3,0,0,0,1.777.77,2.517,2.517,0,0,0,1.3-.312,3.259,3.259,0,0,0,.93-.828l.883.688A3.55,3.55,0,0,1,96.23,17.156Zm-.18-7.578a1.928,1.928,0,0,0-1.469.637A3.1,3.1,0,0,0,93.848,12h4.234v-.109a2.753,2.753,0,0,0-.594-1.707A1.815,1.815,0,0,0,96.051,9.578Zm4.8,3.125a4.968,4.968,0,0,1,.914-3.145,3.151,3.151,0,0,1,4.836-.074l.07-.937H108V16.8a3.439,3.439,0,0,1-.973,2.586,3.589,3.589,0,0,1-2.613.945,4.348,4.348,0,0,1-1.789-.391,3.08,3.08,0,0,1-1.336-1.07l.75-.867a2.826,2.826,0,0,0,2.273,1.148,2.214,2.214,0,0,0,1.645-.594,2.269,2.269,0,0,0,.59-1.672v-.727a2.971,2.971,0,0,1-2.367,1,2.887,2.887,0,0,1-2.4-1.2A5.224,5.224,0,0,1,100.855,12.7Zm1.453.164a3.79,3.79,0,0,0,.586,2.246,1.9,1.9,0,0,0,1.641.816,2.117,2.117,0,0,0,2.008-1.242V10.828a2.142,2.142,0,0,0-1.992-1.211,1.921,1.921,0,0,0-1.648.82A4.128,4.128,0,0,0,102.309,12.867Zm11.953-3.023a4.331,4.331,0,0,0-.711-.055A1.9,1.9,0,0,0,111.621,11v6h-1.445V8.547h1.406l.023.977a2.251,2.251,0,0,1,2.016-1.133,1.477,1.477,0,0,1,.641.109ZM120.5,17a3.036,3.036,0,0,1-.2-.891,3.225,3.225,0,0,1-2.406,1.047,2.984,2.984,0,0,1-2.051-.707,2.288,2.288,0,0,1-.8-1.793,2.39,2.39,0,0,1,1-2.051,4.733,4.733,0,0,1,2.824-.73h1.406v-.664A1.623,1.623,0,0,0,119.816,10a1.821,1.821,0,0,0-1.336-.449,2.108,2.108,0,0,0-1.3.391,1.151,1.151,0,0,0-.523.945h-1.453a2,2,0,0,1,.449-1.223,3.066,3.066,0,0,1,1.219-.934,4.1,4.1,0,0,1,1.691-.344,3.342,3.342,0,0,1,2.289.73,2.635,2.635,0,0,1,.859,2.012v3.891a4.757,4.757,0,0,0,.3,1.852V17Zm-2.4-1.1a2.54,2.54,0,0,0,1.289-.352,2.127,2.127,0,0,0,.883-.914V12.9h-1.133q-2.656,0-2.656,1.555a1.316,1.316,0,0,0,.453,1.063A1.742,1.742,0,0,0,118.1,15.9Zm9.273.078a2.082,2.082,0,0,0,1.352-.469,1.649,1.649,0,0,0,.641-1.172h1.367a2.621,2.621,0,0,1-.5,1.383A3.293,3.293,0,0,1,129,16.766a3.55,3.55,0,0,1-1.629.391A3.482,3.482,0,0,1,124.625,16a4.59,4.59,0,0,1-1.02-3.152v-.242a5.089,5.089,0,0,1,.453-2.2,3.451,3.451,0,0,1,1.3-1.492,3.7,3.7,0,0,1,2-.531,3.39,3.39,0,0,1,2.363.852,3.043,3.043,0,0,1,1,2.211h-1.367a1.992,1.992,0,0,0-.621-1.348,1.932,1.932,0,0,0-1.379-.527,2.023,2.023,0,0,0-1.707.793,3.724,3.724,0,0,0-.605,2.293v.273a3.65,3.65,0,0,0,.6,2.25A2.033,2.033,0,0,0,127.371,15.977ZM133.926,17H132.48V8.547h1.445ZM132.363,6.3a.863.863,0,0,1,.215-.594.807.807,0,0,1,.637-.242.819.819,0,0,1,.641.242.854.854,0,0,1,.219.594.826.826,0,0,1-.219.586.834.834,0,0,1-.641.234.821.821,0,0,1-.637-.234A.834.834,0,0,1,132.363,6.3Zm3.492,6.391a4.993,4.993,0,0,1,.488-2.234A3.642,3.642,0,0,1,137.7,8.93a3.7,3.7,0,0,1,1.988-.539,3.565,3.565,0,0,1,2.793,1.2,4.6,4.6,0,0,1,1.066,3.18v.1a5.036,5.036,0,0,1-.473,2.215,3.589,3.589,0,0,1-1.352,1.527,3.743,3.743,0,0,1-2.02.547,3.556,3.556,0,0,1-2.785-1.2,4.575,4.575,0,0,1-1.066-3.164Zm1.453.172a3.616,3.616,0,0,0,.652,2.258,2.211,2.211,0,0,0,3.5-.012,3.954,3.954,0,0,0,.648-2.418,3.61,3.61,0,0,0-.66-2.254,2.1,2.1,0,0,0-1.754-.863,2.075,2.075,0,0,0-1.727.852A3.925,3.925,0,0,0,137.309,12.867ZM140.348,5h1.75L140,7.3l-1.164,0Zm6.383,3.547.047,1.063a3.08,3.08,0,0,1,2.531-1.219q2.68,0,2.7,3.023V17h-1.445V11.406a1.946,1.946,0,0,0-.418-1.352,1.675,1.675,0,0,0-1.277-.437,2.086,2.086,0,0,0-1.234.375,2.546,2.546,0,0,0-.828.984V17h-1.445V8.547Z" transform="translate(-13748.5 -9261)" fill="#12263f"/>
    <path id="Trazado_207583" data-name="Trazado 207583" d="M14.145,13.391a4.185,4.185,0,0,1-1.332,2.785,4.365,4.365,0,0,1-2.98.98A4.008,4.008,0,0,1,6.6,15.711a5.815,5.815,0,0,1-1.215-3.867V10.75a6.481,6.481,0,0,1,.566-2.789A4.231,4.231,0,0,1,7.559,6.113a4.47,4.47,0,0,1,2.406-.645A4.11,4.11,0,0,1,12.871,6.48a4.235,4.235,0,0,1,1.273,2.8H12.637a3.268,3.268,0,0,0-.848-1.975A2.565,2.565,0,0,0,9.965,6.7,2.684,2.684,0,0,0,7.711,7.759a4.882,4.882,0,0,0-.816,3.026v1.1a5.018,5.018,0,0,0,.773,2.948A2.5,2.5,0,0,0,9.832,15.93a2.886,2.886,0,0,0,1.918-.566,3.143,3.143,0,0,0,.887-1.973Zm5.328,3.766a3.693,3.693,0,0,1-2.8-1.129,4.19,4.19,0,0,1-1.078-3.02v-.266a5.073,5.073,0,0,1,.48-2.246,3.748,3.748,0,0,1,1.344-1.547,3.378,3.378,0,0,1,1.871-.559,3.166,3.166,0,0,1,2.563,1.086,4.7,4.7,0,0,1,.914,3.109v.6H17.043a3,3,0,0,0,.73,2.02,2.3,2.3,0,0,0,1.777.77,2.517,2.517,0,0,0,1.3-.312,3.259,3.259,0,0,0,.93-.828l.883.688A3.55,3.55,0,0,1,19.473,17.156Zm-.18-7.578a1.928,1.928,0,0,0-1.469.637A3.1,3.1,0,0,0,17.09,12h4.234v-.109a2.753,2.753,0,0,0-.594-1.707A1.815,1.815,0,0,0,19.293,9.578Zm6.516-1.031.047,1.063a3.08,3.08,0,0,1,2.531-1.219q2.68,0,2.7,3.023V17H29.645V11.406a1.946,1.946,0,0,0-.418-1.352,1.675,1.675,0,0,0-1.277-.437,2.086,2.086,0,0,0-1.234.375,2.546,2.546,0,0,0-.828.984V17H24.441V8.547ZM35.23,6.5V8.547h1.578V9.664H35.23v5.249a1.173,1.173,0,0,0,.211.763.888.888,0,0,0,.719.254,3.5,3.5,0,0,0,.688-.094V17a4.215,4.215,0,0,1-1.109.155,1.8,1.8,0,0,1-1.461-.586,2.517,2.517,0,0,1-.492-1.664V9.664H32.246V8.547h1.539V6.5Zm7.352,3.344a4.331,4.331,0,0,0-.711-.055A1.9,1.9,0,0,0,39.941,11v6H38.5V8.547H39.9l.023.977a2.251,2.251,0,0,1,2.016-1.133,1.477,1.477,0,0,1,.641.109ZM48.816,17a3.036,3.036,0,0,1-.2-.891,3.225,3.225,0,0,1-2.406,1.047,2.984,2.984,0,0,1-2.051-.707,2.287,2.287,0,0,1-.8-1.793,2.39,2.39,0,0,1,1-2.051,4.733,4.733,0,0,1,2.824-.73H48.59v-.664A1.623,1.623,0,0,0,48.137,10,1.821,1.821,0,0,0,46.8,9.555a2.107,2.107,0,0,0-1.3.391,1.151,1.151,0,0,0-.523.945H43.527a2,2,0,0,1,.449-1.223A3.066,3.066,0,0,1,45.2,8.734a4.1,4.1,0,0,1,1.691-.344,3.342,3.342,0,0,1,2.289.73,2.635,2.635,0,0,1,.859,2.012v3.891a4.757,4.757,0,0,0,.3,1.852V17Zm-2.4-1.1a2.54,2.54,0,0,0,1.289-.352,2.127,2.127,0,0,0,.883-.914V12.9H47.457q-2.656,0-2.656,1.555a1.316,1.316,0,0,0,.453,1.063A1.742,1.742,0,0,0,46.418,15.9ZM59.77,17.156a3.693,3.693,0,0,1-2.8-1.129,4.19,4.19,0,0,1-1.078-3.02v-.266a5.073,5.073,0,0,1,.48-2.246,3.748,3.748,0,0,1,1.344-1.547,3.378,3.378,0,0,1,1.871-.559,3.166,3.166,0,0,1,2.563,1.086,4.7,4.7,0,0,1,.914,3.109v.6H57.34a3,3,0,0,0,.73,2.02,2.3,2.3,0,0,0,1.777.77,2.517,2.517,0,0,0,1.3-.312,3.259,3.259,0,0,0,.93-.828l.883.688A3.55,3.55,0,0,1,59.77,17.156Zm-.18-7.578a1.928,1.928,0,0,0-1.469.637A3.1,3.1,0,0,0,57.387,12h4.234v-.109a2.753,2.753,0,0,0-.594-1.707A1.815,1.815,0,0,0,59.59,9.578Zm6.516-1.031.047,1.063a3.08,3.08,0,0,1,2.531-1.219q2.68,0,2.7,3.023V17H69.941V11.406a1.946,1.946,0,0,0-.418-1.352,1.675,1.675,0,0,0-1.277-.437,2.086,2.086,0,0,0-1.234.375,2.546,2.546,0,0,0-.828.984V17H64.738V8.547Zm14.93,8.609a3.693,3.693,0,0,1-2.8-1.129,4.19,4.19,0,0,1-1.078-3.02v-.266a5.073,5.073,0,0,1,.48-2.246,3.748,3.748,0,0,1,1.344-1.547,3.378,3.378,0,0,1,1.871-.559,3.166,3.166,0,0,1,2.563,1.086,4.7,4.7,0,0,1,.914,3.109v.6H78.605a3,3,0,0,0,.73,2.02,2.3,2.3,0,0,0,1.777.77,2.517,2.517,0,0,0,1.3-.312,3.259,3.259,0,0,0,.93-.828l.883.688A3.55,3.55,0,0,1,81.035,17.156Zm-.18-7.578a1.928,1.928,0,0,0-1.469.637A3.1,3.1,0,0,0,78.652,12h4.234v-.109a2.753,2.753,0,0,0-.594-1.707A1.815,1.815,0,0,0,80.855,9.578ZM87.574,17H86.129V5h1.445Zm7.641-8.453.047,1.063a3.08,3.08,0,0,1,2.531-1.219q2.68,0,2.7,3.023V17H99.051V11.406a1.946,1.946,0,0,0-.418-1.352,1.675,1.675,0,0,0-1.277-.437,2.086,2.086,0,0,0-1.234.375,2.546,2.546,0,0,0-.828.984V17H93.848V8.547Zm10.969,8.609a3.693,3.693,0,0,1-2.8-1.129,4.19,4.19,0,0,1-1.078-3.02v-.266a5.073,5.073,0,0,1,.48-2.246,3.748,3.748,0,0,1,1.344-1.547A3.378,3.378,0,0,1,106,8.391a3.166,3.166,0,0,1,2.563,1.086,4.7,4.7,0,0,1,.914,3.109v.6h-5.727a3,3,0,0,0,.73,2.02,2.3,2.3,0,0,0,1.777.77,2.517,2.517,0,0,0,1.3-.312,3.259,3.259,0,0,0,.93-.828l.883.688A3.55,3.55,0,0,1,106.184,17.156ZM106,9.578a1.928,1.928,0,0,0-1.469.637A3.1,3.1,0,0,0,103.8,12h4.234v-.109a2.753,2.753,0,0,0-.594-1.707A1.815,1.815,0,0,0,106,9.578Zm4.8,3.125a4.968,4.968,0,0,1,.914-3.145,3.151,3.151,0,0,1,4.836-.074l.07-.937h1.32V16.8a3.439,3.439,0,0,1-.973,2.586,3.589,3.589,0,0,1-2.613.945,4.348,4.348,0,0,1-1.789-.391,3.08,3.08,0,0,1-1.336-1.07l.75-.867a2.826,2.826,0,0,0,2.273,1.148,2.214,2.214,0,0,0,1.645-.594,2.269,2.269,0,0,0,.59-1.672v-.727a2.971,2.971,0,0,1-2.367,1,2.887,2.887,0,0,1-2.4-1.2A5.224,5.224,0,0,1,110.809,12.7Zm1.453.164a3.79,3.79,0,0,0,.586,2.246,1.9,1.9,0,0,0,1.641.816,2.117,2.117,0,0,0,2.008-1.242V10.828A2.142,2.142,0,0,0,114.5,9.617a1.921,1.921,0,0,0-1.648.82A4.128,4.128,0,0,0,112.262,12.867Zm7.484-.172a4.993,4.993,0,0,1,.488-2.234,3.643,3.643,0,0,1,1.359-1.531,3.7,3.7,0,0,1,1.988-.539,3.565,3.565,0,0,1,2.793,1.2,4.6,4.6,0,0,1,1.066,3.18v.1a5.036,5.036,0,0,1-.473,2.215,3.589,3.589,0,0,1-1.352,1.527,3.743,3.743,0,0,1-2.02.547,3.556,3.556,0,0,1-2.785-1.2,4.575,4.575,0,0,1-1.066-3.164Zm1.453.172a3.616,3.616,0,0,0,.652,2.258,2.211,2.211,0,0,0,3.5-.012A3.955,3.955,0,0,0,126,12.7a3.61,3.61,0,0,0-.66-2.254,2.1,2.1,0,0,0-1.754-.863,2.075,2.075,0,0,0-1.727.852A3.925,3.925,0,0,0,121.2,12.867Zm11.445,3.109A2.082,2.082,0,0,0,134,15.508a1.649,1.649,0,0,0,.641-1.172H136a2.621,2.621,0,0,1-.5,1.383,3.293,3.293,0,0,1-1.23,1.047,3.55,3.55,0,0,1-1.629.391A3.482,3.482,0,0,1,129.9,16a4.59,4.59,0,0,1-1.02-3.152v-.242a5.089,5.089,0,0,1,.453-2.2,3.451,3.451,0,0,1,1.3-1.492,3.7,3.7,0,0,1,2-.531A3.39,3.39,0,0,1,135,9.242a3.043,3.043,0,0,1,1,2.211h-1.367a1.992,1.992,0,0,0-.621-1.348,1.932,1.932,0,0,0-1.379-.527,2.023,2.023,0,0,0-1.707.793,3.724,3.724,0,0,0-.605,2.293v.273a3.65,3.65,0,0,0,.6,2.25A2.033,2.033,0,0,0,132.645,15.977ZM139.2,17h-1.445V8.547H139.2ZM137.637,6.3a.863.863,0,0,1,.215-.594.807.807,0,0,1,.637-.242.819.819,0,0,1,.641.242.854.854,0,0,1,.219.594.826.826,0,0,1-.219.586.834.834,0,0,1-.641.234.821.821,0,0,1-.637-.234A.834.834,0,0,1,137.637,6.3Zm3.492,6.391a4.993,4.993,0,0,1,.488-2.234,3.642,3.642,0,0,1,1.359-1.531,3.7,3.7,0,0,1,1.988-.539,3.565,3.565,0,0,1,2.793,1.2,4.6,4.6,0,0,1,1.066,3.18v.1a5.036,5.036,0,0,1-.473,2.215A3.589,3.589,0,0,1,147,16.609a3.743,3.743,0,0,1-2.02.547,3.556,3.556,0,0,1-2.785-1.2,4.575,4.575,0,0,1-1.066-3.164Zm1.453.172a3.616,3.616,0,0,0,.652,2.258,2.211,2.211,0,0,0,3.5-.012,3.954,3.954,0,0,0,.648-2.418,3.61,3.61,0,0,0-.66-2.254,2.1,2.1,0,0,0-1.754-.863,2.075,2.075,0,0,0-1.727.852A3.925,3.925,0,0,0,142.582,12.867Z" transform="translate(-14025 -9261)" fill="#12263f"/>
    <path id="Trazado_207584" data-name="Trazado 207584" d="M27.961,13.391a4.185,4.185,0,0,1-1.332,2.785,4.365,4.365,0,0,1-2.98.98,4.008,4.008,0,0,1-3.23-1.445A5.815,5.815,0,0,1,19.2,11.844V10.75a6.481,6.481,0,0,1,.566-2.789,4.231,4.231,0,0,1,1.605-1.848,4.47,4.47,0,0,1,2.406-.645A4.11,4.11,0,0,1,26.688,6.48a4.235,4.235,0,0,1,1.273,2.8H26.453a3.268,3.268,0,0,0-.848-1.975A2.565,2.565,0,0,0,23.781,6.7a2.684,2.684,0,0,0-2.254,1.063,4.882,4.882,0,0,0-.816,3.026v1.1a5.018,5.018,0,0,0,.773,2.948,2.5,2.5,0,0,0,2.164,1.095,2.886,2.886,0,0,0,1.918-.566,3.143,3.143,0,0,0,.887-1.973Zm1.438-.7a4.993,4.993,0,0,1,.488-2.234A3.643,3.643,0,0,1,31.246,8.93a3.7,3.7,0,0,1,1.988-.539,3.565,3.565,0,0,1,2.793,1.2,4.6,4.6,0,0,1,1.066,3.18v.1a5.036,5.036,0,0,1-.473,2.215,3.589,3.589,0,0,1-1.352,1.527,3.743,3.743,0,0,1-2.02.547,3.556,3.556,0,0,1-2.785-1.2A4.575,4.575,0,0,1,29.4,12.8Zm1.453.172a3.616,3.616,0,0,0,.652,2.258,2.211,2.211,0,0,0,3.5-.012,3.955,3.955,0,0,0,.648-2.418,3.61,3.61,0,0,0-.66-2.254,2.1,2.1,0,0,0-1.754-.863,2.075,2.075,0,0,0-1.727.852A3.925,3.925,0,0,0,30.852,12.867Zm9.422-4.32.047,1.063a3.08,3.08,0,0,1,2.531-1.219q2.68,0,2.7,3.023V17H44.109V11.406a1.946,1.946,0,0,0-.418-1.352,1.675,1.675,0,0,0-1.277-.437,2.086,2.086,0,0,0-1.234.375,2.546,2.546,0,0,0-.828.984V17H38.906V8.547ZM49.7,6.5V8.547h1.578V9.664H49.7v5.249a1.173,1.173,0,0,0,.211.763.888.888,0,0,0,.719.254,3.5,3.5,0,0,0,.688-.094V17a4.215,4.215,0,0,1-1.109.155,1.8,1.8,0,0,1-1.461-.586,2.517,2.517,0,0,1-.492-1.664V9.664H46.711V8.547H48.25V6.5Zm7.352,3.344a4.331,4.331,0,0,0-.711-.055A1.9,1.9,0,0,0,54.406,11v6H52.961V8.547h1.406l.023.977a2.251,2.251,0,0,1,2.016-1.133,1.477,1.477,0,0,1,.641.109Zm.789,2.852a4.993,4.993,0,0,1,.488-2.234A3.643,3.643,0,0,1,59.684,8.93a3.7,3.7,0,0,1,1.988-.539,3.565,3.565,0,0,1,2.793,1.2,4.6,4.6,0,0,1,1.066,3.18v.1a5.036,5.036,0,0,1-.473,2.215,3.589,3.589,0,0,1-1.352,1.527,3.743,3.743,0,0,1-2.02.547,3.556,3.556,0,0,1-2.785-1.2A4.575,4.575,0,0,1,57.836,12.8Zm1.453.172a3.616,3.616,0,0,0,.652,2.258,2.211,2.211,0,0,0,3.5-.012,3.955,3.955,0,0,0,.648-2.418,3.61,3.61,0,0,0-.66-2.254,2.1,2.1,0,0,0-1.754-.863,2.075,2.075,0,0,0-1.727.852A3.925,3.925,0,0,0,59.289,12.867ZM68.914,17H67.469V5h1.445Zm5.922-4.3a4.952,4.952,0,0,1,.922-3.129,3.137,3.137,0,0,1,4.766-.168V5h1.445V17H80.641l-.07-.906a2.943,2.943,0,0,1-2.414,1.063,2.887,2.887,0,0,1-2.395-1.2,5.008,5.008,0,0,1-.926-3.141Zm1.445.164a3.749,3.749,0,0,0,.594,2.25,1.92,1.92,0,0,0,1.641.813A2.108,2.108,0,0,0,80.523,14.7V10.813a2.125,2.125,0,0,0-1.992-1.2,1.929,1.929,0,0,0-1.656.82A4.128,4.128,0,0,0,76.281,12.867Zm11.438,4.289a3.693,3.693,0,0,1-2.8-1.129,4.19,4.19,0,0,1-1.078-3.02v-.266a5.073,5.073,0,0,1,.48-2.246,3.748,3.748,0,0,1,1.344-1.547,3.378,3.378,0,0,1,1.871-.559A3.166,3.166,0,0,1,90.1,9.477a4.7,4.7,0,0,1,.914,3.109v.6H85.289a3,3,0,0,0,.73,2.02,2.3,2.3,0,0,0,1.777.77,2.517,2.517,0,0,0,1.3-.312,3.259,3.259,0,0,0,.93-.828l.883.688A3.55,3.55,0,0,1,87.719,17.156Zm-.18-7.578a1.928,1.928,0,0,0-1.469.637A3.1,3.1,0,0,0,85.336,12H89.57v-.109a2.753,2.753,0,0,0-.594-1.707A1.815,1.815,0,0,0,87.539,9.578ZM96.3,12.7a4.952,4.952,0,0,1,.922-3.129,3.137,3.137,0,0,1,4.766-.168V5h1.445V17H102.1l-.07-.906a2.943,2.943,0,0,1-2.414,1.063,2.887,2.887,0,0,1-2.395-1.2,5.008,5.008,0,0,1-.926-3.141Zm1.445.164a3.749,3.749,0,0,0,.594,2.25,1.92,1.92,0,0,0,1.641.813,2.108,2.108,0,0,0,2.008-1.234V10.813a2.125,2.125,0,0,0-1.992-1.2,1.929,1.929,0,0,0-1.656.82A4.128,4.128,0,0,0,97.742,12.867ZM110.891,17a3.036,3.036,0,0,1-.2-.891,3.225,3.225,0,0,1-2.406,1.047,2.984,2.984,0,0,1-2.051-.707,2.288,2.288,0,0,1-.8-1.793,2.39,2.39,0,0,1,1-2.051,4.733,4.733,0,0,1,2.824-.73h1.406v-.664A1.623,1.623,0,0,0,110.211,10a1.821,1.821,0,0,0-1.336-.449,2.108,2.108,0,0,0-1.3.391,1.151,1.151,0,0,0-.523.945H105.6a2,2,0,0,1,.449-1.223,3.066,3.066,0,0,1,1.219-.934,4.1,4.1,0,0,1,1.691-.344,3.342,3.342,0,0,1,2.289.73,2.635,2.635,0,0,1,.859,2.012v3.891a4.757,4.757,0,0,0,.3,1.852V17Zm-2.4-1.1a2.54,2.54,0,0,0,1.289-.352,2.127,2.127,0,0,0,.883-.914V12.9h-1.133q-2.656,0-2.656,1.555a1.316,1.316,0,0,0,.453,1.063A1.742,1.742,0,0,0,108.492,15.9Zm7.844-9.4V8.547h1.578V9.664h-1.578v5.249a1.173,1.173,0,0,0,.211.763.888.888,0,0,0,.719.254,3.5,3.5,0,0,0,.688-.094V17a4.215,4.215,0,0,1-1.109.155,1.8,1.8,0,0,1-1.461-.586,2.517,2.517,0,0,1-.492-1.664V9.664h-1.539V8.547h1.539V6.5Zm2.727,6.2a4.993,4.993,0,0,1,.488-2.234A3.643,3.643,0,0,1,120.91,8.93a3.7,3.7,0,0,1,1.988-.539,3.565,3.565,0,0,1,2.793,1.2,4.6,4.6,0,0,1,1.066,3.18v.1a5.036,5.036,0,0,1-.473,2.215,3.589,3.589,0,0,1-1.352,1.527,3.743,3.743,0,0,1-2.02.547,3.556,3.556,0,0,1-2.785-1.2,4.575,4.575,0,0,1-1.066-3.164Zm1.453.172a3.616,3.616,0,0,0,.652,2.258,2.211,2.211,0,0,0,3.5-.012,3.955,3.955,0,0,0,.648-2.418,3.61,3.61,0,0,0-.66-2.254,2.1,2.1,0,0,0-1.754-.863,2.075,2.075,0,0,0-1.727.852A3.925,3.925,0,0,0,120.516,12.867Zm12.977,1.891a1.064,1.064,0,0,0-.441-.91,4.249,4.249,0,0,0-1.539-.559,7.277,7.277,0,0,1-1.742-.562,2.479,2.479,0,0,1-.953-.781,1.869,1.869,0,0,1-.309-1.078,2.193,2.193,0,0,1,.879-1.758,3.432,3.432,0,0,1,2.246-.719,3.532,3.532,0,0,1,2.332.742,2.357,2.357,0,0,1,.895,1.9h-1.453a1.3,1.3,0,0,0-.5-1.023,1.888,1.888,0,0,0-1.27-.43,1.976,1.976,0,0,0-1.234.344,1.082,1.082,0,0,0-.445.9.877.877,0,0,0,.414.789,5.1,5.1,0,0,0,1.5.508,7.8,7.8,0,0,1,1.754.578,2.558,2.558,0,0,1,1,.809,1.988,1.988,0,0,1,.324,1.152,2.163,2.163,0,0,1-.906,1.816,3.8,3.8,0,0,1-2.352.684,4.257,4.257,0,0,1-1.8-.359,2.922,2.922,0,0,1-1.223-1,2.42,2.42,0,0,1-.441-1.395h1.445a1.5,1.5,0,0,0,.582,1.152,2.258,2.258,0,0,0,1.434.426A2.331,2.331,0,0,0,133,15.645,1.02,1.02,0,0,0,133.492,14.758ZM44.367,28.57a3.073,3.073,0,0,1,2.5-1.18q2.68,0,2.7,3.023V36H48.125V30.406a1.946,1.946,0,0,0-.418-1.352,1.675,1.675,0,0,0-1.277-.437,2.086,2.086,0,0,0-1.234.375,2.546,2.546,0,0,0-.828.984V36H42.922V24h1.445ZM53.3,36H51.859V27.547H53.3ZM51.742,25.3a.863.863,0,0,1,.215-.594.807.807,0,0,1,.637-.242.819.819,0,0,1,.641.242.854.854,0,0,1,.219.594.826.826,0,0,1-.219.586.834.834,0,0,1-.641.234.821.821,0,0,1-.637-.234A.834.834,0,0,1,51.742,25.3Zm8.8,8.453a1.064,1.064,0,0,0-.441-.91,4.249,4.249,0,0,0-1.539-.559,7.277,7.277,0,0,1-1.742-.562,2.479,2.479,0,0,1-.953-.781,1.869,1.869,0,0,1-.309-1.078,2.193,2.193,0,0,1,.879-1.758,3.432,3.432,0,0,1,2.246-.719,3.532,3.532,0,0,1,2.332.742,2.357,2.357,0,0,1,.895,1.9H60.453a1.3,1.3,0,0,0-.5-1.023,1.888,1.888,0,0,0-1.27-.43,1.976,1.976,0,0,0-1.234.344,1.082,1.082,0,0,0-.445.9.877.877,0,0,0,.414.789,5.1,5.1,0,0,0,1.5.508,7.8,7.8,0,0,1,1.754.578,2.558,2.558,0,0,1,1,.809,1.988,1.988,0,0,1,.324,1.152,2.163,2.163,0,0,1-.906,1.816,3.8,3.8,0,0,1-2.352.684,4.257,4.257,0,0,1-1.8-.359,2.922,2.922,0,0,1-1.223-1,2.42,2.42,0,0,1-.441-1.395h1.445a1.5,1.5,0,0,0,.582,1.152,2.258,2.258,0,0,0,1.434.426,2.331,2.331,0,0,0,1.316-.332A1.02,1.02,0,0,0,60.539,33.758ZM65.828,25.5v2.047h1.578v1.117H65.828v5.249a1.173,1.173,0,0,0,.211.763.888.888,0,0,0,.719.254,3.5,3.5,0,0,0,.688-.094V36a4.215,4.215,0,0,1-1.109.155,1.8,1.8,0,0,1-1.461-.586,2.517,2.517,0,0,1-.492-1.664V28.664H62.844V27.547h1.539V25.5Zm2.883,6.2a4.993,4.993,0,0,1,.488-2.234,3.643,3.643,0,0,1,1.359-1.531,3.7,3.7,0,0,1,1.988-.539,3.565,3.565,0,0,1,2.793,1.2,4.6,4.6,0,0,1,1.066,3.18v.1a5.036,5.036,0,0,1-.473,2.215,3.589,3.589,0,0,1-1.352,1.527,3.743,3.743,0,0,1-2.02.547,3.556,3.556,0,0,1-2.785-1.2A4.575,4.575,0,0,1,68.711,31.8Zm1.453.172a3.616,3.616,0,0,0,.652,2.258,2.211,2.211,0,0,0,3.5-.012,3.955,3.955,0,0,0,.648-2.418,3.61,3.61,0,0,0-.66-2.254,2.1,2.1,0,0,0-1.754-.863,2.075,2.075,0,0,0-1.727.852A3.925,3.925,0,0,0,70.164,31.867ZM73.2,24h1.75l-2.094,2.3-1.164,0Zm9.1,4.844a4.331,4.331,0,0,0-.711-.055A1.9,1.9,0,0,0,79.664,30v6H78.219V27.547h1.406l.023.977a2.251,2.251,0,0,1,2.016-1.133,1.477,1.477,0,0,1,.641.109ZM85.2,36H83.758V27.547H85.2ZM83.641,25.3a.863.863,0,0,1,.215-.594.807.807,0,0,1,.637-.242.819.819,0,0,1,.641.242.854.854,0,0,1,.219.594.826.826,0,0,1-.219.586.834.834,0,0,1-.641.234.821.821,0,0,1-.637-.234A.834.834,0,0,1,83.641,25.3Zm7.266,9.672a2.082,2.082,0,0,0,1.352-.469,1.649,1.649,0,0,0,.641-1.172h1.367a2.621,2.621,0,0,1-.5,1.383,3.293,3.293,0,0,1-1.23,1.047,3.55,3.55,0,0,1-1.629.391A3.482,3.482,0,0,1,88.16,35a4.59,4.59,0,0,1-1.02-3.152v-.242a5.089,5.089,0,0,1,.453-2.2,3.451,3.451,0,0,1,1.3-1.492,3.7,3.7,0,0,1,2-.531,3.39,3.39,0,0,1,2.363.852,3.043,3.043,0,0,1,1,2.211H92.9a1.992,1.992,0,0,0-.621-1.348,1.932,1.932,0,0,0-1.379-.527,2.023,2.023,0,0,0-1.707.793,3.724,3.724,0,0,0-.605,2.293v.273a3.65,3.65,0,0,0,.6,2.25A2.033,2.033,0,0,0,90.906,34.977Zm4.6-3.281A4.993,4.993,0,0,1,96,29.461a3.643,3.643,0,0,1,1.359-1.531,3.7,3.7,0,0,1,1.988-.539,3.565,3.565,0,0,1,2.793,1.2,4.6,4.6,0,0,1,1.066,3.18v.1a5.036,5.036,0,0,1-.473,2.215,3.589,3.589,0,0,1-1.352,1.527,3.743,3.743,0,0,1-2.02.547,3.556,3.556,0,0,1-2.785-1.2A4.575,4.575,0,0,1,95.508,31.8Zm1.453.172a3.616,3.616,0,0,0,.652,2.258,2.211,2.211,0,0,0,3.5-.012,3.955,3.955,0,0,0,.648-2.418,3.61,3.61,0,0,0-.66-2.254,2.1,2.1,0,0,0-1.754-.863,2.075,2.075,0,0,0-1.727.852A3.925,3.925,0,0,0,96.961,31.867Zm12.977,1.891a1.064,1.064,0,0,0-.441-.91,4.249,4.249,0,0,0-1.539-.559,7.277,7.277,0,0,1-1.742-.562,2.478,2.478,0,0,1-.953-.781,1.869,1.869,0,0,1-.309-1.078,2.193,2.193,0,0,1,.879-1.758,3.432,3.432,0,0,1,2.246-.719,3.532,3.532,0,0,1,2.332.742,2.357,2.357,0,0,1,.895,1.9h-1.453a1.3,1.3,0,0,0-.5-1.023,1.888,1.888,0,0,0-1.27-.43,1.976,1.976,0,0,0-1.234.344,1.082,1.082,0,0,0-.445.9.877.877,0,0,0,.414.789,5.1,5.1,0,0,0,1.5.508,7.8,7.8,0,0,1,1.754.578,2.558,2.558,0,0,1,1,.809,1.988,1.988,0,0,1,.324,1.152,2.163,2.163,0,0,1-.906,1.816,3.8,3.8,0,0,1-2.352.684,4.257,4.257,0,0,1-1.8-.359,2.922,2.922,0,0,1-1.223-1,2.42,2.42,0,0,1-.441-1.395h1.445a1.5,1.5,0,0,0,.582,1.152,2.258,2.258,0,0,0,1.434.426,2.331,2.331,0,0,0,1.316-.332A1.02,1.02,0,0,0,109.938,33.758Z" transform="translate(-13488.5 -9270)" fill="#12263f"/>
    <path id="Trazado_207585" data-name="Trazado 207585" d="M0,0V92.2" transform="translate(-14208.131 -9390.197)" fill="none" stroke="#707070" stroke-linecap="round" stroke-width="2"/>
    <path id="Trazado_207586" data-name="Trazado 207586" d="M0,0V92.2" transform="translate(-13671.631 -9390.197)" fill="none" stroke="#707070" stroke-linecap="round" stroke-width="2"/>
    <path id="Trazado_207587" data-name="Trazado 207587" d="M0,0V92.2" transform="translate(-13947.631 -9390.197)" fill="none" stroke="#707070" stroke-linecap="round" stroke-width="2"/>
    <path id="Trazado_207588" data-name="Trazado 207588" d="M0,0V92.2" transform="translate(-13411.131 -9390.197)" fill="none" stroke="#707070" stroke-linecap="round" stroke-width="2"/>
    <path id="Trazado_207589" data-name="Trazado 207589" d="M0,0H796" transform="translate(-14208.5 -9390.197)" fill="none" stroke="#707070" stroke-linecap="round" stroke-width="2"/>
    <path id="Trazado_207590" data-name="Trazado 207590" d="M34.059,8.516l4.126,12.86L42.3,8.516h5.865V27H43.695V22.684l.432-8.836L39.658,27H36.712L32.231,13.835l.432,8.849V27H28.207V8.516ZM58.536,27a4.831,4.831,0,0,1-.406-1.231,3.978,3.978,0,0,1-3.3,1.485,4.874,4.874,0,0,1-3.3-1.174,3.738,3.738,0,0,1-1.358-2.952,3.842,3.842,0,0,1,1.65-3.377,8.408,8.408,0,0,1,4.8-1.143h1.32v-.727q0-1.9-1.638-1.9a1.339,1.339,0,0,0-1.523,1.505H50.5a3.835,3.835,0,0,1,1.695-3.233,7.122,7.122,0,0,1,4.323-1.243,6.245,6.245,0,0,1,4.151,1.282,4.458,4.458,0,0,1,1.562,3.517V23.89a6.227,6.227,0,0,0,.584,2.895V27Zm-2.679-2.793a2.386,2.386,0,0,0,1.327-.343,2.148,2.148,0,0,0,.755-.774v-2.2H56.695q-2.234,0-2.234,2.006a1.225,1.225,0,0,0,.394.946A1.424,1.424,0,0,0,55.857,24.207ZM77.35,20.233a8.284,8.284,0,0,1-1.441,5.11,4.62,4.62,0,0,1-3.891,1.911,3.96,3.96,0,0,1-3.11-1.384v6.411H64.629V13.264h4l.127,1.27a3.96,3.96,0,0,1,3.237-1.523,4.657,4.657,0,0,1,3.948,1.873A8.386,8.386,0,0,1,77.35,20.03Zm-4.278-.267q0-3.656-2.133-3.656A2.013,2.013,0,0,0,68.908,17.4v5.408a2.079,2.079,0,0,0,2.057,1.143q2.044,0,2.107-3.529ZM86.973,27a4.831,4.831,0,0,1-.406-1.231,3.978,3.978,0,0,1-3.3,1.485,4.874,4.874,0,0,1-3.3-1.174,3.738,3.738,0,0,1-1.358-2.952,3.842,3.842,0,0,1,1.65-3.377,8.408,8.408,0,0,1,4.8-1.143h1.32v-.727q0-1.9-1.638-1.9a1.339,1.339,0,0,0-1.523,1.505H78.937a3.835,3.835,0,0,1,1.695-3.233,7.122,7.122,0,0,1,4.323-1.243,6.245,6.245,0,0,1,4.151,1.282,4.458,4.458,0,0,1,1.562,3.517V23.89a6.227,6.227,0,0,0,.584,2.895V27Zm-2.679-2.793a2.386,2.386,0,0,0,1.327-.343,2.148,2.148,0,0,0,.755-.774v-2.2H85.132q-2.234,0-2.234,2.006a1.225,1.225,0,0,0,.394.946A1.424,1.424,0,0,0,84.294,24.207Zm21.023-.254a1.9,1.9,0,0,0,1.4-.489A1.792,1.792,0,0,0,107.2,22.1h4.012a4.749,4.749,0,0,1-1.619,3.707,6.021,6.021,0,0,1-4.17,1.447,6.1,6.1,0,0,1-4.723-1.879A7.4,7.4,0,0,1,98.97,20.17v-.178a8.367,8.367,0,0,1,.768-3.675,5.592,5.592,0,0,1,2.215-2.45,6.605,6.605,0,0,1,3.428-.857,5.945,5.945,0,0,1,4.253,1.485,5.268,5.268,0,0,1,1.574,4.024H107.2a2.348,2.348,0,0,0-.521-1.638,1.8,1.8,0,0,0-1.4-.571q-1.663,0-1.942,2.12a14.961,14.961,0,0,0-.089,1.854,5.876,5.876,0,0,0,.5,2.869A1.714,1.714,0,0,0,105.318,23.953ZM112.478,20a8.107,8.107,0,0,1,.8-3.663,5.72,5.72,0,0,1,2.3-2.469,6.92,6.92,0,0,1,3.517-.863,6.316,6.316,0,0,1,4.862,1.911,7.332,7.332,0,0,1,1.777,5.2v.152a7.113,7.113,0,0,1-1.784,5.1,6.333,6.333,0,0,1-4.831,1.885,6.4,6.4,0,0,1-4.71-1.758,6.877,6.877,0,0,1-1.917-4.767Zm4.278.267a5.111,5.111,0,0,0,.6,2.793,1.988,1.988,0,0,0,1.765.889q2.285,0,2.336-3.517V20q0-3.694-2.361-3.694-2.146,0-2.323,3.187Zm14.79-7.008.14,1.612a4.658,4.658,0,0,1,3.923-1.866,3.919,3.919,0,0,1,3.206,1.282,6.1,6.1,0,0,1,1.1,3.859V27h-4.291V18.329a2.318,2.318,0,0,0-.419-1.53,1.938,1.938,0,0,0-1.523-.489,2.04,2.04,0,0,0-1.866.99V27h-4.278V13.264Zm16.542,10.689a1.9,1.9,0,0,0,1.4-.489,1.792,1.792,0,0,0,.482-1.365h4.012a4.749,4.749,0,0,1-1.619,3.707,6.021,6.021,0,0,1-4.17,1.447,6.1,6.1,0,0,1-4.723-1.879,7.4,7.4,0,0,1-1.727-5.205v-.178a8.367,8.367,0,0,1,.768-3.675,5.592,5.592,0,0,1,2.215-2.45,6.605,6.605,0,0,1,3.428-.857A5.945,5.945,0,0,1,152.4,14.5a5.268,5.268,0,0,1,1.574,4.024h-4.012a2.348,2.348,0,0,0-.521-1.638,1.8,1.8,0,0,0-1.4-.571q-1.663,0-1.942,2.12a14.959,14.959,0,0,0-.089,1.854,5.876,5.876,0,0,0,.5,2.869A1.714,1.714,0,0,0,148.088,23.953Zm14.346,3.3a7.061,7.061,0,0,1-5.116-1.885,6.51,6.51,0,0,1-1.955-4.907v-.355a8.436,8.436,0,0,1,.781-3.72,5.713,5.713,0,0,1,2.279-2.495,6.879,6.879,0,0,1,3.555-.882,5.946,5.946,0,0,1,4.57,1.8,7.059,7.059,0,0,1,1.676,5.008v1.663h-8.506a3.084,3.084,0,0,0,1,1.815,2.984,2.984,0,0,0,2.006.66,3.845,3.845,0,0,0,3.174-1.422l1.955,2.311a5.465,5.465,0,0,1-2.266,1.758A7.658,7.658,0,0,1,162.434,27.254Zm-.482-10.943q-1.879,0-2.234,2.488h4.316v-.33a2.119,2.119,0,0,0-.521-1.593A2.071,2.071,0,0,0,161.952,16.311ZM182.7,20.233a8.284,8.284,0,0,1-1.441,5.11,4.62,4.62,0,0,1-3.891,1.911,3.96,3.96,0,0,1-3.11-1.384v6.411h-4.278V13.264h4l.127,1.27a3.96,3.96,0,0,1,3.237-1.523,4.657,4.657,0,0,1,3.948,1.873A8.386,8.386,0,0,1,182.7,20.03Zm-4.278-.267q0-3.656-2.133-3.656a2.013,2.013,0,0,0-2.031,1.092v5.408a2.079,2.079,0,0,0,2.057,1.143q2.044,0,2.107-3.529ZM189.564,9.849v3.415h2.26v2.971h-2.26v6.284a1.6,1.6,0,0,0,.279,1.079,1.5,1.5,0,0,0,1.1.3,6.276,6.276,0,0,0,1.066-.076v3.06a7.9,7.9,0,0,1-2.412.368,4.482,4.482,0,0,1-3.263-1.041,4.267,4.267,0,0,1-1.054-3.161V16.234h-1.752V13.264h1.752V9.849Zm12.124,15.666a4.411,4.411,0,0,1-3.669,1.739A4.326,4.326,0,0,1,194.6,25.94a5.526,5.526,0,0,1-1.162-3.777v-8.9h4.278v8.925a1.538,1.538,0,0,0,1.714,1.765,2.236,2.236,0,0,0,2.095-1.054V13.264h4.3V27h-4.012ZM215.907,27a4.83,4.83,0,0,1-.406-1.231,3.978,3.978,0,0,1-3.3,1.485,4.874,4.874,0,0,1-3.3-1.174,3.738,3.738,0,0,1-1.358-2.952,3.842,3.842,0,0,1,1.65-3.377,8.408,8.408,0,0,1,4.8-1.143h1.32v-.727q0-1.9-1.638-1.9a1.339,1.339,0,0,0-1.523,1.505h-4.278a3.835,3.835,0,0,1,1.695-3.233,7.122,7.122,0,0,1,4.323-1.243,6.245,6.245,0,0,1,4.151,1.282,4.458,4.458,0,0,1,1.562,3.517V23.89a6.227,6.227,0,0,0,.584,2.895V27Zm-2.679-2.793a2.386,2.386,0,0,0,1.327-.343,2.148,2.148,0,0,0,.755-.774v-2.2h-1.244q-2.234,0-2.234,2.006a1.225,1.225,0,0,0,.394.946A1.424,1.424,0,0,0,213.228,24.207ZM226.482,27h-4.291V7.5h4.291Zm5.294-4.151a2.436,2.436,0,0,1,1.688.6,2.1,2.1,0,0,1,0,3.085,2.663,2.663,0,0,1-3.383-.006,2.1,2.1,0,0,1,0-3.072A2.415,2.415,0,0,1,231.776,22.849Zm0-10.131a2.436,2.436,0,0,1,1.688.6,2.1,2.1,0,0,1,0,3.085,2.663,2.663,0,0,1-3.383-.006,2.1,2.1,0,0,1,0-3.072A2.415,2.415,0,0,1,231.776,12.718ZM247.912,27h-4.291V13.264h4.291ZM243.367,9.722a1.91,1.91,0,0,1,.66-1.5,2.807,2.807,0,0,1,3.428,0,1.91,1.91,0,0,1,.66,1.5,1.91,1.91,0,0,1-.66,1.5,2.807,2.807,0,0,1-3.428,0A1.91,1.91,0,0,1,243.367,9.722Zm11.223,3.542.14,1.612a4.723,4.723,0,0,1,3.923-1.866,3.477,3.477,0,0,1,3.517,2.069,4.571,4.571,0,0,1,4.037-2.069q4.177,0,4.291,5.053V27h-4.291V18.329a2.619,2.619,0,0,0-.355-1.536,1.513,1.513,0,0,0-1.295-.482,2.027,2.027,0,0,0-1.892,1.13l.013.178V27h-4.291V18.354a2.752,2.752,0,0,0-.343-1.562,1.509,1.509,0,0,0-1.308-.482,2.052,2.052,0,0,0-1.879,1.13V27h-4.278V13.264Zm31.1,6.97a8.284,8.284,0,0,1-1.441,5.11,4.62,4.62,0,0,1-3.891,1.911,3.96,3.96,0,0,1-3.11-1.384v6.411h-4.278V13.264h4l.127,1.27a3.96,3.96,0,0,1,3.237-1.523,4.657,4.657,0,0,1,3.948,1.873,8.386,8.386,0,0,1,1.409,5.148Zm-4.278-.267q0-3.656-2.133-3.656A2.013,2.013,0,0,0,277.25,17.4v5.408a2.079,2.079,0,0,0,2.057,1.143q2.044,0,2.107-3.529ZM292.091,27H287.8V7.5h4.291Zm9.28.254a7.061,7.061,0,0,1-5.116-1.885,6.51,6.51,0,0,1-1.955-4.907v-.355a8.436,8.436,0,0,1,.781-3.72,5.713,5.713,0,0,1,2.279-2.495,6.879,6.879,0,0,1,3.555-.882,5.946,5.946,0,0,1,4.57,1.8,7.059,7.059,0,0,1,1.676,5.008v1.663h-8.506a3.084,3.084,0,0,0,1,1.815,2.984,2.984,0,0,0,2.006.66,3.845,3.845,0,0,0,3.174-1.422l1.955,2.311a5.465,5.465,0,0,1-2.266,1.758A7.658,7.658,0,0,1,301.372,27.254Zm-.482-10.943q-1.879,0-2.234,2.488h4.316v-.33a2.119,2.119,0,0,0-.521-1.593A2.071,2.071,0,0,0,300.889,16.311Zm12.035-3.047.14,1.612a4.723,4.723,0,0,1,3.923-1.866,3.477,3.477,0,0,1,3.517,2.069,4.571,4.571,0,0,1,4.037-2.069q4.177,0,4.291,5.053V27h-4.291V18.329a2.619,2.619,0,0,0-.355-1.536,1.513,1.513,0,0,0-1.295-.482A2.027,2.027,0,0,0,321,17.44l.013.178V27H316.72V18.354a2.752,2.752,0,0,0-.343-1.562,1.509,1.509,0,0,0-1.308-.482,2.052,2.052,0,0,0-1.879,1.13V27h-4.278V13.264Zm25,13.99a7.061,7.061,0,0,1-5.116-1.885,6.51,6.51,0,0,1-1.955-4.907v-.355a8.436,8.436,0,0,1,.781-3.72,5.713,5.713,0,0,1,2.279-2.495,6.879,6.879,0,0,1,3.555-.882,5.946,5.946,0,0,1,4.57,1.8,7.059,7.059,0,0,1,1.676,5.008v1.663H335.2a3.084,3.084,0,0,0,1,1.815,2.984,2.984,0,0,0,2.006.66,3.845,3.845,0,0,0,3.174-1.422l1.955,2.311a5.465,5.465,0,0,1-2.266,1.758A7.658,7.658,0,0,1,337.921,27.254Zm-.482-10.943q-1.879,0-2.234,2.488h4.316v-.33A2.119,2.119,0,0,0,339,16.875,2.071,2.071,0,0,0,337.439,16.311Zm11.921-3.047.14,1.612a4.658,4.658,0,0,1,3.923-1.866,3.919,3.919,0,0,1,3.206,1.282,6.1,6.1,0,0,1,1.1,3.859V27h-4.291V18.329a2.318,2.318,0,0,0-.419-1.53,1.938,1.938,0,0,0-1.523-.489,2.04,2.04,0,0,0-1.866.99V27h-4.278V13.264Zm15.717-3.415v3.415h2.26v2.971h-2.26v6.284a1.6,1.6,0,0,0,.279,1.079,1.5,1.5,0,0,0,1.1.3,6.276,6.276,0,0,0,1.066-.076v3.06a7.9,7.9,0,0,1-2.412.368,4.482,4.482,0,0,1-3.263-1.041,4.267,4.267,0,0,1-1.054-3.161V16.234h-1.752V13.264H360.8V9.849ZM376.756,27a4.831,4.831,0,0,1-.406-1.231,3.978,3.978,0,0,1-3.3,1.485,4.874,4.874,0,0,1-3.3-1.174,3.738,3.738,0,0,1-1.358-2.952,3.842,3.842,0,0,1,1.65-3.377,8.408,8.408,0,0,1,4.8-1.143h1.32v-.727q0-1.9-1.638-1.9A1.339,1.339,0,0,0,373,17.486H368.72a3.835,3.835,0,0,1,1.695-3.233,7.122,7.122,0,0,1,4.323-1.243,6.245,6.245,0,0,1,4.151,1.282,4.458,4.458,0,0,1,1.562,3.517V23.89a6.227,6.227,0,0,0,.584,2.895V27Zm-2.679-2.793a2.386,2.386,0,0,0,1.327-.343,2.148,2.148,0,0,0,.755-.774v-2.2h-1.244q-2.234,0-2.234,2.006a1.225,1.225,0,0,0,.394.946A1.424,1.424,0,0,0,374.078,24.207Zm14.549-.254a1.9,1.9,0,0,0,1.4-.489,1.792,1.792,0,0,0,.482-1.365h4.012a4.749,4.749,0,0,1-1.619,3.707,6.021,6.021,0,0,1-4.17,1.447,6.1,6.1,0,0,1-4.723-1.879,7.4,7.4,0,0,1-1.727-5.205v-.178a8.367,8.367,0,0,1,.768-3.675,5.592,5.592,0,0,1,2.215-2.45,6.605,6.605,0,0,1,3.428-.857,5.945,5.945,0,0,1,4.253,1.485,5.268,5.268,0,0,1,1.574,4.024h-4.012a2.348,2.348,0,0,0-.521-1.638,1.8,1.8,0,0,0-1.4-.571q-1.663,0-1.942,2.12a14.962,14.962,0,0,0-.089,1.854,5.876,5.876,0,0,0,.5,2.869A1.714,1.714,0,0,0,388.626,23.953ZM400.839,27h-4.291V13.264h4.291ZM396.294,9.722a1.91,1.91,0,0,1,.66-1.5,2.807,2.807,0,0,1,3.428,0,1.91,1.91,0,0,1,.66,1.5,1.91,1.91,0,0,1-.66,1.5,2.807,2.807,0,0,1-3.428,0A1.91,1.91,0,0,1,396.294,9.722ZM402.934,20a8.107,8.107,0,0,1,.8-3.663,5.72,5.72,0,0,1,2.3-2.469,6.92,6.92,0,0,1,3.517-.863,6.316,6.316,0,0,1,4.862,1.911,7.332,7.332,0,0,1,1.777,5.2v.152a7.114,7.114,0,0,1-1.784,5.1,6.333,6.333,0,0,1-4.831,1.885,6.4,6.4,0,0,1-4.71-1.758,6.877,6.877,0,0,1-1.917-4.767Zm4.278.267a5.111,5.111,0,0,0,.6,2.793,1.988,1.988,0,0,0,1.765.889q2.285,0,2.336-3.517V20q0-3.694-2.361-3.694-2.145,0-2.323,3.187ZM410.132,7.5h4.52l-3.529,3.986-3.491-.006ZM422,13.264l.14,1.612a4.658,4.658,0,0,1,3.923-1.866,3.919,3.919,0,0,1,3.206,1.282,6.1,6.1,0,0,1,1.1,3.859V27h-4.291V18.329a2.318,2.318,0,0,0-.419-1.53,1.938,1.938,0,0,0-1.523-.489,2.04,2.04,0,0,0-1.866.99V27h-4.278V13.264Zm16.669,6.767a8.391,8.391,0,0,1,1.409-5.142,4.638,4.638,0,0,1,3.936-1.879,3.945,3.945,0,0,1,3.1,1.447V7.5H451.4V27h-3.847l-.216-1.473a4.051,4.051,0,0,1-3.352,1.727,4.63,4.63,0,0,1-3.885-1.879A8.657,8.657,0,0,1,438.671,20.03Zm4.278.267q0,3.656,2.133,3.656a2.106,2.106,0,0,0,2.031-1.193v-5.23a2.049,2.049,0,0,0-2.006-1.219q-1.98,0-2.146,3.2Zm17.532,6.957a7.061,7.061,0,0,1-5.116-1.885,6.51,6.51,0,0,1-1.955-4.907v-.355a8.436,8.436,0,0,1,.781-3.72,5.713,5.713,0,0,1,2.279-2.495,6.879,6.879,0,0,1,3.555-.882,5.946,5.946,0,0,1,4.57,1.8,7.059,7.059,0,0,1,1.676,5.008v1.663h-8.506a3.084,3.084,0,0,0,1,1.815,2.984,2.984,0,0,0,2.006.66,3.845,3.845,0,0,0,3.174-1.422l1.955,2.311a5.465,5.465,0,0,1-2.266,1.758A7.658,7.658,0,0,1,460.482,27.254ZM460,16.311q-1.879,0-2.234,2.488h4.316v-.33a2.119,2.119,0,0,0-.521-1.593A2.071,2.071,0,0,0,460,16.311Zm13.787,3.8a9.991,9.991,0,0,1,1.98-5.205,4.908,4.908,0,0,1,4.139-1.892,3.743,3.743,0,0,1,2.907,1.473L484.146,7.5h4.189L484.958,27h-3.72l.178-1.485A4.287,4.287,0,0,1,478,27.267a3.784,3.784,0,0,1-3.1-1.466,6.466,6.466,0,0,1-1.2-3.866,11.888,11.888,0,0,1,.051-1.562Zm4.164.292a9.97,9.97,0,0,0-.089,1.422q0,2.107,1.422,2.146a2.663,2.663,0,0,0,2.2-1.181l.939-5.269a1.691,1.691,0,0,0-1.676-1.206,2.135,2.135,0,0,0-1.885,1.009A6.51,6.51,0,0,0,477.951,20.4Zm17.2,6.6a3.724,3.724,0,0,1-.178-1.244,4.237,4.237,0,0,1-3.364,1.5,4.14,4.14,0,0,1-2.971-1.193,3.587,3.587,0,0,1-1.1-2.831A4.029,4.029,0,0,1,489.4,19.8a8.8,8.8,0,0,1,4.926-1.2l1.4.025.152-.774.051-.673a1.091,1.091,0,0,0-1.155-1.193,1.605,1.605,0,0,0-1.688,1.511l-4.189.013a3.979,3.979,0,0,1,.9-2.406,5.342,5.342,0,0,1,2.279-1.574,7.962,7.962,0,0,1,3.066-.514,6.14,6.14,0,0,1,2.736.654,4.073,4.073,0,0,1,1.758,1.714,4.378,4.378,0,0,1,.444,2.533l-1.028,6.462-.063.787a3.469,3.469,0,0,0,.241,1.6l-.013.241Zm-2.387-2.768a2.694,2.694,0,0,0,2.247-1.13l.419-2.209-1.079-.013a2.844,2.844,0,0,0-1.727.59,2.239,2.239,0,0,0-.851,1.542,1.124,1.124,0,0,0,.2.857A1,1,0,0,0,492.766,24.232ZM508.75,9.849l-.6,3.415h2.2l-.521,2.971h-2.2l-1.066,6.31a1.682,1.682,0,0,0,.083.978q.171.33.857.355a9.928,9.928,0,0,0,1.092-.063l-.3,3.1a6.75,6.75,0,0,1-2.247.317,3.7,3.7,0,0,1-2.907-1.143,3.9,3.9,0,0,1-.787-3.034l1.117-6.817h-1.7l.508-2.971h1.7l.6-3.415ZM517.446,27a3.725,3.725,0,0,1-.178-1.244,4.237,4.237,0,0,1-3.364,1.5,4.14,4.14,0,0,1-2.971-1.193,3.587,3.587,0,0,1-1.1-2.831,4.029,4.029,0,0,1,1.866-3.434,8.8,8.8,0,0,1,4.926-1.2l1.4.025.152-.774.051-.673a1.091,1.091,0,0,0-1.155-1.193,1.605,1.605,0,0,0-1.688,1.511l-4.189.013a3.979,3.979,0,0,1,.9-2.406,5.342,5.342,0,0,1,2.279-1.574,7.963,7.963,0,0,1,3.066-.514,6.14,6.14,0,0,1,2.736.654,4.073,4.073,0,0,1,1.758,1.714,4.378,4.378,0,0,1,.444,2.533l-1.028,6.462-.063.787a3.469,3.469,0,0,0,.241,1.6l-.013.241Zm-2.387-2.768a2.694,2.694,0,0,0,2.247-1.13l.419-2.209-1.079-.013a2.844,2.844,0,0,0-1.727.59,2.239,2.239,0,0,0-.851,1.542,1.124,1.124,0,0,0,.2.857A1,1,0,0,0,515.059,24.232Zm27-2.882,2.755-8.087H548.9L543.382,27h-3.517l-.787-8.1L535.46,27h-3.542l-.762-13.736h3.923l-.127,8.176,3.517-8.176h2.907ZM555.8,27a3.725,3.725,0,0,1-.178-1.244,4.237,4.237,0,0,1-3.364,1.5,4.14,4.14,0,0,1-2.971-1.193,3.587,3.587,0,0,1-1.1-2.831,4.029,4.029,0,0,1,1.866-3.434,8.8,8.8,0,0,1,4.926-1.2l1.4.025.152-.774.051-.673a1.091,1.091,0,0,0-1.155-1.193,1.605,1.605,0,0,0-1.688,1.511l-4.189.013a3.979,3.979,0,0,1,.9-2.406,5.342,5.342,0,0,1,2.279-1.574,7.963,7.963,0,0,1,3.066-.514,6.14,6.14,0,0,1,2.736.654,4.073,4.073,0,0,1,1.758,1.714,4.378,4.378,0,0,1,.444,2.533L559.7,24.372l-.063.787a3.469,3.469,0,0,0,.241,1.6l-.013.241Zm-2.387-2.768a2.694,2.694,0,0,0,2.247-1.13l.419-2.209L555,20.881a2.844,2.844,0,0,0-1.727.59,2.239,2.239,0,0,0-.851,1.542,1.124,1.124,0,0,0,.2.857A1,1,0,0,0,553.412,24.232Zm18.065-7.1a11.949,11.949,0,0,0-1.295-.127,3.225,3.225,0,0,0-2.869,1.295L565.764,27h-4.177l2.387-13.736,3.9-.013-.317,1.8a3.813,3.813,0,0,1,3.174-2.082,5.986,5.986,0,0,1,1.295.178Zm6.6,10.118a6.385,6.385,0,0,1-3.282-.87A5.479,5.479,0,0,1,572.62,24a6.413,6.413,0,0,1-.584-3.371l.038-.355a8.42,8.42,0,0,1,2.355-5.364,6.515,6.515,0,0,1,4.932-1.9,5.312,5.312,0,0,1,3.021.9,5.009,5.009,0,0,1,1.841,2.4,7.359,7.359,0,0,1,.381,3.439l-.241,1.742h-8.176a2.678,2.678,0,0,0,.609,1.752,2.238,2.238,0,0,0,1.7.711,4.323,4.323,0,0,0,3.263-1.4l1.752,2.317a5.169,5.169,0,0,1-2.165,1.728,7.6,7.6,0,0,1-3.041.652Zm1.016-10.943a2.148,2.148,0,0,0-1.542.556,4.664,4.664,0,0,0-1.136,1.945h4.177l.076-.366a2.786,2.786,0,0,0,.025-.834A1.47,1.47,0,0,0,579.094,16.311Zm12.061-1.549A4.488,4.488,0,0,1,594.7,13a3.57,3.57,0,0,1,3.066,1.511,5.751,5.751,0,0,1,.717,3.961L597.058,27h-4.177l1.435-8.592a4.448,4.448,0,0,0,.025-.813,1.269,1.269,0,0,0-1.4-1.3,2.7,2.7,0,0,0-2.006.826L589.187,27H585.01L588.4,7.5h4.177Zm16.326-1.752a5.769,5.769,0,0,1,3.187.92,5.185,5.185,0,0,1,1.974,2.495,7.7,7.7,0,0,1,.451,3.555l-.025.279a8.141,8.141,0,0,1-2.349,5.1,6.608,6.608,0,0,1-4.926,1.892,5.745,5.745,0,0,1-3.161-.908,5.218,5.218,0,0,1-1.974-2.469,7.481,7.481,0,0,1-.463-3.529,8.468,8.468,0,0,1,2.317-5.383A6.567,6.567,0,0,1,607.481,13.01Zm-3.11,7.344-.038.748q-.178,2.826,1.727,2.877,2.463.076,2.856-3.992l.051-1.153a3.113,3.113,0,0,0-.425-1.819,1.55,1.55,0,0,0-1.327-.7,2.184,2.184,0,0,0-1.9.944A6.179,6.179,0,0,0,604.371,20.354ZM622.258,25.5a4.546,4.546,0,0,1-3.707,1.765,3.6,3.6,0,0,1-3.041-1.409,5.2,5.2,0,0,1-.793-3.707l1.485-8.887h4.177l-1.511,8.948a2.982,2.982,0,0,0,0,.674,1.106,1.106,0,0,0,1.231,1.08,2.7,2.7,0,0,0,2.247-1.042l1.7-9.66h4.2L625.864,27h-3.885Zm13.6-2.437q.165-.838-1.295-1.257l-.9-.229a6.941,6.941,0,0,1-3.237-1.638,3.242,3.242,0,0,1-.965-2.5,3.984,3.984,0,0,1,1.758-3.218,6.692,6.692,0,0,1,4.132-1.212,6.2,6.2,0,0,1,3.929,1.231,4.017,4.017,0,0,1,1.53,3.25l-4.164-.013q.051-1.625-1.435-1.625a2.046,2.046,0,0,0-1.181.375,1.455,1.455,0,0,0-.647,1q-.216,1.028,1.815,1.409a10.551,10.551,0,0,1,2.729.971A4.075,4.075,0,0,1,639.4,20.97a3.394,3.394,0,0,1,.47,1.955,3.671,3.671,0,0,1-.812,2.222,5.261,5.261,0,0,1-2.241,1.562,8.026,8.026,0,0,1-3.18.546,6.455,6.455,0,0,1-2.761-.622,4.923,4.923,0,0,1-1.993-1.657,4.3,4.3,0,0,1-.743-2.406l3.885.025a1.6,1.6,0,0,0,1.828,1.8,2.4,2.4,0,0,0,1.32-.349A1.51,1.51,0,0,0,635.855,23.064Zm12.137,4.189a6.385,6.385,0,0,1-3.282-.87A5.479,5.479,0,0,1,642.533,24a6.413,6.413,0,0,1-.584-3.371l.038-.355a8.42,8.42,0,0,1,2.355-5.364,6.515,6.515,0,0,1,4.932-1.9,5.312,5.312,0,0,1,3.021.9,5.009,5.009,0,0,1,1.841,2.4,7.359,7.359,0,0,1,.381,3.439l-.241,1.742H646.1a2.678,2.678,0,0,0,.609,1.752,2.238,2.238,0,0,0,1.7.711,4.323,4.323,0,0,0,3.263-1.4l1.752,2.317a5.169,5.169,0,0,1-2.165,1.728,7.6,7.6,0,0,1-3.041.652Zm1.016-10.943a2.148,2.148,0,0,0-1.542.556,4.664,4.664,0,0,0-1.136,1.945h4.177l.076-.366a2.786,2.786,0,0,0,.025-.834A1.47,1.47,0,0,0,649.007,16.311Z" transform="translate(-14153 -9758)" fill="#12263f"/>
  </g>
</svg>
